<?xml version="1.0" encoding="UTF-8" standalone="no"?>
<!-- Created with Inkscape (http://www.inkscape.org/) -->

<svg
   width="30.648375mm"
   height="9.9168863mm"
   viewBox="0 0 30.648375 9.916887"
   version="1.1"
   id="svg1"
   inkscape:version="1.3 (0e150ed6c4, 2023-07-21)"
   sodipodi:docname="DC_expbranch.svg"
   inkscape:export-filename="DC_Nybranch.pdf"
   inkscape:export-xdpi="96"
   inkscape:export-ydpi="96"
   xmlns:inkscape="http://www.inkscape.org/namespaces/inkscape"
   xmlns:sodipodi="http://sodipodi.sourceforge.net/DTD/sodipodi-0.dtd"
   xmlns="http://www.w3.org/2000/svg"
   xmlns:svg="http://www.w3.org/2000/svg">
  <sodipodi:namedview
     id="namedview1"
     pagecolor="#ffffff"
     bordercolor="#000000"
     borderopacity="0.25"
     inkscape:showpageshadow="2"
     inkscape:pageopacity="0.0"
     inkscape:pagecheckerboard="0"
     inkscape:deskcolor="#d1d1d1"
     inkscape:document-units="mm"
     showgrid="true"
     inkscape:zoom="2.8284272"
     inkscape:cx="37.830212"
     inkscape:cy="-12.904699"
     inkscape:window-width="1920"
     inkscape:window-height="1009"
     inkscape:window-x="-8"
     inkscape:window-y="-8"
     inkscape:window-maximized="1"
     inkscape:current-layer="layer1"
     inkscape:export-bgcolor="#ffffff00">
    <inkscape:grid
       id="grid1"
       units="mm"
       originx="-92.30152"
       originy="-107.09181"
       spacingx="0.99999998"
       spacingy="1"
       empcolor="#0099e5"
       empopacity="0.30196078"
       color="#0099e5"
       opacity="0.14901961"
       empspacing="5"
       dotted="false"
       gridanglex="30"
       gridanglez="30"
       visible="true" />
  </sodipodi:namedview>
  <defs
     id="defs1">
    <rect
       x="37.476658"
       y="29.168154"
       width="122.32947"
       height="27.930717"
       id="rect1" />
    <marker
       inkscape:isstock="true"
       style="overflow:visible"
       id="TriangleInM-6"
       refX="0"
       refY="0"
       orient="auto"
       inkscape:stockid="TriangleInM">
      <path
         transform="scale(-0.4)"
         style="fill:context-stroke;fill-rule:evenodd;stroke:context-stroke;stroke-width:1pt"
         d="M 5.77,0 -2.88,5 V -5 Z"
         id="path5871-2"
         inkscape:connector-curvature="0" />
    </marker>
    <marker
       inkscape:stockid="TriangleInM"
       orient="auto"
       refY="0"
       refX="0"
       id="marker14281-6"
       style="overflow:visible"
       inkscape:isstock="true">
      <path
         id="path14279-0"
         d="M 5.77,0 -2.88,5 V -5 Z"
         style="fill:context-stroke;fill-rule:evenodd;stroke:context-stroke;stroke-width:1pt"
         transform="scale(-0.4)"
         inkscape:connector-curvature="0" />
    </marker>
    <marker
       inkscape:stockid="TriangleInM"
       orient="auto"
       refY="0"
       refX="0"
       id="marker14281-6-2"
       style="overflow:visible"
       inkscape:isstock="true">
      <path
         id="path14279-0-1"
         d="M 5.77,0 -2.88,5 V -5 Z"
         style="fill:context-stroke;fill-rule:evenodd;stroke:context-stroke;stroke-width:1pt"
         transform="scale(-0.4)"
         inkscape:connector-curvature="0" />
    </marker>
    <marker
       inkscape:stockid="TriangleInM"
       orient="auto"
       refY="0"
       refX="0"
       id="marker14281-6-3"
       style="overflow:visible"
       inkscape:isstock="true">
      <path
         id="path14279-0-3"
         d="M 5.77,0 -2.88,5 V -5 Z"
         style="fill:context-stroke;fill-rule:evenodd;stroke:context-stroke;stroke-width:1pt"
         transform="scale(-0.4)"
         inkscape:connector-curvature="0" />
    </marker>
  </defs>
  <g
     inkscape:label="Layer 1"
     inkscape:groupmode="layer"
     id="layer1"
     transform="translate(-24.421444,-28.334709)">
    <path
       style="color:#000000;fill:#000000;stroke-linecap:round;stroke-linejoin:round;-inkscape-stroke:none"
       d="m 32.505859,30.410156 a 0.08879338,0.08879338 0 0 0 -0.08984,0.08789 v 5.589844 a 0.08879338,0.08879338 0 0 0 0.08984,0.08789 h 14.480469 a 0.08879338,0.08879338 0 0 0 0.08789,-0.08789 v -5.589844 a 0.08879338,0.08879338 0 0 0 -0.08789,-0.08789 z m 0.08789,0.177735 h 14.304687 v 5.410156 H 32.59375 Z"
       id="rect10042" />
    <g
       id="g12"
       transform="translate(-0.16222578,4.2333335)">
      <g
         id="path5718-7-5">
        <path
           style="color:#000000;fill:#000000;stroke-linecap:round;stroke-linejoin:round;-inkscape-stroke:none"
           d="m 28.894531,27.658203 a 0.0503335,0.0503335 0 0 0 -0.04883,0.05078 0.0503335,0.0503335 0 0 0 0.04883,0.04883 h 2.482422 a 0.0503335,0.0503335 0 0 0 0.05078,-0.04883 0.0503335,0.0503335 0 0 0 -0.05078,-0.05078 z"
           id="path24" />
        <g
           id="g21">
          <g
             id="path21">
            <path
               style="color:#000000;fill:#000000;fill-rule:evenodd;-inkscape-stroke:none"
               d="m 31.609159,27.708242 -0.348307,0.201334 v -0.402668 z"
               id="path22" />
            <path
               style="color:#000000;fill:#000000;fill-rule:evenodd;-inkscape-stroke:none"
               d="m 31.234375,27.460937 v 0.496094 l 0.427734,-0.248047 -0.03906,-0.02344 z m 0.05273,0.0918 0.267578,0.15625 -0.267578,0.154297 z"
               id="path23" />
          </g>
        </g>
      </g>
      <g
         id="path5718-7-5-2">
        <path
           style="color:#000000;fill:#000000;stroke-linecap:round;stroke-linejoin:round;-inkscape-stroke:none"
           d="m 48.439453,27.658203 a 0.0503335,0.0503335 0 0 0 -0.05078,0.05078 0.0503335,0.0503335 0 0 0 0.05078,0.04883 h 2.480469 a 0.0503335,0.0503335 0 0 0 0.05078,-0.04883 0.0503335,0.0503335 0 0 0 -0.05078,-0.05078 z"
           id="path28" />
        <g
           id="g25">
          <g
             id="path25">
            <path
               style="color:#000000;fill:#000000;fill-rule:evenodd;-inkscape-stroke:none"
               d="m 48.206555,27.708242 0.348307,-0.201334 v 0.402668 z"
               id="path26" />
            <path
               style="color:#000000;fill:#000000;fill-rule:evenodd;-inkscape-stroke:none"
               d="m 48.582031,27.460937 -0.429687,0.248047 0.04102,0.02344 0.388672,0.224609 z m -0.05469,0.0918 v 0.310547 l -0.265625,-0.154297 z"
               id="path27" />
          </g>
        </g>
      </g>
    </g>
    <text
       xml:space="preserve"
       style="font-style:normal;font-variant:normal;font-weight:normal;font-stretch:normal;font-size:1.05833px;font-family:NewComputerModernSans10;-inkscape-font-specification:NewComputerModernSans10;font-variant-ligatures:normal;font-variant-caps:normal;font-variant-numeric:normal;font-variant-east-asian:normal;fill:#000000;stroke:#000000;stroke-width:0.264999;stroke-linecap:square;stroke-dasharray:none"
       x="36.268742"
       y="31.091112"
       id="text8"><tspan
         sodipodi:role="line"
         id="tspan8"
         style="stroke-width:0.265"
         x="36.268742"
         y="31.091112" /></text>
    <path
       id="rect12"
       style="fill:none;stroke-width:0.0561512;stroke-linecap:square;stroke-dasharray:0.112302, 0.224605"
       d="m 24.421444,28.334709 h 30.648374 v 9.916886 H 24.421444 Z" />
    <g
       id="text13635-7"
       style="font-size:1.41111px;line-height:1.25;font-family:NewComputerModernSans10;-inkscape-font-specification:'NewComputerModernSans10, Normal';letter-spacing:0px;word-spacing:0px;stroke-width:0.264583"
       aria-label="Pdf-eq">
      <path
         d="m 28.540399,30.87003 c 0.08467,0 0.159455,-0.02681 0.222955,-0.07902 0.06773,-0.05503 0.1016,-0.125589 0.1016,-0.208845 0,-0.08608 -0.03528,-0.156633 -0.105833,-0.211666 -0.06491,-0.0508 -0.141111,-0.0762 -0.2286,-0.0762 h -0.351367 v 0.97931 H 28.31321 V 30.87003 Z m 0.200377,-0.287867 c 0,0.125589 -0.110066,0.196145 -0.2413,0.196145 h -0.190499 v -0.395111 h 0.190499 c 0.134056,0 0.2413,0.07056 0.2413,0.198966 z"
         id="path1" />
      <path
         style="font-size:65%;baseline-shift:sub"
         d="m 29.266415,31.555829 h 0.07705 v -0.636551 h -0.0743 v 0.262325 c -0.03944,-0.03027 -0.08163,-0.04586 -0.128411,-0.04586 -0.05045,0 -0.0908,0.02385 -0.12199,0.07246 -0.0266,0.04127 -0.04036,0.08897 -0.04036,0.143087 0,0.05228 0.01284,0.09998 0.03852,0.141252 0.03027,0.04861 0.06971,0.07338 0.120156,0.07338 0.0477,0 0.0908,-0.01743 0.129329,-0.05228 z m -0.09264,-0.05228 c -0.07705,0 -0.118321,-0.06971 -0.118321,-0.151342 0,-0.0853 0.04494,-0.153176 0.127493,-0.153176 0.03394,0 0.06145,0.01559 0.08347,0.04678 v 0.180693 c 0,0.04128 -0.05136,0.07705 -0.09264,0.07705 z m 0.336621,-0.435681 v 0.07796 h -0.06604 v 0.05962 h 0.06604 v 0.350378 h 0.07429 v -0.350378 h 0.09814 v -0.05962 h -0.100894 v -0.104563 c 0,-0.02935 0.01101,-0.04861 0.0321,-0.0587 0.01559,-0.0073 0.0321,-0.01101 0.04769,-0.01101 0.02477,0 0.04953,0.0055 0.07613,0.01743 v -0.06879 c -0.02843,-0.0073 -0.0532,-0.01101 -0.07521,-0.01101 -0.08897,0 -0.152258,0.06971 -0.152258,0.158679 z m 0.199954,0.310939 h 0.243063 v -0.0532 H 29.71035 Z m 0.398074,-0.02018 h 0.277001 c 0,-0.126577 -0.04678,-0.225637 -0.163266,-0.225637 -0.05412,0 -0.09906,0.02293 -0.134831,0.06879 -0.03302,0.04219 -0.04953,0.0908 -0.04953,0.146755 0,0.0587 0.01834,0.10915 0.05412,0.151342 0.03761,0.04403 0.0853,0.06604 0.143087,0.06604 0.0532,0 0.101811,-0.01651 0.146755,-0.04861 l -0.0055,-0.06787 c -0.04403,0.03577 -0.0908,0.05412 -0.140335,0.05412 -0.0743,0 -0.124742,-0.06971 -0.127494,-0.144921 z m 0.218299,-0.05687 H 30.11301 c 0.01192,-0.05136 0.05228,-0.106398 0.109149,-0.106398 0.06145,0 0.09539,0.04953 0.104564,0.106398 z m 0.289842,-0.163266 c -0.05228,0 -0.09447,0.02385 -0.127494,0.07063 -0.02843,0.04219 -0.04311,0.0908 -0.04311,0.144921 0,0.05228 0.01284,0.09906 0.03761,0.140334 0.02935,0.04861 0.06879,0.07338 0.118321,0.07338 0.04861,0 0.09264,-0.01651 0.13208,-0.05045 v 0.216464 h 0.07705 v -0.595277 h -0.07429 v 0.05595 c -0.02385,-0.02752 -0.07063,-0.05595 -0.120156,-0.05595 z m -0.09356,0.215548 c 0,-0.03852 0.01101,-0.07246 0.03394,-0.101812 0.02477,-0.0321 0.05595,-0.04861 0.09356,-0.04861 0.04861,0 0.08622,0.04861 0.08622,0.09723 v 0.126576 c 0,0.01009 -0.0028,0.02018 -0.0092,0.02843 -0.02201,0.03302 -0.05045,0.04953 -0.0853,0.04953 -0.07154,0 -0.119239,-0.07613 -0.119239,-0.151341 z"
         id="path2" />
    </g>
    <g
       id="text13635-7-9"
       style="font-size:1.41111px;line-height:1.25;font-family:NewComputerModernSans10;-inkscape-font-specification:'NewComputerModernSans10, Normal';letter-spacing:0px;word-spacing:0px;stroke-width:0.264583"
       aria-label="Pfd-eq">
      <path
         d="m 48.805373,30.936175 c 0.08467,0 0.159456,-0.02681 0.222956,-0.07902 0.06773,-0.05503 0.101599,-0.125589 0.101599,-0.208845 0,-0.08608 -0.03528,-0.156633 -0.105833,-0.211666 -0.06491,-0.0508 -0.141111,-0.0762 -0.2286,-0.0762 h -0.351366 v 0.97931 h 0.134055 v -0.403577 z m 0.200378,-0.287867 c 0,0.125589 -0.110067,0.196145 -0.2413,0.196145 h -0.1905 v -0.395111 h 0.1905 c 0.134055,0 0.2413,0.07055 0.2413,0.198966 z"
         id="path3" />
      <path
         style="font-size:65%;baseline-shift:sub"
         d="m 49.301167,31.134012 v 0.07796 h -0.06604 v 0.05962 h 0.06604 v 0.350378 h 0.07429 v -0.350378 h 0.09814 v -0.05962 H 49.37271 v -0.104563 c 0,-0.02935 0.01101,-0.04861 0.0321,-0.0587 0.01559,-0.0073 0.0321,-0.01101 0.0477,-0.01101 0.02476,0 0.04953,0.0055 0.07613,0.01743 v -0.06879 c -0.02843,-0.0073 -0.0532,-0.01101 -0.07521,-0.01101 -0.08897,0 -0.152258,0.06971 -0.152258,0.158679 z m 0.510892,0.487962 h 0.07705 v -0.636552 h -0.07429 v 0.262326 c -0.03944,-0.03027 -0.08163,-0.04586 -0.128411,-0.04586 -0.05045,0 -0.09081,0.02385 -0.12199,0.07246 -0.0266,0.04128 -0.04036,0.08897 -0.04036,0.143087 0,0.05228 0.01284,0.09998 0.03852,0.141252 0.03027,0.04861 0.06971,0.07338 0.120156,0.07338 0.0477,0 0.09081,-0.01743 0.129329,-0.05228 z m -0.09264,-0.05228 c -0.07705,0 -0.118321,-0.06971 -0.118321,-0.151342 0,-0.0853 0.04494,-0.153176 0.127494,-0.153176 0.03394,0 0.06145,0.01559 0.08347,0.04678 v 0.180693 c 0,0.04127 -0.05136,0.07705 -0.09264,0.07705 z m 0.255905,-0.124743 h 0.243064 v -0.0532 h -0.243064 z m 0.398075,-0.02018 H 50.6504 c 0,-0.126577 -0.04678,-0.225637 -0.163266,-0.225637 -0.05412,0 -0.09906,0.02293 -0.134831,0.06879 -0.03302,0.04219 -0.04953,0.0908 -0.04953,0.146755 0,0.0587 0.01834,0.10915 0.05412,0.151342 0.03761,0.04403 0.0853,0.06604 0.143086,0.06604 0.0532,0 0.101812,-0.01651 0.146756,-0.04861 l -0.0055,-0.06787 c -0.04403,0.03577 -0.09081,0.05412 -0.140335,0.05412 -0.07429,0 -0.124742,-0.06971 -0.127493,-0.144921 z m 0.218298,-0.05687 h -0.213712 c 0.01192,-0.05137 0.05228,-0.106398 0.109149,-0.106398 0.06145,0 0.09539,0.04953 0.104563,0.106398 z m 0.289842,-0.163266 c -0.05228,0 -0.09447,0.02385 -0.127493,0.07063 -0.02843,0.04219 -0.04311,0.0908 -0.04311,0.144921 0,0.05228 0.01284,0.09906 0.03761,0.140335 0.02935,0.04861 0.06879,0.07338 0.118322,0.07338 0.04861,0 0.09264,-0.01651 0.13208,-0.05045 v 0.216464 h 0.07705 v -0.595277 h -0.07429 v 0.05595 c -0.02385,-0.02752 -0.07063,-0.05595 -0.120156,-0.05595 z m -0.09356,0.215547 c 0,-0.03852 0.01101,-0.07246 0.03394,-0.101811 0.02477,-0.0321 0.05595,-0.04861 0.09356,-0.04861 0.04861,0 0.08622,0.04861 0.08622,0.09723 v 0.126576 c 0,0.01009 -0.0028,0.02018 -0.0092,0.02843 -0.02201,0.03302 -0.05045,0.04953 -0.0853,0.04953 -0.07154,0 -0.119239,-0.07613 -0.119239,-0.151342 z"
         id="path4" />
    </g>
    <g
       id="path2-5">
      <path
         style="color:#000000;fill:#000000;stroke-linecap:square;-inkscape-stroke:none"
         d="m 32.278538,33.288653 -10.674249,0.009"
         id="path29" />
      <path
         style="color:#000000;fill:#000000;stroke-linecap:square;-inkscape-stroke:none"
         d="m 32.279297,33.150391 -10.675781,0.0098 h -0.136719 v 0.275391 h 0.136719 l 10.675781,-0.0098 h 0.136719 v -0.27539 z"
         id="path30" />
    </g>
    <g
       id="path2-5-7">
      <path
         style="color:#000000;fill:#000000;stroke-linecap:square;-inkscape-stroke:none"
         d="m 57.886966,33.288653 -10.674249,0.009"
         id="path31" />
      <path
         style="color:#000000;fill:#000000;stroke-linecap:square;-inkscape-stroke:none"
         d="m 57.886719,33.150391 -10.673828,0.0098 h -0.138672 l 0.002,0.275391 h 0.136719 l 10.673828,-0.0098 h 0.138672 l -0.002,-0.27539 z"
         id="path32" />
    </g>
    <g
       id="text5191-0-9-3"
       style="font-size:1.41111px;line-height:1.25;font-family:NewComputerModernSans10;-inkscape-font-specification:'NewComputerModernSans10, Normal';letter-spacing:0px;word-spacing:0px;stroke-width:0.264583"
       aria-label="Ud">
      <path
         d="m 28.35665,35.782854 c -0.141111,0 -0.222955,-0.124178 -0.222955,-0.270933 v -0.650522 h -0.134056 v 0.649111 c 0,0.100189 0.03387,0.184855 0.103011,0.255411 0.06914,0.07055 0.1524,0.105833 0.252589,0.105833 0.09878,0 0.182033,-0.03528 0.248355,-0.105833 0.06632,-0.07056 0.100189,-0.155222 0.100189,-0.255411 v -0.649111 h -0.119944 v 0.650522 c 0,0.148167 -0.08608,0.270933 -0.227189,0.270933 z"
         id="path5" />
      <path
         style="baseline-shift:sub"
         d="m 29.331727,36.122932 h 0.118533 v -0.979311 h -0.1143 v 0.403578 c -0.06068,-0.04657 -0.125589,-0.07056 -0.197555,-0.07056 -0.07761,0 -0.1397,0.03669 -0.187678,0.111478 -0.04092,0.0635 -0.06209,0.136878 -0.06209,0.220133 0,0.08043 0.01976,0.153811 0.05927,0.217311 0.04657,0.07479 0.107244,0.112889 0.184855,0.112889 0.07338,0 0.1397,-0.02681 0.198967,-0.08043 z m -0.142522,-0.08043 c -0.118534,0 -0.182034,-0.107244 -0.182034,-0.232833 0,-0.131233 0.06914,-0.235655 0.196145,-0.235655 0.05221,0 0.09454,0.02399 0.128411,0.07197 v 0.277989 c 0,0.0635 -0.07902,0.118533 -0.142522,0.118533 z"
         id="path6" />
    </g>
    <g
       id="text5191-0-9-3-2"
       style="font-size:1.41111px;line-height:1.25;font-family:NewComputerModernSans10;-inkscape-font-specification:'NewComputerModernSans10, Normal';letter-spacing:0px;word-spacing:0px;stroke-width:0.264583"
       aria-label="Uf">
      <path
         d="m 49.65783,35.736086 c -0.141111,0 -0.222955,-0.124178 -0.222955,-0.270933 v -0.650522 h -0.134056 v 0.649111 c 0,0.100189 0.03387,0.184855 0.103011,0.255411 0.06914,0.07055 0.1524,0.105833 0.252589,0.105833 0.09878,0 0.182033,-0.03528 0.248355,-0.105833 0.06632,-0.07056 0.100189,-0.155222 0.100189,-0.255411 v -0.649111 h -0.119944 v 0.650522 c 0,0.148166 -0.08608,0.270933 -0.227189,0.270933 z"
         id="path7" />
      <path
         style="baseline-shift:sub"
         d="m 50.278718,35.325453 v 0.119944 h -0.1016 v 0.09172 h 0.1016 v 0.539045 h 0.1143 v -0.539045 h 0.150989 v -0.09172 h -0.155222 v -0.160866 c 0,-0.04516 0.01693,-0.07479 0.04939,-0.09031 0.02399,-0.01129 0.04939,-0.01693 0.07338,-0.01693 0.0381,0 0.0762,0.0085 0.117122,0.02681 v -0.105833 c -0.04374,-0.01129 -0.08184,-0.01693 -0.115711,-0.01693 -0.136877,0 -0.234244,0.107244 -0.234244,0.244122 z"
         id="path8" />
    </g>
    <g
       id="g18"
       transform="translate(0.00206463)">
      <g
         id="g16"
         transform="translate(3.7041668)">
        <path
           style="color:#000000;fill:#000000;stroke-linecap:round;stroke-dasharray:0.0852114, 0.170423;-inkscape-stroke:none"
           d="m 23.693359,33.4375 a 0.02130285,0.02130285 0 0 0 -0.02148,0.01953 v 0.08594 a 0.02130285,0.02130285 0 0 0 0.02148,0.02148 0.02130285,0.02130285 0 0 0 0.01953,-0.02148 v -0.08594 a 0.02130285,0.02130285 0 0 0 -0.01953,-0.01953 z m 0,0.253906 a 0.02130285,0.02130285 0 0 0 -0.02148,0.02148 v 0.08594 a 0.02130285,0.02130285 0 0 0 0.02148,0.02148 0.02130285,0.02130285 0 0 0 0.01953,-0.02148 v -0.08594 a 0.02130285,0.02130285 0 0 0 -0.01953,-0.02148 z m 0,0.25586 a 0.02130285,0.02130285 0 0 0 -0.02148,0.02148 v 0.08594 a 0.02130285,0.02130285 0 0 0 0.02148,0.02148 0.02130285,0.02130285 0 0 0 0.01953,-0.02148 v -0.08594 a 0.02130285,0.02130285 0 0 0 -0.01953,-0.02148 z m 0,0.255859 a 0.02130285,0.02130285 0 0 0 -0.02148,0.02148 v 0.08594 a 0.02130285,0.02130285 0 0 0 0.02148,0.02148 0.02130285,0.02130285 0 0 0 0.01953,-0.02148 v -0.08594 a 0.02130285,0.02130285 0 0 0 -0.01953,-0.02148 z m 0,0.255859 a 0.02130285,0.02130285 0 0 0 -0.02148,0.02148 v 0.08594 a 0.02130285,0.02130285 0 0 0 0.02148,0.02148 0.02130285,0.02130285 0 0 0 0.01953,-0.02148 v -0.08594 a 0.02130285,0.02130285 0 0 0 -0.01953,-0.02148 z m 0,0.25586 a 0.02130285,0.02130285 0 0 0 -0.02148,0.02148 v 0.08594 a 0.02130285,0.02130285 0 0 0 0.02148,0.01953 0.02130285,0.02130285 0 0 0 0.01953,-0.01953 v -0.08594 a 0.02130285,0.02130285 0 0 0 -0.01953,-0.02148 z m 0,0.255859 a 0.02130285,0.02130285 0 0 0 -0.02148,0.02148 v 0.08398 a 0.02130285,0.02130285 0 0 0 0.02148,0.02148 0.02130285,0.02130285 0 0 0 0.01953,-0.02148 v -0.08398 a 0.02130285,0.02130285 0 0 0 -0.01953,-0.02148 z m 0,0.255859 a 0.02130285,0.02130285 0 0 0 -0.02148,0.02148 v 0.08398 a 0.02130285,0.02130285 0 0 0 0.02148,0.02148 0.02130285,0.02130285 0 0 0 0.01953,-0.02148 v -0.08398 a 0.02130285,0.02130285 0 0 0 -0.01953,-0.02148 z m 0,0.25586 a 0.02130285,0.02130285 0 0 0 -0.02148,0.02148 v 0.08398 a 0.02130285,0.02130285 0 0 0 0.02148,0.02148 0.02130285,0.02130285 0 0 0 0.01953,-0.02148 v -0.08398 a 0.02130285,0.02130285 0 0 0 -0.01953,-0.02148 z m 0,0.255859 a 0.02130285,0.02130285 0 0 0 -0.02148,0.01953 v 0.08594 a 0.02130285,0.02130285 0 0 0 0.02148,0.02148 0.02130285,0.02130285 0 0 0 0.01953,-0.02148 v -0.08594 a 0.02130285,0.02130285 0 0 0 -0.01953,-0.01953 z m 0,0.253906 a 0.02130285,0.02130285 0 0 0 -0.02148,0.02148 v 0.08594 a 0.02130285,0.02130285 0 0 0 0.02148,0.02148 0.02130285,0.02130285 0 0 0 0.01953,-0.02148 v -0.08594 a 0.02130285,0.02130285 0 0 0 -0.01953,-0.02148 z m 0,0.25586 a 0.02130285,0.02130285 0 0 0 -0.02148,0.02148 v 0.08594 a 0.02130285,0.02130285 0 0 0 0.02148,0.02148 0.02130285,0.02130285 0 0 0 0.01953,-0.02148 v -0.08594 a 0.02130285,0.02130285 0 0 0 -0.01953,-0.02148 z m 0,0.255859 a 0.02130285,0.02130285 0 0 0 -0.02148,0.02148 v 0.08594 a 0.02130285,0.02130285 0 0 0 0.02148,0.02148 0.02130285,0.02130285 0 0 0 0.01953,-0.02148 v -0.08594 a 0.02130285,0.02130285 0 0 0 -0.01953,-0.02148 z m 0,0.25586 a 0.02130285,0.02130285 0 0 0 -0.02148,0.02148 v 0.08594 a 0.02130285,0.02130285 0 0 0 0.02148,0.02148 0.02130285,0.02130285 0 0 0 0.01953,-0.02148 v -0.08594 a 0.02130285,0.02130285 0 0 0 -0.01953,-0.02148 z m 0,0.255859 a 0.02130285,0.02130285 0 0 0 -0.02148,0.02148 v 0.08398 a 0.02130285,0.02130285 0 0 0 0.02148,0.02148 0.02130285,0.02130285 0 0 0 0.01953,-0.02148 v -0.08398 a 0.02130285,0.02130285 0 0 0 -0.01953,-0.02148 z m 0,0.255859 a 0.02130285,0.02130285 0 0 0 -0.02148,0.02148 v 0.08398 a 0.02130285,0.02130285 0 0 0 0.02148,0.02148 0.02130285,0.02130285 0 0 0 0.01953,-0.02148 v -0.08398 a 0.02130285,0.02130285 0 0 0 -0.01953,-0.02148 z m 0,0.25586 a 0.02130285,0.02130285 0 0 0 -0.02148,0.02148 v 0.08398 a 0.02130285,0.02130285 0 0 0 0.02148,0.02148 0.02130285,0.02130285 0 0 0 0.01953,-0.02148 v -0.08398 a 0.02130285,0.02130285 0 0 0 -0.01953,-0.02148 z"
           id="path5293-3-6" />
        <g
           id="rect10042-4-5"
           transform="rotate(-90)">
          <path
             style="color:#000000;fill:#000000;stroke-linecap:round;stroke-linejoin:round;-inkscape-stroke:none"
             d="m -33.890537,23.566418 h 1.194766 v 0.252053 h -1.194766 z"
             id="path33" />
          <path
             style="color:#000000;fill:#000000;stroke-linecap:round;stroke-linejoin:round;-inkscape-stroke:none"
             d="m -33.890625,23.552734 a 0.01374212,0.01374212 0 0 0 -0.01367,0.01367 v 0.251953 a 0.01374212,0.01374212 0 0 0 0.01367,0.01367 h 1.195313 a 0.01374212,0.01374212 0 0 0 0.01367,-0.01367 v -0.251953 a 0.01374212,0.01374212 0 0 0 -0.01367,-0.01367 z m 0.01367,0.02734 h 1.167969 v 0.224609 h -1.167969 z"
             id="path34" />
        </g>
        <g
           id="use8544-1"
           transform="matrix(0.44556387,0,0,0.44556387,7.128476,-5.9196869)">
          <title
             id="title2-2">GND</title>
          <path
             style="color:#000000;fill:#000000;stroke-linecap:round;-inkscape-stroke:none"
             d="m 35.851562,97.769531 a 0.1322915,0.1322915 0 0 0 -0.130859,0.13086 0.1322915,0.1322915 0 0 0 0.130859,0.132812 h 2.646485 a 0.1322915,0.1322915 0 0 0 0.132812,-0.132812 0.1322915,0.1322915 0 0 0 -0.132812,-0.13086 z"
             id="path3-9" />
          <path
             style="color:#000000;fill:#000000;stroke-linecap:round;-inkscape-stroke:none"
             d="M 36.380859,98.298828 A 0.1322915,0.1322915 0 0 0 36.25,98.429687 0.1322915,0.1322915 0 0 0 36.380859,98.5625 h 1.587891 a 0.1322915,0.1322915 0 0 0 0.132812,-0.132813 0.1322915,0.1322915 0 0 0 -0.132812,-0.130859 z"
             id="path4-1" />
          <path
             style="color:#000000;fill:#000000;stroke-linecap:round;-inkscape-stroke:none"
             d="m 36.910156,98.826172 a 0.1322915,0.1322915 0 0 0 -0.130859,0.132812 0.1322915,0.1322915 0 0 0 0.130859,0.132813 h 0.529297 a 0.1322915,0.1322915 0 0 0 0.132813,-0.132813 0.1322915,0.1322915 0 0 0 -0.132813,-0.132812 z"
             id="path5-9" />
          <path
             style="color:#000000;fill:#000000;stroke-linecap:round;-inkscape-stroke:none"
             d="m 37.175781,96.445312 a 0.1322915,0.1322915 0 0 0 -0.132812,0.132813 v 1.322266 a 0.1322915,0.1322915 0 0 0 0.132812,0.132812 0.1322915,0.1322915 0 0 0 0.13086,-0.132812 v -1.322266 a 0.1322915,0.1322915 0 0 0 -0.13086,-0.132813 z"
             id="path6-8" />
          <title
             id="title6-95">GND</title>
        </g>
      </g>
      <g
         id="g17"
         transform="translate(-3.7041668)">
        <g
           id="g11"
           transform="translate(-6.6070049,4.2333335)">
          <g
             id="rect10042-4-5-3"
             transform="rotate(-90)">
            <path
               style="color:#000000;fill:#000000;stroke-linecap:round;stroke-linejoin:round;-inkscape-stroke:none"
               d="m -29.6572,62.279793 h 1.194767 v 0.252053 H -29.6572 Z"
               id="path35" />
            <path
               style="color:#000000;fill:#000000;stroke-linecap:round;stroke-linejoin:round;-inkscape-stroke:none"
               d="m -29.65625,62.265625 a 0.01374212,0.01374212 0 0 0 -0.01563,0.01367 v 0.251953 a 0.01374212,0.01374212 0 0 0 0.01563,0.01367 h 1.193359 a 0.01374212,0.01374212 0 0 0 0.01367,-0.01367 v -0.251953 a 0.01374212,0.01374212 0 0 0 -0.01367,-0.01367 z m 0.01367,0.02734 h 1.166016 v 0.224609 h -1.166016 z"
               id="path36" />
          </g>
        </g>
        <path
           style="color:#000000;fill:#000000;stroke-linecap:round;stroke-dasharray:0.0852114, 0.170423;-inkscape-stroke:none"
           d="m 55.794922,33.429687 a 0.02130285,0.02130285 0 0 0 -0.02148,0.02148 v 0.08398 a 0.02130285,0.02130285 0 0 0 0.02148,0.02148 0.02130285,0.02130285 0 0 0 0.02148,-0.02148 v -0.08398 a 0.02130285,0.02130285 0 0 0 -0.02148,-0.02148 z m 0,0.25586 a 0.02130285,0.02130285 0 0 0 -0.02148,0.01953 v 0.08594 a 0.02130285,0.02130285 0 0 0 0.02148,0.02148 0.02130285,0.02130285 0 0 0 0.02148,-0.02148 v -0.08594 a 0.02130285,0.02130285 0 0 0 -0.02148,-0.01953 z m 0,0.253906 a 0.02130285,0.02130285 0 0 0 -0.02148,0.02148 v 0.08594 a 0.02130285,0.02130285 0 0 0 0.02148,0.02148 0.02130285,0.02130285 0 0 0 0.02148,-0.02148 v -0.08594 a 0.02130285,0.02130285 0 0 0 -0.02148,-0.02148 z m 0,0.255859 a 0.02130285,0.02130285 0 0 0 -0.02148,0.02148 v 0.08594 a 0.02130285,0.02130285 0 0 0 0.02148,0.02148 0.02130285,0.02130285 0 0 0 0.02148,-0.02148 v -0.08594 a 0.02130285,0.02130285 0 0 0 -0.02148,-0.02148 z m 0,0.25586 a 0.02130285,0.02130285 0 0 0 -0.02148,0.02148 v 0.08594 a 0.02130285,0.02130285 0 0 0 0.02148,0.02148 0.02130285,0.02130285 0 0 0 0.02148,-0.02148 v -0.08594 a 0.02130285,0.02130285 0 0 0 -0.02148,-0.02148 z m 0,0.255859 a 0.02130285,0.02130285 0 0 0 -0.02148,0.02148 v 0.08594 a 0.02130285,0.02130285 0 0 0 0.02148,0.02148 0.02130285,0.02130285 0 0 0 0.02148,-0.02148 v -0.08594 a 0.02130285,0.02130285 0 0 0 -0.02148,-0.02148 z m 0,0.25586 a 0.02130285,0.02130285 0 0 0 -0.02148,0.02148 v 0.08594 a 0.02130285,0.02130285 0 0 0 0.02148,0.01953 0.02130285,0.02130285 0 0 0 0.02148,-0.01953 v -0.08594 a 0.02130285,0.02130285 0 0 0 -0.02148,-0.02148 z m 0,0.255859 a 0.02130285,0.02130285 0 0 0 -0.02148,0.02148 v 0.08398 a 0.02130285,0.02130285 0 0 0 0.02148,0.02148 0.02130285,0.02130285 0 0 0 0.02148,-0.02148 v -0.08398 a 0.02130285,0.02130285 0 0 0 -0.02148,-0.02148 z m 0,0.255859 a 0.02130285,0.02130285 0 0 0 -0.02148,0.02148 v 0.08398 a 0.02130285,0.02130285 0 0 0 0.02148,0.02148 0.02130285,0.02130285 0 0 0 0.02148,-0.02148 v -0.08398 a 0.02130285,0.02130285 0 0 0 -0.02148,-0.02148 z m 0,0.25586 a 0.02130285,0.02130285 0 0 0 -0.02148,0.02148 v 0.08398 a 0.02130285,0.02130285 0 0 0 0.02148,0.02148 0.02130285,0.02130285 0 0 0 0.02148,-0.02148 v -0.08398 a 0.02130285,0.02130285 0 0 0 -0.02148,-0.02148 z m 0,0.255859 a 0.02130285,0.02130285 0 0 0 -0.02148,0.01953 v 0.08594 a 0.02130285,0.02130285 0 0 0 0.02148,0.02148 0.02130285,0.02130285 0 0 0 0.02148,-0.02148 v -0.08594 a 0.02130285,0.02130285 0 0 0 -0.02148,-0.01953 z m 0,0.253906 a 0.02130285,0.02130285 0 0 0 -0.02148,0.02148 v 0.08594 a 0.02130285,0.02130285 0 0 0 0.02148,0.02148 0.02130285,0.02130285 0 0 0 0.02148,-0.02148 v -0.08594 a 0.02130285,0.02130285 0 0 0 -0.02148,-0.02148 z m 0,0.25586 a 0.02130285,0.02130285 0 0 0 -0.02148,0.02148 v 0.08594 a 0.02130285,0.02130285 0 0 0 0.02148,0.02148 0.02130285,0.02130285 0 0 0 0.02148,-0.02148 v -0.08594 a 0.02130285,0.02130285 0 0 0 -0.02148,-0.02148 z m 0,0.255859 a 0.02130285,0.02130285 0 0 0 -0.02148,0.02148 v 0.08594 a 0.02130285,0.02130285 0 0 0 0.02148,0.02148 0.02130285,0.02130285 0 0 0 0.02148,-0.02148 v -0.08594 a 0.02130285,0.02130285 0 0 0 -0.02148,-0.02148 z m 0,0.255859 a 0.02130285,0.02130285 0 0 0 -0.02148,0.02148 v 0.08594 a 0.02130285,0.02130285 0 0 0 0.02148,0.02148 0.02130285,0.02130285 0 0 0 0.02148,-0.02148 v -0.08594 a 0.02130285,0.02130285 0 0 0 -0.02148,-0.02148 z m 0,0.25586 a 0.02130285,0.02130285 0 0 0 -0.02148,0.02148 v 0.08398 a 0.02130285,0.02130285 0 0 0 0.02148,0.02148 0.02130285,0.02130285 0 0 0 0.02148,-0.02148 v -0.08398 a 0.02130285,0.02130285 0 0 0 -0.02148,-0.02148 z m 0,0.255859 a 0.02130285,0.02130285 0 0 0 -0.02148,0.02148 V 37.625 a 0.02130285,0.02130285 0 0 0 0.02148,0.02148 0.02130285,0.02130285 0 0 0 0.02148,-0.02148 v -0.08398 a 0.02130285,0.02130285 0 0 0 -0.02148,-0.02148 z"
           id="path5293-3-6-5" />
        <g
           id="use8544-1-1"
           transform="matrix(0.44556387,0,0,0.44556387,39.230721,-5.9196869)">
          <title
             id="title2-2-8">GND</title>
          <path
             style="color:#000000;fill:#000000;stroke-linecap:round;-inkscape-stroke:none"
             d="m 35.851562,97.769531 a 0.1322915,0.1322915 0 0 0 -0.130859,0.13086 0.1322915,0.1322915 0 0 0 0.130859,0.132812 h 2.646485 a 0.1322915,0.1322915 0 0 0 0.132812,-0.132812 0.1322915,0.1322915 0 0 0 -0.132812,-0.13086 z"
             id="path3-9-5" />
          <path
             style="color:#000000;fill:#000000;stroke-linecap:round;-inkscape-stroke:none"
             d="M 36.380859,98.298828 A 0.1322915,0.1322915 0 0 0 36.25,98.429687 0.1322915,0.1322915 0 0 0 36.380859,98.5625 h 1.587891 a 0.1322915,0.1322915 0 0 0 0.132812,-0.132813 0.1322915,0.1322915 0 0 0 -0.132812,-0.130859 z"
             id="path4-1-4" />
          <path
             style="color:#000000;fill:#000000;stroke-linecap:round;-inkscape-stroke:none"
             d="m 36.910156,98.826172 a 0.1322915,0.1322915 0 0 0 -0.130859,0.132812 0.1322915,0.1322915 0 0 0 0.130859,0.132813 h 0.529297 a 0.1322915,0.1322915 0 0 0 0.132813,-0.132813 0.1322915,0.1322915 0 0 0 -0.132813,-0.132812 z"
             id="path5-9-2" />
          <path
             style="color:#000000;fill:#000000;stroke-linecap:round;-inkscape-stroke:none"
             d="m 37.175781,96.445312 a 0.1322915,0.1322915 0 0 0 -0.132812,0.132813 v 1.322266 a 0.1322915,0.1322915 0 0 0 0.132812,0.132812 0.1322915,0.1322915 0 0 0 0.13086,-0.132812 v -1.322266 a 0.1322915,0.1322915 0 0 0 -0.13086,-0.132813 z"
             id="path6-8-5" />
          <title
             id="title6-95-2">GND</title>
        </g>
      </g>
    </g>
    <path
       style="color:#000000;fill:#000000;stroke-linecap:round;stroke-linejoin:round;-inkscape-stroke:none"
       d="m 39.089844,31.037109 a 0.09950995,0.09950995 0 0 0 -0.09961,0.09961 v 4.21875 a 0.09950995,0.09950995 0 0 0 0.09961,0.09766 h 1.167968 a 0.0995,0.0995 0 0 0 0.09961,-0.09766 0.0995,0.0995 0 0 0 -0.09961,-0.09961 h -1.068359 v -4.019531 h 1.068359 a 0.0995,0.0995 0 0 0 0.09961,-0.09961 0.0995,0.0995 0 0 0 -0.09961,-0.09961 z"
       id="rect10042-2" />
    <path
       style="color:#000000;fill:#000000;stroke-linecap:round;stroke-linejoin:round;-inkscape-stroke:none"
       d="m 41.238281,31.085937 a 0.0995,0.0995 0 0 0 -0.09961,0.09766 0.0995,0.0995 0 0 0 0.09961,0.09961 h 1.06836 v 4.019531 h -1.06836 a 0.0995,0.0995 0 0 0 -0.09961,0.09961 0.0995,0.0995 0 0 0 0.09961,0.09961 h 1.167969 a 0.09950995,0.09950995 0 0 0 0.09961,-0.09961 v -4.21875 a 0.09950995,0.09950995 0 0 0 -0.09961,-0.09766 z"
       id="path15" />
    <g
       id="g14"
       transform="translate(0.48348327,0.01013585)">
      <path
         d="m 40.19939,32.760117 h 0.464255 v -0.09172 H 40.49149 v -0.86501 h -0.03528 c -0.05503,0.05644 -0.142522,0.08749 -0.265289,0.09172 v 0.09313 c 0.07479,-0.0014 0.134056,-0.0127 0.180622,-0.03104 v 0.711199 H 40.19939 Z"
         id="text5191-0-9-3-5-4"
         style="-inkscape-font-specification:'NewComputerModernSans10, Normal';stroke-width:0.264583"
         aria-label="1" />
      <g
         id="text5191-0-9-3-5-1-5"
         style="font-size:1.41111px;font-family:NewComputerModernSans10;-inkscape-font-specification:'NewComputerModernSans10, Normal';letter-spacing:0px;word-spacing:0px;stroke-width:0.264583"
         aria-label="Re">
        <path
           d="m 40.442808,33.773462 c 0,-0.08184 -0.03951,-0.148166 -0.119945,-0.198966 -0.07055,-0.04375 -0.149577,-0.06632 -0.235655,-0.06632 H 39.74713 v 0.97931 h 0.131234 v -0.441677 h 0.210255 l 0.261055,0.441677 h 0.136878 l -0.276578,-0.4572 c 0.1143,-0.03669 0.232834,-0.121355 0.232834,-0.256822 z m -0.122767,0 c 0,0.118534 -0.119944,0.174978 -0.248355,0.174978 h -0.193322 v -0.351366 h 0.193322 c 0.127,0 0.248355,0.05927 0.248355,0.176388 z"
           id="path9" />
        <path
           d="m 40.681285,34.466317 h 0.426155 c 0,-0.194733 -0.07197,-0.347133 -0.251177,-0.347133 -0.08326,0 -0.1524,0.03528 -0.207433,0.105834 -0.0508,0.06491 -0.0762,0.139699 -0.0762,0.225777 0,0.09031 0.02822,0.167922 0.08326,0.232833 0.05786,0.06773 0.131233,0.1016 0.220133,0.1016 0.08185,0 0.156634,-0.0254 0.225778,-0.07479 l -0.0085,-0.104422 c -0.06773,0.05503 -0.1397,0.08326 -0.2159,0.08326 -0.114299,0 -0.191911,-0.107245 -0.196144,-0.222956 z m 0.335844,-0.08749 h -0.328788 c 0.01834,-0.07902 0.08043,-0.163688 0.167922,-0.163688 0.09454,0 0.146755,0.0762 0.160866,0.163688 z"
           id="path10" />
      </g>
      <g
         id="text5191-0-9-3-20-7"
         style="font-size:1.41111px;font-family:NewComputerModernSans10;-inkscape-font-specification:'NewComputerModernSans10, Normal';letter-spacing:0px;word-spacing:0px;stroke-width:0.264583"
         aria-label="pe">
        <path
           d="m 36.826605,33.426212 c 0.08043,0 0.145345,-0.03669 0.194734,-0.108656 0.04374,-0.06491 0.06632,-0.1397 0.06632,-0.222955 0,-0.07902 -0.01693,-0.150989 -0.05221,-0.214489 -0.04233,-0.0762 -0.100189,-0.1143 -0.173567,-0.1143 -0.08326,0 -0.156633,0.0254 -0.221544,0.07761 v -0.06209 h -0.1143 v 0.900288 h 0.118533 v -0.327378 c 0.05503,0.04798 0.115711,0.07197 0.182033,0.07197 z m -0.05503,-0.09596 c -0.04516,0 -0.08326,-0.02117 -0.1143,-0.0635 -0.0085,-0.01129 -0.0127,-0.02681 -0.0127,-0.04516 v -0.277989 c 0.03528,-0.05221 0.08326,-0.07761 0.141111,-0.07761 0.05503,0 0.100189,0.0254 0.135467,0.07479 0.03246,0.04516 0.04798,0.09596 0.04798,0.153811 0,0.121355 -0.08184,0.235655 -0.197555,0.235655 z"
           id="path11" />
        <path
           d="m 37.297916,33.386701 h 0.426156 c 0,-0.194733 -0.07197,-0.347133 -0.251178,-0.347133 -0.08325,0 -0.1524,0.03528 -0.207433,0.105833 -0.0508,0.06491 -0.0762,0.1397 -0.0762,0.225778 0,0.09031 0.02822,0.167922 0.08326,0.232833 0.05786,0.06773 0.131234,0.1016 0.220134,0.1016 0.08184,0 0.156633,-0.0254 0.225777,-0.07479 l -0.0085,-0.104422 c -0.06773,0.05503 -0.1397,0.08326 -0.2159,0.08326 -0.1143,0 -0.191911,-0.107244 -0.196145,-0.222955 z m 0.335845,-0.08749 h -0.328789 c 0.01834,-0.07902 0.08043,-0.163689 0.167922,-0.163689 0.09454,0 0.146755,0.0762 0.160867,0.163689 z"
           id="path12" />
      </g>
      <g
         id="path18-2"
         style="opacity:0.9">
        <path
           style="color:#000000;fill:#000000;stroke-linecap:square;-inkscape-stroke:none"
           d="m 38.168786,33.283016 a 0.07440646,0.07440645 0 0 1 -0.07441,0.07441 0.07440646,0.07440645 0 0 1 -0.07441,-0.07441 0.07440646,0.07440645 0 0 1 0.07441,-0.07441 0.07440646,0.07440645 0 0 1 0.07441,0.07441 z"
           id="path37" />
        <path
           style="color:#000000;fill:#000000;stroke-linecap:square;-inkscape-stroke:none"
           d="m 38.09375,33.183594 c -0.05493,-3e-6 -0.09961,0.04468 -0.09961,0.09961 -3e-6,0.05493 0.04468,0.09961 0.09961,0.09961 0.05493,3e-6 0.101565,-0.04468 0.101562,-0.09961 3e-6,-0.05493 -0.04663,-0.09961 -0.101562,-0.09961 z m 0,0.05078 c 0.02726,-10e-7 0.04883,0.02156 0.04883,0.04883 10e-7,0.02726 -0.02156,0.04883 -0.04883,0.04883 -0.02726,2e-6 -0.04883,-0.02156 -0.04883,-0.04883 -10e-7,-0.02726 0.02156,-0.04883 0.04883,-0.04883 z"
           id="path38" />
      </g>
    </g>
    <g
       id="text5191-0-9-3-20"
       style="font-size:1.41111px;line-height:1.25;font-family:NewComputerModernSans10;-inkscape-font-specification:'NewComputerModernSans10, Normal';letter-spacing:0px;word-spacing:0px;stroke-width:0.264583"
       aria-label="ne">
      <path
         d="m 35.183692,33.040532 c 0.09172,0 0.128411,0.04516 0.128411,0.136878 v 0.409222 h 0.118533 v -0.4191 c 0,-0.148166 -0.06491,-0.222955 -0.194733,-0.222955 -0.07761,0 -0.142522,0.03104 -0.194734,0.09454 v -0.08749 h -0.110066 v 0.635 h 0.118533 V 33.24091 c 0,-0.1016 0.04092,-0.200378 0.134056,-0.200378 z"
         id="path13" />
      <path
         style="baseline-shift:sub"
         d="m 35.704391,33.565465 h 0.426156 c 0,-0.194733 -0.07197,-0.347133 -0.251178,-0.347133 -0.08325,0 -0.1524,0.03528 -0.207433,0.105833 -0.0508,0.06491 -0.0762,0.1397 -0.0762,0.225778 0,0.09031 0.02822,0.167922 0.08326,0.232833 0.05786,0.06773 0.131234,0.1016 0.220134,0.1016 0.08184,0 0.156633,-0.0254 0.225777,-0.07479 l -0.0085,-0.104422 c -0.06773,0.05503 -0.1397,0.08326 -0.2159,0.08326 -0.1143,0 -0.191911,-0.107245 -0.196145,-0.222956 z m 0.335845,-0.08749 h -0.328789 c 0.01834,-0.07902 0.08043,-0.163688 0.167922,-0.163688 0.09454,0 0.146756,0.0762 0.160867,0.163688 z"
         id="path14" />
    </g>
    <path
       style="color:#000000;fill:#000000;stroke-linecap:round;stroke-linejoin:round;-inkscape-stroke:none"
       d="m 40.152344,33.207031 a 0.03933085,0.03933085 0 0 0 -0.03906,0.03906 0.03933085,0.03933085 0 0 0 0.03906,0.03906 h 1.515625 a 0.03933085,0.03933085 0 0 0 0.03906,-0.03906 0.03933085,0.03933085 0 0 0 -0.03906,-0.03906 z"
       id="path5718-7-5-4" />
    <g
       id="path18"
       style="opacity:0.9">
      <path
         style="color:#000000;fill:#000000;stroke-linecap:square;-inkscape-stroke:none"
         d="m 36.575261,33.293152 a 0.07440646,0.07440645 0 0 1 -0.07441,0.07441 0.07440646,0.07440645 0 0 1 -0.07441,-0.07441 0.07440646,0.07440645 0 0 1 0.07441,-0.07441 0.07440646,0.07440645 0 0 1 0.07441,0.07441 z"
         id="path19" />
      <path
         style="color:#000000;fill:#000000;stroke-linecap:square;-inkscape-stroke:none"
         d="m 36.5,33.193359 c -0.05493,-2e-6 -0.09961,0.04468 -0.09961,0.09961 -3e-6,0.05493 0.04468,0.09961 0.09961,0.09961 0.05493,3e-6 0.101565,-0.04468 0.101562,-0.09961 3e-6,-0.05493 -0.04663,-0.09961 -0.101562,-0.09961 z m 0,0.05078 c 0.02726,-2e-6 0.04883,0.02156 0.04883,0.04883 10e-7,0.02726 -0.02156,0.04883 -0.04883,0.04883 -0.02726,10e-7 -0.04883,-0.02157 -0.04883,-0.04883 -10e-7,-0.02726 0.02156,-0.04883 0.04883,-0.04883 z"
         id="path20" />
    </g>
  </g>
</svg>
