<?xml version="1.0" encoding="UTF-8" standalone="no"?>
<!-- Created with Inkscape (http://www.inkscape.org/) -->

<svg
   width="7.6539803mm"
   height="6.670053mm"
   viewBox="0 0 7.6539802 6.6700532"
   version="1.1"
   id="svg1"
   sodipodi:docname="Waste.svg"
   inkscape:version="1.3 (0e150ed6c4, 2023-07-21)"
   inkscape:export-filename="Waste.png"
   inkscape:export-xdpi="96"
   inkscape:export-ydpi="96"
   xml:space="preserve"
   xmlns:inkscape="http://www.inkscape.org/namespaces/inkscape"
   xmlns:sodipodi="http://sodipodi.sourceforge.net/DTD/sodipodi-0.dtd"
   xmlns="http://www.w3.org/2000/svg"
   xmlns:svg="http://www.w3.org/2000/svg"><sodipodi:namedview
     id="namedview1"
     pagecolor="#ffffff"
     bordercolor="#000000"
     borderopacity="0.25"
     inkscape:showpageshadow="2"
     inkscape:pageopacity="0.0"
     inkscape:pagecheckerboard="0"
     inkscape:deskcolor="#d1d1d1"
     inkscape:document-units="mm"
     inkscape:zoom="8.1941054"
     inkscape:cx="-8.7868042"
     inkscape:cy="7.5053953"
     inkscape:window-width="1920"
     inkscape:window-height="1009"
     inkscape:window-x="-8"
     inkscape:window-y="-8"
     inkscape:window-maximized="1"
     inkscape:current-layer="g10389" /><defs
     id="defs1" /><g
     inkscape:label="Layer 1"
     inkscape:groupmode="layer"
     id="layer1"
     transform="translate(-73.667356,-132.84361)"><g
       id="g10389"
       transform="translate(-331.67419,175.05473)"><g
         inkscape:label="Trash_%2889060%29_-_The_Noun_Project.svg"
         transform="matrix(0.07325669,0,0,0.07325669,405.49474,-42.498638)"
         id="g1"><path
           d="M 75.7,19.5 H 61.6 C 60.7,13.8 55.9,9.4 50,9.4 44.1,9.4 39.2,13.8 38.4,19.5 H 24.5 c -2.7,0 -4.9,2.2 -4.9,4.9 v 5 c 0,2.5 1.8,4.5 4.2,4.8 V 83 c 0,3.6 2.9,6.5 6.5,6.5 H 70 c 3.6,0 6.5,-2.9 6.5,-6.5 V 34.3 c 2.4,-0.4 4.2,-2.4 4.2,-4.8 v -5 c -0.1,-2.8 -2.3,-5 -5,-5 z M 50,13.1 c 3.9,0 7.1,2.7 7.8,6.4 H 42.1 c 0.8,-3.6 4,-6.4 7.9,-6.4 z m 22.7,70 c 0,1.5 -1.2,2.8 -2.8,2.8 H 30.2 c -1.5,0 -2.8,-1.2 -2.8,-2.8 V 34.4 h 45.2 v 48.7 z m 4.2,-53.7 c 0,0.7 -0.5,1.2 -1.2,1.2 H 24.5 c -0.7,0 -1.2,-0.5 -1.2,-1.2 v -5 c 0,-0.7 0.5,-1.2 1.2,-1.2 h 51.1 c 0.7,0 1.2,0.5 1.2,1.2 v 5 z M 35.7,76.3 V 44.7 c 0,-1 0.8,-1.8 1.8,-1.8 1,0 1.8,0.8 1.8,1.8 v 31.6 c 0,1 -0.8,1.8 -1.8,1.8 -1,0.1 -1.8,-0.8 -1.8,-1.8 z m 12.7,0 V 44.7 c 0,-1 0.8,-1.8 1.8,-1.8 1,0 1.8,0.8 1.8,1.8 v 31.6 c 0,1 -0.8,1.8 -1.8,1.8 -1,0.1 -1.8,-0.8 -1.8,-1.8 z m 12.7,0 V 44.7 c 0,-1 0.8,-1.8 1.8,-1.8 1,0 1.8,0.8 1.8,1.8 v 31.6 c 0,1 -0.8,1.8 -1.8,1.8 -0.9,0.1 -1.8,-0.8 -1.8,-1.8 z"
           id="path1" /></g></g></g></svg>
