<?xml version="1.0" encoding="utf-8" standalone="no"?>
<!DOCTYPE svg PUBLIC "-//W3C//DTD SVG 1.1//EN"
  "http://www.w3.org/Graphics/SVG/1.1/DTD/svg11.dtd">
<svg xmlns:xlink="http://www.w3.org/1999/xlink" width="226.085716pt" height="134.166586pt" viewBox="0 0 226.085716 134.166586" xmlns="http://www.w3.org/2000/svg" version="1.1">
 <metadata>
  <rdf:RDF xmlns:dc="http://purl.org/dc/elements/1.1/" xmlns:cc="http://creativecommons.org/ns#" xmlns:rdf="http://www.w3.org/1999/02/22-rdf-syntax-ns#">
   <cc:Work>
    <dc:type rdf:resource="http://purl.org/dc/dcmitype/StillImage"/>
    <dc:date>2025-03-14T18:03:32.520977</dc:date>
    <dc:format>image/svg+xml</dc:format>
    <dc:creator>
     <cc:Agent>
      <dc:title>Matplotlib v3.9.2, https://matplotlib.org/</dc:title>
     </cc:Agent>
    </dc:creator>
   </cc:Work>
  </rdf:RDF>
 </metadata>
 <defs>
  <style type="text/css">*{stroke-linejoin: round; stroke-linecap: butt}</style>
 </defs>
 <g id="figure_1">
  <g id="patch_1">
   <path d="M 0 134.166586 
L 226.085716 134.166586 
L 226.085716 0 
L 0 0 
z
" style="fill: #ffffff"/>
  </g>
  <g id="axes_1">
   <g id="patch_2">
    <path d="M 39.625312 105.748617 
L 194.148216 105.748617 
L 194.148216 7.2 
L 39.625312 7.2 
z
" style="fill: #ffffff"/>
   </g>
   <g id="matplotlib.axis_1">
    <g id="xtick_1">
     <g id="line2d_1">
      <path d="M 43.321458 105.748617 
L 43.321458 7.2 
" clip-path="url(#p3a674d7621)" style="fill: none; stroke: #cccccc; stroke-opacity: 0.3; stroke-width: 0.8; stroke-linecap: round"/>
     </g>
     <g id="line2d_2"/>
     <g id="text_1">
      <!-- −200 -->
      <g style="fill: #262626" transform="translate(35.438255 114.259086) scale(0.07 -0.07)">
       <defs>
        <path id="ArialMT-2212" d="M 3381 1997 
L 356 1997 
L 356 2522 
L 3381 2522 
L 3381 1997 
z
" transform="scale(0.015625)"/>
        <path id="ArialMT-32" d="M 3222 541 
L 3222 0 
L 194 0 
Q 188 203 259 391 
Q 375 700 629 1000 
Q 884 1300 1366 1694 
Q 2113 2306 2375 2664 
Q 2638 3022 2638 3341 
Q 2638 3675 2398 3904 
Q 2159 4134 1775 4134 
Q 1369 4134 1125 3890 
Q 881 3647 878 3216 
L 300 3275 
Q 359 3922 746 4261 
Q 1134 4600 1788 4600 
Q 2447 4600 2831 4234 
Q 3216 3869 3216 3328 
Q 3216 3053 3103 2787 
Q 2991 2522 2730 2228 
Q 2469 1934 1863 1422 
Q 1356 997 1212 845 
Q 1069 694 975 541 
L 3222 541 
z
" transform="scale(0.015625)"/>
        <path id="ArialMT-30" d="M 266 2259 
Q 266 3072 433 3567 
Q 600 4063 929 4331 
Q 1259 4600 1759 4600 
Q 2128 4600 2406 4451 
Q 2684 4303 2865 4023 
Q 3047 3744 3150 3342 
Q 3253 2941 3253 2259 
Q 3253 1453 3087 958 
Q 2922 463 2592 192 
Q 2263 -78 1759 -78 
Q 1097 -78 719 397 
Q 266 969 266 2259 
z
M 844 2259 
Q 844 1131 1108 757 
Q 1372 384 1759 384 
Q 2147 384 2411 759 
Q 2675 1134 2675 2259 
Q 2675 3391 2411 3762 
Q 2147 4134 1753 4134 
Q 1366 4134 1134 3806 
Q 844 3388 844 2259 
z
" transform="scale(0.015625)"/>
       </defs>
       <use xlink:href="#ArialMT-2212"/>
       <use xlink:href="#ArialMT-32" x="58.398438"/>
       <use xlink:href="#ArialMT-30" x="114.013672"/>
       <use xlink:href="#ArialMT-30" x="169.628906"/>
      </g>
     </g>
    </g>
    <g id="xtick_2">
     <g id="line2d_3">
      <path d="M 79.8945 105.748617 
L 79.8945 7.2 
" clip-path="url(#p3a674d7621)" style="fill: none; stroke: #cccccc; stroke-opacity: 0.3; stroke-width: 0.8; stroke-linecap: round"/>
     </g>
     <g id="line2d_4"/>
     <g id="text_2">
      <!-- 0 -->
      <g style="fill: #262626" transform="translate(77.948172 114.259086) scale(0.07 -0.07)">
       <use xlink:href="#ArialMT-30"/>
      </g>
     </g>
    </g>
    <g id="xtick_3">
     <g id="line2d_5">
      <path d="M 116.467542 105.748617 
L 116.467542 7.2 
" clip-path="url(#p3a674d7621)" style="fill: none; stroke: #cccccc; stroke-opacity: 0.3; stroke-width: 0.8; stroke-linecap: round"/>
     </g>
     <g id="line2d_6"/>
     <g id="text_3">
      <!-- 200 -->
      <g style="fill: #262626" transform="translate(110.628558 114.259086) scale(0.07 -0.07)">
       <use xlink:href="#ArialMT-32"/>
       <use xlink:href="#ArialMT-30" x="55.615234"/>
       <use xlink:href="#ArialMT-30" x="111.230469"/>
      </g>
     </g>
    </g>
    <g id="xtick_4">
     <g id="line2d_7">
      <path d="M 153.040585 105.748617 
L 153.040585 7.2 
" clip-path="url(#p3a674d7621)" style="fill: none; stroke: #cccccc; stroke-opacity: 0.3; stroke-width: 0.8; stroke-linecap: round"/>
     </g>
     <g id="line2d_8"/>
     <g id="text_4">
      <!-- 400 -->
      <g style="fill: #262626" transform="translate(147.2016 114.259086) scale(0.07 -0.07)">
       <defs>
        <path id="ArialMT-34" d="M 2069 0 
L 2069 1097 
L 81 1097 
L 81 1613 
L 2172 4581 
L 2631 4581 
L 2631 1613 
L 3250 1613 
L 3250 1097 
L 2631 1097 
L 2631 0 
L 2069 0 
z
M 2069 1613 
L 2069 3678 
L 634 1613 
L 2069 1613 
z
" transform="scale(0.015625)"/>
       </defs>
       <use xlink:href="#ArialMT-34"/>
       <use xlink:href="#ArialMT-30" x="55.615234"/>
       <use xlink:href="#ArialMT-30" x="111.230469"/>
      </g>
     </g>
    </g>
    <g id="xtick_5">
     <g id="line2d_9">
      <path d="M 189.613627 105.748617 
L 189.613627 7.2 
" clip-path="url(#p3a674d7621)" style="fill: none; stroke: #cccccc; stroke-opacity: 0.3; stroke-width: 0.8; stroke-linecap: round"/>
     </g>
     <g id="line2d_10"/>
     <g id="text_5">
      <!-- 600 -->
      <g style="fill: #262626" transform="translate(183.774642 114.259086) scale(0.07 -0.07)">
       <defs>
        <path id="ArialMT-36" d="M 3184 3459 
L 2625 3416 
Q 2550 3747 2413 3897 
Q 2184 4138 1850 4138 
Q 1581 4138 1378 3988 
Q 1113 3794 959 3422 
Q 806 3050 800 2363 
Q 1003 2672 1297 2822 
Q 1591 2972 1913 2972 
Q 2475 2972 2870 2558 
Q 3266 2144 3266 1488 
Q 3266 1056 3080 686 
Q 2894 316 2569 119 
Q 2244 -78 1831 -78 
Q 1128 -78 684 439 
Q 241 956 241 2144 
Q 241 3472 731 4075 
Q 1159 4600 1884 4600 
Q 2425 4600 2770 4297 
Q 3116 3994 3184 3459 
z
M 888 1484 
Q 888 1194 1011 928 
Q 1134 663 1356 523 
Q 1578 384 1822 384 
Q 2178 384 2434 671 
Q 2691 959 2691 1453 
Q 2691 1928 2437 2201 
Q 2184 2475 1800 2475 
Q 1419 2475 1153 2201 
Q 888 1928 888 1484 
z
" transform="scale(0.015625)"/>
       </defs>
       <use xlink:href="#ArialMT-36"/>
       <use xlink:href="#ArialMT-30" x="55.615234"/>
       <use xlink:href="#ArialMT-30" x="111.230469"/>
      </g>
     </g>
    </g>
    <g id="text_6">
     <!-- BE_price -->
     <g style="fill: #262626" transform="translate(100.656764 125.376586) scale(0.08 -0.08)">
      <defs>
       <path id="ArialMT-42" d="M 469 0 
L 469 4581 
L 2188 4581 
Q 2713 4581 3030 4442 
Q 3347 4303 3526 4014 
Q 3706 3725 3706 3409 
Q 3706 3116 3547 2856 
Q 3388 2597 3066 2438 
Q 3481 2316 3704 2022 
Q 3928 1728 3928 1328 
Q 3928 1006 3792 729 
Q 3656 453 3456 303 
Q 3256 153 2954 76 
Q 2653 0 2216 0 
L 469 0 
z
M 1075 2656 
L 2066 2656 
Q 2469 2656 2644 2709 
Q 2875 2778 2992 2937 
Q 3109 3097 3109 3338 
Q 3109 3566 3000 3739 
Q 2891 3913 2687 3977 
Q 2484 4041 1991 4041 
L 1075 4041 
L 1075 2656 
z
M 1075 541 
L 2216 541 
Q 2509 541 2628 563 
Q 2838 600 2978 687 
Q 3119 775 3209 942 
Q 3300 1109 3300 1328 
Q 3300 1584 3169 1773 
Q 3038 1963 2805 2039 
Q 2572 2116 2134 2116 
L 1075 2116 
L 1075 541 
z
" transform="scale(0.015625)"/>
       <path id="ArialMT-45" d="M 506 0 
L 506 4581 
L 3819 4581 
L 3819 4041 
L 1113 4041 
L 1113 2638 
L 3647 2638 
L 3647 2100 
L 1113 2100 
L 1113 541 
L 3925 541 
L 3925 0 
L 506 0 
z
" transform="scale(0.015625)"/>
       <path id="ArialMT-5f" d="M -97 -1272 
L -97 -866 
L 3631 -866 
L 3631 -1272 
L -97 -1272 
z
" transform="scale(0.015625)"/>
       <path id="ArialMT-70" d="M 422 -1272 
L 422 3319 
L 934 3319 
L 934 2888 
Q 1116 3141 1344 3267 
Q 1572 3394 1897 3394 
Q 2322 3394 2647 3175 
Q 2972 2956 3137 2557 
Q 3303 2159 3303 1684 
Q 3303 1175 3120 767 
Q 2938 359 2589 142 
Q 2241 -75 1856 -75 
Q 1575 -75 1351 44 
Q 1128 163 984 344 
L 984 -1272 
L 422 -1272 
z
M 931 1641 
Q 931 1000 1190 694 
Q 1450 388 1819 388 
Q 2194 388 2461 705 
Q 2728 1022 2728 1688 
Q 2728 2322 2467 2637 
Q 2206 2953 1844 2953 
Q 1484 2953 1207 2617 
Q 931 2281 931 1641 
z
" transform="scale(0.015625)"/>
       <path id="ArialMT-72" d="M 416 0 
L 416 3319 
L 922 3319 
L 922 2816 
Q 1116 3169 1280 3281 
Q 1444 3394 1641 3394 
Q 1925 3394 2219 3213 
L 2025 2691 
Q 1819 2813 1613 2813 
Q 1428 2813 1281 2702 
Q 1134 2591 1072 2394 
Q 978 2094 978 1738 
L 978 0 
L 416 0 
z
" transform="scale(0.015625)"/>
       <path id="ArialMT-69" d="M 425 3934 
L 425 4581 
L 988 4581 
L 988 3934 
L 425 3934 
z
M 425 0 
L 425 3319 
L 988 3319 
L 988 0 
L 425 0 
z
" transform="scale(0.015625)"/>
       <path id="ArialMT-63" d="M 2588 1216 
L 3141 1144 
Q 3050 572 2676 248 
Q 2303 -75 1759 -75 
Q 1078 -75 664 370 
Q 250 816 250 1647 
Q 250 2184 428 2587 
Q 606 2991 970 3192 
Q 1334 3394 1763 3394 
Q 2303 3394 2647 3120 
Q 2991 2847 3088 2344 
L 2541 2259 
Q 2463 2594 2264 2762 
Q 2066 2931 1784 2931 
Q 1359 2931 1093 2626 
Q 828 2322 828 1663 
Q 828 994 1084 691 
Q 1341 388 1753 388 
Q 2084 388 2306 591 
Q 2528 794 2588 1216 
z
" transform="scale(0.015625)"/>
       <path id="ArialMT-65" d="M 2694 1069 
L 3275 997 
Q 3138 488 2766 206 
Q 2394 -75 1816 -75 
Q 1088 -75 661 373 
Q 234 822 234 1631 
Q 234 2469 665 2931 
Q 1097 3394 1784 3394 
Q 2450 3394 2872 2941 
Q 3294 2488 3294 1666 
Q 3294 1616 3291 1516 
L 816 1516 
Q 847 969 1125 678 
Q 1403 388 1819 388 
Q 2128 388 2347 550 
Q 2566 713 2694 1069 
z
M 847 1978 
L 2700 1978 
Q 2663 2397 2488 2606 
Q 2219 2931 1791 2931 
Q 1403 2931 1139 2672 
Q 875 2413 847 1978 
z
" transform="scale(0.015625)"/>
      </defs>
      <use xlink:href="#ArialMT-42"/>
      <use xlink:href="#ArialMT-45" x="66.699219"/>
      <use xlink:href="#ArialMT-5f" x="133.398438"/>
      <use xlink:href="#ArialMT-70" x="189.013672"/>
      <use xlink:href="#ArialMT-72" x="244.628906"/>
      <use xlink:href="#ArialMT-69" x="277.929688"/>
      <use xlink:href="#ArialMT-63" x="300.146484"/>
      <use xlink:href="#ArialMT-65" x="350.146484"/>
     </g>
    </g>
   </g>
   <g id="matplotlib.axis_2">
    <g id="ytick_1">
     <g id="line2d_11">
      <path d="M 39.625312 105.748617 
L 194.148216 105.748617 
" clip-path="url(#p3a674d7621)" style="fill: none; stroke: #cccccc; stroke-opacity: 0.3; stroke-width: 0.8; stroke-linecap: round"/>
     </g>
     <g id="line2d_12"/>
     <g id="text_7">
      <!-- 0.000 -->
      <g style="fill: #0000ff" transform="translate(18.61 108.253852) scale(0.07 -0.07)">
       <defs>
        <path id="ArialMT-2e" d="M 581 0 
L 581 641 
L 1222 641 
L 1222 0 
L 581 0 
z
" transform="scale(0.015625)"/>
       </defs>
       <use xlink:href="#ArialMT-30"/>
       <use xlink:href="#ArialMT-2e" x="55.615234"/>
       <use xlink:href="#ArialMT-30" x="83.398438"/>
       <use xlink:href="#ArialMT-30" x="139.013672"/>
       <use xlink:href="#ArialMT-30" x="194.628906"/>
      </g>
     </g>
    </g>
    <g id="ytick_2">
     <g id="line2d_13">
      <path d="M 39.625312 89.935404 
L 194.148216 89.935404 
" clip-path="url(#p3a674d7621)" style="fill: none; stroke: #cccccc; stroke-opacity: 0.3; stroke-width: 0.8; stroke-linecap: round"/>
     </g>
     <g id="line2d_14"/>
     <g id="text_8">
      <!-- 0.002 -->
      <g style="fill: #0000ff" transform="translate(18.61 92.440638) scale(0.07 -0.07)">
       <use xlink:href="#ArialMT-30"/>
       <use xlink:href="#ArialMT-2e" x="55.615234"/>
       <use xlink:href="#ArialMT-30" x="83.398438"/>
       <use xlink:href="#ArialMT-30" x="139.013672"/>
       <use xlink:href="#ArialMT-32" x="194.628906"/>
      </g>
     </g>
    </g>
    <g id="ytick_3">
     <g id="line2d_15">
      <path d="M 39.625312 74.122191 
L 194.148216 74.122191 
" clip-path="url(#p3a674d7621)" style="fill: none; stroke: #cccccc; stroke-opacity: 0.3; stroke-width: 0.8; stroke-linecap: round"/>
     </g>
     <g id="line2d_16"/>
     <g id="text_9">
      <!-- 0.004 -->
      <g style="fill: #0000ff" transform="translate(18.61 76.627425) scale(0.07 -0.07)">
       <use xlink:href="#ArialMT-30"/>
       <use xlink:href="#ArialMT-2e" x="55.615234"/>
       <use xlink:href="#ArialMT-30" x="83.398438"/>
       <use xlink:href="#ArialMT-30" x="139.013672"/>
       <use xlink:href="#ArialMT-34" x="194.628906"/>
      </g>
     </g>
    </g>
    <g id="ytick_4">
     <g id="line2d_17">
      <path d="M 39.625312 58.308978 
L 194.148216 58.308978 
" clip-path="url(#p3a674d7621)" style="fill: none; stroke: #cccccc; stroke-opacity: 0.3; stroke-width: 0.8; stroke-linecap: round"/>
     </g>
     <g id="line2d_18"/>
     <g id="text_10">
      <!-- 0.006 -->
      <g style="fill: #0000ff" transform="translate(18.61 60.814212) scale(0.07 -0.07)">
       <use xlink:href="#ArialMT-30"/>
       <use xlink:href="#ArialMT-2e" x="55.615234"/>
       <use xlink:href="#ArialMT-30" x="83.398438"/>
       <use xlink:href="#ArialMT-30" x="139.013672"/>
       <use xlink:href="#ArialMT-36" x="194.628906"/>
      </g>
     </g>
    </g>
    <g id="ytick_5">
     <g id="line2d_19">
      <path d="M 39.625312 42.495764 
L 194.148216 42.495764 
" clip-path="url(#p3a674d7621)" style="fill: none; stroke: #cccccc; stroke-opacity: 0.3; stroke-width: 0.8; stroke-linecap: round"/>
     </g>
     <g id="line2d_20"/>
     <g id="text_11">
      <!-- 0.008 -->
      <g style="fill: #0000ff" transform="translate(18.61 45.000999) scale(0.07 -0.07)">
       <defs>
        <path id="ArialMT-38" d="M 1131 2484 
Q 781 2613 612 2850 
Q 444 3088 444 3419 
Q 444 3919 803 4259 
Q 1163 4600 1759 4600 
Q 2359 4600 2725 4251 
Q 3091 3903 3091 3403 
Q 3091 3084 2923 2848 
Q 2756 2613 2416 2484 
Q 2838 2347 3058 2040 
Q 3278 1734 3278 1309 
Q 3278 722 2862 322 
Q 2447 -78 1769 -78 
Q 1091 -78 675 323 
Q 259 725 259 1325 
Q 259 1772 486 2073 
Q 713 2375 1131 2484 
z
M 1019 3438 
Q 1019 3113 1228 2906 
Q 1438 2700 1772 2700 
Q 2097 2700 2305 2904 
Q 2513 3109 2513 3406 
Q 2513 3716 2298 3927 
Q 2084 4138 1766 4138 
Q 1444 4138 1231 3931 
Q 1019 3725 1019 3438 
z
M 838 1322 
Q 838 1081 952 856 
Q 1066 631 1291 507 
Q 1516 384 1775 384 
Q 2178 384 2440 643 
Q 2703 903 2703 1303 
Q 2703 1709 2433 1975 
Q 2163 2241 1756 2241 
Q 1359 2241 1098 1978 
Q 838 1716 838 1322 
z
" transform="scale(0.015625)"/>
       </defs>
       <use xlink:href="#ArialMT-30"/>
       <use xlink:href="#ArialMT-2e" x="55.615234"/>
       <use xlink:href="#ArialMT-30" x="83.398438"/>
       <use xlink:href="#ArialMT-30" x="139.013672"/>
       <use xlink:href="#ArialMT-38" x="194.628906"/>
      </g>
     </g>
    </g>
    <g id="ytick_6">
     <g id="line2d_21">
      <path d="M 39.625312 26.682551 
L 194.148216 26.682551 
" clip-path="url(#p3a674d7621)" style="fill: none; stroke: #cccccc; stroke-opacity: 0.3; stroke-width: 0.8; stroke-linecap: round"/>
     </g>
     <g id="line2d_22"/>
     <g id="text_12">
      <!-- 0.010 -->
      <g style="fill: #0000ff" transform="translate(18.61 29.187786) scale(0.07 -0.07)">
       <defs>
        <path id="ArialMT-31" d="M 2384 0 
L 1822 0 
L 1822 3584 
Q 1619 3391 1289 3197 
Q 959 3003 697 2906 
L 697 3450 
Q 1169 3672 1522 3987 
Q 1875 4303 2022 4600 
L 2384 4600 
L 2384 0 
z
" transform="scale(0.015625)"/>
       </defs>
       <use xlink:href="#ArialMT-30"/>
       <use xlink:href="#ArialMT-2e" x="55.615234"/>
       <use xlink:href="#ArialMT-30" x="83.398438"/>
       <use xlink:href="#ArialMT-31" x="139.013672"/>
       <use xlink:href="#ArialMT-30" x="194.628906"/>
      </g>
     </g>
    </g>
    <g id="ytick_7">
     <g id="line2d_23">
      <path d="M 39.625312 10.869338 
L 194.148216 10.869338 
" clip-path="url(#p3a674d7621)" style="fill: none; stroke: #cccccc; stroke-opacity: 0.3; stroke-width: 0.8; stroke-linecap: round"/>
     </g>
     <g id="line2d_24"/>
     <g id="text_13">
      <!-- 0.012 -->
      <g style="fill: #0000ff" transform="translate(18.61 13.374572) scale(0.07 -0.07)">
       <use xlink:href="#ArialMT-30"/>
       <use xlink:href="#ArialMT-2e" x="55.615234"/>
       <use xlink:href="#ArialMT-30" x="83.398438"/>
       <use xlink:href="#ArialMT-31" x="139.013672"/>
       <use xlink:href="#ArialMT-32" x="194.628906"/>
      </g>
     </g>
    </g>
    <g id="text_14">
     <!-- Probability Density -->
     <g style="fill: #0000ff" transform="translate(12.92625 89.598059) rotate(-90) scale(0.08 -0.08)">
      <defs>
       <path id="ArialMT-50" d="M 494 0 
L 494 4581 
L 2222 4581 
Q 2678 4581 2919 4538 
Q 3256 4481 3484 4323 
Q 3713 4166 3852 3881 
Q 3991 3597 3991 3256 
Q 3991 2672 3619 2267 
Q 3247 1863 2275 1863 
L 1100 1863 
L 1100 0 
L 494 0 
z
M 1100 2403 
L 2284 2403 
Q 2872 2403 3119 2622 
Q 3366 2841 3366 3238 
Q 3366 3525 3220 3729 
Q 3075 3934 2838 4000 
Q 2684 4041 2272 4041 
L 1100 4041 
L 1100 2403 
z
" transform="scale(0.015625)"/>
       <path id="ArialMT-6f" d="M 213 1659 
Q 213 2581 725 3025 
Q 1153 3394 1769 3394 
Q 2453 3394 2887 2945 
Q 3322 2497 3322 1706 
Q 3322 1066 3130 698 
Q 2938 331 2570 128 
Q 2203 -75 1769 -75 
Q 1072 -75 642 372 
Q 213 819 213 1659 
z
M 791 1659 
Q 791 1022 1069 705 
Q 1347 388 1769 388 
Q 2188 388 2466 706 
Q 2744 1025 2744 1678 
Q 2744 2294 2464 2611 
Q 2184 2928 1769 2928 
Q 1347 2928 1069 2612 
Q 791 2297 791 1659 
z
" transform="scale(0.015625)"/>
       <path id="ArialMT-62" d="M 941 0 
L 419 0 
L 419 4581 
L 981 4581 
L 981 2947 
Q 1338 3394 1891 3394 
Q 2197 3394 2470 3270 
Q 2744 3147 2920 2923 
Q 3097 2700 3197 2384 
Q 3297 2069 3297 1709 
Q 3297 856 2875 390 
Q 2453 -75 1863 -75 
Q 1275 -75 941 416 
L 941 0 
z
M 934 1684 
Q 934 1088 1097 822 
Q 1363 388 1816 388 
Q 2184 388 2453 708 
Q 2722 1028 2722 1663 
Q 2722 2313 2464 2622 
Q 2206 2931 1841 2931 
Q 1472 2931 1203 2611 
Q 934 2291 934 1684 
z
" transform="scale(0.015625)"/>
       <path id="ArialMT-61" d="M 2588 409 
Q 2275 144 1986 34 
Q 1697 -75 1366 -75 
Q 819 -75 525 192 
Q 231 459 231 875 
Q 231 1119 342 1320 
Q 453 1522 633 1644 
Q 813 1766 1038 1828 
Q 1203 1872 1538 1913 
Q 2219 1994 2541 2106 
Q 2544 2222 2544 2253 
Q 2544 2597 2384 2738 
Q 2169 2928 1744 2928 
Q 1347 2928 1158 2789 
Q 969 2650 878 2297 
L 328 2372 
Q 403 2725 575 2942 
Q 747 3159 1072 3276 
Q 1397 3394 1825 3394 
Q 2250 3394 2515 3294 
Q 2781 3194 2906 3042 
Q 3031 2891 3081 2659 
Q 3109 2516 3109 2141 
L 3109 1391 
Q 3109 606 3145 398 
Q 3181 191 3288 0 
L 2700 0 
Q 2613 175 2588 409 
z
M 2541 1666 
Q 2234 1541 1622 1453 
Q 1275 1403 1131 1340 
Q 988 1278 909 1158 
Q 831 1038 831 891 
Q 831 666 1001 516 
Q 1172 366 1500 366 
Q 1825 366 2078 508 
Q 2331 650 2450 897 
Q 2541 1088 2541 1459 
L 2541 1666 
z
" transform="scale(0.015625)"/>
       <path id="ArialMT-6c" d="M 409 0 
L 409 4581 
L 972 4581 
L 972 0 
L 409 0 
z
" transform="scale(0.015625)"/>
       <path id="ArialMT-74" d="M 1650 503 
L 1731 6 
Q 1494 -44 1306 -44 
Q 1000 -44 831 53 
Q 663 150 594 308 
Q 525 466 525 972 
L 525 2881 
L 113 2881 
L 113 3319 
L 525 3319 
L 525 4141 
L 1084 4478 
L 1084 3319 
L 1650 3319 
L 1650 2881 
L 1084 2881 
L 1084 941 
Q 1084 700 1114 631 
Q 1144 563 1211 522 
Q 1278 481 1403 481 
Q 1497 481 1650 503 
z
" transform="scale(0.015625)"/>
       <path id="ArialMT-79" d="M 397 -1278 
L 334 -750 
Q 519 -800 656 -800 
Q 844 -800 956 -737 
Q 1069 -675 1141 -563 
Q 1194 -478 1313 -144 
Q 1328 -97 1363 -6 
L 103 3319 
L 709 3319 
L 1400 1397 
Q 1534 1031 1641 628 
Q 1738 1016 1872 1384 
L 2581 3319 
L 3144 3319 
L 1881 -56 
Q 1678 -603 1566 -809 
Q 1416 -1088 1222 -1217 
Q 1028 -1347 759 -1347 
Q 597 -1347 397 -1278 
z
" transform="scale(0.015625)"/>
       <path id="ArialMT-20" transform="scale(0.015625)"/>
       <path id="ArialMT-44" d="M 494 0 
L 494 4581 
L 2072 4581 
Q 2606 4581 2888 4516 
Q 3281 4425 3559 4188 
Q 3922 3881 4101 3404 
Q 4281 2928 4281 2316 
Q 4281 1794 4159 1391 
Q 4038 988 3847 723 
Q 3656 459 3429 307 
Q 3203 156 2883 78 
Q 2563 0 2147 0 
L 494 0 
z
M 1100 541 
L 2078 541 
Q 2531 541 2789 625 
Q 3047 709 3200 863 
Q 3416 1078 3536 1442 
Q 3656 1806 3656 2325 
Q 3656 3044 3420 3430 
Q 3184 3816 2847 3947 
Q 2603 4041 2063 4041 
L 1100 4041 
L 1100 541 
z
" transform="scale(0.015625)"/>
       <path id="ArialMT-6e" d="M 422 0 
L 422 3319 
L 928 3319 
L 928 2847 
Q 1294 3394 1984 3394 
Q 2284 3394 2536 3286 
Q 2788 3178 2913 3003 
Q 3038 2828 3088 2588 
Q 3119 2431 3119 2041 
L 3119 0 
L 2556 0 
L 2556 2019 
Q 2556 2363 2490 2533 
Q 2425 2703 2258 2804 
Q 2091 2906 1866 2906 
Q 1506 2906 1245 2678 
Q 984 2450 984 1813 
L 984 0 
L 422 0 
z
" transform="scale(0.015625)"/>
       <path id="ArialMT-73" d="M 197 991 
L 753 1078 
Q 800 744 1014 566 
Q 1228 388 1613 388 
Q 2000 388 2187 545 
Q 2375 703 2375 916 
Q 2375 1106 2209 1216 
Q 2094 1291 1634 1406 
Q 1016 1563 777 1677 
Q 538 1791 414 1992 
Q 291 2194 291 2438 
Q 291 2659 392 2848 
Q 494 3038 669 3163 
Q 800 3259 1026 3326 
Q 1253 3394 1513 3394 
Q 1903 3394 2198 3281 
Q 2494 3169 2634 2976 
Q 2775 2784 2828 2463 
L 2278 2388 
Q 2241 2644 2061 2787 
Q 1881 2931 1553 2931 
Q 1166 2931 1000 2803 
Q 834 2675 834 2503 
Q 834 2394 903 2306 
Q 972 2216 1119 2156 
Q 1203 2125 1616 2013 
Q 2213 1853 2448 1751 
Q 2684 1650 2818 1456 
Q 2953 1263 2953 975 
Q 2953 694 2789 445 
Q 2625 197 2315 61 
Q 2006 -75 1616 -75 
Q 969 -75 630 194 
Q 291 463 197 991 
z
" transform="scale(0.015625)"/>
      </defs>
      <use xlink:href="#ArialMT-50"/>
      <use xlink:href="#ArialMT-72" x="66.699219"/>
      <use xlink:href="#ArialMT-6f" x="100"/>
      <use xlink:href="#ArialMT-62" x="155.615234"/>
      <use xlink:href="#ArialMT-61" x="211.230469"/>
      <use xlink:href="#ArialMT-62" x="266.845703"/>
      <use xlink:href="#ArialMT-69" x="322.460938"/>
      <use xlink:href="#ArialMT-6c" x="344.677734"/>
      <use xlink:href="#ArialMT-69" x="366.894531"/>
      <use xlink:href="#ArialMT-74" x="389.111328"/>
      <use xlink:href="#ArialMT-79" x="416.894531"/>
      <use xlink:href="#ArialMT-20" x="466.894531"/>
      <use xlink:href="#ArialMT-44" x="494.677734"/>
      <use xlink:href="#ArialMT-65" x="566.894531"/>
      <use xlink:href="#ArialMT-6e" x="622.509766"/>
      <use xlink:href="#ArialMT-73" x="678.125"/>
      <use xlink:href="#ArialMT-69" x="728.125"/>
      <use xlink:href="#ArialMT-74" x="750.341797"/>
      <use xlink:href="#ArialMT-79" x="778.125"/>
     </g>
    </g>
   </g>
   <g id="patch_3">
    <path d="M 46.649081 105.748617 
L 48.053835 105.748617 
L 48.053835 105.631444 
L 46.649081 105.631444 
z
" clip-path="url(#p3a674d7621)" style="fill: #0000ff; opacity: 0.5"/>
   </g>
   <g id="patch_4">
    <path d="M 48.053835 105.748617 
L 49.458588 105.748617 
L 49.458588 105.748617 
L 48.053835 105.748617 
z
" clip-path="url(#p3a674d7621)" style="fill: #0000ff; opacity: 0.5"/>
   </g>
   <g id="patch_5">
    <path d="M 49.458588 105.748617 
L 50.863342 105.748617 
L 50.863342 105.748617 
L 49.458588 105.748617 
z
" clip-path="url(#p3a674d7621)" style="fill: #0000ff; opacity: 0.5"/>
   </g>
   <g id="patch_6">
    <path d="M 50.863342 105.748617 
L 52.268096 105.748617 
L 52.268096 105.631444 
L 50.863342 105.631444 
z
" clip-path="url(#p3a674d7621)" style="fill: #0000ff; opacity: 0.5"/>
   </g>
   <g id="patch_7">
    <path d="M 52.268096 105.748617 
L 53.672849 105.748617 
L 53.672849 105.748617 
L 52.268096 105.748617 
z
" clip-path="url(#p3a674d7621)" style="fill: #0000ff; opacity: 0.5"/>
   </g>
   <g id="patch_8">
    <path d="M 53.672849 105.748617 
L 55.077603 105.748617 
L 55.077603 105.51427 
L 53.672849 105.51427 
z
" clip-path="url(#p3a674d7621)" style="fill: #0000ff; opacity: 0.5"/>
   </g>
   <g id="patch_9">
    <path d="M 55.077603 105.748617 
L 56.482357 105.748617 
L 56.482357 105.631444 
L 55.077603 105.631444 
z
" clip-path="url(#p3a674d7621)" style="fill: #0000ff; opacity: 0.5"/>
   </g>
   <g id="patch_10">
    <path d="M 56.482357 105.748617 
L 57.88711 105.748617 
L 57.88711 105.631444 
L 56.482357 105.631444 
z
" clip-path="url(#p3a674d7621)" style="fill: #0000ff; opacity: 0.5"/>
   </g>
   <g id="patch_11">
    <path d="M 57.88711 105.748617 
L 59.291864 105.748617 
L 59.291864 105.631444 
L 57.88711 105.631444 
z
" clip-path="url(#p3a674d7621)" style="fill: #0000ff; opacity: 0.5"/>
   </g>
   <g id="patch_12">
    <path d="M 59.291864 105.748617 
L 60.696618 105.748617 
L 60.696618 105.397097 
L 59.291864 105.397097 
z
" clip-path="url(#p3a674d7621)" style="fill: #0000ff; opacity: 0.5"/>
   </g>
   <g id="patch_13">
    <path d="M 60.696618 105.748617 
L 62.101371 105.748617 
L 62.101371 105.631444 
L 60.696618 105.631444 
z
" clip-path="url(#p3a674d7621)" style="fill: #0000ff; opacity: 0.5"/>
   </g>
   <g id="patch_14">
    <path d="M 62.101371 105.748617 
L 63.506125 105.748617 
L 63.506125 105.631444 
L 62.101371 105.631444 
z
" clip-path="url(#p3a674d7621)" style="fill: #0000ff; opacity: 0.5"/>
   </g>
   <g id="patch_15">
    <path d="M 63.506125 105.748617 
L 64.910879 105.748617 
L 64.910879 105.51427 
L 63.506125 105.51427 
z
" clip-path="url(#p3a674d7621)" style="fill: #0000ff; opacity: 0.5"/>
   </g>
   <g id="patch_16">
    <path d="M 64.910879 105.748617 
L 66.315632 105.748617 
L 66.315632 105.397097 
L 64.910879 105.397097 
z
" clip-path="url(#p3a674d7621)" style="fill: #0000ff; opacity: 0.5"/>
   </g>
   <g id="patch_17">
    <path d="M 66.315632 105.748617 
L 67.720386 105.748617 
L 67.720386 105.51427 
L 66.315632 105.51427 
z
" clip-path="url(#p3a674d7621)" style="fill: #0000ff; opacity: 0.5"/>
   </g>
   <g id="patch_18">
    <path d="M 67.720386 105.748617 
L 69.12514 105.748617 
L 69.12514 104.928404 
L 67.720386 104.928404 
z
" clip-path="url(#p3a674d7621)" style="fill: #0000ff; opacity: 0.5"/>
   </g>
   <g id="patch_19">
    <path d="M 69.12514 105.748617 
L 70.529893 105.748617 
L 70.529893 104.225364 
L 69.12514 104.225364 
z
" clip-path="url(#p3a674d7621)" style="fill: #0000ff; opacity: 0.5"/>
   </g>
   <g id="patch_20">
    <path d="M 70.529893 105.748617 
L 71.934647 105.748617 
L 71.934647 104.811231 
L 70.529893 104.811231 
z
" clip-path="url(#p3a674d7621)" style="fill: #0000ff; opacity: 0.5"/>
   </g>
   <g id="patch_21">
    <path d="M 71.934647 105.748617 
L 73.339401 105.748617 
L 73.339401 104.811231 
L 71.934647 104.811231 
z
" clip-path="url(#p3a674d7621)" style="fill: #0000ff; opacity: 0.5"/>
   </g>
   <g id="patch_22">
    <path d="M 73.339401 105.748617 
L 74.744154 105.748617 
L 74.744154 103.287977 
L 73.339401 103.287977 
z
" clip-path="url(#p3a674d7621)" style="fill: #0000ff; opacity: 0.5"/>
   </g>
   <g id="patch_23">
    <path d="M 74.744154 105.748617 
L 76.148908 105.748617 
L 76.148908 102.233418 
L 74.744154 102.233418 
z
" clip-path="url(#p3a674d7621)" style="fill: #0000ff; opacity: 0.5"/>
   </g>
   <g id="patch_24">
    <path d="M 76.148908 105.748617 
L 77.553662 105.748617 
L 77.553662 101.061685 
L 76.148908 101.061685 
z
" clip-path="url(#p3a674d7621)" style="fill: #0000ff; opacity: 0.5"/>
   </g>
   <g id="patch_25">
    <path d="M 77.553662 105.748617 
L 78.958415 105.748617 
L 78.958415 98.483872 
L 77.553662 98.483872 
z
" clip-path="url(#p3a674d7621)" style="fill: #0000ff; opacity: 0.5"/>
   </g>
   <g id="patch_26">
    <path d="M 78.958415 105.748617 
L 80.363169 105.748617 
L 80.363169 55.832785 
L 78.958415 55.832785 
z
" clip-path="url(#p3a674d7621)" style="fill: #0000ff; opacity: 0.5"/>
   </g>
   <g id="patch_27">
    <path d="M 80.363169 105.748617 
L 81.767923 105.748617 
L 81.767923 76.689635 
L 80.363169 76.689635 
z
" clip-path="url(#p3a674d7621)" style="fill: #0000ff; opacity: 0.5"/>
   </g>
   <g id="patch_28">
    <path d="M 81.767923 105.748617 
L 83.172676 105.748617 
L 83.172676 84.071554 
L 81.767923 84.071554 
z
" clip-path="url(#p3a674d7621)" style="fill: #0000ff; opacity: 0.5"/>
   </g>
   <g id="patch_29">
    <path d="M 83.172676 105.748617 
L 84.57743 105.748617 
L 84.57743 82.431127 
L 83.172676 82.431127 
z
" clip-path="url(#p3a674d7621)" style="fill: #0000ff; opacity: 0.5"/>
   </g>
   <g id="patch_30">
    <path d="M 84.57743 105.748617 
L 85.982184 105.748617 
L 85.982184 75.635075 
L 84.57743 75.635075 
z
" clip-path="url(#p3a674d7621)" style="fill: #0000ff; opacity: 0.5"/>
   </g>
   <g id="patch_31">
    <path d="M 85.982184 105.748617 
L 87.386937 105.748617 
L 87.386937 68.721849 
L 85.982184 68.721849 
z
" clip-path="url(#p3a674d7621)" style="fill: #0000ff; opacity: 0.5"/>
   </g>
   <g id="patch_32">
    <path d="M 87.386937 105.748617 
L 88.791691 105.748617 
L 88.791691 50.091292 
L 87.386937 50.091292 
z
" clip-path="url(#p3a674d7621)" style="fill: #0000ff; opacity: 0.5"/>
   </g>
   <g id="patch_33">
    <path d="M 88.791691 105.748617 
L 90.196445 105.748617 
L 90.196445 45.170013 
L 88.791691 45.170013 
z
" clip-path="url(#p3a674d7621)" style="fill: #0000ff; opacity: 0.5"/>
   </g>
   <g id="patch_34">
    <path d="M 90.196445 105.748617 
L 91.601198 105.748617 
L 91.601198 15.759511 
L 90.196445 15.759511 
z
" clip-path="url(#p3a674d7621)" style="fill: #0000ff; opacity: 0.5"/>
   </g>
   <g id="patch_35">
    <path d="M 91.601198 105.748617 
L 93.005952 105.748617 
L 93.005952 11.892791 
L 91.601198 11.892791 
z
" clip-path="url(#p3a674d7621)" style="fill: #0000ff; opacity: 0.5"/>
   </g>
   <g id="patch_36">
    <path d="M 93.005952 105.748617 
L 94.410706 105.748617 
L 94.410706 15.407991 
L 93.005952 15.407991 
z
" clip-path="url(#p3a674d7621)" style="fill: #0000ff; opacity: 0.5"/>
   </g>
   <g id="patch_37">
    <path d="M 94.410706 105.748617 
L 95.815459 105.748617 
L 95.815459 21.618176 
L 94.410706 21.618176 
z
" clip-path="url(#p3a674d7621)" style="fill: #0000ff; opacity: 0.5"/>
   </g>
   <g id="patch_38">
    <path d="M 95.815459 105.748617 
L 97.220213 105.748617 
L 97.220213 26.070762 
L 95.815459 26.070762 
z
" clip-path="url(#p3a674d7621)" style="fill: #0000ff; opacity: 0.5"/>
   </g>
   <g id="patch_39">
    <path d="M 97.220213 105.748617 
L 98.624967 105.748617 
L 98.624967 42.123507 
L 97.220213 42.123507 
z
" clip-path="url(#p3a674d7621)" style="fill: #0000ff; opacity: 0.5"/>
   </g>
   <g id="patch_40">
    <path d="M 98.624967 105.748617 
L 100.02972 105.748617 
L 100.02972 49.271079 
L 98.624967 49.271079 
z
" clip-path="url(#p3a674d7621)" style="fill: #0000ff; opacity: 0.5"/>
   </g>
   <g id="patch_41">
    <path d="M 100.02972 105.748617 
L 101.434474 105.748617 
L 101.434474 62.74601 
L 100.02972 62.74601 
z
" clip-path="url(#p3a674d7621)" style="fill: #0000ff; opacity: 0.5"/>
   </g>
   <g id="patch_42">
    <path d="M 101.434474 105.748617 
L 102.839228 105.748617 
L 102.839228 77.041155 
L 101.434474 77.041155 
z
" clip-path="url(#p3a674d7621)" style="fill: #0000ff; opacity: 0.5"/>
   </g>
   <g id="patch_43">
    <path d="M 102.839228 105.748617 
L 104.243981 105.748617 
L 104.243981 83.95438 
L 102.839228 83.95438 
z
" clip-path="url(#p3a674d7621)" style="fill: #0000ff; opacity: 0.5"/>
   </g>
   <g id="patch_44">
    <path d="M 104.243981 105.748617 
L 105.648735 105.748617 
L 105.648735 92.859552 
L 104.243981 92.859552 
z
" clip-path="url(#p3a674d7621)" style="fill: #0000ff; opacity: 0.5"/>
   </g>
   <g id="patch_45">
    <path d="M 105.648735 105.748617 
L 107.053489 105.748617 
L 107.053489 95.320192 
L 105.648735 95.320192 
z
" clip-path="url(#p3a674d7621)" style="fill: #0000ff; opacity: 0.5"/>
   </g>
   <g id="patch_46">
    <path d="M 107.053489 105.748617 
L 108.458242 105.748617 
L 108.458242 100.241471 
L 107.053489 100.241471 
z
" clip-path="url(#p3a674d7621)" style="fill: #0000ff; opacity: 0.5"/>
   </g>
   <g id="patch_47">
    <path d="M 108.458242 105.748617 
L 109.862996 105.748617 
L 109.862996 101.881898 
L 108.458242 101.881898 
z
" clip-path="url(#p3a674d7621)" style="fill: #0000ff; opacity: 0.5"/>
   </g>
   <g id="patch_48">
    <path d="M 109.862996 105.748617 
L 111.26775 105.748617 
L 111.26775 103.053631 
L 109.862996 103.053631 
z
" clip-path="url(#p3a674d7621)" style="fill: #0000ff; opacity: 0.5"/>
   </g>
   <g id="patch_49">
    <path d="M 111.26775 105.748617 
L 112.672503 105.748617 
L 112.672503 103.522324 
L 111.26775 103.522324 
z
" clip-path="url(#p3a674d7621)" style="fill: #0000ff; opacity: 0.5"/>
   </g>
   <g id="patch_50">
    <path d="M 112.672503 105.748617 
L 114.077257 105.748617 
L 114.077257 105.162751 
L 112.672503 105.162751 
z
" clip-path="url(#p3a674d7621)" style="fill: #0000ff; opacity: 0.5"/>
   </g>
   <g id="patch_51">
    <path d="M 114.077257 105.748617 
L 115.482011 105.748617 
L 115.482011 105.162751 
L 114.077257 105.162751 
z
" clip-path="url(#p3a674d7621)" style="fill: #0000ff; opacity: 0.5"/>
   </g>
   <g id="patch_52">
    <path d="M 115.482011 105.748617 
L 116.886764 105.748617 
L 116.886764 105.397097 
L 115.482011 105.397097 
z
" clip-path="url(#p3a674d7621)" style="fill: #0000ff; opacity: 0.5"/>
   </g>
   <g id="patch_53">
    <path d="M 116.886764 105.748617 
L 118.291518 105.748617 
L 118.291518 104.459711 
L 116.886764 104.459711 
z
" clip-path="url(#p3a674d7621)" style="fill: #0000ff; opacity: 0.5"/>
   </g>
   <g id="patch_54">
    <path d="M 118.291518 105.748617 
L 119.696272 105.748617 
L 119.696272 105.631444 
L 118.291518 105.631444 
z
" clip-path="url(#p3a674d7621)" style="fill: #0000ff; opacity: 0.5"/>
   </g>
   <g id="patch_55">
    <path d="M 119.696272 105.748617 
L 121.101025 105.748617 
L 121.101025 105.045577 
L 119.696272 105.045577 
z
" clip-path="url(#p3a674d7621)" style="fill: #0000ff; opacity: 0.5"/>
   </g>
   <g id="patch_56">
    <path d="M 121.101025 105.748617 
L 122.505779 105.748617 
L 122.505779 105.631444 
L 121.101025 105.631444 
z
" clip-path="url(#p3a674d7621)" style="fill: #0000ff; opacity: 0.5"/>
   </g>
   <g id="patch_57">
    <path d="M 122.505779 105.748617 
L 123.910533 105.748617 
L 123.910533 105.162751 
L 122.505779 105.162751 
z
" clip-path="url(#p3a674d7621)" style="fill: #0000ff; opacity: 0.5"/>
   </g>
   <g id="patch_58">
    <path d="M 123.910533 105.748617 
L 125.315286 105.748617 
L 125.315286 104.928404 
L 123.910533 104.928404 
z
" clip-path="url(#p3a674d7621)" style="fill: #0000ff; opacity: 0.5"/>
   </g>
   <g id="patch_59">
    <path d="M 125.315286 105.748617 
L 126.72004 105.748617 
L 126.72004 105.51427 
L 125.315286 105.51427 
z
" clip-path="url(#p3a674d7621)" style="fill: #0000ff; opacity: 0.5"/>
   </g>
   <g id="patch_60">
    <path d="M 126.72004 105.748617 
L 128.124794 105.748617 
L 128.124794 105.748617 
L 126.72004 105.748617 
z
" clip-path="url(#p3a674d7621)" style="fill: #0000ff; opacity: 0.5"/>
   </g>
   <g id="patch_61">
    <path d="M 128.124794 105.748617 
L 129.529547 105.748617 
L 129.529547 105.51427 
L 128.124794 105.51427 
z
" clip-path="url(#p3a674d7621)" style="fill: #0000ff; opacity: 0.5"/>
   </g>
   <g id="patch_62">
    <path d="M 129.529547 105.748617 
L 130.934301 105.748617 
L 130.934301 105.51427 
L 129.529547 105.51427 
z
" clip-path="url(#p3a674d7621)" style="fill: #0000ff; opacity: 0.5"/>
   </g>
   <g id="patch_63">
    <path d="M 130.934301 105.748617 
L 132.339055 105.748617 
L 132.339055 105.748617 
L 130.934301 105.748617 
z
" clip-path="url(#p3a674d7621)" style="fill: #0000ff; opacity: 0.5"/>
   </g>
   <g id="patch_64">
    <path d="M 132.339055 105.748617 
L 133.743808 105.748617 
L 133.743808 105.51427 
L 132.339055 105.51427 
z
" clip-path="url(#p3a674d7621)" style="fill: #0000ff; opacity: 0.5"/>
   </g>
   <g id="patch_65">
    <path d="M 133.743808 105.748617 
L 135.148562 105.748617 
L 135.148562 105.51427 
L 133.743808 105.51427 
z
" clip-path="url(#p3a674d7621)" style="fill: #0000ff; opacity: 0.5"/>
   </g>
   <g id="patch_66">
    <path d="M 135.148562 105.748617 
L 136.553316 105.748617 
L 136.553316 105.748617 
L 135.148562 105.748617 
z
" clip-path="url(#p3a674d7621)" style="fill: #0000ff; opacity: 0.5"/>
   </g>
   <g id="patch_67">
    <path d="M 136.553316 105.748617 
L 137.958069 105.748617 
L 137.958069 105.279924 
L 136.553316 105.279924 
z
" clip-path="url(#p3a674d7621)" style="fill: #0000ff; opacity: 0.5"/>
   </g>
   <g id="patch_68">
    <path d="M 137.958069 105.748617 
L 139.362823 105.748617 
L 139.362823 105.748617 
L 137.958069 105.748617 
z
" clip-path="url(#p3a674d7621)" style="fill: #0000ff; opacity: 0.5"/>
   </g>
   <g id="patch_69">
    <path d="M 139.362823 105.748617 
L 140.767577 105.748617 
L 140.767577 105.631444 
L 139.362823 105.631444 
z
" clip-path="url(#p3a674d7621)" style="fill: #0000ff; opacity: 0.5"/>
   </g>
   <g id="patch_70">
    <path d="M 140.767577 105.748617 
L 142.17233 105.748617 
L 142.17233 105.631444 
L 140.767577 105.631444 
z
" clip-path="url(#p3a674d7621)" style="fill: #0000ff; opacity: 0.5"/>
   </g>
   <g id="patch_71">
    <path d="M 142.17233 105.748617 
L 143.577084 105.748617 
L 143.577084 105.631444 
L 142.17233 105.631444 
z
" clip-path="url(#p3a674d7621)" style="fill: #0000ff; opacity: 0.5"/>
   </g>
   <g id="patch_72">
    <path d="M 143.577084 105.748617 
L 144.981838 105.748617 
L 144.981838 105.631444 
L 143.577084 105.631444 
z
" clip-path="url(#p3a674d7621)" style="fill: #0000ff; opacity: 0.5"/>
   </g>
   <g id="patch_73">
    <path d="M 144.981838 105.748617 
L 146.386591 105.748617 
L 146.386591 105.631444 
L 144.981838 105.631444 
z
" clip-path="url(#p3a674d7621)" style="fill: #0000ff; opacity: 0.5"/>
   </g>
   <g id="patch_74">
    <path d="M 146.386591 105.748617 
L 147.791345 105.748617 
L 147.791345 105.748617 
L 146.386591 105.748617 
z
" clip-path="url(#p3a674d7621)" style="fill: #0000ff; opacity: 0.5"/>
   </g>
   <g id="patch_75">
    <path d="M 147.791345 105.748617 
L 149.196099 105.748617 
L 149.196099 105.631444 
L 147.791345 105.631444 
z
" clip-path="url(#p3a674d7621)" style="fill: #0000ff; opacity: 0.5"/>
   </g>
   <g id="patch_76">
    <path d="M 149.196099 105.748617 
L 150.600852 105.748617 
L 150.600852 105.631444 
L 149.196099 105.631444 
z
" clip-path="url(#p3a674d7621)" style="fill: #0000ff; opacity: 0.5"/>
   </g>
   <g id="patch_77">
    <path d="M 150.600852 105.748617 
L 152.005606 105.748617 
L 152.005606 105.51427 
L 150.600852 105.51427 
z
" clip-path="url(#p3a674d7621)" style="fill: #0000ff; opacity: 0.5"/>
   </g>
   <g id="patch_78">
    <path d="M 152.005606 105.748617 
L 153.41036 105.748617 
L 153.41036 105.748617 
L 152.005606 105.748617 
z
" clip-path="url(#p3a674d7621)" style="fill: #0000ff; opacity: 0.5"/>
   </g>
   <g id="patch_79">
    <path d="M 153.41036 105.748617 
L 154.815113 105.748617 
L 154.815113 105.748617 
L 153.41036 105.748617 
z
" clip-path="url(#p3a674d7621)" style="fill: #0000ff; opacity: 0.5"/>
   </g>
   <g id="patch_80">
    <path d="M 154.815113 105.748617 
L 156.219867 105.748617 
L 156.219867 105.748617 
L 154.815113 105.748617 
z
" clip-path="url(#p3a674d7621)" style="fill: #0000ff; opacity: 0.5"/>
   </g>
   <g id="patch_81">
    <path d="M 156.219867 105.748617 
L 157.624621 105.748617 
L 157.624621 105.748617 
L 156.219867 105.748617 
z
" clip-path="url(#p3a674d7621)" style="fill: #0000ff; opacity: 0.5"/>
   </g>
   <g id="patch_82">
    <path d="M 157.624621 105.748617 
L 159.029374 105.748617 
L 159.029374 105.748617 
L 157.624621 105.748617 
z
" clip-path="url(#p3a674d7621)" style="fill: #0000ff; opacity: 0.5"/>
   </g>
   <g id="patch_83">
    <path d="M 159.029374 105.748617 
L 160.434128 105.748617 
L 160.434128 105.748617 
L 159.029374 105.748617 
z
" clip-path="url(#p3a674d7621)" style="fill: #0000ff; opacity: 0.5"/>
   </g>
   <g id="patch_84">
    <path d="M 160.434128 105.748617 
L 161.838882 105.748617 
L 161.838882 105.631444 
L 160.434128 105.631444 
z
" clip-path="url(#p3a674d7621)" style="fill: #0000ff; opacity: 0.5"/>
   </g>
   <g id="patch_85">
    <path d="M 161.838882 105.748617 
L 163.243635 105.748617 
L 163.243635 105.631444 
L 161.838882 105.631444 
z
" clip-path="url(#p3a674d7621)" style="fill: #0000ff; opacity: 0.5"/>
   </g>
   <g id="patch_86">
    <path d="M 163.243635 105.748617 
L 164.648389 105.748617 
L 164.648389 105.748617 
L 163.243635 105.748617 
z
" clip-path="url(#p3a674d7621)" style="fill: #0000ff; opacity: 0.5"/>
   </g>
   <g id="patch_87">
    <path d="M 164.648389 105.748617 
L 166.053143 105.748617 
L 166.053143 105.748617 
L 164.648389 105.748617 
z
" clip-path="url(#p3a674d7621)" style="fill: #0000ff; opacity: 0.5"/>
   </g>
   <g id="patch_88">
    <path d="M 166.053143 105.748617 
L 167.457896 105.748617 
L 167.457896 105.748617 
L 166.053143 105.748617 
z
" clip-path="url(#p3a674d7621)" style="fill: #0000ff; opacity: 0.5"/>
   </g>
   <g id="patch_89">
    <path d="M 167.457896 105.748617 
L 168.86265 105.748617 
L 168.86265 105.748617 
L 167.457896 105.748617 
z
" clip-path="url(#p3a674d7621)" style="fill: #0000ff; opacity: 0.5"/>
   </g>
   <g id="patch_90">
    <path d="M 168.86265 105.748617 
L 170.267404 105.748617 
L 170.267404 105.748617 
L 168.86265 105.748617 
z
" clip-path="url(#p3a674d7621)" style="fill: #0000ff; opacity: 0.5"/>
   </g>
   <g id="patch_91">
    <path d="M 170.267404 105.748617 
L 171.672157 105.748617 
L 171.672157 105.748617 
L 170.267404 105.748617 
z
" clip-path="url(#p3a674d7621)" style="fill: #0000ff; opacity: 0.5"/>
   </g>
   <g id="patch_92">
    <path d="M 171.672157 105.748617 
L 173.076911 105.748617 
L 173.076911 105.748617 
L 171.672157 105.748617 
z
" clip-path="url(#p3a674d7621)" style="fill: #0000ff; opacity: 0.5"/>
   </g>
   <g id="patch_93">
    <path d="M 173.076911 105.748617 
L 174.481665 105.748617 
L 174.481665 105.748617 
L 173.076911 105.748617 
z
" clip-path="url(#p3a674d7621)" style="fill: #0000ff; opacity: 0.5"/>
   </g>
   <g id="patch_94">
    <path d="M 174.481665 105.748617 
L 175.886418 105.748617 
L 175.886418 105.748617 
L 174.481665 105.748617 
z
" clip-path="url(#p3a674d7621)" style="fill: #0000ff; opacity: 0.5"/>
   </g>
   <g id="patch_95">
    <path d="M 175.886418 105.748617 
L 177.291172 105.748617 
L 177.291172 105.748617 
L 175.886418 105.748617 
z
" clip-path="url(#p3a674d7621)" style="fill: #0000ff; opacity: 0.5"/>
   </g>
   <g id="patch_96">
    <path d="M 177.291172 105.748617 
L 178.695926 105.748617 
L 178.695926 105.748617 
L 177.291172 105.748617 
z
" clip-path="url(#p3a674d7621)" style="fill: #0000ff; opacity: 0.5"/>
   </g>
   <g id="patch_97">
    <path d="M 178.695926 105.748617 
L 180.100679 105.748617 
L 180.100679 105.748617 
L 178.695926 105.748617 
z
" clip-path="url(#p3a674d7621)" style="fill: #0000ff; opacity: 0.5"/>
   </g>
   <g id="patch_98">
    <path d="M 180.100679 105.748617 
L 181.505433 105.748617 
L 181.505433 105.631444 
L 180.100679 105.631444 
z
" clip-path="url(#p3a674d7621)" style="fill: #0000ff; opacity: 0.5"/>
   </g>
   <g id="patch_99">
    <path d="M 181.505433 105.748617 
L 182.910187 105.748617 
L 182.910187 105.748617 
L 181.505433 105.748617 
z
" clip-path="url(#p3a674d7621)" style="fill: #0000ff; opacity: 0.5"/>
   </g>
   <g id="patch_100">
    <path d="M 182.910187 105.748617 
L 184.31494 105.748617 
L 184.31494 105.748617 
L 182.910187 105.748617 
z
" clip-path="url(#p3a674d7621)" style="fill: #0000ff; opacity: 0.5"/>
   </g>
   <g id="patch_101">
    <path d="M 184.31494 105.748617 
L 185.719694 105.748617 
L 185.719694 105.748617 
L 184.31494 105.748617 
z
" clip-path="url(#p3a674d7621)" style="fill: #0000ff; opacity: 0.5"/>
   </g>
   <g id="patch_102">
    <path d="M 185.719694 105.748617 
L 187.124448 105.748617 
L 187.124448 105.631444 
L 185.719694 105.631444 
z
" clip-path="url(#p3a674d7621)" style="fill: #0000ff; opacity: 0.5"/>
   </g>
   <g id="patch_103">
    <path d="M 39.625312 105.748617 
L 39.625312 7.2 
" style="fill: none; stroke: #cccccc; stroke-linejoin: miter; stroke-linecap: square"/>
   </g>
   <g id="patch_104">
    <path d="M 194.148216 105.748617 
L 194.148216 7.2 
" style="fill: none; stroke: #cccccc; stroke-linejoin: miter; stroke-linecap: square"/>
   </g>
   <g id="patch_105">
    <path d="M 39.625312 105.748617 
L 194.148216 105.748617 
" style="fill: none; stroke: #cccccc; stroke-linejoin: miter; stroke-linecap: square"/>
   </g>
   <g id="patch_106">
    <path d="M 39.625312 7.2 
L 194.148216 7.2 
" style="fill: none; stroke: #cccccc; stroke-linejoin: miter; stroke-linecap: square"/>
   </g>
  </g>
  <g id="axes_2">
   <g id="matplotlib.axis_3">
    <g id="ytick_8">
     <g id="line2d_25">
      <path d="M 39.625312 101.269135 
L 194.148216 101.269135 
" clip-path="url(#p3a674d7621)" style="fill: none; stroke: #cccccc; stroke-opacity: 0.3; stroke-width: 0.8; stroke-linecap: round"/>
     </g>
     <g id="line2d_26"/>
     <g id="text_15">
      <!-- 0.0 -->
      <g style="fill: #ff0000" transform="translate(197.648216 103.774369) scale(0.07 -0.07)">
       <use xlink:href="#ArialMT-30"/>
       <use xlink:href="#ArialMT-2e" x="55.615234"/>
       <use xlink:href="#ArialMT-30" x="83.398438"/>
      </g>
     </g>
    </g>
    <g id="ytick_9">
     <g id="line2d_27">
      <path d="M 39.625312 83.351204 
L 194.148216 83.351204 
" clip-path="url(#p3a674d7621)" style="fill: none; stroke: #cccccc; stroke-opacity: 0.3; stroke-width: 0.8; stroke-linecap: round"/>
     </g>
     <g id="line2d_28"/>
     <g id="text_16">
      <!-- 0.2 -->
      <g style="fill: #ff0000" transform="translate(197.648216 85.856439) scale(0.07 -0.07)">
       <use xlink:href="#ArialMT-30"/>
       <use xlink:href="#ArialMT-2e" x="55.615234"/>
       <use xlink:href="#ArialMT-32" x="83.398438"/>
      </g>
     </g>
    </g>
    <g id="ytick_10">
     <g id="line2d_29">
      <path d="M 39.625312 65.433274 
L 194.148216 65.433274 
" clip-path="url(#p3a674d7621)" style="fill: none; stroke: #cccccc; stroke-opacity: 0.3; stroke-width: 0.8; stroke-linecap: round"/>
     </g>
     <g id="line2d_30"/>
     <g id="text_17">
      <!-- 0.4 -->
      <g style="fill: #ff0000" transform="translate(197.648216 67.938508) scale(0.07 -0.07)">
       <use xlink:href="#ArialMT-30"/>
       <use xlink:href="#ArialMT-2e" x="55.615234"/>
       <use xlink:href="#ArialMT-34" x="83.398438"/>
      </g>
     </g>
    </g>
    <g id="ytick_11">
     <g id="line2d_31">
      <path d="M 39.625312 47.515343 
L 194.148216 47.515343 
" clip-path="url(#p3a674d7621)" style="fill: none; stroke: #cccccc; stroke-opacity: 0.3; stroke-width: 0.8; stroke-linecap: round"/>
     </g>
     <g id="line2d_32"/>
     <g id="text_18">
      <!-- 0.6 -->
      <g style="fill: #ff0000" transform="translate(197.648216 50.020578) scale(0.07 -0.07)">
       <use xlink:href="#ArialMT-30"/>
       <use xlink:href="#ArialMT-2e" x="55.615234"/>
       <use xlink:href="#ArialMT-36" x="83.398438"/>
      </g>
     </g>
    </g>
    <g id="ytick_12">
     <g id="line2d_33">
      <path d="M 39.625312 29.597413 
L 194.148216 29.597413 
" clip-path="url(#p3a674d7621)" style="fill: none; stroke: #cccccc; stroke-opacity: 0.3; stroke-width: 0.8; stroke-linecap: round"/>
     </g>
     <g id="line2d_34"/>
     <g id="text_19">
      <!-- 0.8 -->
      <g style="fill: #ff0000" transform="translate(197.648216 32.102647) scale(0.07 -0.07)">
       <use xlink:href="#ArialMT-30"/>
       <use xlink:href="#ArialMT-2e" x="55.615234"/>
       <use xlink:href="#ArialMT-38" x="83.398438"/>
      </g>
     </g>
    </g>
    <g id="ytick_13">
     <g id="line2d_35">
      <path d="M 39.625312 11.679483 
L 194.148216 11.679483 
" clip-path="url(#p3a674d7621)" style="fill: none; stroke: #cccccc; stroke-opacity: 0.3; stroke-width: 0.8; stroke-linecap: round"/>
     </g>
     <g id="line2d_36"/>
     <g id="text_20">
      <!-- 1.0 -->
      <g style="fill: #ff0000" transform="translate(197.648216 14.184717) scale(0.07 -0.07)">
       <use xlink:href="#ArialMT-31"/>
       <use xlink:href="#ArialMT-2e" x="55.615234"/>
       <use xlink:href="#ArialMT-30" x="83.398438"/>
      </g>
     </g>
    </g>
    <g id="text_21">
     <!-- Cumulative Probability -->
     <g style="fill: #ff0000" transform="translate(217.201966 96.267434) rotate(-90) scale(0.08 -0.08)">
      <defs>
       <path id="ArialMT-43" d="M 3763 1606 
L 4369 1453 
Q 4178 706 3683 314 
Q 3188 -78 2472 -78 
Q 1731 -78 1267 223 
Q 803 525 561 1097 
Q 319 1669 319 2325 
Q 319 3041 592 3573 
Q 866 4106 1370 4382 
Q 1875 4659 2481 4659 
Q 3169 4659 3637 4309 
Q 4106 3959 4291 3325 
L 3694 3184 
Q 3534 3684 3231 3912 
Q 2928 4141 2469 4141 
Q 1941 4141 1586 3887 
Q 1231 3634 1087 3207 
Q 944 2781 944 2328 
Q 944 1744 1114 1308 
Q 1284 872 1643 656 
Q 2003 441 2422 441 
Q 2931 441 3284 734 
Q 3638 1028 3763 1606 
z
" transform="scale(0.015625)"/>
       <path id="ArialMT-75" d="M 2597 0 
L 2597 488 
Q 2209 -75 1544 -75 
Q 1250 -75 995 37 
Q 741 150 617 320 
Q 494 491 444 738 
Q 409 903 409 1263 
L 409 3319 
L 972 3319 
L 972 1478 
Q 972 1038 1006 884 
Q 1059 663 1231 536 
Q 1403 409 1656 409 
Q 1909 409 2131 539 
Q 2353 669 2445 892 
Q 2538 1116 2538 1541 
L 2538 3319 
L 3100 3319 
L 3100 0 
L 2597 0 
z
" transform="scale(0.015625)"/>
       <path id="ArialMT-6d" d="M 422 0 
L 422 3319 
L 925 3319 
L 925 2853 
Q 1081 3097 1340 3245 
Q 1600 3394 1931 3394 
Q 2300 3394 2536 3241 
Q 2772 3088 2869 2813 
Q 3263 3394 3894 3394 
Q 4388 3394 4653 3120 
Q 4919 2847 4919 2278 
L 4919 0 
L 4359 0 
L 4359 2091 
Q 4359 2428 4304 2576 
Q 4250 2725 4106 2815 
Q 3963 2906 3769 2906 
Q 3419 2906 3187 2673 
Q 2956 2441 2956 1928 
L 2956 0 
L 2394 0 
L 2394 2156 
Q 2394 2531 2256 2718 
Q 2119 2906 1806 2906 
Q 1569 2906 1367 2781 
Q 1166 2656 1075 2415 
Q 984 2175 984 1722 
L 984 0 
L 422 0 
z
" transform="scale(0.015625)"/>
       <path id="ArialMT-76" d="M 1344 0 
L 81 3319 
L 675 3319 
L 1388 1331 
Q 1503 1009 1600 663 
Q 1675 925 1809 1294 
L 2547 3319 
L 3125 3319 
L 1869 0 
L 1344 0 
z
" transform="scale(0.015625)"/>
      </defs>
      <use xlink:href="#ArialMT-43"/>
      <use xlink:href="#ArialMT-75" x="72.216797"/>
      <use xlink:href="#ArialMT-6d" x="127.832031"/>
      <use xlink:href="#ArialMT-75" x="211.132812"/>
      <use xlink:href="#ArialMT-6c" x="266.748047"/>
      <use xlink:href="#ArialMT-61" x="288.964844"/>
      <use xlink:href="#ArialMT-74" x="344.580078"/>
      <use xlink:href="#ArialMT-69" x="372.363281"/>
      <use xlink:href="#ArialMT-76" x="394.580078"/>
      <use xlink:href="#ArialMT-65" x="444.580078"/>
      <use xlink:href="#ArialMT-20" x="500.195312"/>
      <use xlink:href="#ArialMT-50" x="527.978516"/>
      <use xlink:href="#ArialMT-72" x="594.677734"/>
      <use xlink:href="#ArialMT-6f" x="627.978516"/>
      <use xlink:href="#ArialMT-62" x="683.59375"/>
      <use xlink:href="#ArialMT-61" x="739.208984"/>
      <use xlink:href="#ArialMT-62" x="794.824219"/>
      <use xlink:href="#ArialMT-69" x="850.439453"/>
      <use xlink:href="#ArialMT-6c" x="872.65625"/>
      <use xlink:href="#ArialMT-69" x="894.873047"/>
      <use xlink:href="#ArialMT-74" x="917.089844"/>
      <use xlink:href="#ArialMT-79" x="944.873047"/>
     </g>
    </g>
   </g>
   <g id="line2d_37">
    <path d="M 46.649081 101.269135 
L 65.19757 101.12633 
L 71.142216 100.861121 
L 71.355329 100.810119 
L 74.111488 100.606112 
L 75.505055 100.310302 
L 75.859964 100.228699 
L 77.118568 99.983891 
L 77.230477 99.922689 
L 77.614042 99.779884 
L 77.689519 99.708481 
L 78.289997 99.504474 
L 78.338004 99.453473 
L 78.68152 99.300467 
L 79.415723 98.535441 
L 79.565572 98.127428 
L 79.71847 97.566408 
L 79.974463 96.168961 
L 80.128903 95.444736 
L 80.198808 95.281531 
L 80.469285 94.506304 
L 80.5739 94.251295 
L 80.702762 94.026888 
L 81.638054 92.354031 
L 81.937013 92.119423 
L 82.781505 90.813778 
L 82.971505 90.681174 
L 83.073399 90.517968 
L 83.323809 90.140555 
L 83.593533 89.905947 
L 83.727133 89.732542 
L 83.912519 89.426531 
L 84.040258 89.212324 
L 84.273557 88.783909 
L 84.362983 88.630904 
L 84.488624 88.457498 
L 84.690224 88.171888 
L 84.814469 87.865878 
L 84.930469 87.529266 
L 85.439802 86.74384 
L 85.567931 86.590835 
L 87.48657 82.204685 
L 88.956769 77.308518 
L 89.06717 77.05351 
L 89.185514 76.7679 
L 89.860519 73.728196 
L 89.972715 73.25898 
L 90.303997 71.892134 
L 90.55762 70.372282 
L 90.64465 69.872465 
L 90.75487 69.280845 
L 90.886812 68.770827 
L 91.043851 68.056803 
L 91.220035 66.944965 
L 91.269998 66.659356 
L 91.591204 64.598885 
L 91.685217 64.201072 
L 91.803899 63.599251 
L 91.915868 63.191237 
L 92.075004 62.069199 
L 92.678222 58.111464 
L 92.740248 57.876856 
L 92.877161 57.122031 
L 92.994239 56.438607 
L 93.03793 56.183599 
L 95.554871 42.71914 
L 95.602449 42.464131 
L 97.032233 35.007677 
L 97.083956 34.742468 
L 97.207384 34.283453 
L 97.266682 34.089646 
L 97.371496 33.579629 
L 97.42134 33.406223 
L 97.578163 32.814603 
L 97.893937 31.488557 
L 99.146326 26.58219 
L 99.422067 25.735561 
L 99.533097 25.347948 
L 99.709554 24.746128 
L 99.838567 24.317713 
L 99.940001 24.062704 
L 100.005178 23.868898 
L 100.168467 23.430283 
L 100.558951 22.410248 
L 100.761089 21.86963 
L 100.832377 21.696224 
L 101.053555 21.104604 
L 101.107617 20.951598 
L 101.33352 20.329377 
L 101.665612 19.686755 
L 101.796682 19.482748 
L 102.092176 18.94213 
L 102.182878 18.778924 
L 102.292323 18.513715 
L 102.455169 18.136303 
L 102.600543 17.881294 
L 102.980638 17.381477 
L 103.075338 17.228472 
L 103.245338 16.861259 
L 104.877545 15.117 
L 105.052636 14.953794 
L 105.433644 14.617183 
L 105.701545 14.474378 
L 105.825907 14.362174 
L 106.136635 14.117366 
L 106.608677 13.892958 
L 107.727145 13.382941 
L 108.293966 13.240136 
L 108.434462 13.168733 
L 109.522225 12.872923 
L 109.618188 12.842322 
L 110.774647 12.679117 
L 115.389532 12.301704 
L 124.764093 11.985493 
L 124.897629 11.954892 
L 161.909548 11.699883 
L 187.124448 11.679483 
L 187.124448 11.679483 
" clip-path="url(#p3a674d7621)" style="fill: none; stroke: #ff0000; stroke-linecap: round"/>
   </g>
   <g id="patch_107">
    <path d="M 39.625312 105.748617 
L 39.625312 7.2 
" style="fill: none; stroke: #cccccc; stroke-linejoin: miter; stroke-linecap: square"/>
   </g>
   <g id="patch_108">
    <path d="M 194.148216 105.748617 
L 194.148216 7.2 
" style="fill: none; stroke: #cccccc; stroke-linejoin: miter; stroke-linecap: square"/>
   </g>
   <g id="patch_109">
    <path d="M 39.625312 105.748617 
L 194.148216 105.748617 
" style="fill: none; stroke: #cccccc; stroke-linejoin: miter; stroke-linecap: square"/>
   </g>
   <g id="patch_110">
    <path d="M 39.625312 7.2 
L 194.148216 7.2 
" style="fill: none; stroke: #cccccc; stroke-linejoin: miter; stroke-linecap: square"/>
   </g>
  </g>
 </g>
 <defs>
  <clipPath id="p3a674d7621">
   <rect x="39.625312" y="7.2" width="154.522904" height="98.548617"/>
  </clipPath>
 </defs>
</svg>
