<?xml version="1.0" encoding="UTF-8" standalone="no"?>
<!-- Created with Inkscape (http://www.inkscape.org/) -->

<svg
   width="7.6539803mm"
   height="6.670053mm"
   viewBox="0 0 7.6539802 6.6700532"
   version="1.1"
   id="svg1"
   sodipodi:docname="Biogas.svg"
   inkscape:version="1.3 (0e150ed6c4, 2023-07-21)"
   inkscape:export-filename="Lignite.png"
   inkscape:export-xdpi="96"
   inkscape:export-ydpi="96"
   xml:space="preserve"
   xmlns:inkscape="http://www.inkscape.org/namespaces/inkscape"
   xmlns:sodipodi="http://sodipodi.sourceforge.net/DTD/sodipodi-0.dtd"
   xmlns="http://www.w3.org/2000/svg"
   xmlns:svg="http://www.w3.org/2000/svg"><sodipodi:namedview
     id="namedview1"
     pagecolor="#000000"
     bordercolor="#000000"
     borderopacity="0.25"
     inkscape:showpageshadow="2"
     inkscape:pageopacity="0.0"
     inkscape:pagecheckerboard="0"
     inkscape:deskcolor="#d1d1d1"
     inkscape:document-units="mm"
     inkscape:zoom="8.1941054"
     inkscape:cx="7.2002979"
     inkscape:cy="26.543471"
     inkscape:window-width="1920"
     inkscape:window-height="1009"
     inkscape:window-x="1912"
     inkscape:window-y="-8"
     inkscape:window-maximized="1"
     inkscape:current-layer="layer1" /><defs
     id="defs1" /><g
     inkscape:label="Layer 1"
     inkscape:groupmode="layer"
     id="layer1"
     transform="translate(-73.667356,-132.84361)"><g
       id="g10389"
       transform="translate(-331.67419,175.05473)"
       style="stroke:#ffffff"><path
         style="fill:#ffffff;stroke:#000000;stroke-width:0;stroke-dasharray:none"
         d="m 406.28747,-35.893852 c -0.0558,-0.02564 -0.0809,-0.05181 -0.10517,-0.110007 l -0.0181,-0.0432 v -1.755226 -1.755227 l 0.0181,-0.0432 c 0.01,-0.02376 0.0265,-0.05253 0.0368,-0.06393 0.0103,-0.0114 0.20287,-0.12993 0.4279,-0.263406 l 0.40915,-0.242683 v -0.303643 -0.303643 l 0.0159,-0.03795 c 0.0186,-0.04445 0.0898,-0.110474 0.13006,-0.120582 l 0.0281,-0.0071 0.005,-0.248359 0.005,-0.248359 0.0279,-0.07291 c 0.0562,-0.147013 0.18331,-0.274424 0.33199,-0.332721 l 0.0729,-0.02859 1.37207,-0.0032 1.37206,-0.0032 0.0651,0.01204 c 0.0358,0.0066 0.0986,0.0277 0.1395,0.04685 l 0.0744,0.03481 0.0701,0.07006 0.0701,0.07006 0.0438,0.09164 0.0437,0.09164 0.003,0.980109 0.003,0.98011 0.0582,0.0267 0.0582,0.0267 0.0296,0.05042 0.0295,0.05042 v 0.257354 0.257353 l 0.15855,0.07901 c 0.0872,0.04346 0.16095,0.07901 0.1639,0.07901 0.003,0 0.007,-0.281214 0.009,-0.624921 l 0.003,-0.62492 0.0326,-0.06643 c 0.0376,-0.07661 0.10535,-0.142553 0.18305,-0.178231 l 0.0542,-0.02491 h 0.0939 0.0939 l 0.0542,0.02491 c 0.0777,0.03568 0.14543,0.101617 0.18305,0.178231 l 0.0326,0.06643 0.003,1.620659 0.003,1.620659 -0.0245,0.03113 -0.0245,0.03113 h -0.0394 -0.0394 l -0.0243,-0.03092 -0.0243,-0.03092 v -0.332882 -0.332882 h -1.45521 -1.45522 v 0.651326 0.651326 h 0.68705 0.68704 l -0.003,-0.08508 -0.003,-0.08508 -0.12323,-0.0076 c -0.0678,-0.0042 -0.14434,-0.01393 -0.17016,-0.02168 -0.0856,-0.02569 -0.184,-0.0862 -0.25383,-0.15603 l -0.0689,-0.06894 -0.0402,-0.08412 c -0.0485,-0.10165 -0.0654,-0.187607 -0.0654,-0.333104 v -0.10971 l 0.0167,-0.03992 0.0167,-0.03992 0.0356,-0.01838 0.0355,-0.01838 h 0.13895 0.13894 l 0.0691,0.01799 c 0.1042,0.02714 0.17923,0.07254 0.27326,0.16532 l 0.0851,0.08396 0.0851,-0.08396 c 0.094,-0.09278 0.16906,-0.138179 0.27326,-0.16532 l 0.0691,-0.01799 h 0.13894 0.13895 l 0.0356,0.01838 0.0355,0.01838 0.0167,0.03992 0.0167,0.03992 v 0.10971 c 0,0.147477 -0.017,0.23241 -0.0669,0.334323 l -0.0418,0.08534 -0.0625,0.06346 c -0.0681,0.0692 -0.13557,0.113014 -0.23087,0.149934 l -0.0616,0.02384 -0.1291,0.0073 -0.12909,0.0073 -0.003,0.08518 -0.003,0.08518 0.68412,-0.003 0.68411,-0.003 0.006,-0.166906 0.006,-0.166906 0.0204,-0.0238 0.0204,-0.0238 h 0.0407 0.0407 l 0.0239,0.02568 0.0239,0.02568 -2.5e-4,0.170888 -2.6e-4,0.170887 -0.0216,0.04694 c -0.0256,0.05584 -0.0518,0.08086 -0.11,0.105173 l -0.0432,0.01805 -2.83159,-2.58e-4 -2.83159,-2.57e-4 z m 2.62291,-1.46835 v -1.314388 h -1.28505 -1.28505 v 1.306564 c 0,0.71861 0.004,1.310084 0.008,1.314387 0.004,0.0043 0.58258,0.0078 1.28505,0.0078 h 1.27723 z m -1.60191,0.893542 c -0.0518,-0.032 -0.0771,-0.06486 -0.0884,-0.114686 l -0.01,-0.04435 0.0222,-0.06594 c 0.0122,-0.03627 0.0542,-0.141642 0.0933,-0.234165 0.0391,-0.09252 0.0683,-0.17099 0.0649,-0.174371 -0.003,-0.0034 -0.0837,-0.0514 -0.17859,-0.106702 l -0.17245,-0.100553 -0.0269,-0.03986 -0.0269,-0.03986 v -0.05166 c 0,-0.02841 0.008,-0.06687 0.0175,-0.08547 0.0195,-0.0377 0.70754,-0.695741 0.76294,-0.729663 l 0.0352,-0.02156 0.0573,-4.3e-5 0.0573,-4.4e-5 0.0366,0.02266 c 0.0201,0.01246 0.0463,0.03911 0.0581,0.05921 l 0.0215,0.03655 v 0.05112 0.05112 l -0.0844,0.203601 c -0.0464,0.111981 -0.0867,0.209407 -0.0896,0.216503 -0.003,0.0071 0.0624,0.05149 0.14502,0.09865 0.18312,0.104535 0.22144,0.132167 0.24411,0.175994 0.0223,0.04309 0.0226,0.120528 6.8e-4,0.162929 -0.018,0.03477 -0.72838,0.712509 -0.7726,0.73708 -0.0144,0.008 -0.0499,0.01468 -0.0789,0.01488 l -0.0528,3.72e-4 z m 0.50169,-0.540612 c 0.1533,-0.145032 0.27872,-0.266718 0.27872,-0.270411 0,-0.0037 -0.0898,-0.05855 -0.19954,-0.121901 -0.19412,-0.112057 -0.23467,-0.14407 -0.23467,-0.185256 0,-0.01095 0.0449,-0.126693 0.0997,-0.257206 0.0549,-0.130512 0.0998,-0.242388 0.0998,-0.248613 0,-0.0062 -0.0198,0.0059 -0.044,0.027 -0.0878,0.07646 -0.64839,0.612249 -0.64827,0.619613 6e-5,0.0042 0.0832,0.05502 0.18484,0.11302 0.10159,0.058 0.19985,0.120265 0.21836,0.138363 l 0.0336,0.03291 -0.007,0.03541 c -0.004,0.01947 -0.0261,0.07867 -0.0495,0.131556 -0.0621,0.141012 -0.14572,0.349376 -0.14572,0.363279 0,0.01326 0.0111,0.0031 0.41368,-0.377757 z m 2.64465,0.502908 -0.008,-0.106481 -0.0238,-0.06365 -0.0238,-0.06365 -0.0568,-0.06218 -0.0568,-0.06218 -0.0685,-0.03407 -0.0685,-0.03406 -0.12029,-0.0049 -0.12029,-0.0049 v 0.0883 0.0883 l 0.0223,0.07177 c 0.0385,0.123581 0.1417,0.230411 0.26326,0.272419 l 0.0606,0.02094 0.10437,3.83e-4 0.10437,3.83e-4 z m 0.42257,0.08915 c 0.12391,-0.0368 0.23505,-0.147827 0.27464,-0.274361 l 0.0233,-0.07458 v -0.08811 -0.08811 l -0.12029,0.0049 -0.12029,0.0049 -0.0685,0.03406 -0.0685,0.03407 -0.0568,0.06218 -0.0568,0.06218 -0.0238,0.06365 -0.0238,0.06365 -0.008,0.106481 -0.008,0.106481 h 0.0993 c 0.0546,0 0.12557,-0.0078 0.15767,-0.01733 z m 1.11946,-1.255982 v -0.146695 h -1.45521 -1.45522 v 0.146695 0.146695 h 1.45522 1.45521 z m -0.002,-0.428767 -0.003,-0.106038 -0.65132,-0.317005 c -0.35823,-0.174352 -0.68052,-0.330146 -0.71619,-0.346208 l -0.0649,-0.0292 -0.7361,0.348288 -0.7361,0.348287 v 0.103959 0.103959 h 1.45566 1.45565 z m -2.45524,-0.510085 0.43334,-0.205376 0.006,-0.272849 0.006,-0.27285 0.0272,-0.04381 0.0272,-0.04381 0.0579,-0.02654 0.0578,-0.02654 v -0.795156 -0.795156 h -0.47958 -0.47957 l -0.0309,-0.02432 -0.0309,-0.02432 v -0.03937 -0.03937 l 0.0309,-0.02432 0.0309,-0.02432 h 0.49755 0.49756 l 0.0404,0.0169 c 0.0222,0.0093 0.0511,0.03438 0.0641,0.05574 l 0.0237,0.03885 4e-5,0.830294 5e-5,0.830294 h 0.22349 0.22349 l -0.003,-0.953518 -0.003,-0.953517 -0.0309,-0.06596 c -0.0419,-0.0894 -0.10463,-0.15569 -0.1843,-0.194813 l -0.0664,-0.03262 h -1.3848 -1.3848 l -0.0587,0.02262 -0.0586,0.02261 -0.0604,0.05717 -0.0605,0.05717 -0.0276,0.06105 -0.0276,0.06105 -0.004,0.237646 -0.004,0.237646 h 0.21797 0.21798 l 4e-5,-0.102687 4e-5,-0.102686 0.0233,-0.03825 c 0.0128,-0.02104 0.0405,-0.04874 0.0616,-0.06157 l 0.0383,-0.02332 0.46519,-4.4e-5 0.46519,-4.4e-5 0.0271,0.02196 0.0271,0.02196 v 0.0441 0.0441 l -0.0271,0.02196 -0.0271,0.02196 h -0.43878 -0.43879 v 0.07501 0.07501 l 0.0291,0.0073 c 0.0411,0.01033 0.1123,0.07593 0.13106,0.120832 l 0.0159,0.03795 v 0.303356 0.303357 l 0.40938,0.243223 c 0.22516,0.133773 0.41772,0.252435 0.4279,0.263693 0.0102,0.01126 0.0266,0.03991 0.0366,0.06367 l 0.0181,0.0432 v 0.575422 c 0,0.316481 0.004,0.575421 0.01,0.575421 0.005,0 0.20469,-0.09242 0.44302,-0.205377 z m 2.45754,-0.531032 -2e-4,-0.736409 -0.0264,-0.0467 -0.0265,-0.0467 -0.0467,-0.02645 -0.0467,-0.02645 h -0.0469 -0.0469 l -0.0467,0.02645 -0.0467,0.02645 -0.0265,0.0467 -0.0264,0.0467 -1.9e-4,0.64649 -1.9e-4,0.646491 0.18483,0.089 c 0.10166,0.04895 0.1888,0.08941 0.19364,0.08992 0.005,5.06e-4 0.009,-0.330465 0.009,-0.73549 z m -3.08627,0.137893 v -0.152563 h -1.28505 -1.28505 v 0.152563 0.152563 h 1.28505 1.28505 z m 1.44934,0.0065 0.1643,-0.07831 0.051,0.0053 0.051,0.0053 0.14638,0.07172 c 0.0805,0.03945 0.15128,0.07172 0.15726,0.07172 h 0.0109 v -0.185423 -0.185422 l -0.0141,-0.01408 -0.0141,-0.01408 h -0.37084 -0.37085 l -0.0141,0.01408 -0.0141,0.01408 v 0.192658 0.192658 l 0.0264,-0.0059 c 0.0145,-0.0033 0.10034,-0.04115 0.1907,-0.08422 z m -1.44934,-0.433509 v -0.110153 l -0.63439,-0.376874 c -0.34891,-0.207281 -0.6416,-0.376875 -0.65041,-0.376875 -0.009,0 -0.30161,0.169624 -0.65066,0.376942 l -0.63464,0.376941 v 0.110086 0.110086 h 1.28505 1.28505 z m -1.49665,-0.950494 0.15221,-0.08944 h 0.0598 0.0598 l 0.16058,0.09388 c 0.0883,0.05164 0.16333,0.09389 0.1667,0.09389 0.003,0 0.005,-0.106941 0.003,-0.237646 l -0.003,-0.237646 h -0.38727 -0.38728 l -0.003,0.238996 -0.003,0.238997 0.0149,-0.0058 c 0.008,-0.0032 0.0834,-0.04604 0.16712,-0.09523 z"
         id="path1" /></g></g></svg>
