<?xml version="1.0" encoding="UTF-8" standalone="no"?>
<!-- Created with Inkscape (http://www.inkscape.org/) -->

<svg
   width="7.6539803mm"
   height="6.670053mm"
   viewBox="0 0 7.6539802 6.6700532"
   version="1.1"
   id="svg1"
   sodipodi:docname="coal.svg"
   inkscape:version="1.3 (0e150ed6c4, 2023-07-21)"
   inkscape:export-filename="coal.png"
   inkscape:export-xdpi="96"
   inkscape:export-ydpi="96"
   xmlns:inkscape="http://www.inkscape.org/namespaces/inkscape"
   xmlns:sodipodi="http://sodipodi.sourceforge.net/DTD/sodipodi-0.dtd"
   xmlns="http://www.w3.org/2000/svg"
   xmlns:svg="http://www.w3.org/2000/svg">
  <sodipodi:namedview
     id="namedview1"
     pagecolor="#212121"
     bordercolor="#000000"
     borderopacity="0.25"
     inkscape:showpageshadow="2"
     inkscape:pageopacity="0.0"
     inkscape:pagecheckerboard="true"
     inkscape:deskcolor="#d1d1d1"
     inkscape:document-units="mm"
     inkscape:zoom="23.176431"
     inkscape:cx="3.667519"
     inkscape:cy="15.252564"
     inkscape:window-width="1920"
     inkscape:window-height="1009"
     inkscape:window-x="1912"
     inkscape:window-y="-8"
     inkscape:window-maximized="1"
     inkscape:current-layer="g10389" />
  <defs
     id="defs1" />
  <g
     inkscape:label="Layer 1"
     inkscape:groupmode="layer"
     id="layer1"
     transform="translate(-73.667356,-132.84361)">
    <g
       id="g10389"
       transform="translate(-331.67419,175.05473)">
      <path
         style="fill:#000000;stroke:#ffffff;stroke-width:0.1;stroke-dasharray:none"
         d="m 407.82121,-36.154166 c -0.18917,-0.06207 -0.38661,-0.24323 -0.43939,-0.403169 l -0.0296,-0.08979 h -0.21855 c -0.3105,0 -0.31652,-0.0077 -0.31652,-0.402404 0,-0.3377 0.0171,-0.38141 0.14918,-0.38141 0.0627,0 0.0703,-0.0072 0.0581,-0.05511 -0.008,-0.03031 -0.1382,-0.501216 -0.28991,-1.046456 l -0.27583,-0.991344 -0.0719,-0.01479 c -0.10313,-0.02122 -0.16799,-0.06071 -0.23969,-0.145934 -0.17203,-0.204436 -0.0596,-0.541041 0.20439,-0.612135 0.10546,-0.0284 0.10303,-0.02353 0.1588,-0.318475 0.0216,-0.114511 0.0489,-0.231379 0.0607,-0.259709 0.0117,-0.02833 0.14695,-0.14682 0.30051,-0.263312 l 0.27919,-0.211805 0.31696,9.68e-4 0.31696,9.68e-4 0.24317,0.180797 0.24318,0.180797 0.21861,-0.109793 c 0.17768,-0.08924 0.25627,-0.14849 0.41979,-0.316483 0.13845,-0.142245 0.21893,-0.20669 0.2581,-0.20669 0.039,0 0.13236,0.07412 0.29647,0.235353 0.16422,0.16134 0.24979,0.229265 0.27213,0.215996 0.0179,-0.01064 0.11916,-0.08486 0.22498,-0.164931 0.10837,-0.08199 0.21758,-0.145576 0.25003,-0.145576 0.0317,0 0.17959,0.03026 0.32867,0.06724 l 0.27104,0.06724 0.123,0.177925 0.123,0.177924 0.17038,-0.05925 c 0.19969,-0.06945 0.19975,-0.06942 0.39882,0.133147 0.13381,0.136161 0.14618,0.158877 0.1974,0.362654 l 0.0546,0.217395 0.11338,0.03202 c 0.42356,0.119631 0.40118,0.691916 -0.0299,0.763581 l -0.0851,0.01414 -0.2748,0.991709 c -0.15114,0.54544 -0.28117,1.016509 -0.28895,1.04682 -0.0123,0.04789 -0.005,0.05511 0.058,0.05511 0.13208,0 0.14918,0.04371 0.14918,0.38141 0,0.39475 -0.006,0.402404 -0.31652,0.402404 h -0.21855 l -0.0296,0.08979 c -0.0375,0.113585 -0.1993,0.290432 -0.32823,0.358724 -0.13964,0.07397 -0.42592,0.07397 -0.56556,0 -0.12893,-0.06829 -0.29075,-0.245139 -0.32823,-0.358724 l -0.0296,-0.08979 h -0.53507 -0.53507 l -0.0296,0.08979 c -0.0378,0.114532 -0.20055,0.291654 -0.32751,0.356422 -0.1067,0.05444 -0.3542,0.07986 -0.45512,0.04675 z m 0.41877,-0.335314 c 0.11512,-0.109443 0.15188,-0.197336 0.13893,-0.33213 -0.0289,-0.300989 -0.35758,-0.454753 -0.60743,-0.284187 -0.23618,0.161242 -0.22342,0.480601 0.026,0.650085 0.0711,0.04835 0.1083,0.05624 0.22601,0.04801 0.11472,-0.008 0.15491,-0.02321 0.21651,-0.08177 z m -0.31518,-0.195777 c -0.0962,-0.06737 -0.048,-0.231306 0.068,-0.231306 0.116,0 0.16422,0.163935 0.068,0.231306 -0.0299,0.02097 -0.0605,0.03813 -0.068,0.03813 -0.007,0 -0.0381,-0.01716 -0.068,-0.03813 z m 2.66662,0.195777 c 0.11512,-0.109443 0.15188,-0.197336 0.13893,-0.33213 -0.0289,-0.300989 -0.35758,-0.454753 -0.60742,-0.284187 -0.23619,0.161242 -0.22343,0.480601 0.026,0.650085 0.0711,0.04835 0.1083,0.05624 0.22601,0.04801 0.11472,-0.008 0.15491,-0.02321 0.21651,-0.08177 z m -0.31518,-0.195777 c -0.0962,-0.06737 -0.048,-0.231306 0.068,-0.231306 0.116,0 0.16422,0.163935 0.068,0.231306 -0.0299,0.02097 -0.0606,0.03813 -0.068,0.03813 -0.007,0 -0.0381,-0.01716 -0.068,-0.03813 z m -2.92026,-0.262286 c 0,-0.01704 0.0221,-0.07211 0.049,-0.122383 0.0269,-0.05027 0.049,-0.09695 0.049,-0.103737 0,-0.0068 -0.0827,-0.01234 -0.18371,-0.01234 h -0.18371 v 0.134718 0.134718 h 0.13472 c 0.0923,0 0.13472,-0.0098 0.13472,-0.03098 z m 2.39098,-0.08525 c 0.0254,-0.06393 0.0499,-0.124551 0.0544,-0.134718 0.004,-0.01017 -0.28026,-0.01849 -0.63277,-0.01849 -0.35251,0 -0.63726,0.0083 -0.63277,0.01849 0.004,0.01017 0.029,0.07079 0.0544,0.134718 l 0.0462,0.116233 h 0.53222 0.53222 z m 1.5036,-0.01849 v -0.134718 h -0.18575 c -0.10216,0 -0.18208,0.0083 -0.17759,0.01849 0.005,0.01017 0.029,0.07079 0.0544,0.134718 l 0.0462,0.116233 h 0.13139 0.1314 z m -0.21094,-0.422525 c 0.0828,-0.277198 0.55385,-2.002312 0.55385,-2.028517 0,-0.03026 -0.33561,-0.03512 -2.42492,-0.03512 -2.08931,0 -2.42492,0.0049 -2.42492,0.03512 0,0.0262 0.47101,1.751319 0.55385,2.028517 0.0121,0.04034 0.12251,0.04287 1.87107,0.04287 1.74856,0 1.85901,-0.0025 1.87107,-0.04287 z m 0.94996,-2.349114 c 0.0599,-0.05419 0.0584,-0.170903 -0.003,-0.203542 -0.0659,-0.03528 -5.57096,-0.03528 -5.63688,0 -0.0588,0.03146 -0.0624,0.137863 -0.007,0.199286 0.0388,0.04289 0.15844,0.04479 2.82102,0.04479 2.5529,0 2.78416,-0.0033 2.82529,-0.04054 z m -4.67287,-0.626929 c -0.0355,-0.07073 -0.0668,-0.131217 -0.0695,-0.134423 -0.003,-0.0032 -0.10624,-0.02661 -0.23006,-0.05201 l -0.22514,-0.04618 -0.0117,0.05201 c -0.0365,0.161606 -0.06,0.274653 -0.0605,0.290824 -3.3e-4,0.0101 0.14839,0.01837 0.33049,0.01837 h 0.33108 z m 0.50325,-0.02638 c 0.0335,-0.100694 0.0814,-0.183881 0.13672,-0.237499 0.0468,-0.04539 0.0851,-0.09112 0.0851,-0.10163 0,-0.01051 -0.0809,-0.07999 -0.17977,-0.154407 l -0.17976,-0.135301 h -0.21476 c -0.21372,0 -0.21536,4.77e-4 -0.33781,0.09798 -0.0677,0.05389 -0.11886,0.09918 -0.11373,0.100656 0.005,0.0015 0.0975,0.02076 0.20527,0.04286 l 0.19596,0.04019 0.12948,0.251066 c 0.15989,0.310013 0.19765,0.323292 0.27326,0.09609 z m 1.04175,0.03449 0.04,-0.120484 -0.0873,-0.173446 c -0.048,-0.0954 -0.0916,-0.173446 -0.0967,-0.173446 -0.005,0 -0.091,0.03876 -0.19075,0.08612 -0.20246,0.09615 -0.41253,0.290557 -0.45614,0.422132 l -0.0264,0.07961 h 0.38866 0.38866 z m 0.80182,0.01546 -0.10307,-0.105028 v -0.195601 -0.195601 l -0.19608,-0.19493 -0.19608,-0.19493 -0.11484,0.114837 -0.11484,0.114838 0.11851,0.247099 c 0.12537,0.261392 0.12625,0.270555 0.0458,0.480151 -0.0108,0.02824 0.0457,0.03419 0.32527,0.03419 h 0.33839 z m 0.76806,-0.125581 c 0.058,-0.238616 0.0826,-0.269722 0.24948,-0.314798 0.0573,-0.01547 0.1041,-0.0352 0.1041,-0.04386 0,-0.0087 -0.0314,-0.05907 -0.0698,-0.112033 -0.0624,-0.08613 -0.0889,-0.100773 -0.25107,-0.138707 -0.0997,-0.02333 -0.19573,-0.04227 -0.21337,-0.0421 -0.0176,1.73e-4 -0.11959,0.06694 -0.22657,0.14838 l -0.19451,0.148066 v 0.139082 c 0,0.137776 0.001,0.140534 0.15309,0.29378 0.15095,0.152534 0.15479,0.154599 0.27433,0.147624 l 0.12124,-0.0071 z m 1.14172,0.0719 c -0.0295,-0.123389 -0.0582,-0.178457 -0.12887,-0.247464 l -0.0909,-0.08876 -0.31914,0.105325 -0.31913,0.105325 -0.0358,0.14214 -0.0358,0.14214 h 0.48381 0.48381 z"
         id="path1" />
    </g>
  </g>
</svg>
