<?xml version="1.0" encoding="UTF-8" standalone="no"?>
<!-- Created with Inkscape (http://www.inkscape.org/) -->

<svg
   width="49.99078mm"
   height="10.053587mm"
   viewBox="0 0 49.990781 10.053588"
   version="1.1"
   id="svg1"
   inkscape:version="1.3 (0e150ed6c4, 2023-07-21)"
   sodipodi:docname="DC_line.svg"
   inkscape:export-filename="DC_line.pdf"
   inkscape:export-xdpi="96"
   inkscape:export-ydpi="96"
   xmlns:inkscape="http://www.inkscape.org/namespaces/inkscape"
   xmlns:sodipodi="http://sodipodi.sourceforge.net/DTD/sodipodi-0.dtd"
   xmlns="http://www.w3.org/2000/svg"
   xmlns:svg="http://www.w3.org/2000/svg">
  <sodipodi:namedview
     id="namedview1"
     pagecolor="#ffffff"
     bordercolor="#000000"
     borderopacity="0.25"
     inkscape:showpageshadow="2"
     inkscape:pageopacity="0.0"
     inkscape:pagecheckerboard="0"
     inkscape:deskcolor="#d1d1d1"
     inkscape:document-units="mm"
     showgrid="true"
     inkscape:zoom="3.9156336"
     inkscape:cx="135.99332"
     inkscape:cy="32.051007"
     inkscape:window-width="1920"
     inkscape:window-height="1009"
     inkscape:window-x="1912"
     inkscape:window-y="-8"
     inkscape:window-maximized="1"
     inkscape:current-layer="layer1"
     inkscape:export-bgcolor="#ffffff00">
    <inkscape:grid
       id="grid1"
       units="mm"
       originx="-71.710829"
       originy="-78.137464"
       spacingx="0.99999998"
       spacingy="1"
       empcolor="#0099e5"
       empopacity="0.30196078"
       color="#0099e5"
       opacity="0.14901961"
       empspacing="5"
       dotted="false"
       gridanglex="30"
       gridanglez="30"
       visible="true" />
  </sodipodi:namedview>
  <defs
     id="defs1">
    <marker
       inkscape:isstock="true"
       style="overflow:visible"
       id="TriangleInM-6"
       refX="0"
       refY="0"
       orient="auto"
       inkscape:stockid="TriangleInM">
      <path
         transform="scale(-0.4)"
         style="fill:context-stroke;fill-rule:evenodd;stroke:context-stroke;stroke-width:1pt"
         d="M 5.77,0 -2.88,5 V -5 Z"
         id="path5871-2"
         inkscape:connector-curvature="0" />
    </marker>
    <marker
       inkscape:collect="always"
       inkscape:isstock="true"
       style="overflow:visible"
       id="TriangleInM"
       refX="0"
       refY="0"
       orient="auto"
       inkscape:stockid="TriangleInM">
      <path
         transform="scale(-0.4)"
         style="fill:context-stroke;fill-rule:evenodd;stroke:context-stroke;stroke-width:1pt"
         d="M 5.77,0 -2.88,5 V -5 Z"
         id="path5871" />
    </marker>
    <marker
       inkscape:collect="always"
       inkscape:isstock="true"
       style="overflow:visible"
       id="TriangleInM-8"
       refX="0"
       refY="0"
       orient="auto"
       inkscape:stockid="TriangleInM">
      <path
         transform="scale(-0.4)"
         style="fill:context-stroke;fill-rule:evenodd;stroke:context-stroke;stroke-width:1pt"
         d="M 5.77,0 -2.88,5 V -5 Z"
         id="path5871-3" />
    </marker>
    <marker
       inkscape:stockid="TriangleInM"
       orient="auto"
       refY="0"
       refX="0"
       id="marker14281-6"
       style="overflow:visible"
       inkscape:isstock="true">
      <path
         id="path14279-0"
         d="M 5.77,0 -2.88,5 V -5 Z"
         style="fill:context-stroke;fill-rule:evenodd;stroke:context-stroke;stroke-width:1pt"
         transform="scale(-0.4)"
         inkscape:connector-curvature="0" />
    </marker>
    <marker
       inkscape:stockid="TriangleInM"
       orient="auto"
       refY="0"
       refX="0"
       id="marker14281-6-2"
       style="overflow:visible"
       inkscape:isstock="true">
      <path
         id="path14279-0-1"
         d="M 5.77,0 -2.88,5 V -5 Z"
         style="fill:context-stroke;fill-rule:evenodd;stroke:context-stroke;stroke-width:1pt"
         transform="scale(-0.4)"
         inkscape:connector-curvature="0" />
    </marker>
    <marker
       inkscape:stockid="TriangleInM"
       orient="auto"
       refY="0"
       refX="0"
       id="marker14281-6-5"
       style="overflow:visible"
       inkscape:isstock="true">
      <path
         id="path14279-0-8"
         d="M 5.77,0 -2.88,5 V -5 Z"
         style="fill:context-stroke;fill-rule:evenodd;stroke:context-stroke;stroke-width:1pt"
         transform="scale(-0.4)"
         inkscape:connector-curvature="0" />
    </marker>
  </defs>
  <g
     inkscape:label="Layer 1"
     inkscape:groupmode="layer"
     id="layer1"
     transform="translate(-18.973489,-20.673871)">
    <path
       style="fill:#000000;stroke:#000000;stroke-width:0.265;stroke-linecap:square;stroke-dasharray:none"
       d="m 40.213309,23.501216 -13.188326,0.01301"
       id="path2" />
    <path
       style="fill:#000000;stroke:#000000;stroke-width:0.265;stroke-linecap:square;stroke-dasharray:none"
       d="m 63.052428,23.482252 -13.188326,0.01301"
       id="path2-6" />
    <g
       id="use8544-6"
       transform="matrix(0.47876073,0,0,0.45056913,43.752504,-13.920189)">
      <title
         id="title2-6">GND</title>
      <path
         style="fill:none;stroke:#000000;stroke-width:0.264583px;stroke-linecap:round;stroke-linejoin:miter;stroke-opacity:1"
         d="m 35.852378,97.901027 h 2.645833"
         id="path3-2"
         inkscape:connector-curvature="0" />
      <path
         style="fill:none;stroke:#000000;stroke-width:0.264583px;stroke-linecap:round;stroke-linejoin:miter;stroke-opacity:1"
         d="m 36.381545,98.430197 h 1.5875"
         id="path4-2"
         inkscape:connector-curvature="0" />
      <path
         style="fill:none;stroke:#000000;stroke-width:0.264583px;stroke-linecap:round;stroke-linejoin:miter;stroke-opacity:1"
         d="m 36.910711,98.959377 h 0.529167"
         id="path5-6"
         inkscape:connector-curvature="0"
         sodipodi:nodetypes="cc" />
      <path
         style="fill:none;stroke:#000000;stroke-width:0.264583px;stroke-linecap:round;stroke-linejoin:miter;stroke-opacity:1"
         d="m 37.175295,96.578117 v 1.32291"
         id="path6-5"
         inkscape:connector-curvature="0" />
      <title
         id="title6-9">GND</title>
    </g>
    <path
       d="m 19.468204,20.935067 h -0.0069 q -0.02136,-0.0062 -0.05581,-0.0124 -0.03445,-0.0069 -0.06063,-0.0069 -0.08337,0 -0.121267,0.03721 -0.03721,0.03652 -0.03721,0.13298 v 0.02618 h 0.233577 V 21.22101 H 19.19053 v 0.660769 H 19.060994 V 21.22101 h -0.08751 v -0.108865 h 0.08751 v -0.02549 q 0,-0.137114 0.06821,-0.21015 0.06821,-0.07372 0.19706,-0.07372 0.04341,0 0.07786,0.0041 0.03514,0.0041 0.06408,0.0096 z m 0.562239,0.318327 h -0.0069 q -0.02894,-0.0069 -0.0565,-0.0096 -0.02687,-0.0034 -0.06408,-0.0034 -0.05995,0 -0.115755,0.02687 -0.05581,0.02618 -0.107487,0.06821 v 0.546392 h -0.129535 v -0.769634 h 0.129535 v 0.113688 q 0.07717,-0.06201 0.135737,-0.08751 0.05926,-0.02618 0.120578,-0.02618 0.03376,0 0.04892,0.0021 0.01516,0.0014 0.04548,0.0062 z m 0.777902,0.243912 q 0,0.188102 -0.09646,0.296967 -0.09646,0.108865 -0.258382,0.108865 -0.163298,0 -0.25976,-0.108865 -0.09577,-0.108865 -0.09577,-0.296967 0,-0.188102 0.09577,-0.296967 0.09646,-0.109554 0.25976,-0.109554 0.161919,0 0.258382,0.109554 0.09646,0.108865 0.09646,0.296967 z m -0.133669,0 q 0,-0.149517 -0.05857,-0.221864 -0.05857,-0.07304 -0.162608,-0.07304 -0.10542,0 -0.163987,0.07304 -0.05788,0.07235 -0.05788,0.221864 0,0.144694 0.05857,0.219797 0.05857,0.07441 0.163298,0.07441 0.103353,0 0.161919,-0.07372 0.05926,-0.07441 0.05926,-0.220486 z m 1.457274,0.384473 h -0.129535 v -0.438216 q 0,-0.04961 -0.0048,-0.09577 -0.0041,-0.04616 -0.0186,-0.07372 -0.01585,-0.02963 -0.04547,-0.04479 -0.02963,-0.01516 -0.08544,-0.01516 -0.05443,0 -0.108864,0.02756 -0.05443,0.02687 -0.108865,0.0689 0.0021,0.01585 0.0034,0.03721 0.0014,0.02067 0.0014,0.04134 v 0.492649 h -0.129536 v -0.438216 q 0,-0.05099 -0.0048,-0.09646 -0.0041,-0.04616 -0.0186,-0.07372 -0.01585,-0.02963 -0.04548,-0.0441 -0.02963,-0.01516 -0.08544,-0.01516 -0.05305,0 -0.106798,0.02618 -0.05305,0.02618 -0.106109,0.06684 v 0.574642 H 21.00885 v -0.769634 h 0.129535 v 0.08544 q 0.06063,-0.0503 0.120579,-0.07855 0.06063,-0.02825 0.128846,-0.02825 0.07855,0 0.132981,0.03307 0.05512,0.03307 0.08199,0.09164 0.07855,-0.06615 0.143316,-0.09509 0.06477,-0.02963 0.138492,-0.02963 0.12678,0 0.186724,0.07717 0.06063,0.07648 0.06063,0.214285 z m 1.042485,0 h -0.168809 l -0.486447,-0.917773 v 0.917773 H 22.39171 V 20.85583 h 0.211529 l 0.443728,0.837847 V 20.85583 h 0.127468 z m 0.918462,-0.384473 q 0,0.188102 -0.09646,0.296967 -0.09646,0.108865 -0.258382,0.108865 -0.163298,0 -0.25976,-0.108865 -0.09577,-0.108865 -0.09577,-0.296967 0,-0.188102 0.09577,-0.296967 0.09646,-0.109554 0.25976,-0.109554 0.161919,0 0.258382,0.109554 0.09646,0.108865 0.09646,0.296967 z m -0.133669,0 q 0,-0.149517 -0.05857,-0.221864 -0.05857,-0.07304 -0.162608,-0.07304 -0.10542,0 -0.163987,0.07304 -0.05788,0.07235 -0.05788,0.221864 0,0.144694 0.05857,0.219797 0.05857,0.07441 0.163298,0.07441 0.103352,0 0.161919,-0.07372 0.05926,-0.07441 0.05926,-0.220486 z m 0.958424,0.384473 h -0.129535 v -0.08062 q -0.05581,0.04823 -0.116444,0.0751 -0.06063,0.02687 -0.131603,0.02687 -0.137803,0 -0.219108,-0.106109 -0.08062,-0.106108 -0.08062,-0.29421 0,-0.09784 0.02756,-0.174322 0.02825,-0.07648 0.07579,-0.130225 0.04685,-0.05236 0.108865,-0.07993 0.0627,-0.02756 0.129535,-0.02756 0.06063,0 0.107487,0.01309 0.04685,0.0124 0.09853,0.03927 v -0.333485 h 0.129535 z m -0.129535,-0.18948 v -0.441661 q -0.05237,-0.02343 -0.09371,-0.03238 -0.04134,-0.009 -0.09026,-0.009 -0.108865,0 -0.169499,0.07579 -0.06063,0.07579 -0.06063,0.214973 0,0.137115 0.04685,0.208773 0.04685,0.07097 0.150206,0.07097 0.05512,0 0.111621,-0.02412 0.0565,-0.0248 0.10542,-0.06339 z m 1.028705,-0.181901 h -0.567063 q 0,0.07097 0.02136,0.124023 0.02136,0.05237 0.05857,0.08613 0.03583,0.03307 0.08475,0.04961 0.04961,0.01654 0.108865,0.01654 0.07855,0 0.157785,-0.03101 0.07993,-0.03169 0.113688,-0.06201 h 0.0069 v 0.141248 q -0.06546,0.02756 -0.133669,0.04617 -0.06821,0.0186 -0.143316,0.0186 -0.191548,0 -0.299034,-0.103353 -0.107487,-0.104041 -0.107487,-0.2949 0,-0.188791 0.102663,-0.299723 0.103353,-0.110932 0.271474,-0.110932 0.155718,0 0.239778,0.09095 0.08475,0.09095 0.08475,0.258382 z m -0.126091,-0.09922 q -6.89e-4,-0.101975 -0.05168,-0.157785 -0.0503,-0.05581 -0.153651,-0.05581 -0.104042,0 -0.166054,0.06132 -0.06132,0.06132 -0.06959,0.152273 z"
       id="text13635"
       style="font-size:1.41111px;line-height:1.25;-inkscape-font-specification:'sans-serif, Normal';letter-spacing:0px;word-spacing:0px;stroke-width:0.264583"
       aria-label="fromNode" />
    <path
       d="m 64.515964,21.888229 q -0.03652,0.0096 -0.07993,0.01585 -0.04272,0.0062 -0.07648,0.0062 -0.117822,0 -0.179145,-0.06339 -0.06132,-0.06339 -0.06132,-0.20326 V 21.23435 h -0.08751 v -0.108865 h 0.08751 V 20.90431 h 0.129536 v 0.221175 h 0.267339 v 0.108865 h -0.267339 v 0.35071 q 0,0.06063 0.0028,0.09509 0.0028,0.03376 0.01929,0.06339 0.01516,0.02756 0.04134,0.04065 0.02687,0.0124 0.0813,0.0124 0.03169,0 0.06615,-0.009 0.03445,-0.0096 0.04961,-0.01585 h 0.0069 z m 0.812353,-0.377583 q 0,0.188102 -0.09646,0.296967 -0.09646,0.108865 -0.258382,0.108865 -0.163297,0 -0.25976,-0.108865 -0.09577,-0.108865 -0.09577,-0.296967 0,-0.188102 0.09577,-0.296967 0.09646,-0.109554 0.25976,-0.109554 0.16192,0 0.258382,0.109554 0.09646,0.108865 0.09646,0.296967 z m -0.13367,0 q 0,-0.149517 -0.05857,-0.221864 -0.05857,-0.07304 -0.162609,-0.07304 -0.105419,0 -0.163986,0.07304 -0.05788,0.07235 -0.05788,0.221864 0,0.144694 0.05857,0.219797 0.05857,0.07441 0.163297,0.07441 0.103353,0 0.16192,-0.07372 0.05926,-0.07441 0.05926,-0.220486 z m 1.127235,0.384473 h -0.16881 l -0.486447,-0.917773 v 0.917773 H 65.539157 V 20.86917 h 0.211528 l 0.443728,0.837847 V 20.86917 h 0.127469 z m 0.918462,-0.384473 q 0,0.188102 -0.09646,0.296967 -0.09646,0.108865 -0.258382,0.108865 -0.163297,0 -0.25976,-0.108865 -0.09577,-0.108865 -0.09577,-0.296967 0,-0.188102 0.09577,-0.296967 0.09646,-0.109554 0.25976,-0.109554 0.161919,0 0.258382,0.109554 0.09646,0.108865 0.09646,0.296967 z m -0.13367,0 q 0,-0.149517 -0.05857,-0.221864 -0.05857,-0.07304 -0.162608,-0.07304 -0.10542,0 -0.163986,0.07304 -0.05788,0.07235 -0.05788,0.221864 0,0.144694 0.05857,0.219797 0.05857,0.07441 0.163297,0.07441 0.103353,0 0.161919,-0.07372 0.05926,-0.07441 0.05926,-0.220486 z m 0.958425,0.384473 h -0.129536 v -0.08062 q -0.05581,0.04823 -0.116444,0.0751 -0.06063,0.02687 -0.131602,0.02687 -0.137804,0 -0.219108,-0.106109 -0.08061,-0.106108 -0.08061,-0.294211 0,-0.09784 0.02756,-0.174321 0.02825,-0.07648 0.07579,-0.130225 0.04685,-0.05236 0.108865,-0.07993 0.0627,-0.02756 0.129536,-0.02756 0.06063,0 0.107487,0.01309 0.04685,0.0124 0.09853,0.03927 v -0.333485 h 0.129536 z m -0.129536,-0.18948 v -0.441661 q -0.05237,-0.02343 -0.09371,-0.03238 -0.04134,-0.009 -0.09026,-0.009 -0.108865,0 -0.169498,0.07579 -0.06063,0.07579 -0.06063,0.214973 0,0.137115 0.04685,0.208773 0.04685,0.07097 0.150206,0.07097 0.05512,0 0.111621,-0.02412 0.0565,-0.0248 0.10542,-0.06339 z m 1.028705,-0.181901 h -0.567062 q 0,0.07097 0.02136,0.124023 0.02136,0.05237 0.05857,0.08613 0.03583,0.03307 0.08475,0.04961 0.04961,0.01654 0.108865,0.01654 0.07855,0 0.157785,-0.03101 0.07993,-0.03169 0.113689,-0.06201 h 0.0069 v 0.141248 q -0.06546,0.02756 -0.13367,0.04616 -0.06821,0.0186 -0.143316,0.0186 -0.191547,0 -0.299034,-0.103353 -0.107487,-0.104041 -0.107487,-0.2949 0,-0.188791 0.102664,-0.299723 0.103353,-0.110932 0.271473,-0.110932 0.155719,0 0.239779,0.09095 0.08475,0.09095 0.08475,0.258382 z m -0.12609,-0.09922 q -6.89e-4,-0.101975 -0.05168,-0.157785 -0.0503,-0.05581 -0.153651,-0.05581 -0.104042,0 -0.166053,0.06132 -0.06132,0.06132 -0.06959,0.152273 z"
       id="text13635-2"
       style="font-size:1.41111px;line-height:1.25;-inkscape-font-specification:'sans-serif, Normal';letter-spacing:0px;word-spacing:0px;stroke-width:0.264583"
       aria-label="toNode" />
    <path
       inkscape:connector-curvature="0"
       id="path5718-7-5"
       d="M 31.29122,22.646674 H 28.809491"
       style="fill:none;stroke:#000000;stroke-width:0.100667;stroke-linecap:round;stroke-linejoin:round;stroke-miterlimit:4;stroke-dasharray:none;stroke-opacity:1;marker-start:url(#TriangleInM)" />
    <path
       inkscape:connector-curvature="0"
       id="path5718-7-5-2"
       d="M 59.917761,22.841617 H 62.39949"
       style="fill:none;stroke:#000000;stroke-width:0.100667;stroke-linecap:round;stroke-linejoin:round;stroke-miterlimit:4;stroke-dasharray:none;stroke-opacity:1;marker-start:url(#TriangleInM-8)" />
    <path
       d="m 29.125295,21.424885 h -0.109553 v -0.100769 h 0.109553 z m -0.0062,0.673858 h -0.09715 v -0.577224 h 0.09715 z m 0.771527,0.155029 h -0.676959 v -0.06201 h 0.676959 z m 0.404108,-0.865061 h -0.0052 q -0.01602,-0.0047 -0.04186,-0.0093 -0.02584,-0.0052 -0.04547,-0.0052 -0.06253,0 -0.09095,0.02791 -0.02791,0.02739 -0.02791,0.09973 v 0.01964 h 0.175183 v 0.08165 h -0.172082 v 0.495575 h -0.09715 v -0.495575 h -0.06563 v -0.08165 h 0.06563 v -0.01912 q 0,-0.102836 0.05116,-0.157612 0.05116,-0.05529 0.147794,-0.05529 0.03256,0 0.05839,0.0031 0.02635,0.0031 0.04806,0.0072 z m 0.421679,0.238745 h -0.0052 q -0.0217,-0.0052 -0.04237,-0.0072 -0.02015,-0.0026 -0.04806,-0.0026 -0.04496,0 -0.08682,0.02015 -0.04186,0.01964 -0.08062,0.05116 v 0.409792 h -0.09715 v -0.577224 h 0.09715 v 0.08527 q 0.05788,-0.04651 0.101802,-0.06563 0.04444,-0.01964 0.09043,-0.01964 0.02532,0 0.03669,0.0016 0.01137,0.001 0.03411,0.0047 z m 0.583425,0.182934 q 0,0.141076 -0.07235,0.222725 -0.07235,0.08165 -0.193786,0.08165 -0.122473,0 -0.194819,-0.08165 -0.07183,-0.08165 -0.07183,-0.222725 0,-0.141076 0.07183,-0.222725 0.07235,-0.08216 0.194819,-0.08216 0.121439,0 0.193786,0.08216 0.07235,0.08165 0.07235,0.222725 z m -0.100252,0 q 0,-0.112138 -0.04392,-0.166398 -0.04393,-0.05478 -0.121956,-0.05478 -0.07906,0 -0.122989,0.05478 -0.04341,0.05426 -0.04341,0.166398 0,0.10852 0.04392,0.164847 0.04392,0.05581 0.122473,0.05581 0.07752,0 0.121439,-0.05529 0.04444,-0.05581 0.04444,-0.165364 z m 1.092953,0.288353 h -0.09715 v -0.328661 q 0,-0.03721 -0.0036,-0.07183 -0.0031,-0.03462 -0.01395,-0.05529 -0.01189,-0.02222 -0.03411,-0.03359 -0.02222,-0.01137 -0.06408,-0.01137 -0.04082,0 -0.08165,0.02067 -0.04082,0.02015 -0.08165,0.05168 0.0016,0.01189 0.0026,0.02791 0.001,0.0155 0.001,0.03101 v 0.369485 h -0.09715 v -0.328661 q 0,-0.03824 -0.0036,-0.07235 -0.0031,-0.03462 -0.01395,-0.05529 -0.01189,-0.02222 -0.03411,-0.03307 -0.02222,-0.01137 -0.06408,-0.01137 -0.03979,0 -0.0801,0.01964 -0.03979,0.01964 -0.07958,0.05013 v 0.43098 h -0.09715 v -0.577224 h 0.09715 v 0.06408 q 0.04547,-0.03772 0.09043,-0.05891 0.04547,-0.02119 0.09663,-0.02119 0.05891,0 0.09974,0.0248 0.04134,0.02481 0.06149,0.06873 0.05891,-0.04961 0.107487,-0.07131 0.04858,-0.02222 0.103869,-0.02222 0.09508,0 0.140043,0.05788 0.04548,0.05736 0.04548,0.160713 z"
       id="text13635-7"
       style="font-size:1.05833px;line-height:1.25;-inkscape-font-specification:'sans-serif, Normal';letter-spacing:0px;word-spacing:0px;stroke-width:0.264583"
       aria-label="i_from" />
    <path
       d="m 60.11173,21.590748 h -0.109553 v -0.100769 h 0.109553 z m -0.0062,0.673858 h -0.09715 v -0.577223 h 0.09715 z m 0.771527,0.155029 h -0.676959 v -0.06201 h 0.676959 z m 0.393256,-0.160196 q -0.02739,0.0072 -0.05994,0.01188 -0.03204,0.0047 -0.05736,0.0047 -0.08837,0 -0.134358,-0.04754 -0.04599,-0.04754 -0.04599,-0.152445 v -0.306957 h -0.06563 v -0.08165 h 0.06563 v -0.165881 h 0.09715 v 0.165881 h 0.200504 v 0.08165 h -0.200504 v 0.263032 q 0,0.04547 0.0021,0.07131 0.0021,0.02532 0.01447,0.04754 0.01137,0.02067 0.03101,0.03049 0.02015,0.0093 0.06098,0.0093 0.02377,0 0.04961,-0.0067 0.02584,-0.0072 0.03721,-0.01188 h 0.0052 z m 0.609264,-0.283186 q 0,0.141076 -0.07235,0.222725 -0.07235,0.08165 -0.193786,0.08165 -0.122473,0 -0.19482,-0.08165 -0.07183,-0.08165 -0.07183,-0.222725 0,-0.141076 0.07183,-0.222725 0.07235,-0.08216 0.19482,-0.08216 0.121439,0 0.193786,0.08216 0.07235,0.08165 0.07235,0.222725 z m -0.100252,0 q 0,-0.112138 -0.04393,-0.166398 -0.04393,-0.05478 -0.121956,-0.05478 -0.07906,0 -0.12299,0.05478 -0.04341,0.05426 -0.04341,0.166398 0,0.10852 0.04392,0.164847 0.04393,0.05581 0.122473,0.05581 0.07751,0 0.121439,-0.05529 0.04444,-0.05581 0.04444,-0.165364 z"
       id="text13635-7-9"
       style="font-size:1.05833px;line-height:1.25;-inkscape-font-specification:'sans-serif, Normal';letter-spacing:0px;word-spacing:0px;stroke-width:0.264583"
       aria-label="i_to" />
    <path
       inkscape:connector-curvature="0"
       id="path5293-3-6"
       d="m 29.643078,30.193733 v -6.35488"
       style="fill:none;stroke:#000000;stroke-width:0.0685666;stroke-linecap:round;stroke-linejoin:miter;stroke-miterlimit:4;stroke-dasharray:0.137133, 0.274266;stroke-dashoffset:0;stroke-opacity:1;marker-start:url(#marker14281-6)" />
    <path
       inkscape:connector-curvature="0"
       id="path5293-3-6-5"
       d="m 61.609141,30.084267 v -6.35488"
       style="fill:none;stroke:#000000;stroke-width:0.0685666;stroke-linecap:round;stroke-linejoin:miter;stroke-miterlimit:4;stroke-dasharray:0.137133, 0.274266;stroke-dashoffset:0;stroke-opacity:1;marker-start:url(#marker14281-6-2)" />
    <g
       id="text5191-0-9-3"
       style="font-size:1.41111px;line-height:1.25;-inkscape-font-specification:'sans-serif, Normal';letter-spacing:0px;word-spacing:0px;stroke-width:0.264583"
       aria-label="Ud">
      <path
         d="m 26.970641,28.50462 q 0,0.111621 -0.0248,0.194992 -0.02412,0.08268 -0.07993,0.137804 -0.05305,0.05236 -0.124023,0.07648 -0.07097,0.02412 -0.165364,0.02412 -0.09646,0 -0.168121,-0.02549 -0.07166,-0.02549 -0.120578,-0.0751 -0.05581,-0.0565 -0.08062,-0.136426 -0.02412,-0.07993 -0.02412,-0.19637 v -0.613916 h 0.136426 v 0.620806 q 0,0.08337 0.01102,0.131602 0.01171,0.04823 0.03859,0.08751 0.03032,0.04479 0.08199,0.06752 0.05237,0.02274 0.125402,0.02274 0.07372,0 0.125401,-0.02205 0.05168,-0.02274 0.08268,-0.06821 0.02687,-0.03927 0.0379,-0.08957 0.01171,-0.05099 0.01171,-0.12609 v -0.624251 h 0.136425 z"
         id="path1" />
      <path
         style="baseline-shift:sub"
         d="M 27.845006,29.198875 H 27.71547 v -0.08062 q -0.05581,0.04823 -0.116444,0.0751 -0.06063,0.02687 -0.131602,0.02687 -0.137804,0 -0.219108,-0.106109 -0.08061,-0.106108 -0.08061,-0.294211 0,-0.09784 0.02756,-0.174321 0.02825,-0.07648 0.07579,-0.130225 0.04685,-0.05236 0.108865,-0.07993 0.0627,-0.02756 0.129536,-0.02756 0.06063,0 0.107487,0.01309 0.04685,0.0124 0.09853,0.03927 v -0.333485 h 0.129536 z m -0.129536,-0.18948 v -0.441661 q -0.05236,-0.02343 -0.09371,-0.03238 -0.04134,-0.009 -0.09026,-0.009 -0.108865,0 -0.169498,0.07579 -0.06063,0.07579 -0.06063,0.214973 0,0.137115 0.04685,0.208773 0.04685,0.07097 0.150206,0.07097 0.05512,0 0.111621,-0.02412 0.0565,-0.0248 0.10542,-0.06339 z"
         id="path3" />
    </g>
    <g
       id="text5191-0-9-3-2"
       style="font-size:1.41111px;line-height:1.25;-inkscape-font-specification:'sans-serif, Normal';letter-spacing:0px;word-spacing:0px;stroke-width:0.264583"
       aria-label="Uf">
      <path
         d="m 63.857028,28.50462 q 0,0.111621 -0.02481,0.194992 -0.02412,0.08268 -0.07993,0.137804 -0.05305,0.05236 -0.124023,0.07648 -0.07097,0.02412 -0.165365,0.02412 -0.09646,0 -0.16812,-0.02549 -0.07166,-0.02549 -0.120578,-0.0751 -0.05581,-0.0565 -0.08062,-0.136426 -0.02412,-0.07993 -0.02412,-0.19637 v -0.613916 h 0.136426 v 0.620806 q 0,0.08337 0.01102,0.131602 0.01171,0.04823 0.03859,0.08751 0.03032,0.04479 0.08199,0.06752 0.05237,0.02274 0.125401,0.02274 0.07372,0 0.125402,-0.02205 0.05168,-0.02274 0.08268,-0.06821 0.02687,-0.03927 0.0379,-0.08957 0.01171,-0.05099 0.01171,-0.12609 v -0.624251 h 0.136426 z"
         id="path6" />
      <path
         style="baseline-shift:sub"
         d="m 64.521242,28.252163 h -0.0069 q -0.02136,-0.0062 -0.05581,-0.0124 -0.03445,-0.0069 -0.06063,-0.0069 -0.08337,0 -0.121268,0.03721 -0.03721,0.03652 -0.03721,0.13298 v 0.02618 h 0.233578 v 0.108865 h -0.229443 v 0.660769 h -0.129536 v -0.660769 h -0.0875 v -0.108865 h 0.0875 v -0.02549 q 0,-0.137114 0.06821,-0.21015 0.06821,-0.07372 0.197059,-0.07372 0.04341,0 0.07786,0.0041 0.03514,0.0041 0.06408,0.0096 z"
         id="path7" />
    </g>
    <rect
       style="fill:none;stroke:none;stroke-width:0.1;stroke-linecap:square;stroke-dasharray:0.2, 0.4;stroke-dashoffset:0"
       id="rect12"
       width="51.07674"
       height="18.873068"
       x="18.63903"
       y="20.284742" />
    <g
       id="use8544-6-7"
       transform="matrix(0.47876073,0,0,0.45056913,11.903573,-13.920189)">
      <title
         id="title2-6-3">GND</title>
      <path
         style="fill:none;stroke:#000000;stroke-width:0.264583px;stroke-linecap:round;stroke-linejoin:miter;stroke-opacity:1"
         d="m 35.852378,97.901027 h 2.645833"
         id="path3-2-3"
         inkscape:connector-curvature="0" />
      <path
         style="fill:none;stroke:#000000;stroke-width:0.264583px;stroke-linecap:round;stroke-linejoin:miter;stroke-opacity:1"
         d="m 36.381545,98.430197 h 1.5875"
         id="path4-2-8"
         inkscape:connector-curvature="0" />
      <path
         style="fill:none;stroke:#000000;stroke-width:0.264583px;stroke-linecap:round;stroke-linejoin:miter;stroke-opacity:1"
         d="m 36.910711,98.959377 h 0.529167"
         id="path5-6-9"
         inkscape:connector-curvature="0"
         sodipodi:nodetypes="cc" />
      <path
         style="fill:none;stroke:#000000;stroke-width:0.264583px;stroke-linecap:round;stroke-linejoin:miter;stroke-opacity:1"
         d="m 37.175295,96.578117 v 1.32291"
         id="path6-5-6"
         inkscape:connector-curvature="0" />
      <title
         id="title6-9-2">GND</title>
    </g>
    <g
       id="use25588"
       transform="rotate(90,35.650153,-26.850673)">
      <title
         id="title10">Resistor_US</title>
      <path
         style="fill:none;stroke:#000000;stroke-width:0.264583px;stroke-linecap:round;stroke-linejoin:miter;stroke-opacity:1"
         d="m 85.989582,-30.427067 v -2.116666"
         id="path10"
         inkscape:connector-curvature="0"
         sodipodi:nodetypes="cc" />
      <path
         style="fill:none;stroke:#000000;stroke-width:0.264583px;stroke-linecap:round;stroke-linejoin:miter;stroke-opacity:1"
         d="m 84.666666,-33.0729 1.322916,0.529167"
         id="path11"
         inkscape:connector-curvature="0"
         sodipodi:nodetypes="cc" />
      <path
         style="fill:none;stroke:#000000;stroke-width:0.264583px;stroke-linecap:round;stroke-linejoin:miter;stroke-opacity:1"
         d="m 85.989582,-38.893733 1.322916,0.529167"
         id="path12"
         inkscape:connector-curvature="0"
         sodipodi:nodetypes="cc" />
      <path
         style="fill:none;stroke:#000000;stroke-width:0.264583px;stroke-linecap:round;stroke-linejoin:miter;stroke-opacity:1"
         d="m 84.666666,-35.189567 2.645833,1.058334"
         id="path13"
         inkscape:connector-curvature="0"
         sodipodi:nodetypes="cc" />
      <path
         style="fill:none;stroke:#000000;stroke-width:0.264583px;stroke-linecap:round;stroke-linejoin:miter;stroke-opacity:1"
         d="M 87.312499,-34.131234 84.666666,-33.0729"
         id="path14"
         inkscape:connector-curvature="0"
         sodipodi:nodetypes="cc" />
      <path
         style="fill:none;stroke:#000000;stroke-width:0.264583px;stroke-linecap:round;stroke-linejoin:miter;stroke-opacity:1"
         d="m 84.666666,-37.306233 2.645833,1.058334"
         id="path15"
         inkscape:connector-curvature="0"
         sodipodi:nodetypes="cc" />
      <path
         style="fill:none;stroke:#000000;stroke-width:0.264583px;stroke-linecap:round;stroke-linejoin:miter;stroke-opacity:1"
         d="m 87.312499,-36.2479 -2.645833,1.058334"
         id="path16"
         inkscape:connector-curvature="0"
         sodipodi:nodetypes="cc" />
      <path
         style="fill:none;stroke:#000000;stroke-width:0.264583px;stroke-linecap:round;stroke-linejoin:miter;stroke-opacity:1"
         d="m 87.312499,-38.364566 -2.645833,1.058334"
         id="path17"
         inkscape:connector-curvature="0"
         sodipodi:nodetypes="cc" />
      <path
         style="fill:none;stroke:#000000;stroke-width:0.264583px;stroke-linecap:round;stroke-linejoin:miter;stroke-opacity:1"
         d="M 85.989582,-38.893733 V -41.0104"
         id="path18"
         inkscape:connector-curvature="0"
         sodipodi:nodetypes="cc" />
      <title
         id="title18">Resistor_US</title>
    </g>
    <path
       inkscape:connector-curvature="0"
       id="path5293-3-6-3"
       d="M 61.32015,30.019219 H 29.875793"
       style="fill:none;stroke:#000000;stroke-width:0.05;stroke-linecap:round;stroke-linejoin:miter;stroke-miterlimit:4;stroke-dasharray:0.1, 0.200001;stroke-dashoffset:0;stroke-opacity:1" />
    <g
       id="text5191-0-9-3-25"
       style="font-size:1.41111px;line-height:1.25;-inkscape-font-specification:'sans-serif, Normal';letter-spacing:0px;word-spacing:0px;stroke-width:0.264583"
       aria-label="Rdf">
      <path
         d="M 44.817649,21.677721 H 44.640571 L 44.29744,21.269822 h -0.192236 v 0.407899 h -0.136426 v -1.025949 h 0.287321 q 0.09302,0 0.155029,0.0124 0.06201,0.01171 0.111621,0.04272 0.05581,0.03514 0.08682,0.08888 0.03169,0.05306 0.03169,0.135048 0,0.110932 -0.05581,0.186035 -0.05581,0.07441 -0.153651,0.11231 z m -0.319015,-0.73725 q 0,-0.0441 -0.01585,-0.07786 -0.01516,-0.03445 -0.05099,-0.05788 -0.02963,-0.01998 -0.07028,-0.02756 -0.04065,-0.0083 -0.09577,-0.0083 h -0.160541 v 0.387228 h 0.137804 q 0.06477,0 0.112999,-0.01102 0.04823,-0.01171 0.08199,-0.04272 0.03101,-0.02894 0.04547,-0.06615 0.01516,-0.0379 0.01516,-0.09577 z"
         id="path4" />
      <path
         style="baseline-shift:sub"
         d="m 45.563856,21.959943 h -0.129535 v -0.08061 q -0.05581,0.04823 -0.116444,0.0751 -0.06063,0.02687 -0.131603,0.02687 -0.137804,0 -0.219108,-0.106109 -0.08062,-0.106109 -0.08062,-0.294211 0,-0.09784 0.02756,-0.174322 0.02825,-0.07648 0.07579,-0.130224 0.04685,-0.05237 0.108865,-0.07993 0.0627,-0.02756 0.129535,-0.02756 0.06063,0 0.107487,0.01309 0.04685,0.0124 0.09853,0.03927 V 20.88783 h 0.129535 z m -0.129535,-0.18948 v -0.441661 q -0.05237,-0.02343 -0.09371,-0.03238 -0.04134,-0.009 -0.09026,-0.009 -0.108865,0 -0.169499,0.07579 -0.06063,0.07579 -0.06063,0.214974 0,0.137114 0.04685,0.208772 0.04685,0.07097 0.150206,0.07097 0.05512,0 0.111621,-0.02411 0.0565,-0.02481 0.10542,-0.06339 z m 0.798572,-0.757231 h -0.0069 q -0.02136,-0.0062 -0.05581,-0.0124 -0.03445,-0.0069 -0.06063,-0.0069 -0.08337,0 -0.121267,0.03721 -0.03721,0.03652 -0.03721,0.132981 v 0.02618 h 0.233577 v 0.108865 h -0.229443 v 0.660769 h -0.129536 v -0.660769 h -0.08751 v -0.108865 h 0.08751 v -0.02549 q 0,-0.137115 0.06821,-0.210151 0.06821,-0.07372 0.197059,-0.07372 0.04341,0 0.07786,0.0041 0.03514,0.0041 0.06408,0.0096 z"
         id="path5" />
    </g>
  </g>
</svg>
