<?xml version="1.0" encoding="UTF-8" standalone="no"?>
<!-- Created with Inkscape (http://www.inkscape.org/) -->

<svg
   width="53.070389mm"
   height="40.096756mm"
   viewBox="0 0 53.070389 40.096755"
   version="1.1"
   id="svg1"
   inkscape:version="1.3 (0e150ed6c4, 2023-07-21)"
   sodipodi:docname="Gen_limits.svg"
   inkscape:export-filename="SC.pdf"
   inkscape:export-xdpi="96"
   inkscape:export-ydpi="96"
   xmlns:inkscape="http://www.inkscape.org/namespaces/inkscape"
   xmlns:sodipodi="http://sodipodi.sourceforge.net/DTD/sodipodi-0.dtd"
   xmlns="http://www.w3.org/2000/svg"
   xmlns:svg="http://www.w3.org/2000/svg">
  <sodipodi:namedview
     id="namedview1"
     pagecolor="#818181"
     bordercolor="#000000"
     borderopacity="0.25"
     inkscape:showpageshadow="2"
     inkscape:pageopacity="0.0"
     inkscape:pagecheckerboard="0"
     inkscape:deskcolor="#d1d1d1"
     inkscape:document-units="mm"
     inkscape:zoom="2.7687711"
     inkscape:cx="70.608943"
     inkscape:cy="45.68814"
     inkscape:window-width="1920"
     inkscape:window-height="1009"
     inkscape:window-x="1912"
     inkscape:window-y="-8"
     inkscape:window-maximized="1"
     inkscape:current-layer="g4"
     showgrid="false" />
  <defs
     id="defs1">
    <inkscape:path-effect
       effect="bspline"
       id="path-effect2"
       is_visible="true"
       lpeversion="1.3"
       weight="33.333333"
       steps="2"
       helper_size="0"
       apply_no_weight="true"
       apply_with_weight="true"
       only_selected="false"
       uniform="false" />
    <marker
       style="overflow:visible"
       id="ConcaveTriangle"
       refX="0"
       refY="0"
       orient="auto-start-reverse"
       inkscape:stockid="Concave triangle arrow"
       markerWidth="0.5"
       markerHeight="0.5"
       viewBox="0 0 1 1"
       inkscape:isstock="true"
       inkscape:collect="always"
       preserveAspectRatio="xMidYMid">
      <path
         transform="scale(0.7)"
         d="M -2,-4 9,0 -2,4 c 2,-2.33 2,-5.66 0,-8 z"
         style="fill:context-stroke;fill-rule:evenodd;stroke:none"
         id="path7" />
    </marker>
    <marker
       style="overflow:visible"
       id="ConcaveTriangle-0"
       refX="0"
       refY="0"
       orient="auto-start-reverse"
       inkscape:stockid="Concave triangle arrow"
       markerWidth="0.5"
       markerHeight="0.5"
       viewBox="0 0 1 1"
       inkscape:isstock="true"
       inkscape:collect="always"
       preserveAspectRatio="xMidYMid">
      <path
         transform="scale(0.7)"
         d="M -2,-4 9,0 -2,4 c 2,-2.33 2,-5.66 0,-8 z"
         style="fill:context-stroke;fill-rule:evenodd;stroke:none"
         id="path7-6" />
    </marker>
  </defs>
  <g
     inkscape:label="Layer 1"
     inkscape:groupmode="layer"
     id="layer1"
     transform="translate(-65.079063,-62.187484)"
     style="display:inline">
    <path
       id="rect4"
       style="opacity:0.886035;fill:none;stroke-width:0.352998;stroke-linecap:square"
       d="m 65.35112,62.268425 h 52.71739 V 102.01218 H 65.35112 Z" />
    <g
       id="g4">
      <path
         id="path5718-1"
         d="M 70.141115,90.959139 H 110.02173"
         style="display:inline;fill:none;stroke:#ffffff;stroke-width:0.600001;stroke-linecap:round;stroke-linejoin:round;stroke-miterlimit:4;stroke-dasharray:none;stroke-opacity:1;marker-end:url(#ConcaveTriangle)" />
      <path
         id="path5718-1-3"
         d="M 91.787768,104.75185 V 64.871213"
         style="display:inline;fill:none;stroke:#ffffff;stroke-width:0.600001;stroke-linecap:round;stroke-linejoin:round;stroke-miterlimit:4;stroke-dasharray:none;stroke-opacity:1;marker-end:url(#ConcaveTriangle-0)" />
      <path
         id="path4"
         style="display:inline;opacity:1;fill:none;stroke:#8787de;stroke-width:0.488356;stroke-linecap:square"
         d="M 113.33434,90.959145 A 21.546579,21.546583 0 0 1 91.787766,112.50573 21.546579,21.546583 0 0 1 70.241186,90.959145 21.546579,21.546583 0 0 1 91.787766,69.412561 21.546579,21.546583 0 0 1 113.33434,90.959145 Z" />
      <path
         id="path4-4"
         style="display:inline;opacity:1;fill:#aaeeff;stroke:#000080;stroke-width:0.488356;stroke-linecap:square"
         d="M 84.700442,70.664608 A 21.546579,21.546583 0 0 0 80.098139,72.86344 V 87.286849 H 103.47759 V 72.866024 a 21.546579,21.546583 0 0 0 -4.452958,-2.201416 z" />
      <path
         id="path5718-1-1"
         d="M 103.52164,91.066704 V 78.731811"
         style="fill:none;stroke:#ffffff;stroke-width:0.276826;stroke-linecap:round;stroke-linejoin:round;stroke-miterlimit:4;stroke-dasharray:0.553653, 0.553653;stroke-dashoffset:0;stroke-opacity:1" />
      <path
         d="m 89.174803,65.185757 c 0.169333,0 0.318911,-0.05362 0.44591,-0.158044 0.135467,-0.110067 0.2032,-0.251178 0.2032,-0.417689 0,-0.172155 -0.07055,-0.313266 -0.211666,-0.423333 -0.129822,-0.101599 -0.282222,-0.152399 -0.4572,-0.152399 h -0.702733 v 1.95862 h 0.268111 v -0.807155 z m 0.400755,-0.575733 c 0,0.251178 -0.220133,0.392289 -0.4826,0.392289 h -0.380999 v -0.790222 h 0.380999 c 0.268111,0 0.4826,0.141111 0.4826,0.397933 z"
         id="text5564-6-1"
         style="font-size:2.82222px;line-height:1.25;font-family:NewComputerModernSans10;-inkscape-font-specification:'NewComputerModernSans10, Normal';letter-spacing:0px;word-spacing:0px;stroke-width:0.48829;stroke:none;fill:#ffffff"
         aria-label="P" />
      <path
         d="m 111.35462,94.432404 c 0.26811,-0.217311 0.40358,-0.508 0.40358,-0.874889 0,-0.268111 -0.079,-0.502355 -0.23425,-0.708377 -0.16933,-0.225777 -0.38382,-0.338666 -0.64346,-0.338666 -0.26247,0 -0.47696,0.112889 -0.64629,0.335844 -0.15522,0.206022 -0.23424,0.443088 -0.23424,0.711199 0,0.268111 0.079,0.505178 0.23424,0.708378 0.16933,0.220133 0.38382,0.330199 0.64347,0.330199 0.0931,0 0.18062,-0.01693 0.26246,-0.04798 l 0.23989,0.335844 h 0.31327 z m -0.47695,-1.721555 c 0.19755,0 0.3556,0.09596 0.47131,0.287867 0.0988,0.160866 0.14675,0.347133 0.14675,0.558799 0,0.296334 -0.0903,0.530578 -0.27093,0.699911 l -0.21731,-0.287866 h -0.27376 l 0.28505,0.406399 c -0.0339,0.01411 -0.079,0.01976 -0.13829,0.01976 -0.19756,0 -0.3556,-0.09313 -0.47131,-0.282222 -0.0988,-0.160867 -0.14676,-0.344311 -0.14676,-0.555978 0,-0.206022 0.048,-0.392288 0.14676,-0.555977 0.11571,-0.194733 0.27375,-0.290689 0.46849,-0.290689 z"
         id="text5564-6-1-8"
         style="font-size:2.82222px;line-height:1.25;font-family:NewComputerModernSans10;-inkscape-font-specification:'NewComputerModernSans10, Normal';letter-spacing:0px;word-spacing:0px;stroke-width:0.48829;stroke:none;fill:#ffffff"
         aria-label="Q" />
      <g
         id="text5564-6-1-9"
         style="font-size:2.82222px;line-height:1.25;font-family:NewComputerModernSans10;-inkscape-font-specification:'NewComputerModernSans10, Normal';letter-spacing:0px;word-spacing:0px;stroke-width:0.48829;stroke:none;fill:#ffffff"
         aria-label="Qmax">
        <path
           d="m 104.08613,93.324699 c 0.26811,-0.21731 0.40358,-0.507999 0.40358,-0.874888 0,-0.268111 -0.079,-0.502355 -0.23425,-0.708377 -0.16933,-0.225778 -0.38382,-0.338666 -0.64347,-0.338666 -0.26246,0 -0.47695,0.112888 -0.64628,0.335844 -0.15523,0.206022 -0.23425,0.443088 -0.23425,0.711199 0,0.268111 0.079,0.505178 0.23425,0.708377 0.16933,0.220134 0.38382,0.3302 0.64346,0.3302 0.0931,0 0.18062,-0.01693 0.26247,-0.04798 l 0.23989,0.335845 h 0.31326 z m -0.47696,-1.721554 c 0.19756,0 0.3556,0.09596 0.47131,0.287867 0.0988,0.160866 0.14676,0.347133 0.14676,0.558799 0,0.296333 -0.0903,0.530578 -0.27093,0.699911 l -0.21732,-0.287867 h -0.27375 l 0.28504,0.4064 c -0.0339,0.01411 -0.079,0.01976 -0.13829,0.01976 -0.19755,0 -0.3556,-0.09313 -0.47131,-0.282222 -0.0988,-0.160867 -0.14675,-0.344311 -0.14675,-0.555978 0,-0.206022 0.048,-0.392288 0.14675,-0.555977 0.11571,-0.194733 0.27376,-0.290689 0.46849,-0.290689 z"
           id="path5"
           style="stroke:none;fill:#ffffff" />
        <path
           style="font-size:65%;baseline-shift:sub;stroke:none;fill:#ffffff"
           d="m 105.1312,93.277992 c 0.12841,0 0.1706,0.06054 0.1706,0.177941 v 0.531988 h 0.15409 v -0.449438 c 0,-0.13208 0.0569,-0.260491 0.17611,-0.260491 0.12841,0 0.1706,0.06054 0.1706,0.177941 v 0.531988 h 0.15593 v -0.544829 c 0,-0.192617 -0.0844,-0.289842 -0.25499,-0.289842 -0.1119,0 -0.19995,0.04586 -0.26783,0.139417 -0.0385,-0.09356 -0.11557,-0.139417 -0.23481,-0.139417 -0.10089,0 -0.18711,0.04219 -0.25682,0.124742 v -0.11557 h -0.14492 v 0.825499 h 0.15593 v -0.449438 c 0,-0.133915 0.055,-0.260491 0.17611,-0.260491 z m 1.42352,-0.135749 c -0.10089,0 -0.19628,0.02752 -0.28984,0.08072 l 0.0128,0.135749 c 0.0899,-0.06421 0.18161,-0.09539 0.277,-0.09539 0.0972,0 0.14859,0.09356 0.14859,0.19812 v 0.06971 c -0.21829,0.0073 -0.49713,0.06237 -0.49713,0.245815 0,0.126577 0.0844,0.23114 0.21096,0.23114 0.12107,0 0.2183,-0.02568 0.29168,-0.07705 v 0.05687 h 0.14859 v -0.528319 c 0,-0.176107 -0.12658,-0.317359 -0.30269,-0.317359 z m -0.20545,0.631048 c 0,-0.07705 0.1174,-0.121073 0.35404,-0.133914 v 0.102729 c 0,0.09356 -0.0642,0.141252 -0.19445,0.141252 -0.0789,0 -0.15959,-0.03669 -0.15959,-0.110067 z m 1.32447,0.21463 h 0.16877 l -0.36689,-0.420087 0.3357,-0.394406 h -0.16693 l -0.23848,0.293511 -0.24582,-0.293511 h -0.16877 l 0.34488,0.394406 -0.35588,0.420087 h 0.16693 l 0.25866,-0.333868 z"
           id="path6" />
      </g>
      <g
         id="text5564-6-1-9-7"
         style="font-size:2.82222px;line-height:1.25;font-family:NewComputerModernSans10;-inkscape-font-specification:'NewComputerModernSans10, Normal';letter-spacing:0px;word-spacing:0px;stroke-width:0.48829;stroke:none;fill:#ffffff"
         aria-label="Pmax">
        <path
           style="baseline-shift:sub;stroke:none;fill:#ffffff"
           d="m 72.367956,70.49747 c 0.169333,0 0.318911,-0.05362 0.445911,-0.158044 0.135466,-0.110067 0.2032,-0.251178 0.2032,-0.417689 0,-0.172155 -0.07056,-0.313266 -0.211667,-0.423333 -0.129822,-0.1016 -0.282222,-0.1524 -0.457199,-0.1524 h -0.702733 v 1.958621 h 0.268111 V 70.49747 Z m 0.400755,-0.575733 c 0,0.251178 -0.220133,0.392289 -0.482599,0.392289 h -0.381 v -0.790222 h 0.381 c 0.268111,0 0.482599,0.141111 0.482599,0.397933 z"
           id="path8" />
        <path
           style="font-size:65%;baseline-shift:sub;stroke:none;fill:#ffffff"
           d="m 73.658557,70.594696 c 0.128411,0 0.170603,0.06054 0.170603,0.177941 v 0.531988 h 0.154094 v -0.449439 c 0,-0.132079 0.05687,-0.26049 0.176106,-0.26049 0.128411,0 0.170603,0.06054 0.170603,0.177941 v 0.531988 h 0.155928 v -0.54483 c 0,-0.192616 -0.08438,-0.289842 -0.254988,-0.289842 -0.111901,0 -0.199954,0.04586 -0.267828,0.139418 -0.03852,-0.09356 -0.11557,-0.139418 -0.234809,-0.139418 -0.100894,0 -0.187113,0.04219 -0.256822,0.124743 v -0.11557 h -0.144921 v 0.825499 h 0.155928 v -0.449439 c 0,-0.133914 0.05503,-0.26049 0.176106,-0.26049 z m 1.423529,-0.135749 c -0.100894,0 -0.196285,0.02752 -0.289842,0.08072 l 0.01284,0.135749 c 0.08989,-0.06421 0.18161,-0.09539 0.277001,-0.09539 0.09722,0 0.14859,0.09356 0.14859,0.19812 v 0.06971 c -0.218299,0.0073 -0.497134,0.06237 -0.497134,0.245815 0,0.126577 0.08438,0.23114 0.210961,0.23114 0.121073,0 0.218298,-0.02568 0.291676,-0.07705 v 0.05687 h 0.14859 v -0.52832 c 0,-0.176106 -0.126576,-0.317358 -0.302683,-0.317358 z m -0.205458,0.631048 c 0,-0.07705 0.117405,-0.121073 0.354048,-0.133914 v 0.102729 c 0,0.09356 -0.06421,0.141252 -0.194451,0.141252 -0.07888,0 -0.159597,-0.03669 -0.159597,-0.110067 z m 1.32447,0.21463 h 0.168768 l -0.366888,-0.420087 0.335703,-0.394406 h -0.166934 l -0.238478,0.293511 -0.245815,-0.293511 h -0.168769 l 0.344875,0.394406 -0.355882,0.420087 h 0.166935 l 0.258656,-0.333869 z"
           id="path9" />
      </g>
      <g
         id="text5564-6-1-9-0"
         style="font-size:2.82222px;line-height:1.25;font-family:NewComputerModernSans10;-inkscape-font-specification:'NewComputerModernSans10, Normal';letter-spacing:0px;word-spacing:0px;stroke-width:0.48829;stroke:none;fill:#ffffff"
         aria-label="Qmin">
        <path
           d="m 80.261855,93.558624 c 0.268111,-0.217311 0.403578,-0.507999 0.403578,-0.874888 0,-0.268111 -0.07902,-0.502355 -0.234244,-0.708377 -0.169334,-0.225778 -0.383822,-0.338667 -0.643467,-0.338667 -0.262466,0 -0.476955,0.112889 -0.646288,0.335845 -0.155222,0.206022 -0.234244,0.443088 -0.234244,0.711199 0,0.268111 0.07902,0.505178 0.234244,0.708377 0.169333,0.220134 0.383822,0.3302 0.643466,0.3302 0.09313,0 0.180622,-0.01693 0.262467,-0.04798 l 0.239888,0.335845 h 0.313267 z M 79.7849,91.83707 c 0.197556,0 0.3556,0.09596 0.471311,0.287867 0.09878,0.160866 0.146755,0.347133 0.146755,0.558799 0,0.296333 -0.09031,0.530577 -0.270933,0.699911 L 79.914722,93.09578 h -0.273755 l 0.285044,0.4064 c -0.03387,0.01411 -0.07902,0.01976 -0.138289,0.01976 -0.197555,0 -0.355599,-0.09313 -0.47131,-0.282222 -0.09878,-0.160866 -0.146756,-0.34431 -0.146756,-0.555977 0,-0.206022 0.04798,-0.392288 0.146756,-0.555977 0.115711,-0.194733 0.273755,-0.290689 0.468488,-0.290689 z"
           id="path10"
           style="stroke:none;fill:#ffffff" />
        <path
           style="font-size:65%;baseline-shift:sub;stroke:none;fill:#ffffff"
           d="m 81.306924,93.511917 c 0.128411,0 0.170603,0.06054 0.170603,0.177941 v 0.531988 h 0.154093 v -0.449438 c 0,-0.13208 0.05687,-0.260491 0.176107,-0.260491 0.128411,0 0.170603,0.06054 0.170603,0.177941 v 0.531988 h 0.155928 v -0.54483 c 0,-0.192616 -0.08438,-0.289842 -0.254988,-0.289842 -0.111901,0 -0.199954,0.04586 -0.267829,0.139418 -0.03852,-0.09356 -0.11557,-0.139418 -0.234808,-0.139418 -0.100895,0 -0.187114,0.04219 -0.256822,0.124743 v -0.11557 H 80.97489 v 0.825499 h 0.155927 v -0.449438 c 0,-0.133915 0.05503,-0.260491 0.176107,-0.260491 z m 1.108004,-0.315525 h 0.172438 v -0.176106 h -0.172438 z m 0.01284,1.025454 h 0.146756 V 93.40185 h -0.146756 z m 0.770467,-0.709929 c 0.119239,0 0.166935,0.0587 0.166935,0.177941 v 0.531988 h 0.154093 v -0.54483 c 0,-0.192616 -0.08439,-0.289842 -0.253153,-0.289842 -0.100895,0 -0.185279,0.04036 -0.253154,0.122908 v -0.113735 h -0.143086 v 0.825499 h 0.154093 v -0.449438 c 0,-0.13208 0.0532,-0.260491 0.174272,-0.260491 z"
           id="path11" />
      </g>
      <g
         id="text5564-6-1-9-0-6"
         style="font-size:2.82222px;line-height:1.25;font-family:NewComputerModernSans10;-inkscape-font-specification:'NewComputerModernSans10, Normal';letter-spacing:0px;word-spacing:0px;stroke-width:0.48829;stroke:none;fill:#afafe9"
         aria-label="Srating">
        <path
           d="m 77.615393,99.393252 c 0.169334,0 0.327378,0.06209 0.476956,0.189088 l 0.04516,-0.251177 c -0.160866,-0.09596 -0.333022,-0.143933 -0.519288,-0.143933 -0.169334,0 -0.316089,0.0508 -0.440267,0.149577 -0.132644,0.110067 -0.197555,0.245533 -0.197555,0.412044 0,0.132645 0.0508,0.251179 0.1524,0.361249 0.112889,0.12135 0.206022,0.14957 0.406399,0.20037 0.09878,0.0254 0.158045,0.0423 0.1778,0.048 0.149578,0.048 0.270933,0.16087 0.270933,0.33867 0,0.21166 -0.180622,0.35842 -0.392288,0.35842 -0.217311,0 -0.420511,-0.079 -0.603955,-0.23707 l -0.04516,0.254 c 0.208845,0.13265 0.426155,0.19756 0.651933,0.19756 0.172155,0 0.321733,-0.0565 0.445911,-0.17216 0.124178,-0.11571 0.186266,-0.25682 0.186266,-0.42897 0,-0.25965 -0.169333,-0.46003 -0.36971,-0.54469 -0.04798,-0.0198 -0.135467,-0.0452 -0.262467,-0.0762 -0.135466,-0.0339 -0.231422,-0.07338 -0.285044,-0.121359 -0.06209,-0.05362 -0.09313,-0.124177 -0.09313,-0.211666 0,-0.197556 0.189088,-0.321733 0.39511,-0.321733 z"
           id="path12"
           style="stroke:none;fill:#afafe9" />
        <path
           style="font-size:65%;baseline-shift:sub;stroke:none;fill:#afafe9"
           d="m 78.991366,101.07346 v -0.13575 c -0.130245,0.002 -0.234809,0.0532 -0.310021,0.15776 v -0.14859 h -0.139417 v 0.8255 h 0.146755 v -0.39257 c 0,-0.17977 0.126577,-0.30085 0.302683,-0.30635 z m 0.475123,-0.14676 c -0.100895,0 -0.196286,0.0275 -0.289842,0.0807 l 0.01284,0.13575 c 0.08989,-0.0642 0.181609,-0.0954 0.277001,-0.0954 0.09723,0 0.148589,0.0935 0.148589,0.19812 v 0.0697 c -0.218298,0.007 -0.497134,0.0624 -0.497134,0.24581 0,0.12658 0.08439,0.23114 0.210961,0.23114 0.121074,0 0.218299,-0.0257 0.291677,-0.077 v 0.0569 h 0.14859 v -0.52832 c 0,-0.1761 -0.126577,-0.31736 -0.302683,-0.31736 z m -0.205458,0.63105 c 0,-0.077 0.117404,-0.12107 0.354047,-0.13391 v 0.10273 c 0,0.0935 -0.06421,0.14125 -0.194451,0.14125 -0.07888,0 -0.159596,-0.0367 -0.159596,-0.11007 z m 0.981429,0.23481 c 0.08805,0 0.177941,-0.0238 0.269663,-0.0715 l -0.03302,-0.12291 c -0.0532,0.0422 -0.108232,0.0642 -0.1651,0.0642 -0.05687,0 -0.08438,-0.0477 -0.08438,-0.14309 v -0.44577 h 0.251318 v -0.11924 h -0.251318 v -0.2293 h -0.137584 v 0.2293 h -0.155927 v 0.11924 h 0.150424 v 0.47696 c 0,0.16143 0.05136,0.24214 0.155928,0.24214 z m 0.453107,-1.04563 h 0.172438 v -0.17611 h -0.172438 z m 0.01284,1.02545 h 0.146756 v -0.81999 h -0.146756 z m 0.770467,-0.70993 c 0.119239,0 0.166934,0.0587 0.166934,0.17794 v 0.53199 h 0.154093 v -0.54483 c 0,-0.19261 -0.08438,-0.28984 -0.253153,-0.28984 -0.100894,0 -0.185278,0.0404 -0.253153,0.12291 v -0.11374 H 81.15051 v 0.8255 h 0.154093 v -0.44944 c 0,-0.13208 0.0532,-0.26049 0.174272,-0.26049 z m 0.583353,0.17794 c 0,0.0679 0.02018,0.12658 0.0587,0.17978 -0.03485,0.0495 -0.05136,0.10089 -0.05136,0.15409 0,0.0514 0.01468,0.0972 0.04403,0.13575 -0.07521,0.0459 -0.111901,0.11007 -0.111901,0.18895 0,0.0825 0.04953,0.14676 0.14859,0.19445 0.07888,0.0385 0.163266,0.0569 0.256822,0.0569 0.09356,0 0.179776,-0.0183 0.258657,-0.0569 0.09906,-0.0477 0.14859,-0.11373 0.14859,-0.19628 0,-0.0862 -0.02752,-0.14676 -0.08438,-0.18345 -0.06054,-0.0385 -0.11557,-0.0624 -0.166934,-0.0679 -0.05687,-0.006 -0.09906,-0.009 -0.126577,-0.009 h -0.159596 c -0.06421,0 -0.09723,-0.0293 -0.09723,-0.088 0,-0.022 0.0055,-0.0404 0.01468,-0.055 0.04953,0.033 0.102729,0.0495 0.163265,0.0495 0.1651,0 0.295346,-0.13759 0.295346,-0.30269 0,-0.0624 -0.01651,-0.11923 -0.05137,-0.17243 0.02201,0 0.102729,-0.007 0.124742,-0.007 0.02201,0 0.06054,0.002 0.11557,0.007 l -0.02201,-0.13025 c -0.104563,0 -0.201789,0.0183 -0.289842,0.0569 -0.04953,-0.0385 -0.106398,-0.0569 -0.172438,-0.0569 -0.1651,0 -0.295345,0.13758 -0.295345,0.30268 z m 0.449438,0 c 0,0.0385 -0.0018,0.0642 -0.0055,0.077 -0.01651,0.055 -0.08255,0.10823 -0.14859,0.10823 -0.100894,0 -0.154093,-0.0807 -0.154093,-0.18528 0,-0.10456 0.0532,-0.18527 0.154093,-0.18527 0.100895,0 0.154093,0.0807 0.154093,0.18527 z m -0.236643,0.54117 h 0.163266 c 0.157762,0 0.236643,0.0404 0.236643,0.11923 0,0.0459 -0.03485,0.0807 -0.104563,0.10457 -0.05137,0.0183 -0.104564,0.0275 -0.161431,0.0275 -0.05687,0 -0.111901,-0.009 -0.161431,-0.0275 -0.06971,-0.0238 -0.104564,-0.0605 -0.104564,-0.1064 0,-0.0697 0.0532,-0.1174 0.13208,-0.1174 z"
           id="path13" />
      </g>
      <g
         id="text5564-6-1-9-0-4"
         style="font-size:2.82222px;line-height:1.25;font-family:NewComputerModernSans10;-inkscape-font-specification:'NewComputerModernSans10, Normal';letter-spacing:0px;word-spacing:0px;stroke-width:0.48829;stroke:none;fill:#ffffff"
         aria-label="Pmin">
        <path
           style="baseline-shift:sub;stroke:none;fill:#ffffff"
           d="m 72.367956,87.064319 c 0.169333,0 0.318911,-0.05362 0.445911,-0.158045 0.135466,-0.110066 0.2032,-0.251177 0.2032,-0.417688 0,-0.172156 -0.07056,-0.313267 -0.211667,-0.423333 -0.129822,-0.1016 -0.282222,-0.1524 -0.457199,-0.1524 h -0.702733 v 1.958621 h 0.268111 v -0.807155 z m 0.400755,-0.575733 c 0,0.251177 -0.220133,0.392288 -0.482599,0.392288 h -0.381 v -0.790221 h 0.381 c 0.268111,0 0.482599,0.141111 0.482599,0.397933 z"
           id="path14" />
        <path
           style="font-size:65%;baseline-shift:sub;stroke:none;fill:#ffffff"
           d="m 73.658557,87.161544 c 0.128411,0 0.170603,0.06054 0.170603,0.177941 v 0.531989 h 0.154094 v -0.449439 c 0,-0.13208 0.05687,-0.260491 0.176106,-0.260491 0.128411,0 0.170603,0.06054 0.170603,0.177941 v 0.531989 h 0.155928 v -0.54483 c 0,-0.192616 -0.08438,-0.289842 -0.254988,-0.289842 -0.111901,0 -0.199954,0.04586 -0.267828,0.139418 -0.03852,-0.09356 -0.11557,-0.139418 -0.234809,-0.139418 -0.100894,0 -0.187113,0.04219 -0.256822,0.124742 v -0.11557 h -0.144921 v 0.8255 h 0.155928 v -0.449439 c 0,-0.133914 0.05503,-0.260491 0.176106,-0.260491 z m 1.108005,-0.315524 h 0.172437 v -0.176106 h -0.172437 z m 0.01284,1.025454 h 0.146755 v -0.819996 h -0.146755 z m 0.770467,-0.70993 c 0.119238,0 0.166934,0.0587 0.166934,0.177941 v 0.531989 h 0.154093 v -0.54483 c 0,-0.192616 -0.08438,-0.289842 -0.253153,-0.289842 -0.100894,0 -0.185279,0.04036 -0.253153,0.122908 v -0.113736 h -0.143087 v 0.8255 h 0.154093 v -0.449439 c 0,-0.13208 0.0532,-0.260491 0.174273,-0.260491 z"
           id="path15" />
      </g>
      <path
         id="path5718-1-1-8"
         d="m 80.053896,91.066704 v -12.3349"
         style="display:inline;fill:none;stroke:#ffffff;stroke-width:0.276826;stroke-linecap:round;stroke-linejoin:round;stroke-miterlimit:4;stroke-dasharray:0.553653, 0.553653;stroke-dashoffset:0;stroke-opacity:1" />
      <path
         id="path5718-1-1-8-5"
         d="m 97.955218,70.620544 h -12.3349"
         style="display:inline;fill:none;stroke:#000000;stroke-width:0.276826;stroke-linecap:round;stroke-linejoin:round;stroke-miterlimit:4;stroke-dasharray:0.553653, 0.553653;stroke-dashoffset:0;stroke-opacity:1" />
      <path
         id="path5718-1-1-8-5-7"
         d="m 97.955218,87.331189 h -12.3349"
         style="display:inline;fill:none;stroke:#000000;stroke-width:0.276826;stroke-linecap:round;stroke-linejoin:round;stroke-miterlimit:4;stroke-dasharray:0.553653, 0.553653;stroke-dashoffset:0;stroke-opacity:1" />
      <path
         id="path5718-1-1-8-5-5"
         d="m 91.701669,90.94918 -18.97631,9.84266"
         style="display:inline;fill:none;stroke:#8787de;stroke-width:0.276826;stroke-linecap:round;stroke-linejoin:round;stroke-miterlimit:4;stroke-dasharray:0.553653, 0.553653;stroke-dashoffset:0;stroke-opacity:1"
         sodipodi:nodetypes="cc" />
      <path
         id="path5718-1-1-8-8"
         d="M 77.66643,70.620544 H 90.001329"
         style="display:inline;fill:none;stroke:#ffffff;stroke-width:0.276826;stroke-linecap:round;stroke-linejoin:round;stroke-miterlimit:4;stroke-dasharray:0.553653, 0.553653;stroke-dashoffset:0;stroke-opacity:1"
         inkscape:label="path5718-1-1-8-8" />
      <path
         id="path5718-1-1-8-7"
         d="m 77.666429,87.331189 h 12.3349"
         style="display:inline;fill:none;stroke:#ffffff;stroke-width:0.276826;stroke-linecap:round;stroke-linejoin:round;stroke-miterlimit:4;stroke-dasharray:0.553653, 0.553653;stroke-dashoffset:0;stroke-opacity:1" />
      <path
         id="rect1"
         style="display:inline;opacity:0.35;fill:none;stroke:#000000;stroke-width:0.365001;stroke-linecap:square"
         d="M 80.097984,70.664635 H 103.47756 V 87.287104 H 80.097984 Z" />
    </g>
  </g>
</svg>
