<?xml version="1.0" encoding="UTF-8" standalone="no"?>
<!-- Created with Inkscape (http://www.inkscape.org/) -->

<svg
   width="7.6539803mm"
   height="6.670053mm"
   viewBox="0 0 7.6539802 6.6700532"
   version="1.1"
   id="svg1"
   sodipodi:docname="Geothermal.svg"
   inkscape:version="1.3 (0e150ed6c4, 2023-07-21)"
   inkscape:export-filename="wind.png"
   inkscape:export-xdpi="96"
   inkscape:export-ydpi="96"
   xml:space="preserve"
   xmlns:inkscape="http://www.inkscape.org/namespaces/inkscape"
   xmlns:sodipodi="http://sodipodi.sourceforge.net/DTD/sodipodi-0.dtd"
   xmlns="http://www.w3.org/2000/svg"
   xmlns:svg="http://www.w3.org/2000/svg"><sodipodi:namedview
     id="namedview1"
     pagecolor="#121212"
     bordercolor="#000000"
     borderopacity="0.25"
     inkscape:showpageshadow="2"
     inkscape:pageopacity="0.0"
     inkscape:pagecheckerboard="0"
     inkscape:deskcolor="#d1d1d1"
     inkscape:document-units="mm"
     inkscape:zoom="16.388211"
     inkscape:cx="12.905618"
     inkscape:cy="17.665137"
     inkscape:window-width="1920"
     inkscape:window-height="1009"
     inkscape:window-x="1912"
     inkscape:window-y="-8"
     inkscape:window-maximized="1"
     inkscape:current-layer="g10389" /><defs
     id="defs1" /><g
     inkscape:label="Layer 1"
     inkscape:groupmode="layer"
     id="layer1"
     transform="translate(-73.667356,-132.84361)"><g
       id="g10389"
       transform="translate(-331.67419,175.05473)"><path
         style="fill:#000000;stroke:#ffffff;stroke-width:0.190427;stroke-dasharray:none"
         d="m 411.72415,-35.731467 c -0.0481,-0.01386 -0.0955,-0.0759 -0.0955,-0.125089 v -0.0241 l -1.76144,-0.002 -1.76144,-0.002 -0.03,-0.02384 c -0.0165,-0.01311 -0.0379,-0.03929 -0.0475,-0.05819 -0.0173,-0.0339 -0.0175,-0.03822 -0.0175,-0.344573 v -0.310234 l -0.62961,-2.01e-4 c -0.62025,-1.99e-4 -0.72578,-0.0035 -0.83537,-0.02638 -0.18953,-0.03952 -0.27201,-0.168035 -0.21561,-0.335985 0.0388,-0.11568 0.0341,-0.10853 0.67878,-1.009734 0.28378,-0.396681 0.748,-1.046449 1.0316,-1.443928 0.28359,-0.39748 0.52657,-0.735152 0.53993,-0.750382 0.0392,-0.0447 0.0612,-0.04772 0.25513,-0.03511 0.21663,0.01408 0.56641,0.01408 0.78304,0 0.18792,-0.01222 0.21395,-0.0092 0.24918,0.0285 0.0111,0.01189 0.27085,0.372489 0.57723,0.801334 0.30638,0.428845 0.67448,0.942874 0.81802,1.142286 0.34872,0.484497 0.70386,0.985721 0.75964,1.072112 0.14007,0.21694 0.15445,0.350357 0.0489,0.454766 -0.0401,0.03969 -0.10691,0.06715 -0.20727,0.08519 -0.0707,0.01269 -0.1834,0.01364 -1.61649,0.01364 h -1.54054 l -0.0295,-0.02249 c -0.0524,-0.03992 -0.0715,-0.107867 -0.047,-0.16656 0.0155,-0.03704 0.0319,-0.05475 0.0676,-0.07299 0.0281,-0.01433 0.0709,-0.01477 1.45027,-0.0148 1.35181,-3.6e-5 1.66659,-0.0043 1.68515,-0.02283 0.014,-0.01399 -0.062,-0.125332 -0.56431,-0.82702 -0.58906,-0.822843 -0.92944,-1.298025 -0.93176,-1.300747 -9.5e-4,-0.0014 -0.0823,0.0048 -0.18024,0.01365 -0.26312,0.02388 -0.41156,0.0314 -0.72782,0.03685 -0.38813,0.0067 -0.86998,-0.01294 -1.1966,-0.04873 l -0.1089,-0.01193 -0.0159,0.02168 c -0.148,0.202366 -1.42378,1.994425 -1.45392,2.04227 -0.0247,0.03935 -0.0389,0.0693 -0.0349,0.07345 0.0161,0.0161 0.29861,0.02333 0.91369,0.02337 0.52769,3e-5 0.65409,0.002 0.67458,0.01057 0.0333,0.01392 0.0728,0.05981 0.083,0.09646 0.005,0.01818 0.009,0.143639 0.009,0.327693 l 4e-5,0.298243 h 1.66369 1.66368 l 0.004,-0.03504 c 0.008,-0.07064 0.0797,-0.126919 0.15144,-0.118831 0.0481,0.0054 0.0942,0.03825 0.11282,0.08039 0.0141,0.03186 0.0151,0.04989 0.013,0.232025 l -0.002,0.197481 -0.0225,0.02946 c -0.0362,0.04738 -0.10141,0.06888 -0.15884,0.05233 z m -1.97459,-3.564739 c 0.16518,-0.0079 0.38374,-0.0235 0.3889,-0.02784 0.002,-0.0013 -0.096,-0.141117 -0.217,-0.310575 l -0.21993,-0.308105 -0.0988,0.0056 c -0.11273,0.0065 -0.60248,0.0076 -0.75272,0.0017 l -0.10032,-0.0039 -0.21743,0.303421 c -0.11959,0.166882 -0.21653,0.304324 -0.21542,0.305426 0.006,0.0057 0.31718,0.02714 0.50094,0.0344 0.36008,0.01423 0.62882,0.01417 0.93176,-2.42e-4 z m -0.59562,-1.273527 c -0.0167,-0.0101 -0.0386,-0.03201 -0.0487,-0.04869 -0.0159,-0.0263 -0.0184,-0.04037 -0.0184,-0.105845 -1.4e-4,-0.241722 0.11704,-0.44149 0.33429,-0.569918 0.0327,-0.01932 0.11614,-0.0641 0.18548,-0.09951 0.15354,-0.07844 0.217,-0.124427 0.25951,-0.188089 0.0391,-0.05862 0.0535,-0.106369 0.0623,-0.207639 0.008,-0.09011 0.0196,-0.116328 0.0665,-0.147306 0.0571,-0.03781 0.12191,-0.03187 0.17455,0.016 0.0361,0.03279 0.0439,0.05813 0.0426,0.137489 -0.004,0.231785 -0.1079,0.418251 -0.30474,0.546757 -0.0317,0.02072 -0.12559,0.07333 -0.20857,0.116931 -0.0829,0.0436 -0.17163,0.09607 -0.19702,0.11662 -0.0843,0.06819 -0.12017,0.146421 -0.13295,0.289737 -0.008,0.08639 -0.0236,0.118586 -0.0723,0.145898 -0.0404,0.02269 -0.10272,0.02162 -0.14247,-0.0025 z"
         id="path1" /></g></g></svg>
