<?xml version="1.0" encoding="utf-8" ?>
<svg baseProfile="tiny" height="800px" version="1.2" width="1000px" xmlns="http://www.w3.org/2000/svg" xmlns:ev="http://www.w3.org/2001/xml-events" xmlns:xlink="http://www.w3.org/1999/xlink"><defs /><path d="M 50.0,432.79122897941147 L 119.65369519931377,514.2439548340924 " fill="none" stroke="red" stroke-width="2" /><path d="M 119.65369519931377,514.2439548340924 L 106.77140681070846,526.6583034032071 " fill="none" stroke="red" stroke-width="2" /><path d="M 119.65369519931377,514.2439548340924 L 124.64669941636626,537.1046895385352 " fill="none" stroke="red" stroke-width="2" /><path d="M 106.77140681070846,526.6583034032071 L 100.96126494460052,534.188102463651 " fill="none" stroke="red" stroke-width="2" /><path d="M 100.96126494460052,534.188102463651 L 124.64669941636626,537.1046895385352 " fill="none" stroke="red" stroke-width="2" /><path d="M 124.64669941636626,537.1046895385352 L 120.65454042915862,555.1536256526163 " fill="none" stroke="red" stroke-width="2" /><path d="M 120.65454042915862,555.1536256526163 L 86.90628952108037,592.6360828629734 " fill="none" stroke="red" stroke-width="2" /><path d="M 86.90628952108037,592.6360828629734 L 113.1889912838086,663.5077893389603 " fill="none" stroke="red" stroke-width="2" /><path d="M 120.65454042915862,555.1536256526163 L 143.9504481935449,662.9069483400076 " fill="none" stroke="red" stroke-width="2" /><path d="M 120.65454042915862,555.1536256526163 L 162.9605520644905,663.4059690546018 " fill="none" stroke="red" stroke-width="2" /><path d="M 120.65454042915862,555.1536256526163 L 165.19245723439172,587.4635247066589 " fill="none" stroke="red" stroke-width="2" /><path d="M 165.19245723439172,587.4635247066589 L 196.84309278230074,602.9891649909574 " fill="none" stroke="red" stroke-width="2" /><path d="M 196.84309278230074,602.9891649909574 L 190.76993988180374,662.8495082707848 " fill="none" stroke="red" stroke-width="2" /><path d="M 196.84309278230074,602.9891649909574 L 278.0147222150283,614.5341327140233 " fill="none" stroke="red" stroke-width="2" /><path d="M 278.0147222150283,614.5341327140233 L 262.08332923175544,652.5561043528351 " fill="none" stroke="red" stroke-width="2" /><path d="M 113.1889912838086,663.5077893389603 L 143.9504481935449,662.9069483400076 " fill="none" stroke="red" stroke-width="2" /><path d="M 143.9504481935449,662.9069483400076 L 162.9605520644905,663.4059690546018 " fill="none" stroke="red" stroke-width="2" /><path d="M 162.9605520644905,663.4059690546018 L 190.76993988180374,662.8495082707848 " fill="none" stroke="red" stroke-width="2" /><path d="M 190.76993988180374,662.8495082707848 L 262.08332923175544,652.5561043528351 " fill="none" stroke="red" stroke-width="2" /><path d="M 190.76993988180374,662.8495082707848 L 236.67314851737044,657.9089432392726 " fill="none" stroke="red" stroke-width="2" /><path d="M 236.67314851737044,657.9089432392726 L 262.08332923175544,652.5561043528351 " fill="none" stroke="red" stroke-width="2" /><path d="M 113.1889912838086,663.5077893389603 L 91.80463127005167,679.7821761918158 " fill="none" stroke="red" stroke-width="2" /><path d="M 91.80463127005167,679.7821761918158 L 100.35658319015752,708.1235287198266 " fill="none" stroke="red" stroke-width="2" /><path d="M 113.1889912838086,663.5077893389603 L 174.56258579993454,693.4465921874431 " fill="none" stroke="red" stroke-width="2" /><path d="M 143.9504481935449,662.9069483400076 L 174.56258579993454,693.4465921874431 " fill="none" stroke="red" stroke-width="2" /><path d="M 190.76993988180374,662.8495082707848 L 174.56258579993454,693.4465921874431 " fill="none" stroke="red" stroke-width="2" /><path d="M 236.67314851737044,657.9089432392726 L 235.91192491869117,699.9219653050745 " fill="none" stroke="red" stroke-width="2" /><path d="M 174.56258579993454,693.4465921874431 L 235.91192491869117,699.9219653050745 " fill="none" stroke="red" stroke-width="2" /><path d="M 100.35658319015752,708.1235287198266 L 235.91192491869117,699.9219653050745 " fill="none" stroke="red" stroke-width="2" /><path d="M 100.35658319015752,708.1235287198266 L 103.18445807577945,739.8231472648179 " fill="none" stroke="red" stroke-width="2" /><path d="M 235.91192491869117,699.9219653050745 L 264.71293175964314,711.3424666906371 " fill="none" stroke="red" stroke-width="2" /><path d="M 103.18445807577945,739.8231472648179 L 264.71293175964314,711.3424666906371 " fill="none" stroke="red" stroke-width="2" /><path d="M 120.65454042915862,555.1536256526163 L 168.31381786116538,556.1914991830945 " fill="none" stroke="red" stroke-width="2" /><path d="M 396.9661394378502,721.5535085389749 L 368.61827134924005,705.9588087564484 " fill="none" stroke="red" stroke-width="2" /><path d="M 396.9661394378502,721.5535085389749 L 444.1220954467126,750.0 " fill="none" stroke="red" stroke-width="2" /><path d="M 444.1220954467126,750.0 L 432.5108087381082,716.3682602754837 " fill="none" stroke="red" stroke-width="2" /><path d="M 432.5108087381082,716.3682602754837 L 502.9328008928077,721.8998381457219 " fill="none" stroke="red" stroke-width="2" /><path d="M 502.9328008928077,721.8998381457219 L 501.7830858024873,742.5582906837114 " fill="none" stroke="red" stroke-width="2" /><path d="M 502.9328008928077,721.8998381457219 L 507.4971395955524,710.7778102283551 " fill="none" stroke="red" stroke-width="2" /><path d="M 485.9434034366487,661.3345772946849 L 524.3678759675513,655.1996223699937 " fill="none" stroke="red" stroke-width="2" /><path d="M 485.9434034366487,661.3345772946849 L 540.8225612439408,672.0393840073519 " fill="none" stroke="red" stroke-width="2" /><path d="M 524.3678759675513,655.1996223699937 L 535.6162581244411,622.199328707772 " fill="none" stroke="red" stroke-width="2" /><path d="M 524.3678759675513,655.1996223699937 L 531.9454053467385,664.4107952261897 " fill="none" stroke="red" stroke-width="2" /><path d="M 531.9454053467385,664.4107952261897 L 536.3839832953397,668.2250892387065 " fill="none" stroke="red" stroke-width="2" /><path d="M 536.3839832953397,668.2250892387065 L 540.8225612439408,672.0393840073519 " fill="none" stroke="red" stroke-width="2" /><path d="M 540.8225612439408,672.0393840073519 L 547.2748858211457,680.6028351320067 " fill="none" stroke="red" stroke-width="2" /><path d="M 531.9454053467385,664.4107952261897 L 560.9770872290258,632.4752842009349 " fill="none" stroke="red" stroke-width="2" /><path d="M 535.6162581244411,622.199328707772 L 560.9770872290258,632.4752842009349 " fill="none" stroke="red" stroke-width="2" /><path d="M 535.6162581244411,622.199328707772 L 545.0397964422627,601.7626169461844 " fill="none" stroke="red" stroke-width="2" /><path d="M 560.9770872290258,632.4752842009349 L 649.8695626657529,617.8649058931954 " fill="none" stroke="red" stroke-width="2" /><path d="M 649.8695626657529,617.8649058931954 L 707.3497618289513,572.9632871229707 " fill="none" stroke="red" stroke-width="2" /><path d="M 734.4822767355537,572.7971769999261 L 790.7083188748092,557.196720053839 " fill="none" stroke="red" stroke-width="2" /><path d="M 790.7083188748092,557.196720053839 L 817.1690809202593,564.4245598929988 " fill="none" stroke="red" stroke-width="2" /><path d="M 817.1690809202593,564.4245598929988 L 900.2824124386686,541.2747730833714 " fill="none" stroke="red" stroke-width="2" /><path d="M 900.2824124386686,541.2747730833714 L 950.0,540.3323373552951 " fill="none" stroke="red" stroke-width="2" /><path d="M 900.2824124386686,541.2747730833714 L 910.568848026182,533.7333591306954 " fill="none" stroke="red" stroke-width="2" /><path d="M 910.568848026182,533.7333591306954 L 950.0,540.3323373552951 " fill="none" stroke="red" stroke-width="2" /><path d="M 950.0,540.3323373552951 L 877.5665717190204,514.597922852488 " fill="none" stroke="red" stroke-width="2" /><path d="M 888.1514842529211,512.5154205381493 L 877.5665717190204,514.597922852488 " fill="none" stroke="red" stroke-width="2" /><path d="M 888.1514842529211,512.5154205381493 L 917.2061655272728,484.9602195070109 " fill="none" stroke="red" stroke-width="2" /><path d="M 950.0,540.3323373552951 L 917.2061655272728,484.9602195070109 " fill="none" stroke="red" stroke-width="2" /><path d="M 910.568848026182,533.7333591306954 L 888.1514842529211,512.5154205381493 " fill="none" stroke="red" stroke-width="2" /><path d="M 882.7347416070868,428.3150607753625 L 875.0298338877294,392.9093676189995 " fill="none" stroke="red" stroke-width="2" /><path d="M 882.7347416070868,428.3150607753625 L 903.6861769094488,388.4549547485431 " fill="none" stroke="red" stroke-width="2" /><path d="M 855.9849942982253,391.1266257038234 L 840.1636934199313,390.8933017925925 " fill="none" stroke="red" stroke-width="2" /><path d="M 855.9849942982253,391.1266257038234 L 875.0298338877294,392.9093676189995 " fill="none" stroke="red" stroke-width="2" /><path d="M 875.0298338877294,392.9093676189995 L 903.6861769094488,388.4549547485431 " fill="none" stroke="red" stroke-width="2" /><path d="M 840.1636934199313,390.8933017925925 L 828.5254781723321,328.91783983286825 " fill="none" stroke="red" stroke-width="2" /><path d="M 875.0298338877294,392.9093676189995 L 905.1763205516727,319.3457380379014 " fill="none" stroke="red" stroke-width="2" /><path d="M 828.5254781723321,328.91783983286825 L 905.1763205516727,319.3457380379014 " fill="none" stroke="red" stroke-width="2" /><path d="M 699.6007145702087,183.39038255125377 L 779.1847624467991,184.62104696041206 " fill="none" stroke="red" stroke-width="2" /><path d="M 699.6007145702087,183.39038255125377 L 692.4570090906102,153.59845769353683 " fill="none" stroke="red" stroke-width="2" /><path d="M 779.1847624467991,184.62104696041206 L 729.9770967068464,102.4824103404618 " fill="none" stroke="red" stroke-width="2" /><path d="M 779.1847624467991,184.62104696041206 L 841.895578651224,159.7787432870797 " fill="none" stroke="red" stroke-width="2" /><path d="M 692.4570090906102,153.59845769353683 L 685.6956593454755,124.0827609990564 " fill="none" stroke="red" stroke-width="2" /><path d="M 692.4570090906102,153.59845769353683 L 841.895578651224,159.7787432870797 " fill="none" stroke="red" stroke-width="2" /><path d="M 841.895578651224,159.7787432870797 L 895.4477757384842,111.70350511683716 " fill="none" stroke="red" stroke-width="2" /><path d="M 615.3932921121296,142.53260106151413 L 685.6956593454755,124.0827609990564 " fill="none" stroke="red" stroke-width="2" /><path d="M 685.6956593454755,124.0827609990564 L 685.0131307436691,88.58080056716017 " fill="none" stroke="red" stroke-width="2" /><path d="M 685.0131307436691,88.58080056716017 L 729.9770967068464,102.4824103404618 " fill="none" stroke="red" stroke-width="2" /><path d="M 729.9770967068464,102.4824103404618 L 895.4477757384842,111.70350511683716 " fill="none" stroke="red" stroke-width="2" /><path d="M 483.35973580001877,577.2123294023538 L 172.25967523471866,556.3155042821198 " fill="none" stroke="blue" stroke-width="2" /><path d="M 370.38345368871694,704.2735492155509 L 280.459341421864,614.1067952640811 " fill="none" stroke="blue" stroke-width="2" /><path d="M 370.38345368871694,704.2735492155509 L 735.0642272211525,320.51701080978415 " fill="none" stroke="blue" stroke-width="2" /><path d="M 370.38345368871694,704.2735492155509 L 483.35973580001877,577.2123294023538 " fill="none" stroke="blue" stroke-width="2" /><path d="M 483.35973580001877,577.2123294023538 L 666.9461847792762,441.8643176210708 " fill="none" stroke="blue" stroke-width="2" /><path d="M 666.9461847792762,441.8643176210708 L 735.0642272211525,320.51701080978415 " fill="none" stroke="blue" stroke-width="2" /><path d="M 370.38345368871694,704.2735492155509 L 426.09282003863035,741.0144453479364 " fill="none" stroke="blue" stroke-width="2" /><path d="M 370.38345368871694,704.2735492155509 L 453.8306435303289,724.9415698055105 " fill="none" stroke="blue" stroke-width="2" /><path d="M 666.9461847792762,441.8643176210708 L 780.545441287449,554.6421159610675 " fill="none" stroke="blue" stroke-width="2" /><path d="M 735.0642272211525,320.51701080978415 L 826.0266553537452,328.7899656235283 " fill="none" stroke="blue" stroke-width="2" /><path d="M 483.35973580001877,577.2123294023538 L 547.7396294092089,598.7465709767235 " fill="none" stroke="blue" stroke-width="2" /><path d="M 686.8831801879097,154.15093821612652 L 541.5092805375784,224.37668927710445 " fill="none" stroke="blue" stroke-width="2" /><circle cx="396.9661" cy="721.5535" fill="black" r="3" stroke="black" /><circle cx="368.6183" cy="705.9588" fill="black" r="3" stroke="black" /><circle cx="444.1221" cy="750.0" fill="black" r="3" stroke="black" /><circle cx="432.5108" cy="716.3683" fill="black" r="3" stroke="black" /><circle cx="502.9328" cy="721.8998" fill="black" r="3" stroke="black" /><circle cx="501.7831" cy="742.5583" fill="black" r="3" stroke="black" /><circle cx="507.4971" cy="710.7778" fill="black" r="3" stroke="black" /><circle cx="734.4823" cy="572.7972" fill="black" r="3" stroke="black" /><circle cx="790.7083" cy="557.1967" fill="black" r="3" stroke="black" /><circle cx="817.1691" cy="564.4246" fill="black" r="3" stroke="black" /><circle cx="900.2824" cy="541.2748" fill="black" r="3" stroke="black" /><circle cx="910.5688" cy="533.7334" fill="black" r="3" stroke="black" /><circle cx="950.0" cy="540.3323" fill="black" r="3" stroke="black" /><circle cx="888.1515" cy="512.5154" fill="black" r="3" stroke="black" /><circle cx="877.5666" cy="514.5979" fill="black" r="3" stroke="black" /><circle cx="917.2062" cy="484.9602" fill="black" r="3" stroke="black" /><circle cx="882.7347" cy="428.3151" fill="black" r="3" stroke="black" /><circle cx="855.985" cy="391.1266" fill="black" r="3" stroke="black" /><circle cx="875.0298" cy="392.9094" fill="black" r="3" stroke="black" /><circle cx="903.6862" cy="388.455" fill="black" r="3" stroke="black" /><circle cx="840.1637" cy="390.8933" fill="black" r="3" stroke="black" /><circle cx="828.5255" cy="328.9178" fill="black" r="3" stroke="black" /><circle cx="905.1763" cy="319.3457" fill="black" r="3" stroke="black" /><circle cx="50.0" cy="432.7912" fill="black" r="3" stroke="black" /><circle cx="119.6537" cy="514.244" fill="black" r="3" stroke="black" /><circle cx="106.7714" cy="526.6583" fill="black" r="3" stroke="black" /><circle cx="100.9613" cy="534.1881" fill="black" r="3" stroke="black" /><circle cx="124.6467" cy="537.1047" fill="black" r="3" stroke="black" /><circle cx="120.6545" cy="555.1536" fill="black" r="3" stroke="black" /><circle cx="86.9063" cy="592.6361" fill="black" r="3" stroke="black" /><circle cx="165.1925" cy="587.4635" fill="black" r="3" stroke="black" /><circle cx="196.8431" cy="602.9892" fill="black" r="3" stroke="black" /><circle cx="278.0147" cy="614.5341" fill="black" r="3" stroke="black" /><circle cx="113.189" cy="663.5078" fill="black" r="3" stroke="black" /><circle cx="143.9504" cy="662.9069" fill="black" r="3" stroke="black" /><circle cx="162.9606" cy="663.406" fill="black" r="3" stroke="black" /><circle cx="190.7699" cy="662.8495" fill="black" r="3" stroke="black" /><circle cx="236.6731" cy="657.9089" fill="black" r="3" stroke="black" /><circle cx="262.0833" cy="652.5561" fill="black" r="3" stroke="black" /><circle cx="91.8046" cy="679.7822" fill="black" r="3" stroke="black" /><circle cx="174.5626" cy="693.4466" fill="black" r="3" stroke="black" /><circle cx="100.3566" cy="708.1235" fill="black" r="3" stroke="black" /><circle cx="235.9119" cy="699.922" fill="black" r="3" stroke="black" /><circle cx="103.1845" cy="739.8231" fill="black" r="3" stroke="black" /><circle cx="264.7129" cy="711.3425" fill="black" r="3" stroke="black" /><circle cx="168.3138" cy="556.1915" fill="black" r="3" stroke="black" /><circle cx="485.9434" cy="661.3346" fill="black" r="3" stroke="black" /><circle cx="524.3679" cy="655.1996" fill="black" r="3" stroke="black" /><circle cx="531.9454" cy="664.4108" fill="black" r="3" stroke="black" /><circle cx="536.384" cy="668.2251" fill="black" r="3" stroke="black" /><circle cx="540.8226" cy="672.0394" fill="black" r="3" stroke="black" /><circle cx="547.2749" cy="680.6028" fill="black" r="3" stroke="black" /><circle cx="535.6163" cy="622.1993" fill="black" r="3" stroke="black" /><circle cx="560.9771" cy="632.4753" fill="black" r="3" stroke="black" /><circle cx="545.0398" cy="601.7626" fill="black" r="3" stroke="black" /><circle cx="649.8696" cy="617.8649" fill="black" r="3" stroke="black" /><circle cx="707.3498" cy="572.9633" fill="black" r="3" stroke="black" /><circle cx="699.6007" cy="183.3904" fill="black" r="3" stroke="black" /><circle cx="779.1848" cy="184.621" fill="black" r="3" stroke="black" /><circle cx="692.457" cy="153.5985" fill="black" r="3" stroke="black" /><circle cx="841.8956" cy="159.7787" fill="black" r="3" stroke="black" /><circle cx="615.3933" cy="142.5326" fill="black" r="3" stroke="black" /><circle cx="685.6957" cy="124.0828" fill="black" r="3" stroke="black" /><circle cx="729.9771" cy="102.4824" fill="black" r="3" stroke="black" /><circle cx="895.4478" cy="111.7035" fill="black" r="3" stroke="black" /><circle cx="685.0131" cy="88.5808" fill="black" r="3" stroke="black" /><circle cx="731.9491" cy="315.5875" fill="black" r="3" stroke="black" /><circle cx="481.283" cy="572.8477" fill="black" r="3" stroke="black" /><circle cx="664.9732" cy="438.5787" fill="black" r="3" stroke="black" /><circle cx="534.0329" cy="240.3838" fill="black" r="3" stroke="black" /><circle cx="370.3835" cy="704.2735" fill="purple" r="3" stroke="purple" /><circle cx="426.0928" cy="741.0144" fill="purple" r="3" stroke="purple" /><circle cx="453.8306" cy="724.9416" fill="purple" r="3" stroke="purple" /><circle cx="483.3597" cy="577.2123" fill="purple" r="3" stroke="purple" /><circle cx="547.7396" cy="598.7466" fill="purple" r="3" stroke="purple" /><circle cx="666.9462" cy="441.8643" fill="purple" r="3" stroke="purple" /><circle cx="780.5454" cy="554.6421" fill="purple" r="3" stroke="purple" /><circle cx="735.0642" cy="320.517" fill="purple" r="3" stroke="purple" /><circle cx="826.0267" cy="328.79" fill="purple" r="3" stroke="purple" /><circle cx="172.2597" cy="556.3155" fill="purple" r="3" stroke="purple" /><circle cx="280.4593" cy="614.1068" fill="purple" r="3" stroke="purple" /><circle cx="686.8832" cy="154.1509" fill="purple" r="3" stroke="purple" /><circle cx="541.5093" cy="224.3767" fill="purple" r="3" stroke="purple" /></svg>