<?xml version="1.0" encoding="UTF-8" standalone="no"?>
<!-- Created with Inkscape (http://www.inkscape.org/) -->

<svg
   width="7.6539803mm"
   height="6.670053mm"
   viewBox="0 0 7.6539802 6.6700532"
   version="1.1"
   id="svg1"
   sodipodi:docname="hydro.svg"
   inkscape:version="1.3 (0e150ed6c4, 2023-07-21)"
   inkscape:export-filename="Lignite.png"
   inkscape:export-xdpi="96"
   inkscape:export-ydpi="96"
   xml:space="preserve"
   xmlns:inkscape="http://www.inkscape.org/namespaces/inkscape"
   xmlns:sodipodi="http://sodipodi.sourceforge.net/DTD/sodipodi-0.dtd"
   xmlns="http://www.w3.org/2000/svg"
   xmlns:svg="http://www.w3.org/2000/svg"><sodipodi:namedview
     id="namedview1"
     pagecolor="#000000"
     bordercolor="#000000"
     borderopacity="0.25"
     inkscape:showpageshadow="2"
     inkscape:pageopacity="0.0"
     inkscape:pagecheckerboard="0"
     inkscape:deskcolor="#d1d1d1"
     inkscape:document-units="mm"
     inkscape:zoom="11.588215"
     inkscape:cx="5.0050849"
     inkscape:cy="-0.90609296"
     inkscape:window-width="1920"
     inkscape:window-height="1009"
     inkscape:window-x="-8"
     inkscape:window-y="-8"
     inkscape:window-maximized="1"
     inkscape:current-layer="layer1" /><defs
     id="defs1" /><g
     inkscape:label="Layer 1"
     inkscape:groupmode="layer"
     id="layer1"
     transform="translate(-73.667356,-132.84361)"><g
       id="g10389"
       transform="translate(-331.67419,175.05473)"
       style="stroke:#ffffff;stroke-width:0.1;stroke-dasharray:none;fill:#000000"><path
         style="fill:#000000;stroke:#ffffff;stroke-width:0.1;stroke-dasharray:none"
         d="m 406.92498,-36.430519 c 0,-0.09633 0.006,-0.105507 0.065,-0.105507 0.0299,0 0.10092,-0.04482 0.2004,-0.126537 0.11056,-0.09082 0.15634,-0.107575 0.29552,-0.108165 0.10517,-4.45e-4 0.12913,0.0035 0.18697,0.03064 0.0365,0.01713 0.10162,0.06109 0.14475,0.09767 0.0865,0.07343 0.13089,0.09916 0.1904,0.110479 0.0573,0.01089 0.15171,-0.01284 0.1998,-0.0502 0.23975,-0.186227 0.24138,-0.186994 0.39987,-0.188194 0.10565,-8e-4 0.12886,0.003 0.18696,0.03024 0.0365,0.01713 0.10163,0.06109 0.14475,0.09767 0.0865,0.07343 0.1309,0.09916 0.1904,0.110479 0.0573,0.01089 0.15172,-0.01284 0.19981,-0.0502 0.23974,-0.186227 0.24137,-0.186994 0.39987,-0.188194 0.10565,-8e-4 0.12885,0.003 0.18696,0.03024 0.0365,0.01713 0.10162,0.06109 0.14475,0.09767 0.0865,0.07343 0.13089,0.09916 0.1904,0.110479 0.0573,0.01089 0.15171,-0.01284 0.1998,-0.0502 0.23975,-0.186227 0.24138,-0.186994 0.39987,-0.188194 0.10588,-8.01e-4 0.12873,0.0029 0.18697,0.03039 0.0365,0.01722 0.1051,0.06381 0.15248,0.103541 0.084,0.07041 0.12034,0.09082 0.18827,0.105646 0.0327,0.0071 0.0332,0.0087 0.0332,0.09916 v 0.09192 l -0.0612,-0.0073 c -0.0858,-0.01016 -0.17291,-0.05331 -0.26444,-0.130964 -0.10529,-0.08933 -0.14616,-0.1088 -0.22841,-0.1088 -0.088,0 -0.13386,0.0207 -0.22995,0.103786 -0.0431,0.03729 -0.10826,0.08266 -0.14475,0.10082 -0.059,0.02936 -0.0797,0.03302 -0.18696,0.03302 -0.1454,0 -0.20897,-0.02469 -0.33171,-0.128825 -0.10571,-0.08968 -0.14605,-0.1088 -0.22957,-0.1088 -0.0856,0 -0.13042,0.02058 -0.22992,0.105568 -0.0425,0.03631 -0.10713,0.08088 -0.14362,0.09904 -0.059,0.02936 -0.0797,0.03302 -0.18697,0.03302 -0.14539,0 -0.20896,-0.02469 -0.33171,-0.128825 -0.1057,-0.08968 -0.14604,-0.1088 -0.22956,-0.1088 -0.0856,0 -0.13043,0.02058 -0.22992,0.105568 -0.0425,0.03631 -0.10714,0.08088 -0.14363,0.09904 -0.059,0.02936 -0.0797,0.03302 -0.18696,0.03302 -0.1454,0 -0.20897,-0.02469 -0.33171,-0.128825 -0.10571,-0.08968 -0.14605,-0.1088 -0.22957,-0.1088 -0.086,0 -0.13226,0.02134 -0.23014,0.106101 -0.0945,0.08189 -0.18076,0.124867 -0.26865,0.133938 l -0.0677,0.007 z m -0.39805,-0.619371 c -0.0672,-0.01795 -0.1266,-0.05449 -0.26144,-0.160789 -0.0489,-0.03859 -0.0913,-0.06156 -0.12364,-0.06702 l -0.0492,-0.0083 v -0.09322 -0.09322 l 0.0696,0.0082 c 0.0825,0.0097 0.14422,0.03917 0.23094,0.110132 0.084,0.06875 0.15886,0.118473 0.17833,0.118473 0.0128,0 0.0152,-0.362654 0.0126,-1.99328 l -0.003,-1.99328 -0.15379,-0.0034 -0.1538,-0.0034 v 1.719225 1.719225 h -0.0965 -0.0965 v -1.809331 -1.809331 h 0.34377 0.34377 v 2.0747 c 0,1.15082 0.005,2.0747 0.0104,2.0747 0.006,0 0.0505,-0.03272 0.0995,-0.07271 0.049,-0.03999 0.11158,-0.0836 0.13901,-0.09691 0.0613,-0.02971 0.17,-0.04847 0.22716,-0.0392 0.0239,0.0039 0.0426,0.0018 0.0426,-0.0046 0,-0.0064 0.0597,-0.358529 0.13267,-0.782606 0.073,-0.424078 0.13268,-0.772407 0.13268,-0.774066 10e-6,-0.0017 -0.10854,-0.003 -0.24123,-0.003 h -0.24124 v -0.0965 -0.0965 h 0.25777 0.25776 l 0.0148,-0.07509 c 0.0384,-0.195008 0.17271,-0.318933 0.35974,-0.331832 0.10289,-0.0071 0.20104,0.02738 0.27684,0.09726 0.0717,0.06612 0.1073,0.13102 0.1251,0.228248 l 0.0149,0.08142 h 0.0824 0.0823 v -0.355836 -0.355835 h -0.54883 -0.54883 v 0.265369 0.265368 h -0.0965 -0.0965 v -0.361866 -0.361866 h 0.7358 0.73579 v 0.452333 0.452333 h 0.0905 0.0905 v 0.0965 0.0965 h -0.24808 c -0.23063,0 -0.24765,0.0015 -0.24182,0.02111 0.003,0.01161 0.0719,0.403782 0.15207,0.871494 0.13207,0.770403 0.14829,0.852348 0.17245,0.871245 0.0435,0.03403 0.10318,0.04852 0.17763,0.04313 0.0755,-0.0055 0.0924,-0.01484 0.24697,-0.136375 0.0464,-0.03648 0.11151,-0.07537 0.14475,-0.08644 0.0676,-0.0225 0.22173,-0.02558 0.27408,-0.0055 0.0308,0.01184 0.0331,0.01034 0.0397,-0.02616 0.004,-0.0213 0.0654,-0.379336 0.1368,-0.795633 l 0.12982,-0.756904 h -0.24491 -0.24491 v -0.0965 -0.0965 h 0.0905 0.0905 v -0.452333 -0.452333 h 0.73579 0.7358 v 0.361866 0.361866 h -0.0905 -0.0905 v -0.265368 -0.265369 h -0.54883 -0.54883 v 0.355835 0.355836 h 0.0757 0.0756 l 0.015,-0.07936 c 0.0197,-0.104102 0.0478,-0.156608 0.11959,-0.223744 0.17524,-0.163922 0.44488,-0.133419 0.57874,0.06547 0.0238,0.03542 0.046,0.09136 0.0585,0.147361 l 0.0201,0.09027 h 0.25209 0.2521 v 0.0965 0.0965 h -0.23521 c -0.18048,0 -0.23507,0.0035 -0.23457,0.01508 3.5e-4,0.0083 0.0696,0.414035 0.15379,0.90165 l 0.15315,0.886572 0.0603,0.0039 c 0.0891,0.0058 0.13425,-0.01302 0.24124,-0.100527 0.0531,-0.0434 0.11957,-0.09011 0.14777,-0.103799 l 0.0513,-0.02488 v -1.977126 -1.977126 h 0.34377 0.34378 v 1.899798 1.899798 l -0.0271,1.04e-4 c -0.0149,5.8e-5 -0.0556,0.0035 -0.0904,0.0077 l -0.0633,0.0076 -0.003,-1.814023 -0.003,-1.814022 -0.15379,-0.0034 -0.15379,-0.0034 v 1.882065 c 0,1.862032 2.5e-4,1.882065 0.0237,1.882065 0.0547,0 0.15687,0.05239 0.24773,0.126987 0.10047,0.0825 0.15787,0.114257 0.20653,0.114257 0.0278,0 0.0287,0.0029 0.0287,0.0965 0,0.110751 0.003,0.108576 -0.11438,0.07795 -0.084,-0.02187 -0.11777,-0.04156 -0.23399,-0.136281 -0.16424,-0.133862 -0.2625,-0.132513 -0.43205,0.0059 -0.11178,0.09128 -0.16907,0.121112 -0.26784,0.13948 -0.0548,0.01019 -0.0923,0.01019 -0.14705,0 -0.0988,-0.01837 -0.15607,-0.0482 -0.26785,-0.13948 -0.16954,-0.138443 -0.26781,-0.139792 -0.43205,-0.0059 -0.11621,0.09472 -0.15002,0.11441 -0.23398,0.136281 -0.1739,0.04529 -0.28001,0.01081 -0.49701,-0.161523 -0.12456,-0.09892 -0.23837,-0.097 -0.36523,0.0062 -0.11769,0.09571 -0.18542,0.136345 -0.25886,0.155325 -0.17498,0.04523 -0.28052,0.01098 -0.49769,-0.161486 -0.12467,-0.09901 -0.23855,-0.09703 -0.36523,0.0064 -0.13376,0.109152 -0.20061,0.146605 -0.29028,0.16263 -0.14772,0.0264 -0.27293,-0.0105 -0.3979,-0.11727 -0.10005,-0.08548 -0.14562,-0.111903 -0.20767,-0.120408 -0.0865,-0.01186 -0.15167,0.01255 -0.25193,0.09438 -0.11386,0.09292 -0.16998,0.124726 -0.24902,0.141122 -0.0831,0.01724 -0.13805,0.01572 -0.21954,-0.0061 z m 1.38246,-0.2132 c 0.0258,-0.01809 0.0849,-0.06273 0.13123,-0.09921 0.0464,-0.03648 0.11043,-0.07499 0.14236,-0.0856 0.0646,-0.02146 0.20909,-0.02453 0.27214,-0.0058 l 0.0404,0.01203 -0.007,-0.03872 c -0.004,-0.0213 -0.0773,-0.445108 -0.16281,-0.941805 -0.12081,-0.701387 -0.16072,-0.910007 -0.17869,-0.934076 -0.0915,-0.122539 -0.25898,-0.119028 -0.33277,0.007 -0.0148,0.02525 -0.073,0.335349 -0.18395,0.980158 -0.0893,0.518772 -0.16204,0.952108 -0.1617,0.962967 6.7e-4,0.02131 0.14644,0.142742 0.20118,0.167602 0.0192,0.0087 0.0673,0.01372 0.11315,0.01176 0.0639,-0.0027 0.0891,-0.0099 0.12666,-0.0363 z m 2.20342,0.02297 c 0.0213,-0.0091 0.0795,-0.04996 0.12928,-0.0908 0.0498,-0.04084 0.11349,-0.08543 0.14163,-0.09907 0.10765,-0.05221 0.27871,-0.04918 0.39038,0.0069 0.0325,0.01631 0.059,0.02413 0.059,0.01738 0,-0.0068 -0.0736,-0.43921 -0.16345,-0.961016 -0.12436,-0.721891 -0.16921,-0.958074 -0.18757,-0.987781 -0.0508,-0.08215 -0.16547,-0.115206 -0.24931,-0.07185 -0.0429,0.02221 -0.0968,0.08334 -0.10563,0.119974 -0.003,0.01442 -0.0815,0.463164 -0.17341,0.997218 l -0.16706,0.971008 0.0307,0.0329 c 0.0696,0.07468 0.2037,0.104252 0.29544,0.06515 z m -3.1637,-3.523714 v -0.09047 h 2.21341 2.21342 v 0.09047 0.09047 h -2.21342 -2.21341 z"
         id="path1" /></g></g></svg>
