<?xml version="1.0" encoding="utf-8" standalone="no"?>
<!DOCTYPE svg PUBLIC "-//W3C//DTD SVG 1.1//EN"
  "http://www.w3.org/Graphics/SVG/1.1/DTD/svg11.dtd">
<svg xmlns:xlink="http://www.w3.org/1999/xlink" width="225.96306pt" height="134.166586pt" viewBox="0 0 225.96306 134.166586" xmlns="http://www.w3.org/2000/svg" version="1.1">
 <metadata>
  <rdf:RDF xmlns:dc="http://purl.org/dc/elements/1.1/" xmlns:cc="http://creativecommons.org/ns#" xmlns:rdf="http://www.w3.org/1999/02/22-rdf-syntax-ns#">
   <cc:Work>
    <dc:type rdf:resource="http://purl.org/dc/dcmitype/StillImage"/>
    <dc:date>2025-03-14T18:03:32.862736</dc:date>
    <dc:format>image/svg+xml</dc:format>
    <dc:creator>
     <cc:Agent>
      <dc:title>Matplotlib v3.9.2, https://matplotlib.org/</dc:title>
     </cc:Agent>
    </dc:creator>
   </cc:Work>
  </rdf:RDF>
 </metadata>
 <defs>
  <style type="text/css">*{stroke-linejoin: round; stroke-linecap: butt}</style>
 </defs>
 <g id="figure_1">
  <g id="patch_1">
   <path d="M -0 134.166586 
L 225.96306 134.166586 
L 225.96306 0 
L -0 0 
z
" style="fill: #ffffff"/>
  </g>
  <g id="axes_1">
   <g id="patch_2">
    <path d="M 26.002656 105.748617 
L 194.02556 105.748617 
L 194.02556 7.2 
L 26.002656 7.2 
z
" style="fill: #ffffff"/>
   </g>
   <g id="matplotlib.axis_1">
    <g id="xtick_1">
     <g id="line2d_1">
      <path d="M 40.754417 105.748617 
L 40.754417 7.2 
" clip-path="url(#p871599f4af)" style="fill: none; stroke: #cccccc; stroke-opacity: 0.3; stroke-width: 0.8; stroke-linecap: round"/>
     </g>
     <g id="line2d_2"/>
     <g id="text_1">
      <!-- 0.5 -->
      <g style="fill: #262626" transform="translate(35.889417 114.259086) scale(0.07 -0.07)">
       <defs>
        <path id="ArialMT-30" d="M 266 2259 
Q 266 3072 433 3567 
Q 600 4063 929 4331 
Q 1259 4600 1759 4600 
Q 2128 4600 2406 4451 
Q 2684 4303 2865 4023 
Q 3047 3744 3150 3342 
Q 3253 2941 3253 2259 
Q 3253 1453 3087 958 
Q 2922 463 2592 192 
Q 2263 -78 1759 -78 
Q 1097 -78 719 397 
Q 266 969 266 2259 
z
M 844 2259 
Q 844 1131 1108 757 
Q 1372 384 1759 384 
Q 2147 384 2411 759 
Q 2675 1134 2675 2259 
Q 2675 3391 2411 3762 
Q 2147 4134 1753 4134 
Q 1366 4134 1134 3806 
Q 844 3388 844 2259 
z
" transform="scale(0.015625)"/>
        <path id="ArialMT-2e" d="M 581 0 
L 581 641 
L 1222 641 
L 1222 0 
L 581 0 
z
" transform="scale(0.015625)"/>
        <path id="ArialMT-35" d="M 266 1200 
L 856 1250 
Q 922 819 1161 601 
Q 1400 384 1738 384 
Q 2144 384 2425 690 
Q 2706 997 2706 1503 
Q 2706 1984 2436 2262 
Q 2166 2541 1728 2541 
Q 1456 2541 1237 2417 
Q 1019 2294 894 2097 
L 366 2166 
L 809 4519 
L 3088 4519 
L 3088 3981 
L 1259 3981 
L 1013 2750 
Q 1425 3038 1878 3038 
Q 2478 3038 2890 2622 
Q 3303 2206 3303 1553 
Q 3303 931 2941 478 
Q 2500 -78 1738 -78 
Q 1113 -78 717 272 
Q 322 622 266 1200 
z
" transform="scale(0.015625)"/>
       </defs>
       <use xlink:href="#ArialMT-30"/>
       <use xlink:href="#ArialMT-2e" x="55.615234"/>
       <use xlink:href="#ArialMT-35" x="83.398438"/>
      </g>
     </g>
    </g>
    <g id="xtick_2">
     <g id="line2d_3">
      <path d="M 69.881164 105.748617 
L 69.881164 7.2 
" clip-path="url(#p871599f4af)" style="fill: none; stroke: #cccccc; stroke-opacity: 0.3; stroke-width: 0.8; stroke-linecap: round"/>
     </g>
     <g id="line2d_4"/>
     <g id="text_2">
      <!-- 0.6 -->
      <g style="fill: #262626" transform="translate(65.016164 114.259086) scale(0.07 -0.07)">
       <defs>
        <path id="ArialMT-36" d="M 3184 3459 
L 2625 3416 
Q 2550 3747 2413 3897 
Q 2184 4138 1850 4138 
Q 1581 4138 1378 3988 
Q 1113 3794 959 3422 
Q 806 3050 800 2363 
Q 1003 2672 1297 2822 
Q 1591 2972 1913 2972 
Q 2475 2972 2870 2558 
Q 3266 2144 3266 1488 
Q 3266 1056 3080 686 
Q 2894 316 2569 119 
Q 2244 -78 1831 -78 
Q 1128 -78 684 439 
Q 241 956 241 2144 
Q 241 3472 731 4075 
Q 1159 4600 1884 4600 
Q 2425 4600 2770 4297 
Q 3116 3994 3184 3459 
z
M 888 1484 
Q 888 1194 1011 928 
Q 1134 663 1356 523 
Q 1578 384 1822 384 
Q 2178 384 2434 671 
Q 2691 959 2691 1453 
Q 2691 1928 2437 2201 
Q 2184 2475 1800 2475 
Q 1419 2475 1153 2201 
Q 888 1928 888 1484 
z
" transform="scale(0.015625)"/>
       </defs>
       <use xlink:href="#ArialMT-30"/>
       <use xlink:href="#ArialMT-2e" x="55.615234"/>
       <use xlink:href="#ArialMT-36" x="83.398438"/>
      </g>
     </g>
    </g>
    <g id="xtick_3">
     <g id="line2d_5">
      <path d="M 99.007912 105.748617 
L 99.007912 7.2 
" clip-path="url(#p871599f4af)" style="fill: none; stroke: #cccccc; stroke-opacity: 0.3; stroke-width: 0.8; stroke-linecap: round"/>
     </g>
     <g id="line2d_6"/>
     <g id="text_3">
      <!-- 0.7 -->
      <g style="fill: #262626" transform="translate(94.142912 114.259086) scale(0.07 -0.07)">
       <defs>
        <path id="ArialMT-37" d="M 303 3981 
L 303 4522 
L 3269 4522 
L 3269 4084 
Q 2831 3619 2401 2847 
Q 1972 2075 1738 1259 
Q 1569 684 1522 0 
L 944 0 
Q 953 541 1156 1306 
Q 1359 2072 1739 2783 
Q 2119 3494 2547 3981 
L 303 3981 
z
" transform="scale(0.015625)"/>
       </defs>
       <use xlink:href="#ArialMT-30"/>
       <use xlink:href="#ArialMT-2e" x="55.615234"/>
       <use xlink:href="#ArialMT-37" x="83.398438"/>
      </g>
     </g>
    </g>
    <g id="xtick_4">
     <g id="line2d_7">
      <path d="M 128.13466 105.748617 
L 128.13466 7.2 
" clip-path="url(#p871599f4af)" style="fill: none; stroke: #cccccc; stroke-opacity: 0.3; stroke-width: 0.8; stroke-linecap: round"/>
     </g>
     <g id="line2d_8"/>
     <g id="text_4">
      <!-- 0.8 -->
      <g style="fill: #262626" transform="translate(123.26966 114.259086) scale(0.07 -0.07)">
       <defs>
        <path id="ArialMT-38" d="M 1131 2484 
Q 781 2613 612 2850 
Q 444 3088 444 3419 
Q 444 3919 803 4259 
Q 1163 4600 1759 4600 
Q 2359 4600 2725 4251 
Q 3091 3903 3091 3403 
Q 3091 3084 2923 2848 
Q 2756 2613 2416 2484 
Q 2838 2347 3058 2040 
Q 3278 1734 3278 1309 
Q 3278 722 2862 322 
Q 2447 -78 1769 -78 
Q 1091 -78 675 323 
Q 259 725 259 1325 
Q 259 1772 486 2073 
Q 713 2375 1131 2484 
z
M 1019 3438 
Q 1019 3113 1228 2906 
Q 1438 2700 1772 2700 
Q 2097 2700 2305 2904 
Q 2513 3109 2513 3406 
Q 2513 3716 2298 3927 
Q 2084 4138 1766 4138 
Q 1444 4138 1231 3931 
Q 1019 3725 1019 3438 
z
M 838 1322 
Q 838 1081 952 856 
Q 1066 631 1291 507 
Q 1516 384 1775 384 
Q 2178 384 2440 643 
Q 2703 903 2703 1303 
Q 2703 1709 2433 1975 
Q 2163 2241 1756 2241 
Q 1359 2241 1098 1978 
Q 838 1716 838 1322 
z
" transform="scale(0.015625)"/>
       </defs>
       <use xlink:href="#ArialMT-30"/>
       <use xlink:href="#ArialMT-2e" x="55.615234"/>
       <use xlink:href="#ArialMT-38" x="83.398438"/>
      </g>
     </g>
    </g>
    <g id="xtick_5">
     <g id="line2d_9">
      <path d="M 157.261407 105.748617 
L 157.261407 7.2 
" clip-path="url(#p871599f4af)" style="fill: none; stroke: #cccccc; stroke-opacity: 0.3; stroke-width: 0.8; stroke-linecap: round"/>
     </g>
     <g id="line2d_10"/>
     <g id="text_5">
      <!-- 0.9 -->
      <g style="fill: #262626" transform="translate(152.396407 114.259086) scale(0.07 -0.07)">
       <defs>
        <path id="ArialMT-39" d="M 350 1059 
L 891 1109 
Q 959 728 1153 556 
Q 1347 384 1650 384 
Q 1909 384 2104 503 
Q 2300 622 2425 820 
Q 2550 1019 2634 1356 
Q 2719 1694 2719 2044 
Q 2719 2081 2716 2156 
Q 2547 1888 2255 1720 
Q 1963 1553 1622 1553 
Q 1053 1553 659 1965 
Q 266 2378 266 3053 
Q 266 3750 677 4175 
Q 1088 4600 1706 4600 
Q 2153 4600 2523 4359 
Q 2894 4119 3086 3673 
Q 3278 3228 3278 2384 
Q 3278 1506 3087 986 
Q 2897 466 2520 194 
Q 2144 -78 1638 -78 
Q 1100 -78 759 220 
Q 419 519 350 1059 
z
M 2653 3081 
Q 2653 3566 2395 3850 
Q 2138 4134 1775 4134 
Q 1400 4134 1122 3828 
Q 844 3522 844 3034 
Q 844 2597 1108 2323 
Q 1372 2050 1759 2050 
Q 2150 2050 2401 2323 
Q 2653 2597 2653 3081 
z
" transform="scale(0.015625)"/>
       </defs>
       <use xlink:href="#ArialMT-30"/>
       <use xlink:href="#ArialMT-2e" x="55.615234"/>
       <use xlink:href="#ArialMT-39" x="83.398438"/>
      </g>
     </g>
    </g>
    <g id="xtick_6">
     <g id="line2d_11">
      <path d="M 186.388155 105.748617 
L 186.388155 7.2 
" clip-path="url(#p871599f4af)" style="fill: none; stroke: #cccccc; stroke-opacity: 0.3; stroke-width: 0.8; stroke-linecap: round"/>
     </g>
     <g id="line2d_12"/>
     <g id="text_6">
      <!-- 1.0 -->
      <g style="fill: #262626" transform="translate(181.523155 114.259086) scale(0.07 -0.07)">
       <defs>
        <path id="ArialMT-31" d="M 2384 0 
L 1822 0 
L 1822 3584 
Q 1619 3391 1289 3197 
Q 959 3003 697 2906 
L 697 3450 
Q 1169 3672 1522 3987 
Q 1875 4303 2022 4600 
L 2384 4600 
L 2384 0 
z
" transform="scale(0.015625)"/>
       </defs>
       <use xlink:href="#ArialMT-31"/>
       <use xlink:href="#ArialMT-2e" x="55.615234"/>
       <use xlink:href="#ArialMT-30" x="83.398438"/>
      </g>
     </g>
    </g>
    <g id="text_7">
     <!-- L_BE -->
     <g style="fill: #262626" transform="translate(100.229108 125.376586) scale(0.08 -0.08)">
      <defs>
       <path id="ArialMT-4c" d="M 469 0 
L 469 4581 
L 1075 4581 
L 1075 541 
L 3331 541 
L 3331 0 
L 469 0 
z
" transform="scale(0.015625)"/>
       <path id="ArialMT-5f" d="M -97 -1272 
L -97 -866 
L 3631 -866 
L 3631 -1272 
L -97 -1272 
z
" transform="scale(0.015625)"/>
       <path id="ArialMT-42" d="M 469 0 
L 469 4581 
L 2188 4581 
Q 2713 4581 3030 4442 
Q 3347 4303 3526 4014 
Q 3706 3725 3706 3409 
Q 3706 3116 3547 2856 
Q 3388 2597 3066 2438 
Q 3481 2316 3704 2022 
Q 3928 1728 3928 1328 
Q 3928 1006 3792 729 
Q 3656 453 3456 303 
Q 3256 153 2954 76 
Q 2653 0 2216 0 
L 469 0 
z
M 1075 2656 
L 2066 2656 
Q 2469 2656 2644 2709 
Q 2875 2778 2992 2937 
Q 3109 3097 3109 3338 
Q 3109 3566 3000 3739 
Q 2891 3913 2687 3977 
Q 2484 4041 1991 4041 
L 1075 4041 
L 1075 2656 
z
M 1075 541 
L 2216 541 
Q 2509 541 2628 563 
Q 2838 600 2978 687 
Q 3119 775 3209 942 
Q 3300 1109 3300 1328 
Q 3300 1584 3169 1773 
Q 3038 1963 2805 2039 
Q 2572 2116 2134 2116 
L 1075 2116 
L 1075 541 
z
" transform="scale(0.015625)"/>
       <path id="ArialMT-45" d="M 506 0 
L 506 4581 
L 3819 4581 
L 3819 4041 
L 1113 4041 
L 1113 2638 
L 3647 2638 
L 3647 2100 
L 1113 2100 
L 1113 541 
L 3925 541 
L 3925 0 
L 506 0 
z
" transform="scale(0.015625)"/>
      </defs>
      <use xlink:href="#ArialMT-4c"/>
      <use xlink:href="#ArialMT-5f" x="55.615234"/>
      <use xlink:href="#ArialMT-42" x="111.230469"/>
      <use xlink:href="#ArialMT-45" x="177.929688"/>
     </g>
    </g>
   </g>
   <g id="matplotlib.axis_2">
    <g id="ytick_1">
     <g id="line2d_13">
      <path d="M 26.002656 105.748617 
L 194.02556 105.748617 
" clip-path="url(#p871599f4af)" style="fill: none; stroke: #cccccc; stroke-opacity: 0.3; stroke-width: 0.8; stroke-linecap: round"/>
     </g>
     <g id="line2d_14"/>
     <g id="text_8">
      <!-- 0 -->
      <g style="fill: #0000ff" transform="translate(18.61 108.253852) scale(0.07 -0.07)">
       <use xlink:href="#ArialMT-30"/>
      </g>
     </g>
    </g>
    <g id="ytick_2">
     <g id="line2d_15">
      <path d="M 26.002656 83.689847 
L 194.02556 83.689847 
" clip-path="url(#p871599f4af)" style="fill: none; stroke: #cccccc; stroke-opacity: 0.3; stroke-width: 0.8; stroke-linecap: round"/>
     </g>
     <g id="line2d_16"/>
     <g id="text_9">
      <!-- 1 -->
      <g style="fill: #0000ff" transform="translate(18.61 86.195081) scale(0.07 -0.07)">
       <use xlink:href="#ArialMT-31"/>
      </g>
     </g>
    </g>
    <g id="ytick_3">
     <g id="line2d_17">
      <path d="M 26.002656 61.631077 
L 194.02556 61.631077 
" clip-path="url(#p871599f4af)" style="fill: none; stroke: #cccccc; stroke-opacity: 0.3; stroke-width: 0.8; stroke-linecap: round"/>
     </g>
     <g id="line2d_18"/>
     <g id="text_10">
      <!-- 2 -->
      <g style="fill: #0000ff" transform="translate(18.61 64.136311) scale(0.07 -0.07)">
       <defs>
        <path id="ArialMT-32" d="M 3222 541 
L 3222 0 
L 194 0 
Q 188 203 259 391 
Q 375 700 629 1000 
Q 884 1300 1366 1694 
Q 2113 2306 2375 2664 
Q 2638 3022 2638 3341 
Q 2638 3675 2398 3904 
Q 2159 4134 1775 4134 
Q 1369 4134 1125 3890 
Q 881 3647 878 3216 
L 300 3275 
Q 359 3922 746 4261 
Q 1134 4600 1788 4600 
Q 2447 4600 2831 4234 
Q 3216 3869 3216 3328 
Q 3216 3053 3103 2787 
Q 2991 2522 2730 2228 
Q 2469 1934 1863 1422 
Q 1356 997 1212 845 
Q 1069 694 975 541 
L 3222 541 
z
" transform="scale(0.015625)"/>
       </defs>
       <use xlink:href="#ArialMT-32"/>
      </g>
     </g>
    </g>
    <g id="ytick_4">
     <g id="line2d_19">
      <path d="M 26.002656 39.572306 
L 194.02556 39.572306 
" clip-path="url(#p871599f4af)" style="fill: none; stroke: #cccccc; stroke-opacity: 0.3; stroke-width: 0.8; stroke-linecap: round"/>
     </g>
     <g id="line2d_20"/>
     <g id="text_11">
      <!-- 3 -->
      <g style="fill: #0000ff" transform="translate(18.61 42.077541) scale(0.07 -0.07)">
       <defs>
        <path id="ArialMT-33" d="M 269 1209 
L 831 1284 
Q 928 806 1161 595 
Q 1394 384 1728 384 
Q 2125 384 2398 659 
Q 2672 934 2672 1341 
Q 2672 1728 2419 1979 
Q 2166 2231 1775 2231 
Q 1616 2231 1378 2169 
L 1441 2663 
Q 1497 2656 1531 2656 
Q 1891 2656 2178 2843 
Q 2466 3031 2466 3422 
Q 2466 3731 2256 3934 
Q 2047 4138 1716 4138 
Q 1388 4138 1169 3931 
Q 950 3725 888 3313 
L 325 3413 
Q 428 3978 793 4289 
Q 1159 4600 1703 4600 
Q 2078 4600 2393 4439 
Q 2709 4278 2876 4000 
Q 3044 3722 3044 3409 
Q 3044 3113 2884 2869 
Q 2725 2625 2413 2481 
Q 2819 2388 3044 2092 
Q 3269 1797 3269 1353 
Q 3269 753 2831 336 
Q 2394 -81 1725 -81 
Q 1122 -81 723 278 
Q 325 638 269 1209 
z
" transform="scale(0.015625)"/>
       </defs>
       <use xlink:href="#ArialMT-33"/>
      </g>
     </g>
    </g>
    <g id="ytick_5">
     <g id="line2d_21">
      <path d="M 26.002656 17.513536 
L 194.02556 17.513536 
" clip-path="url(#p871599f4af)" style="fill: none; stroke: #cccccc; stroke-opacity: 0.3; stroke-width: 0.8; stroke-linecap: round"/>
     </g>
     <g id="line2d_22"/>
     <g id="text_12">
      <!-- 4 -->
      <g style="fill: #0000ff" transform="translate(18.61 20.01877) scale(0.07 -0.07)">
       <defs>
        <path id="ArialMT-34" d="M 2069 0 
L 2069 1097 
L 81 1097 
L 81 1613 
L 2172 4581 
L 2631 4581 
L 2631 1613 
L 3250 1613 
L 3250 1097 
L 2631 1097 
L 2631 0 
L 2069 0 
z
M 2069 1613 
L 2069 3678 
L 634 1613 
L 2069 1613 
z
" transform="scale(0.015625)"/>
       </defs>
       <use xlink:href="#ArialMT-34"/>
      </g>
     </g>
    </g>
    <g id="text_13">
     <!-- Probability Density -->
     <g style="fill: #0000ff" transform="translate(12.92625 89.598059) rotate(-90) scale(0.08 -0.08)">
      <defs>
       <path id="ArialMT-50" d="M 494 0 
L 494 4581 
L 2222 4581 
Q 2678 4581 2919 4538 
Q 3256 4481 3484 4323 
Q 3713 4166 3852 3881 
Q 3991 3597 3991 3256 
Q 3991 2672 3619 2267 
Q 3247 1863 2275 1863 
L 1100 1863 
L 1100 0 
L 494 0 
z
M 1100 2403 
L 2284 2403 
Q 2872 2403 3119 2622 
Q 3366 2841 3366 3238 
Q 3366 3525 3220 3729 
Q 3075 3934 2838 4000 
Q 2684 4041 2272 4041 
L 1100 4041 
L 1100 2403 
z
" transform="scale(0.015625)"/>
       <path id="ArialMT-72" d="M 416 0 
L 416 3319 
L 922 3319 
L 922 2816 
Q 1116 3169 1280 3281 
Q 1444 3394 1641 3394 
Q 1925 3394 2219 3213 
L 2025 2691 
Q 1819 2813 1613 2813 
Q 1428 2813 1281 2702 
Q 1134 2591 1072 2394 
Q 978 2094 978 1738 
L 978 0 
L 416 0 
z
" transform="scale(0.015625)"/>
       <path id="ArialMT-6f" d="M 213 1659 
Q 213 2581 725 3025 
Q 1153 3394 1769 3394 
Q 2453 3394 2887 2945 
Q 3322 2497 3322 1706 
Q 3322 1066 3130 698 
Q 2938 331 2570 128 
Q 2203 -75 1769 -75 
Q 1072 -75 642 372 
Q 213 819 213 1659 
z
M 791 1659 
Q 791 1022 1069 705 
Q 1347 388 1769 388 
Q 2188 388 2466 706 
Q 2744 1025 2744 1678 
Q 2744 2294 2464 2611 
Q 2184 2928 1769 2928 
Q 1347 2928 1069 2612 
Q 791 2297 791 1659 
z
" transform="scale(0.015625)"/>
       <path id="ArialMT-62" d="M 941 0 
L 419 0 
L 419 4581 
L 981 4581 
L 981 2947 
Q 1338 3394 1891 3394 
Q 2197 3394 2470 3270 
Q 2744 3147 2920 2923 
Q 3097 2700 3197 2384 
Q 3297 2069 3297 1709 
Q 3297 856 2875 390 
Q 2453 -75 1863 -75 
Q 1275 -75 941 416 
L 941 0 
z
M 934 1684 
Q 934 1088 1097 822 
Q 1363 388 1816 388 
Q 2184 388 2453 708 
Q 2722 1028 2722 1663 
Q 2722 2313 2464 2622 
Q 2206 2931 1841 2931 
Q 1472 2931 1203 2611 
Q 934 2291 934 1684 
z
" transform="scale(0.015625)"/>
       <path id="ArialMT-61" d="M 2588 409 
Q 2275 144 1986 34 
Q 1697 -75 1366 -75 
Q 819 -75 525 192 
Q 231 459 231 875 
Q 231 1119 342 1320 
Q 453 1522 633 1644 
Q 813 1766 1038 1828 
Q 1203 1872 1538 1913 
Q 2219 1994 2541 2106 
Q 2544 2222 2544 2253 
Q 2544 2597 2384 2738 
Q 2169 2928 1744 2928 
Q 1347 2928 1158 2789 
Q 969 2650 878 2297 
L 328 2372 
Q 403 2725 575 2942 
Q 747 3159 1072 3276 
Q 1397 3394 1825 3394 
Q 2250 3394 2515 3294 
Q 2781 3194 2906 3042 
Q 3031 2891 3081 2659 
Q 3109 2516 3109 2141 
L 3109 1391 
Q 3109 606 3145 398 
Q 3181 191 3288 0 
L 2700 0 
Q 2613 175 2588 409 
z
M 2541 1666 
Q 2234 1541 1622 1453 
Q 1275 1403 1131 1340 
Q 988 1278 909 1158 
Q 831 1038 831 891 
Q 831 666 1001 516 
Q 1172 366 1500 366 
Q 1825 366 2078 508 
Q 2331 650 2450 897 
Q 2541 1088 2541 1459 
L 2541 1666 
z
" transform="scale(0.015625)"/>
       <path id="ArialMT-69" d="M 425 3934 
L 425 4581 
L 988 4581 
L 988 3934 
L 425 3934 
z
M 425 0 
L 425 3319 
L 988 3319 
L 988 0 
L 425 0 
z
" transform="scale(0.015625)"/>
       <path id="ArialMT-6c" d="M 409 0 
L 409 4581 
L 972 4581 
L 972 0 
L 409 0 
z
" transform="scale(0.015625)"/>
       <path id="ArialMT-74" d="M 1650 503 
L 1731 6 
Q 1494 -44 1306 -44 
Q 1000 -44 831 53 
Q 663 150 594 308 
Q 525 466 525 972 
L 525 2881 
L 113 2881 
L 113 3319 
L 525 3319 
L 525 4141 
L 1084 4478 
L 1084 3319 
L 1650 3319 
L 1650 2881 
L 1084 2881 
L 1084 941 
Q 1084 700 1114 631 
Q 1144 563 1211 522 
Q 1278 481 1403 481 
Q 1497 481 1650 503 
z
" transform="scale(0.015625)"/>
       <path id="ArialMT-79" d="M 397 -1278 
L 334 -750 
Q 519 -800 656 -800 
Q 844 -800 956 -737 
Q 1069 -675 1141 -563 
Q 1194 -478 1313 -144 
Q 1328 -97 1363 -6 
L 103 3319 
L 709 3319 
L 1400 1397 
Q 1534 1031 1641 628 
Q 1738 1016 1872 1384 
L 2581 3319 
L 3144 3319 
L 1881 -56 
Q 1678 -603 1566 -809 
Q 1416 -1088 1222 -1217 
Q 1028 -1347 759 -1347 
Q 597 -1347 397 -1278 
z
" transform="scale(0.015625)"/>
       <path id="ArialMT-20" transform="scale(0.015625)"/>
       <path id="ArialMT-44" d="M 494 0 
L 494 4581 
L 2072 4581 
Q 2606 4581 2888 4516 
Q 3281 4425 3559 4188 
Q 3922 3881 4101 3404 
Q 4281 2928 4281 2316 
Q 4281 1794 4159 1391 
Q 4038 988 3847 723 
Q 3656 459 3429 307 
Q 3203 156 2883 78 
Q 2563 0 2147 0 
L 494 0 
z
M 1100 541 
L 2078 541 
Q 2531 541 2789 625 
Q 3047 709 3200 863 
Q 3416 1078 3536 1442 
Q 3656 1806 3656 2325 
Q 3656 3044 3420 3430 
Q 3184 3816 2847 3947 
Q 2603 4041 2063 4041 
L 1100 4041 
L 1100 541 
z
" transform="scale(0.015625)"/>
       <path id="ArialMT-65" d="M 2694 1069 
L 3275 997 
Q 3138 488 2766 206 
Q 2394 -75 1816 -75 
Q 1088 -75 661 373 
Q 234 822 234 1631 
Q 234 2469 665 2931 
Q 1097 3394 1784 3394 
Q 2450 3394 2872 2941 
Q 3294 2488 3294 1666 
Q 3294 1616 3291 1516 
L 816 1516 
Q 847 969 1125 678 
Q 1403 388 1819 388 
Q 2128 388 2347 550 
Q 2566 713 2694 1069 
z
M 847 1978 
L 2700 1978 
Q 2663 2397 2488 2606 
Q 2219 2931 1791 2931 
Q 1403 2931 1139 2672 
Q 875 2413 847 1978 
z
" transform="scale(0.015625)"/>
       <path id="ArialMT-6e" d="M 422 0 
L 422 3319 
L 928 3319 
L 928 2847 
Q 1294 3394 1984 3394 
Q 2284 3394 2536 3286 
Q 2788 3178 2913 3003 
Q 3038 2828 3088 2588 
Q 3119 2431 3119 2041 
L 3119 0 
L 2556 0 
L 2556 2019 
Q 2556 2363 2490 2533 
Q 2425 2703 2258 2804 
Q 2091 2906 1866 2906 
Q 1506 2906 1245 2678 
Q 984 2450 984 1813 
L 984 0 
L 422 0 
z
" transform="scale(0.015625)"/>
       <path id="ArialMT-73" d="M 197 991 
L 753 1078 
Q 800 744 1014 566 
Q 1228 388 1613 388 
Q 2000 388 2187 545 
Q 2375 703 2375 916 
Q 2375 1106 2209 1216 
Q 2094 1291 1634 1406 
Q 1016 1563 777 1677 
Q 538 1791 414 1992 
Q 291 2194 291 2438 
Q 291 2659 392 2848 
Q 494 3038 669 3163 
Q 800 3259 1026 3326 
Q 1253 3394 1513 3394 
Q 1903 3394 2198 3281 
Q 2494 3169 2634 2976 
Q 2775 2784 2828 2463 
L 2278 2388 
Q 2241 2644 2061 2787 
Q 1881 2931 1553 2931 
Q 1166 2931 1000 2803 
Q 834 2675 834 2503 
Q 834 2394 903 2306 
Q 972 2216 1119 2156 
Q 1203 2125 1616 2013 
Q 2213 1853 2448 1751 
Q 2684 1650 2818 1456 
Q 2953 1263 2953 975 
Q 2953 694 2789 445 
Q 2625 197 2315 61 
Q 2006 -75 1616 -75 
Q 969 -75 630 194 
Q 291 463 197 991 
z
" transform="scale(0.015625)"/>
      </defs>
      <use xlink:href="#ArialMT-50"/>
      <use xlink:href="#ArialMT-72" x="66.699219"/>
      <use xlink:href="#ArialMT-6f" x="100"/>
      <use xlink:href="#ArialMT-62" x="155.615234"/>
      <use xlink:href="#ArialMT-61" x="211.230469"/>
      <use xlink:href="#ArialMT-62" x="266.845703"/>
      <use xlink:href="#ArialMT-69" x="322.460938"/>
      <use xlink:href="#ArialMT-6c" x="344.677734"/>
      <use xlink:href="#ArialMT-69" x="366.894531"/>
      <use xlink:href="#ArialMT-74" x="389.111328"/>
      <use xlink:href="#ArialMT-79" x="416.894531"/>
      <use xlink:href="#ArialMT-20" x="466.894531"/>
      <use xlink:href="#ArialMT-44" x="494.677734"/>
      <use xlink:href="#ArialMT-65" x="566.894531"/>
      <use xlink:href="#ArialMT-6e" x="622.509766"/>
      <use xlink:href="#ArialMT-73" x="678.125"/>
      <use xlink:href="#ArialMT-69" x="728.125"/>
      <use xlink:href="#ArialMT-74" x="750.341797"/>
      <use xlink:href="#ArialMT-79" x="778.125"/>
     </g>
    </g>
   </g>
   <g id="patch_3">
    <path d="M 33.640061 105.748617 
L 35.167542 105.748617 
L 35.167542 104.790905 
L 33.640061 104.790905 
z
" clip-path="url(#p871599f4af)" style="fill: #0000ff; opacity: 0.5"/>
   </g>
   <g id="patch_4">
    <path d="M 35.167542 105.748617 
L 36.695023 105.748617 
L 36.695023 105.269761 
L 35.167542 105.269761 
z
" clip-path="url(#p871599f4af)" style="fill: #0000ff; opacity: 0.5"/>
   </g>
   <g id="patch_5">
    <path d="M 36.695023 105.748617 
L 38.222504 105.748617 
L 38.222504 105.269761 
L 36.695023 105.269761 
z
" clip-path="url(#p871599f4af)" style="fill: #0000ff; opacity: 0.5"/>
   </g>
   <g id="patch_6">
    <path d="M 38.222504 105.748617 
L 39.749985 105.748617 
L 39.749985 104.790905 
L 38.222504 104.790905 
z
" clip-path="url(#p871599f4af)" style="fill: #0000ff; opacity: 0.5"/>
   </g>
   <g id="patch_7">
    <path d="M 39.749985 105.748617 
L 41.277466 105.748617 
L 41.277466 105.269761 
L 39.749985 105.269761 
z
" clip-path="url(#p871599f4af)" style="fill: #0000ff; opacity: 0.5"/>
   </g>
   <g id="patch_8">
    <path d="M 41.277466 105.748617 
L 42.804947 105.748617 
L 42.804947 102.87548 
L 41.277466 102.87548 
z
" clip-path="url(#p871599f4af)" style="fill: #0000ff; opacity: 0.5"/>
   </g>
   <g id="patch_9">
    <path d="M 42.804947 105.748617 
L 44.332428 105.748617 
L 44.332428 102.87548 
L 42.804947 102.87548 
z
" clip-path="url(#p871599f4af)" style="fill: #0000ff; opacity: 0.5"/>
   </g>
   <g id="patch_10">
    <path d="M 44.332428 105.748617 
L 45.859908 105.748617 
L 45.859908 99.04463 
L 44.332428 99.04463 
z
" clip-path="url(#p871599f4af)" style="fill: #0000ff; opacity: 0.5"/>
   </g>
   <g id="patch_11">
    <path d="M 45.859908 105.748617 
L 47.387389 105.748617 
L 47.387389 97.608061 
L 45.859908 97.608061 
z
" clip-path="url(#p871599f4af)" style="fill: #0000ff; opacity: 0.5"/>
   </g>
   <g id="patch_12">
    <path d="M 47.387389 105.748617 
L 48.91487 105.748617 
L 48.91487 95.692636 
L 47.387389 95.692636 
z
" clip-path="url(#p871599f4af)" style="fill: #0000ff; opacity: 0.5"/>
   </g>
   <g id="patch_13">
    <path d="M 48.91487 105.748617 
L 50.442351 105.748617 
L 50.442351 89.467504 
L 48.91487 89.467504 
z
" clip-path="url(#p871599f4af)" style="fill: #0000ff; opacity: 0.5"/>
   </g>
   <g id="patch_14">
    <path d="M 50.442351 105.748617 
L 51.969832 105.748617 
L 51.969832 85.157798 
L 50.442351 85.157798 
z
" clip-path="url(#p871599f4af)" style="fill: #0000ff; opacity: 0.5"/>
   </g>
   <g id="patch_15">
    <path d="M 51.969832 105.748617 
L 53.497313 105.748617 
L 53.497313 83.242373 
L 51.969832 83.242373 
z
" clip-path="url(#p871599f4af)" style="fill: #0000ff; opacity: 0.5"/>
   </g>
   <g id="patch_16">
    <path d="M 53.497313 105.748617 
L 55.024794 105.748617 
L 55.024794 78.932667 
L 53.497313 78.932667 
z
" clip-path="url(#p871599f4af)" style="fill: #0000ff; opacity: 0.5"/>
   </g>
   <g id="patch_17">
    <path d="M 55.024794 105.748617 
L 56.552275 105.748617 
L 56.552275 71.749823 
L 55.024794 71.749823 
z
" clip-path="url(#p871599f4af)" style="fill: #0000ff; opacity: 0.5"/>
   </g>
   <g id="patch_18">
    <path d="M 56.552275 105.748617 
L 58.079756 105.748617 
L 58.079756 71.749823 
L 56.552275 71.749823 
z
" clip-path="url(#p871599f4af)" style="fill: #0000ff; opacity: 0.5"/>
   </g>
   <g id="patch_19">
    <path d="M 58.079756 105.748617 
L 59.607237 105.748617 
L 59.607237 64.088123 
L 58.079756 64.088123 
z
" clip-path="url(#p871599f4af)" style="fill: #0000ff; opacity: 0.5"/>
   </g>
   <g id="patch_20">
    <path d="M 59.607237 105.748617 
L 61.134718 105.748617 
L 61.134718 60.736129 
L 59.607237 60.736129 
z
" clip-path="url(#p871599f4af)" style="fill: #0000ff; opacity: 0.5"/>
   </g>
   <g id="patch_21">
    <path d="M 61.134718 105.748617 
L 62.662199 105.748617 
L 62.662199 64.088123 
L 61.134718 64.088123 
z
" clip-path="url(#p871599f4af)" style="fill: #0000ff; opacity: 0.5"/>
   </g>
   <g id="patch_22">
    <path d="M 62.662199 105.748617 
L 64.18968 105.748617 
L 64.18968 58.341848 
L 62.662199 58.341848 
z
" clip-path="url(#p871599f4af)" style="fill: #0000ff; opacity: 0.5"/>
   </g>
   <g id="patch_23">
    <path d="M 64.18968 105.748617 
L 65.717161 105.748617 
L 65.717161 40.624167 
L 64.18968 40.624167 
z
" clip-path="url(#p871599f4af)" style="fill: #0000ff; opacity: 0.5"/>
   </g>
   <g id="patch_24">
    <path d="M 65.717161 105.748617 
L 67.244642 105.748617 
L 67.244642 46.849298 
L 65.717161 46.849298 
z
" clip-path="url(#p871599f4af)" style="fill: #0000ff; opacity: 0.5"/>
   </g>
   <g id="patch_25">
    <path d="M 67.244642 105.748617 
L 68.772123 105.748617 
L 68.772123 61.693842 
L 67.244642 61.693842 
z
" clip-path="url(#p871599f4af)" style="fill: #0000ff; opacity: 0.5"/>
   </g>
   <g id="patch_26">
    <path d="M 68.772123 105.748617 
L 70.299604 105.748617 
L 70.299604 56.426423 
L 68.772123 56.426423 
z
" clip-path="url(#p871599f4af)" style="fill: #0000ff; opacity: 0.5"/>
   </g>
   <g id="patch_27">
    <path d="M 70.299604 105.748617 
L 71.827084 105.748617 
L 71.827084 48.285867 
L 70.299604 48.285867 
z
" clip-path="url(#p871599f4af)" style="fill: #0000ff; opacity: 0.5"/>
   </g>
   <g id="patch_28">
    <path d="M 71.827084 105.748617 
L 73.354565 105.748617 
L 73.354565 50.680148 
L 71.827084 50.680148 
z
" clip-path="url(#p871599f4af)" style="fill: #0000ff; opacity: 0.5"/>
   </g>
   <g id="patch_29">
    <path d="M 73.354565 105.748617 
L 74.882046 105.748617 
L 74.882046 43.018448 
L 73.354565 43.018448 
z
" clip-path="url(#p871599f4af)" style="fill: #0000ff; opacity: 0.5"/>
   </g>
   <g id="patch_30">
    <path d="M 74.882046 105.748617 
L 76.409527 105.748617 
L 76.409527 44.455017 
L 74.882046 44.455017 
z
" clip-path="url(#p871599f4af)" style="fill: #0000ff; opacity: 0.5"/>
   </g>
   <g id="patch_31">
    <path d="M 76.409527 105.748617 
L 77.937008 105.748617 
L 77.937008 37.751029 
L 76.409527 37.751029 
z
" clip-path="url(#p871599f4af)" style="fill: #0000ff; opacity: 0.5"/>
   </g>
   <g id="patch_32">
    <path d="M 77.937008 105.748617 
L 79.464489 105.748617 
L 79.464489 44.455017 
L 77.937008 44.455017 
z
" clip-path="url(#p871599f4af)" style="fill: #0000ff; opacity: 0.5"/>
   </g>
   <g id="patch_33">
    <path d="M 79.464489 105.748617 
L 80.99197 105.748617 
L 80.99197 41.581879 
L 79.464489 41.581879 
z
" clip-path="url(#p871599f4af)" style="fill: #0000ff; opacity: 0.5"/>
   </g>
   <g id="patch_34">
    <path d="M 80.99197 105.748617 
L 82.519451 105.748617 
L 82.519451 39.187598 
L 80.99197 39.187598 
z
" clip-path="url(#p871599f4af)" style="fill: #0000ff; opacity: 0.5"/>
   </g>
   <g id="patch_35">
    <path d="M 82.519451 105.748617 
L 84.046932 105.748617 
L 84.046932 31.047041 
L 82.519451 31.047041 
z
" clip-path="url(#p871599f4af)" style="fill: #0000ff; opacity: 0.5"/>
   </g>
   <g id="patch_36">
    <path d="M 84.046932 105.748617 
L 85.574413 105.748617 
L 85.574413 34.877891 
L 84.046932 34.877891 
z
" clip-path="url(#p871599f4af)" style="fill: #0000ff; opacity: 0.5"/>
   </g>
   <g id="patch_37">
    <path d="M 85.574413 105.748617 
L 87.101894 105.748617 
L 87.101894 20.033348 
L 85.574413 20.033348 
z
" clip-path="url(#p871599f4af)" style="fill: #0000ff; opacity: 0.5"/>
   </g>
   <g id="patch_38">
    <path d="M 87.101894 105.748617 
L 88.629375 105.748617 
L 88.629375 34.877891 
L 87.101894 34.877891 
z
" clip-path="url(#p871599f4af)" style="fill: #0000ff; opacity: 0.5"/>
   </g>
   <g id="patch_39">
    <path d="M 88.629375 105.748617 
L 90.156856 105.748617 
L 90.156856 40.14531 
L 88.629375 40.14531 
z
" clip-path="url(#p871599f4af)" style="fill: #0000ff; opacity: 0.5"/>
   </g>
   <g id="patch_40">
    <path d="M 90.156856 105.748617 
L 91.684337 105.748617 
L 91.684337 32.48361 
L 90.156856 32.48361 
z
" clip-path="url(#p871599f4af)" style="fill: #0000ff; opacity: 0.5"/>
   </g>
   <g id="patch_41">
    <path d="M 91.684337 105.748617 
L 93.211818 105.748617 
L 93.211818 30.089329 
L 91.684337 30.089329 
z
" clip-path="url(#p871599f4af)" style="fill: #0000ff; opacity: 0.5"/>
   </g>
   <g id="patch_42">
    <path d="M 93.211818 105.748617 
L 94.739299 105.748617 
L 94.739299 32.962466 
L 93.211818 32.962466 
z
" clip-path="url(#p871599f4af)" style="fill: #0000ff; opacity: 0.5"/>
   </g>
   <g id="patch_43">
    <path d="M 94.739299 105.748617 
L 96.26678 105.748617 
L 96.26678 33.441323 
L 94.739299 33.441323 
z
" clip-path="url(#p871599f4af)" style="fill: #0000ff; opacity: 0.5"/>
   </g>
   <g id="patch_44">
    <path d="M 96.26678 105.748617 
L 97.79426 105.748617 
L 97.79426 40.14531 
L 96.26678 40.14531 
z
" clip-path="url(#p871599f4af)" style="fill: #0000ff; opacity: 0.5"/>
   </g>
   <g id="patch_45">
    <path d="M 97.79426 105.748617 
L 99.321741 105.748617 
L 99.321741 38.229885 
L 97.79426 38.229885 
z
" clip-path="url(#p871599f4af)" style="fill: #0000ff; opacity: 0.5"/>
   </g>
   <g id="patch_46">
    <path d="M 99.321741 105.748617 
L 100.849222 105.748617 
L 100.849222 37.272173 
L 99.321741 37.272173 
z
" clip-path="url(#p871599f4af)" style="fill: #0000ff; opacity: 0.5"/>
   </g>
   <g id="patch_47">
    <path d="M 100.849222 105.748617 
L 102.376703 105.748617 
L 102.376703 32.004754 
L 100.849222 32.004754 
z
" clip-path="url(#p871599f4af)" style="fill: #0000ff; opacity: 0.5"/>
   </g>
   <g id="patch_48">
    <path d="M 102.376703 105.748617 
L 103.904184 105.748617 
L 103.904184 38.708742 
L 102.376703 38.708742 
z
" clip-path="url(#p871599f4af)" style="fill: #0000ff; opacity: 0.5"/>
   </g>
   <g id="patch_49">
    <path d="M 103.904184 105.748617 
L 105.431665 105.748617 
L 105.431665 44.455017 
L 103.904184 44.455017 
z
" clip-path="url(#p871599f4af)" style="fill: #0000ff; opacity: 0.5"/>
   </g>
   <g id="patch_50">
    <path d="M 105.431665 105.748617 
L 106.959146 105.748617 
L 106.959146 43.97616 
L 105.431665 43.97616 
z
" clip-path="url(#p871599f4af)" style="fill: #0000ff; opacity: 0.5"/>
   </g>
   <g id="patch_51">
    <path d="M 106.959146 105.748617 
L 108.486627 105.748617 
L 108.486627 46.370442 
L 106.959146 46.370442 
z
" clip-path="url(#p871599f4af)" style="fill: #0000ff; opacity: 0.5"/>
   </g>
   <g id="patch_52">
    <path d="M 108.486627 105.748617 
L 110.014108 105.748617 
L 110.014108 39.187598 
L 108.486627 39.187598 
z
" clip-path="url(#p871599f4af)" style="fill: #0000ff; opacity: 0.5"/>
   </g>
   <g id="patch_53">
    <path d="M 110.014108 105.748617 
L 111.541589 105.748617 
L 111.541589 37.272173 
L 110.014108 37.272173 
z
" clip-path="url(#p871599f4af)" style="fill: #0000ff; opacity: 0.5"/>
   </g>
   <g id="patch_54">
    <path d="M 111.541589 105.748617 
L 113.06907 105.748617 
L 113.06907 35.835604 
L 111.541589 35.835604 
z
" clip-path="url(#p871599f4af)" style="fill: #0000ff; opacity: 0.5"/>
   </g>
   <g id="patch_55">
    <path d="M 113.06907 105.748617 
L 114.596551 105.748617 
L 114.596551 17.16021 
L 113.06907 17.16021 
z
" clip-path="url(#p871599f4af)" style="fill: #0000ff; opacity: 0.5"/>
   </g>
   <g id="patch_56">
    <path d="M 114.596551 105.748617 
L 116.124032 105.748617 
L 116.124032 29.610473 
L 114.596551 29.610473 
z
" clip-path="url(#p871599f4af)" style="fill: #0000ff; opacity: 0.5"/>
   </g>
   <g id="patch_57">
    <path d="M 116.124032 105.748617 
L 117.651513 105.748617 
L 117.651513 25.779623 
L 116.124032 25.779623 
z
" clip-path="url(#p871599f4af)" style="fill: #0000ff; opacity: 0.5"/>
   </g>
   <g id="patch_58">
    <path d="M 117.651513 105.748617 
L 119.178994 105.748617 
L 119.178994 35.835604 
L 117.651513 35.835604 
z
" clip-path="url(#p871599f4af)" style="fill: #0000ff; opacity: 0.5"/>
   </g>
   <g id="patch_59">
    <path d="M 119.178994 105.748617 
L 120.706475 105.748617 
L 120.706475 12.371648 
L 119.178994 12.371648 
z
" clip-path="url(#p871599f4af)" style="fill: #0000ff; opacity: 0.5"/>
   </g>
   <g id="patch_60">
    <path d="M 120.706475 105.748617 
L 122.233956 105.748617 
L 122.233956 11.892791 
L 120.706475 11.892791 
z
" clip-path="url(#p871599f4af)" style="fill: #0000ff; opacity: 0.5"/>
   </g>
   <g id="patch_61">
    <path d="M 122.233956 105.748617 
L 123.761436 105.748617 
L 123.761436 20.512204 
L 122.233956 20.512204 
z
" clip-path="url(#p871599f4af)" style="fill: #0000ff; opacity: 0.5"/>
   </g>
   <g id="patch_62">
    <path d="M 123.761436 105.748617 
L 125.288917 105.748617 
L 125.288917 24.343054 
L 123.761436 24.343054 
z
" clip-path="url(#p871599f4af)" style="fill: #0000ff; opacity: 0.5"/>
   </g>
   <g id="patch_63">
    <path d="M 125.288917 105.748617 
L 126.816398 105.748617 
L 126.816398 18.117923 
L 125.288917 18.117923 
z
" clip-path="url(#p871599f4af)" style="fill: #0000ff; opacity: 0.5"/>
   </g>
   <g id="patch_64">
    <path d="M 126.816398 105.748617 
L 128.343879 105.748617 
L 128.343879 29.131616 
L 126.816398 29.131616 
z
" clip-path="url(#p871599f4af)" style="fill: #0000ff; opacity: 0.5"/>
   </g>
   <g id="patch_65">
    <path d="M 128.343879 105.748617 
L 129.87136 105.748617 
L 129.87136 43.497304 
L 128.343879 43.497304 
z
" clip-path="url(#p871599f4af)" style="fill: #0000ff; opacity: 0.5"/>
   </g>
   <g id="patch_66">
    <path d="M 129.87136 105.748617 
L 131.398841 105.748617 
L 131.398841 46.370442 
L 129.87136 46.370442 
z
" clip-path="url(#p871599f4af)" style="fill: #0000ff; opacity: 0.5"/>
   </g>
   <g id="patch_67">
    <path d="M 131.398841 105.748617 
L 132.926322 105.748617 
L 132.926322 54.989854 
L 131.398841 54.989854 
z
" clip-path="url(#p871599f4af)" style="fill: #0000ff; opacity: 0.5"/>
   </g>
   <g id="patch_68">
    <path d="M 132.926322 105.748617 
L 134.453803 105.748617 
L 134.453803 56.426423 
L 132.926322 56.426423 
z
" clip-path="url(#p871599f4af)" style="fill: #0000ff; opacity: 0.5"/>
   </g>
   <g id="patch_69">
    <path d="M 134.453803 105.748617 
L 135.981284 105.748617 
L 135.981284 59.778417 
L 134.453803 59.778417 
z
" clip-path="url(#p871599f4af)" style="fill: #0000ff; opacity: 0.5"/>
   </g>
   <g id="patch_70">
    <path d="M 135.981284 105.748617 
L 137.508765 105.748617 
L 137.508765 58.341848 
L 135.981284 58.341848 
z
" clip-path="url(#p871599f4af)" style="fill: #0000ff; opacity: 0.5"/>
   </g>
   <g id="patch_71">
    <path d="M 137.508765 105.748617 
L 139.036246 105.748617 
L 139.036246 65.524692 
L 137.508765 65.524692 
z
" clip-path="url(#p871599f4af)" style="fill: #0000ff; opacity: 0.5"/>
   </g>
   <g id="patch_72">
    <path d="M 139.036246 105.748617 
L 140.563727 105.748617 
L 140.563727 60.736129 
L 139.036246 60.736129 
z
" clip-path="url(#p871599f4af)" style="fill: #0000ff; opacity: 0.5"/>
   </g>
   <g id="patch_73">
    <path d="M 140.563727 105.748617 
L 142.091208 105.748617 
L 142.091208 66.482404 
L 140.563727 66.482404 
z
" clip-path="url(#p871599f4af)" style="fill: #0000ff; opacity: 0.5"/>
   </g>
   <g id="patch_74">
    <path d="M 142.091208 105.748617 
L 143.618689 105.748617 
L 143.618689 70.313254 
L 142.091208 70.313254 
z
" clip-path="url(#p871599f4af)" style="fill: #0000ff; opacity: 0.5"/>
   </g>
   <g id="patch_75">
    <path d="M 143.618689 105.748617 
L 145.14617 105.748617 
L 145.14617 69.834398 
L 143.618689 69.834398 
z
" clip-path="url(#p871599f4af)" style="fill: #0000ff; opacity: 0.5"/>
   </g>
   <g id="patch_76">
    <path d="M 145.14617 105.748617 
L 146.673651 105.748617 
L 146.673651 79.411523 
L 145.14617 79.411523 
z
" clip-path="url(#p871599f4af)" style="fill: #0000ff; opacity: 0.5"/>
   </g>
   <g id="patch_77">
    <path d="M 146.673651 105.748617 
L 148.201132 105.748617 
L 148.201132 66.482404 
L 146.673651 66.482404 
z
" clip-path="url(#p871599f4af)" style="fill: #0000ff; opacity: 0.5"/>
   </g>
   <g id="patch_78">
    <path d="M 148.201132 105.748617 
L 149.728612 105.748617 
L 149.728612 80.369236 
L 148.201132 80.369236 
z
" clip-path="url(#p871599f4af)" style="fill: #0000ff; opacity: 0.5"/>
   </g>
   <g id="patch_79">
    <path d="M 149.728612 105.748617 
L 151.256093 105.748617 
L 151.256093 71.270967 
L 149.728612 71.270967 
z
" clip-path="url(#p871599f4af)" style="fill: #0000ff; opacity: 0.5"/>
   </g>
   <g id="patch_80">
    <path d="M 151.256093 105.748617 
L 152.783574 105.748617 
L 152.783574 72.707536 
L 151.256093 72.707536 
z
" clip-path="url(#p871599f4af)" style="fill: #0000ff; opacity: 0.5"/>
   </g>
   <g id="patch_81">
    <path d="M 152.783574 105.748617 
L 154.311055 105.748617 
L 154.311055 74.622961 
L 152.783574 74.622961 
z
" clip-path="url(#p871599f4af)" style="fill: #0000ff; opacity: 0.5"/>
   </g>
   <g id="patch_82">
    <path d="M 154.311055 105.748617 
L 155.838536 105.748617 
L 155.838536 78.932667 
L 154.311055 78.932667 
z
" clip-path="url(#p871599f4af)" style="fill: #0000ff; opacity: 0.5"/>
   </g>
   <g id="patch_83">
    <path d="M 155.838536 105.748617 
L 157.366017 105.748617 
L 157.366017 80.848092 
L 155.838536 80.848092 
z
" clip-path="url(#p871599f4af)" style="fill: #0000ff; opacity: 0.5"/>
   </g>
   <g id="patch_84">
    <path d="M 157.366017 105.748617 
L 158.893498 105.748617 
L 158.893498 81.326948 
L 157.366017 81.326948 
z
" clip-path="url(#p871599f4af)" style="fill: #0000ff; opacity: 0.5"/>
   </g>
   <g id="patch_85">
    <path d="M 158.893498 105.748617 
L 160.420979 105.748617 
L 160.420979 83.242373 
L 158.893498 83.242373 
z
" clip-path="url(#p871599f4af)" style="fill: #0000ff; opacity: 0.5"/>
   </g>
   <g id="patch_86">
    <path d="M 160.420979 105.748617 
L 161.94846 105.748617 
L 161.94846 92.340642 
L 160.420979 92.340642 
z
" clip-path="url(#p871599f4af)" style="fill: #0000ff; opacity: 0.5"/>
   </g>
   <g id="patch_87">
    <path d="M 161.94846 105.748617 
L 163.475941 105.748617 
L 163.475941 91.382929 
L 161.94846 91.382929 
z
" clip-path="url(#p871599f4af)" style="fill: #0000ff; opacity: 0.5"/>
   </g>
   <g id="patch_88">
    <path d="M 163.475941 105.748617 
L 165.003422 105.748617 
L 165.003422 96.650348 
L 163.475941 96.650348 
z
" clip-path="url(#p871599f4af)" style="fill: #0000ff; opacity: 0.5"/>
   </g>
   <g id="patch_89">
    <path d="M 165.003422 105.748617 
L 166.530903 105.748617 
L 166.530903 95.692636 
L 165.003422 95.692636 
z
" clip-path="url(#p871599f4af)" style="fill: #0000ff; opacity: 0.5"/>
   </g>
   <g id="patch_90">
    <path d="M 166.530903 105.748617 
L 168.058384 105.748617 
L 168.058384 93.777211 
L 166.530903 93.777211 
z
" clip-path="url(#p871599f4af)" style="fill: #0000ff; opacity: 0.5"/>
   </g>
   <g id="patch_91">
    <path d="M 168.058384 105.748617 
L 169.585865 105.748617 
L 169.585865 100.002342 
L 168.058384 100.002342 
z
" clip-path="url(#p871599f4af)" style="fill: #0000ff; opacity: 0.5"/>
   </g>
   <g id="patch_92">
    <path d="M 169.585865 105.748617 
L 171.113346 105.748617 
L 171.113346 101.917767 
L 169.585865 101.917767 
z
" clip-path="url(#p871599f4af)" style="fill: #0000ff; opacity: 0.5"/>
   </g>
   <g id="patch_93">
    <path d="M 171.113346 105.748617 
L 172.640827 105.748617 
L 172.640827 100.002342 
L 171.113346 100.002342 
z
" clip-path="url(#p871599f4af)" style="fill: #0000ff; opacity: 0.5"/>
   </g>
   <g id="patch_94">
    <path d="M 172.640827 105.748617 
L 174.168308 105.748617 
L 174.168308 100.481198 
L 172.640827 100.481198 
z
" clip-path="url(#p871599f4af)" style="fill: #0000ff; opacity: 0.5"/>
   </g>
   <g id="patch_95">
    <path d="M 174.168308 105.748617 
L 175.695788 105.748617 
L 175.695788 101.438911 
L 174.168308 101.438911 
z
" clip-path="url(#p871599f4af)" style="fill: #0000ff; opacity: 0.5"/>
   </g>
   <g id="patch_96">
    <path d="M 175.695788 105.748617 
L 177.223269 105.748617 
L 177.223269 100.960055 
L 175.695788 100.960055 
z
" clip-path="url(#p871599f4af)" style="fill: #0000ff; opacity: 0.5"/>
   </g>
   <g id="patch_97">
    <path d="M 177.223269 105.748617 
L 178.75075 105.748617 
L 178.75075 100.960055 
L 177.223269 100.960055 
z
" clip-path="url(#p871599f4af)" style="fill: #0000ff; opacity: 0.5"/>
   </g>
   <g id="patch_98">
    <path d="M 178.75075 105.748617 
L 180.278231 105.748617 
L 180.278231 101.917767 
L 178.75075 101.917767 
z
" clip-path="url(#p871599f4af)" style="fill: #0000ff; opacity: 0.5"/>
   </g>
   <g id="patch_99">
    <path d="M 180.278231 105.748617 
L 181.805712 105.748617 
L 181.805712 104.312048 
L 180.278231 104.312048 
z
" clip-path="url(#p871599f4af)" style="fill: #0000ff; opacity: 0.5"/>
   </g>
   <g id="patch_100">
    <path d="M 181.805712 105.748617 
L 183.333193 105.748617 
L 183.333193 105.269761 
L 181.805712 105.269761 
z
" clip-path="url(#p871599f4af)" style="fill: #0000ff; opacity: 0.5"/>
   </g>
   <g id="patch_101">
    <path d="M 183.333193 105.748617 
L 184.860674 105.748617 
L 184.860674 102.87548 
L 183.333193 102.87548 
z
" clip-path="url(#p871599f4af)" style="fill: #0000ff; opacity: 0.5"/>
   </g>
   <g id="patch_102">
    <path d="M 184.860674 105.748617 
L 186.388155 105.748617 
L 186.388155 102.87548 
L 184.860674 102.87548 
z
" clip-path="url(#p871599f4af)" style="fill: #0000ff; opacity: 0.5"/>
   </g>
   <g id="patch_103">
    <path d="M 26.002656 105.748617 
L 26.002656 7.2 
" style="fill: none; stroke: #cccccc; stroke-linejoin: miter; stroke-linecap: square"/>
   </g>
   <g id="patch_104">
    <path d="M 194.02556 105.748617 
L 194.02556 7.2 
" style="fill: none; stroke: #cccccc; stroke-linejoin: miter; stroke-linecap: square"/>
   </g>
   <g id="patch_105">
    <path d="M 26.002656 105.748617 
L 194.02556 105.748617 
" style="fill: none; stroke: #cccccc; stroke-linejoin: miter; stroke-linecap: square"/>
   </g>
   <g id="patch_106">
    <path d="M 26.002656 7.2 
L 194.02556 7.2 
" style="fill: none; stroke: #cccccc; stroke-linejoin: miter; stroke-linecap: square"/>
   </g>
  </g>
  <g id="axes_2">
   <g id="matplotlib.axis_3">
    <g id="ytick_6">
     <g id="line2d_23">
      <path d="M 26.002656 101.269135 
L 194.02556 101.269135 
" clip-path="url(#p871599f4af)" style="fill: none; stroke: #cccccc; stroke-opacity: 0.3; stroke-width: 0.8; stroke-linecap: round"/>
     </g>
     <g id="line2d_24"/>
     <g id="text_14">
      <!-- 0.0 -->
      <g style="fill: #ff0000" transform="translate(197.52556 103.774369) scale(0.07 -0.07)">
       <use xlink:href="#ArialMT-30"/>
       <use xlink:href="#ArialMT-2e" x="55.615234"/>
       <use xlink:href="#ArialMT-30" x="83.398438"/>
      </g>
     </g>
    </g>
    <g id="ytick_7">
     <g id="line2d_25">
      <path d="M 26.002656 83.351204 
L 194.02556 83.351204 
" clip-path="url(#p871599f4af)" style="fill: none; stroke: #cccccc; stroke-opacity: 0.3; stroke-width: 0.8; stroke-linecap: round"/>
     </g>
     <g id="line2d_26"/>
     <g id="text_15">
      <!-- 0.2 -->
      <g style="fill: #ff0000" transform="translate(197.52556 85.856439) scale(0.07 -0.07)">
       <use xlink:href="#ArialMT-30"/>
       <use xlink:href="#ArialMT-2e" x="55.615234"/>
       <use xlink:href="#ArialMT-32" x="83.398438"/>
      </g>
     </g>
    </g>
    <g id="ytick_8">
     <g id="line2d_27">
      <path d="M 26.002656 65.433274 
L 194.02556 65.433274 
" clip-path="url(#p871599f4af)" style="fill: none; stroke: #cccccc; stroke-opacity: 0.3; stroke-width: 0.8; stroke-linecap: round"/>
     </g>
     <g id="line2d_28"/>
     <g id="text_16">
      <!-- 0.4 -->
      <g style="fill: #ff0000" transform="translate(197.52556 67.938508) scale(0.07 -0.07)">
       <use xlink:href="#ArialMT-30"/>
       <use xlink:href="#ArialMT-2e" x="55.615234"/>
       <use xlink:href="#ArialMT-34" x="83.398438"/>
      </g>
     </g>
    </g>
    <g id="ytick_9">
     <g id="line2d_29">
      <path d="M 26.002656 47.515343 
L 194.02556 47.515343 
" clip-path="url(#p871599f4af)" style="fill: none; stroke: #cccccc; stroke-opacity: 0.3; stroke-width: 0.8; stroke-linecap: round"/>
     </g>
     <g id="line2d_30"/>
     <g id="text_17">
      <!-- 0.6 -->
      <g style="fill: #ff0000" transform="translate(197.52556 50.020578) scale(0.07 -0.07)">
       <use xlink:href="#ArialMT-30"/>
       <use xlink:href="#ArialMT-2e" x="55.615234"/>
       <use xlink:href="#ArialMT-36" x="83.398438"/>
      </g>
     </g>
    </g>
    <g id="ytick_10">
     <g id="line2d_31">
      <path d="M 26.002656 29.597413 
L 194.02556 29.597413 
" clip-path="url(#p871599f4af)" style="fill: none; stroke: #cccccc; stroke-opacity: 0.3; stroke-width: 0.8; stroke-linecap: round"/>
     </g>
     <g id="line2d_32"/>
     <g id="text_18">
      <!-- 0.8 -->
      <g style="fill: #ff0000" transform="translate(197.52556 32.102647) scale(0.07 -0.07)">
       <use xlink:href="#ArialMT-30"/>
       <use xlink:href="#ArialMT-2e" x="55.615234"/>
       <use xlink:href="#ArialMT-38" x="83.398438"/>
      </g>
     </g>
    </g>
    <g id="ytick_11">
     <g id="line2d_33">
      <path d="M 26.002656 11.679483 
L 194.02556 11.679483 
" clip-path="url(#p871599f4af)" style="fill: none; stroke: #cccccc; stroke-opacity: 0.3; stroke-width: 0.8; stroke-linecap: round"/>
     </g>
     <g id="line2d_34"/>
     <g id="text_19">
      <!-- 1.0 -->
      <g style="fill: #ff0000" transform="translate(197.52556 14.184717) scale(0.07 -0.07)">
       <use xlink:href="#ArialMT-31"/>
       <use xlink:href="#ArialMT-2e" x="55.615234"/>
       <use xlink:href="#ArialMT-30" x="83.398438"/>
      </g>
     </g>
    </g>
    <g id="text_20">
     <!-- Cumulative Probability -->
     <g style="fill: #ff0000" transform="translate(217.07931 96.267434) rotate(-90) scale(0.08 -0.08)">
      <defs>
       <path id="ArialMT-43" d="M 3763 1606 
L 4369 1453 
Q 4178 706 3683 314 
Q 3188 -78 2472 -78 
Q 1731 -78 1267 223 
Q 803 525 561 1097 
Q 319 1669 319 2325 
Q 319 3041 592 3573 
Q 866 4106 1370 4382 
Q 1875 4659 2481 4659 
Q 3169 4659 3637 4309 
Q 4106 3959 4291 3325 
L 3694 3184 
Q 3534 3684 3231 3912 
Q 2928 4141 2469 4141 
Q 1941 4141 1586 3887 
Q 1231 3634 1087 3207 
Q 944 2781 944 2328 
Q 944 1744 1114 1308 
Q 1284 872 1643 656 
Q 2003 441 2422 441 
Q 2931 441 3284 734 
Q 3638 1028 3763 1606 
z
" transform="scale(0.015625)"/>
       <path id="ArialMT-75" d="M 2597 0 
L 2597 488 
Q 2209 -75 1544 -75 
Q 1250 -75 995 37 
Q 741 150 617 320 
Q 494 491 444 738 
Q 409 903 409 1263 
L 409 3319 
L 972 3319 
L 972 1478 
Q 972 1038 1006 884 
Q 1059 663 1231 536 
Q 1403 409 1656 409 
Q 1909 409 2131 539 
Q 2353 669 2445 892 
Q 2538 1116 2538 1541 
L 2538 3319 
L 3100 3319 
L 3100 0 
L 2597 0 
z
" transform="scale(0.015625)"/>
       <path id="ArialMT-6d" d="M 422 0 
L 422 3319 
L 925 3319 
L 925 2853 
Q 1081 3097 1340 3245 
Q 1600 3394 1931 3394 
Q 2300 3394 2536 3241 
Q 2772 3088 2869 2813 
Q 3263 3394 3894 3394 
Q 4388 3394 4653 3120 
Q 4919 2847 4919 2278 
L 4919 0 
L 4359 0 
L 4359 2091 
Q 4359 2428 4304 2576 
Q 4250 2725 4106 2815 
Q 3963 2906 3769 2906 
Q 3419 2906 3187 2673 
Q 2956 2441 2956 1928 
L 2956 0 
L 2394 0 
L 2394 2156 
Q 2394 2531 2256 2718 
Q 2119 2906 1806 2906 
Q 1569 2906 1367 2781 
Q 1166 2656 1075 2415 
Q 984 2175 984 1722 
L 984 0 
L 422 0 
z
" transform="scale(0.015625)"/>
       <path id="ArialMT-76" d="M 1344 0 
L 81 3319 
L 675 3319 
L 1388 1331 
Q 1503 1009 1600 663 
Q 1675 925 1809 1294 
L 2547 3319 
L 3125 3319 
L 1869 0 
L 1344 0 
z
" transform="scale(0.015625)"/>
      </defs>
      <use xlink:href="#ArialMT-43"/>
      <use xlink:href="#ArialMT-75" x="72.216797"/>
      <use xlink:href="#ArialMT-6d" x="127.832031"/>
      <use xlink:href="#ArialMT-75" x="211.132812"/>
      <use xlink:href="#ArialMT-6c" x="266.748047"/>
      <use xlink:href="#ArialMT-61" x="288.964844"/>
      <use xlink:href="#ArialMT-74" x="344.580078"/>
      <use xlink:href="#ArialMT-69" x="372.363281"/>
      <use xlink:href="#ArialMT-76" x="394.580078"/>
      <use xlink:href="#ArialMT-65" x="444.580078"/>
      <use xlink:href="#ArialMT-20" x="500.195312"/>
      <use xlink:href="#ArialMT-50" x="527.978516"/>
      <use xlink:href="#ArialMT-72" x="594.677734"/>
      <use xlink:href="#ArialMT-6f" x="627.978516"/>
      <use xlink:href="#ArialMT-62" x="683.59375"/>
      <use xlink:href="#ArialMT-61" x="739.208984"/>
      <use xlink:href="#ArialMT-62" x="794.824219"/>
      <use xlink:href="#ArialMT-69" x="850.439453"/>
      <use xlink:href="#ArialMT-6c" x="872.65625"/>
      <use xlink:href="#ArialMT-69" x="894.873047"/>
      <use xlink:href="#ArialMT-74" x="917.089844"/>
      <use xlink:href="#ArialMT-79" x="944.873047"/>
     </g>
    </g>
   </g>
   <g id="line2d_35">
    <path d="M 33.640061 101.269135 
L 45.783968 100.963124 
L 46.113585 100.901922 
L 48.068828 100.636713 
L 48.747617 100.565311 
L 49.51009 100.402105 
L 49.510261 100.391905 
L 49.992576 100.2491 
L 50.158522 100.208298 
L 50.688592 100.085894 
L 50.779949 100.045093 
L 52.401426 99.65748 
L 53.723531 99.188264 
L 53.825747 99.116861 
L 54.743989 98.872053 
L 57.201389 97.750015 
L 57.543058 97.60721 
L 58.218095 97.148194 
L 58.584664 96.984989 
L 59.799833 96.250564 
L 60.115124 96.077158 
L 60.285958 95.954753 
L 61.000506 95.475337 
L 61.164007 95.403935 
L 61.409485 95.230529 
L 61.520002 95.189727 
L 61.883501 94.995921 
L 62.438755 94.67971 
L 65.655558 92.180625 
L 65.764312 92.119423 
L 65.928324 91.966418 
L 66.046061 91.833813 
L 66.225138 91.640007 
L 67.515464 90.701575 
L 67.997666 90.395564 
L 68.131491 90.303761 
L 68.882366 89.854946 
L 69.841881 89.232725 
L 70.141595 89.038918 
L 70.293952 88.896113 
L 70.595315 88.681906 
L 70.731698 88.600303 
L 70.916176 88.457498 
L 72.273357 87.355861 
L 72.533332 87.192655 
L 72.678186 87.04985 
L 73.03782 86.723439 
L 75.642518 84.550765 
L 75.746724 84.428361 
L 76.106471 84.11215 
L 76.219034 84.010147 
L 76.643647 83.632734 
L 78.908382 81.623265 
L 79.3264 81.317255 
L 79.465967 81.092847 
L 79.67779 80.919441 
L 79.814344 80.746035 
L 79.949988 80.633832 
L 80.940316 79.787203 
L 81.481244 79.317987 
L 81.676865 79.103779 
L 81.786415 78.991576 
L 82.25287 78.603962 
L 82.35645 78.471358 
L 82.63746 78.22655 
L 82.797266 78.104145 
L 83.042119 77.900138 
L 83.586231 77.237116 
L 83.829662 76.900504 
L 83.948308 76.7781 
L 84.408055 76.451689 
L 84.584915 76.319085 
L 84.800889 76.053876 
L 85.666203 75.125644 
L 85.777174 74.962438 
L 85.884337 74.748231 
L 86.001277 74.605426 
L 88.637072 71.861533 
L 88.8008 71.708528 
L 89.195226 71.351515 
L 89.428538 71.178109 
L 89.599316 71.014904 
L 89.788229 70.800697 
L 89.91364 70.668092 
L 90.159516 70.464085 
L 90.267076 70.31108 
L 90.926764 69.637857 
L 91.109651 69.454251 
L 91.869622 68.730026 
L 92.101059 68.505618 
L 92.211803 68.383214 
L 92.491846 68.148606 
L 92.677291 67.9548 
L 92.827944 67.740592 
L 93.12453 67.37338 
L 94.740606 65.751525 
L 94.859878 65.649521 
L 95.202569 65.394512 
L 95.318373 65.302709 
L 95.464932 65.149704 
L 103.630588 57.244435 
L 103.73866 57.10163 
L 104.038998 56.856822 
L 104.26782 56.683416 
L 104.483907 56.489609 
L 106.581446 54.622945 
L 106.78133 54.45974 
L 107.209582 54.112928 
L 107.348751 53.939522 
L 107.67399 53.715115 
L 113.213401 48.472136 
L 113.326532 48.380333 
L 113.695432 47.880516 
L 113.884629 47.574505 
L 114.87291 46.54427 
L 115.006963 46.391265 
L 115.127371 46.299462 
L 115.43908 45.871047 
L 115.566196 45.707842 
L 115.679896 45.616039 
L 115.820146 45.442633 
L 116.414285 44.789811 
L 116.581879 44.636805 
L 116.82895 44.381797 
L 117.366125 43.779976 
L 117.498984 43.637171 
L 118.004551 43.096553 
L 118.340535 42.70894 
L 118.439284 42.606936 
L 118.700169 42.392729 
L 118.870775 42.188722 
L 119.244451 41.862311 
L 119.555364 41.342093 
L 119.706528 41.148286 
L 119.968436 40.770874 
L 120.238246 40.566867 
L 120.367182 40.37306 
L 120.89657 39.720238 
L 120.971555 39.587633 
L 121.499976 38.751205 
L 121.622374 38.639001 
L 121.780815 38.455395 
L 122.139823 38.047381 
L 122.395364 37.792372 
L 122.520036 37.608766 
L 122.708039 37.44556 
L 122.848288 37.333357 
L 126.11762 33.355221 
L 126.388113 32.998209 
L 126.622051 32.804402 
L 126.895272 32.45759 
L 127.051553 32.314786 
L 127.260477 32.049577 
L 127.606182 31.692564 
L 127.888442 31.406955 
L 128.596907 30.69293 
L 128.764501 30.539925 
L 128.977064 30.366519 
L 129.297584 30.152312 
L 129.473876 29.948305 
L 130.024639 29.468889 
L 130.495812 29.193479 
L 130.68012 29.020073 
L 131.128951 28.561058 
L 131.363571 28.387652 
L 131.481194 28.204046 
L 132.111945 27.806232 
L 132.641674 27.46962 
L 132.812338 27.337016 
L 132.987152 27.224812 
L 133.331208 26.939202 
L 133.517449 26.847399 
L 135.502709 25.541755 
L 135.743241 25.368349 
L 136.267967 25.082739 
L 136.509637 24.929734 
L 136.639766 24.776729 
L 136.911112 24.593123 
L 137.043175 24.450318 
L 137.32174 24.297312 
L 137.981143 24.011703 
L 138.226451 23.889299 
L 138.494783 23.695492 
L 138.623435 23.593488 
L 138.817407 23.471084 
L 139.169707 23.277278 
L 139.297904 23.154874 
L 139.676411 22.838663 
L 140.414098 22.47145 
L 140.688911 22.328645 
L 140.79414 22.267443 
L 141.087827 22.043036 
L 141.20437 21.992034 
L 142.032447 21.58402 
L 142.523063 21.369813 
L 142.733693 21.257609 
L 143.203104 20.9924 
L 143.421351 20.859795 
L 144.030044 20.645588 
L 148.123986 18.697322 
L 148.185612 18.65652 
L 148.701867 18.462714 
L 148.795442 18.421912 
L 149.214597 18.289308 
L 153.280512 16.443045 
L 153.408425 16.361442 
L 153.572948 16.31044 
L 154.552475 15.922827 
L 154.884649 15.780022 
L 155.832396 15.443411 
L 160.930878 13.831756 
L 162.347411 13.566547 
L 162.619324 13.484944 
L 163.577077 13.291137 
L 166.625149 12.893324 
L 166.889672 12.79132 
L 168.202453 12.628115 
L 171.167183 12.444509 
L 173.337035 12.271103 
L 173.664377 12.240502 
L 176.692722 12.046695 
L 178.169345 11.944692 
L 186.388155 11.679483 
L 186.388155 11.679483 
" clip-path="url(#p871599f4af)" style="fill: none; stroke: #ff0000; stroke-linecap: round"/>
   </g>
   <g id="patch_107">
    <path d="M 26.002656 105.748617 
L 26.002656 7.2 
" style="fill: none; stroke: #cccccc; stroke-linejoin: miter; stroke-linecap: square"/>
   </g>
   <g id="patch_108">
    <path d="M 194.02556 105.748617 
L 194.02556 7.2 
" style="fill: none; stroke: #cccccc; stroke-linejoin: miter; stroke-linecap: square"/>
   </g>
   <g id="patch_109">
    <path d="M 26.002656 105.748617 
L 194.02556 105.748617 
" style="fill: none; stroke: #cccccc; stroke-linejoin: miter; stroke-linecap: square"/>
   </g>
   <g id="patch_110">
    <path d="M 26.002656 7.2 
L 194.02556 7.2 
" style="fill: none; stroke: #cccccc; stroke-linejoin: miter; stroke-linecap: square"/>
   </g>
  </g>
 </g>
 <defs>
  <clipPath id="p871599f4af">
   <rect x="26.002656" y="7.2" width="168.022904" height="98.548617"/>
  </clipPath>
 </defs>
</svg>
