<?xml version="1.0" encoding="UTF-8" standalone="no"?>
<!-- Created with Inkscape (http://www.inkscape.org/) -->

<svg
   width="7.6539803mm"
   height="6.670053mm"
   viewBox="0 0 7.6539802 6.6700532"
   version="1.1"
   id="svg1"
   sodipodi:docname="Lignite.svg"
   inkscape:version="1.3 (0e150ed6c4, 2023-07-21)"
   inkscape:export-filename="Lignite.png"
   inkscape:export-xdpi="96"
   inkscape:export-ydpi="96"
   xml:space="preserve"
   xmlns:inkscape="http://www.inkscape.org/namespaces/inkscape"
   xmlns:sodipodi="http://sodipodi.sourceforge.net/DTD/sodipodi-0.dtd"
   xmlns="http://www.w3.org/2000/svg"
   xmlns:svg="http://www.w3.org/2000/svg"><sodipodi:namedview
     id="namedview1"
     pagecolor="#000000"
     bordercolor="#000000"
     borderopacity="0.25"
     inkscape:showpageshadow="2"
     inkscape:pageopacity="0.0"
     inkscape:pagecheckerboard="0"
     inkscape:deskcolor="#d1d1d1"
     inkscape:document-units="mm"
     inkscape:zoom="16.388211"
     inkscape:cx="1.2508992"
     inkscape:cy="14.797222"
     inkscape:window-width="1920"
     inkscape:window-height="1009"
     inkscape:window-x="1912"
     inkscape:window-y="-8"
     inkscape:window-maximized="1"
     inkscape:current-layer="g10389" /><defs
     id="defs1" /><g
     inkscape:label="Layer 1"
     inkscape:groupmode="layer"
     id="layer1"
     transform="translate(-73.667356,-132.84361)"><g
       id="g10389"
       transform="translate(-331.67419,175.05473)"><path
         style="fill:#000000;stroke:#ffffff;stroke-width:0.1;stroke-dasharray:none"
         d="m 407.46639,-36.626082 c -0.0781,-0.01273 -0.14776,-0.02971 -0.15482,-0.03774 -0.007,-0.008 0.16628,-0.178319 0.38522,-0.378416 0.36019,-0.329184 0.46242,-0.458216 0.36303,-0.458216 -0.0193,0 -0.23242,0.18403 -0.47365,0.408955 -0.4256,0.396827 -0.44272,0.408713 -0.57728,0.400831 -0.0763,-0.0045 -0.15087,-0.02026 -0.16577,-0.0351 -0.0149,-0.01484 0.38881,-0.37262 0.89715,-0.795069 1.05466,-0.876477 1.07077,-0.896438 1.10651,-1.370687 0.0188,-0.249678 0.1049,-0.49285 0.22912,-0.647221 0.0415,-0.0516 0.20748,-0.05467 0.29928,-0.0055 0.0621,0.03322 0.0661,0.05741 0.0459,0.276806 -0.0456,0.49582 -0.0712,0.542501 -0.53714,0.979984 -0.37476,0.351887 -0.45223,0.451522 -0.35107,0.451522 0.0633,0 0.81224,-0.724526 0.87396,-0.845517 0.035,-0.06867 0.0808,-0.239655 0.10164,-0.379971 l 0.0379,-0.25512 0.13194,0.195081 c 0.0726,0.107294 0.1467,0.231675 0.16475,0.276402 0.0737,0.182685 0.0194,0.254226 -0.91855,1.20979 -0.49846,0.507833 -0.95299,0.949755 -1.01006,0.982049 -0.10742,0.06078 -0.20542,0.06673 -0.4481,0.02718 z m -1.00598,-0.136027 c -0.14926,-0.02234 -0.26305,-0.101519 -0.29626,-0.206133 -0.0261,-0.08218 0.0662,-0.395521 0.18689,-0.634605 0.0545,-0.107983 0.17073,-0.257152 0.26965,-0.346088 0.1582,-0.142242 0.62943,-0.430588 0.94574,-0.578701 0.12837,-0.06011 0.15196,-0.09347 0.0922,-0.130391 -0.0494,-0.03056 -0.79399,0.364002 -1.01668,0.538785 -0.10551,0.08281 -0.23698,0.212885 -0.29216,0.289054 -0.0552,0.07617 -0.10032,0.123939 -0.10032,0.106157 0,-0.197305 0.11113,-0.804712 0.15899,-0.868974 0.10758,-0.144471 2.03287,-1.590629 2.1183,-1.591144 0.12871,-7.76e-4 0.46668,0.202849 0.50991,0.30721 0.0342,0.08243 0.0216,0.122431 -0.11901,0.38044 -0.14214,0.260766 -0.16005,0.318828 -0.18736,0.607434 -0.0186,0.196383 -0.0529,0.357595 -0.0893,0.419182 -0.0485,0.08214 -1.88071,1.646551 -2.00254,1.709869 -0.0202,0.01049 -0.10032,0.0095 -0.17808,-0.0021 z m 1.19433,-1.310338 c 0.49871,-0.409272 0.65221,-0.568782 0.54736,-0.568782 -0.0421,0 -1.1919,0.951044 -1.20679,0.998178 -0.0355,0.112294 0.13322,0.0024 0.65943,-0.429396 z m 4.12945,0.904472 c -0.044,-0.09394 -0.1246,-0.208329 -0.17911,-0.254194 -0.16563,-0.139373 -1.42645,-0.749329 -1.54891,-0.749329 -0.12075,0 -0.0291,0.09416 0.17765,0.182464 0.46738,0.199641 1.13056,0.52557 1.24136,0.610077 0.10885,0.08302 0.24293,0.263503 0.2432,0.327357 1.8e-4,0.04167 -1.13717,-0.01125 -1.24945,-0.05813 -0.0506,-0.02114 -0.30466,-0.225592 -0.56455,-0.454351 -0.47232,-0.415755 -0.47249,-0.415951 -0.40549,-0.482947 0.067,-0.067 0.0672,-0.06688 0.49446,0.288743 0.38814,0.323058 0.48373,0.380478 0.48373,0.290577 0,-0.01672 -0.18762,-0.187578 -0.41693,-0.379689 l -0.41692,-0.349292 0.11366,-0.110163 c 0.2111,-0.204606 0.26975,-0.436836 0.16263,-0.643968 -0.0506,-0.09794 -0.0503,-0.107838 0.005,-0.148244 0.0326,-0.02381 0.0759,-0.03334 0.0962,-0.02117 0.13204,0.07898 1.06519,0.734238 1.32998,0.933915 0.39316,0.296481 0.49558,0.410976 0.65354,0.730586 0.1353,0.273762 0.13476,0.357275 -0.003,0.419916 -0.12492,0.05692 -0.13025,0.05368 -0.21729,-0.132159 z m -2.70129,-0.46492 0.26509,-0.26665 0.15353,0.131832 c 0.0844,0.07251 0.22147,0.192049 0.30451,0.265648 l 0.15099,0.133817 -0.5696,0.001 -0.5696,0.001 z m 3.00203,0.09265 c -0.1761,-0.377238 -0.34012,-0.525132 -1.39958,-1.262019 -0.57097,-0.397132 -0.57899,-0.404393 -0.5042,-0.456776 0.0418,-0.02927 0.0941,-0.05323 0.11633,-0.05323 0.0222,0 0.22427,0.144428 0.44909,0.320952 0.25673,0.201582 0.42754,0.313745 0.45926,0.301573 0.0717,-0.02752 0.0372,-0.06177 -0.40965,-0.406332 -0.3695,-0.284936 -0.38287,-0.299562 -0.31067,-0.339667 0.0917,-0.05094 0.30828,-0.05671 0.39459,-0.01052 0.11864,0.06349 1.32153,1.140652 1.38403,1.239361 0.0415,0.06551 0.0589,0.144987 0.052,0.23725 l -0.0104,0.138739 -0.31394,-0.290854 c -0.23811,-0.220607 -0.3232,-0.281361 -0.35229,-0.25155 -0.029,0.02974 0.0448,0.118263 0.30336,0.363818 l 0.34173,0.324515 -0.0492,0.159372 c -0.027,0.08765 -0.0537,0.159373 -0.0592,0.159373 -0.006,0 -0.0466,-0.0783 -0.0913,-0.174003 z m -6.09221,-0.361229 c -0.0771,-0.0346 -0.1494,-0.09416 -0.16185,-0.133371 -0.0284,-0.08948 0.0104,-0.654334 0.0548,-0.799305 l 0.0335,-0.109044 h 0.3497 c 0.19233,0 0.3497,0.0055 0.3497,0.01221 0,0.0067 -0.0599,0.0537 -0.13303,0.104402 -0.0759,0.05262 -0.16363,0.155387 -0.20431,0.239428 -0.0666,0.137478 -0.0802,0.147239 -0.20529,0.147239 -0.17244,0 -0.15824,0.0795 0.0168,0.0943 l 0.1233,0.01042 -0.0208,0.140567 c -0.0114,0.07731 -0.0303,0.188967 -0.042,0.248122 l -0.0212,0.107555 z m 6.19552,-0.555214 c -0.16387,-0.166969 -0.15708,-0.174087 0.0947,-0.09931 l 0.17401,0.05168 -0.0514,0.09931 c -0.0282,0.05462 -0.0554,0.09931 -0.0603,0.09931 -0.005,0 -0.0756,-0.06794 -0.15711,-0.150985 z m -0.0384,-0.248529 c -0.29864,-0.08032 -0.34335,-0.103835 -0.58006,-0.305099 l -0.25648,-0.218072 0.19421,-0.01098 c 0.10682,-0.006 0.315,-0.0011 0.46263,0.01094 l 0.26842,0.02192 0.14259,0.20757 c 0.13228,0.19255 0.17779,0.334881 0.11744,0.367256 -0.0138,0.0074 -0.17078,-0.02567 -0.34875,-0.07353 z m -6.00961,-0.362686 c -0.0914,-0.01383 -0.0889,-0.01841 0.2119,-0.389211 0.1674,-0.206367 0.33215,-0.394976 0.3661,-0.419131 0.0503,-0.03577 0.15417,-0.03657 0.55981,-0.0043 0.27394,0.02176 0.50209,0.04303 0.507,0.04725 0.005,0.0042 -0.10476,0.09475 -0.24371,0.201173 l -0.25262,0.193495 -0.32668,-0.01229 c -0.27348,-0.01029 -0.32669,-0.0041 -0.32669,0.03804 0,0.03875 0.0577,0.05419 0.25056,0.0671 l 0.25057,0.01678 -0.17946,0.142596 -0.17945,0.142597 -0.27242,-0.005 c -0.14983,-0.0028 -0.31404,-0.01133 -0.36491,-0.01902 z m 3.51894,-0.290498 c -0.14915,-0.233155 -0.23593,-0.311751 -0.37254,-0.337378 -0.0937,-0.01759 -0.11332,-0.03759 -0.12619,-0.12901 -0.008,-0.05951 -0.0258,-0.13223 -0.0387,-0.161606 -0.0332,-0.07574 0.44115,-0.273659 0.65071,-0.271481 0.13744,0.0014 1.20317,0.22512 1.23788,0.259824 0.008,0.0081 -0.27591,0.01474 -0.63114,0.01474 -0.50178,0 -0.64277,0.0094 -0.63194,0.04194 0.0106,0.03171 0.24662,0.04603 0.96742,0.05872 1.08327,0.01906 1.01363,0.0011 1.2542,0.322584 l 0.14779,0.197475 -0.45818,0.0094 c -0.41861,0.0086 -0.46549,0.0035 -0.543,-0.0589 -0.20301,-0.163414 -0.25258,-0.185351 -0.41887,-0.185351 -0.14838,0 -0.21181,0.02584 -0.51471,0.209701 -0.19,0.115336 -0.3594,0.209702 -0.37643,0.209702 -0.017,0 -0.0829,-0.08115 -0.14632,-0.180342 z m -2.21019,-0.616153 c -0.12577,-0.0079 -0.19292,-0.02674 -0.19292,-0.05414 0,-0.09444 0.34873,-0.850393 0.43178,-0.935982 l 0.0895,-0.09224 0.17359,0.151851 c 0.22243,0.194572 0.35981,0.250361 0.62097,0.252172 0.34767,0.0024 0.4871,0.04336 0.63309,0.185911 0.14419,0.140802 0.16168,0.196371 0.0726,0.230699 -0.0421,0.01622 -0.0872,-0.01126 -0.15938,-0.09707 -0.0923,-0.109792 -0.18453,-0.156724 -0.18453,-0.09393 0,0.01417 0.0376,0.08113 0.0836,0.148809 0.0819,0.120589 0.0822,0.123476 0.0158,0.144584 -0.0434,0.01379 -0.12096,-0.0096 -0.21541,-0.06493 -0.17938,-0.105127 -0.36513,-0.112019 -0.50467,-0.01873 l -0.10066,0.0673 -0.20695,-0.226892 c -0.1646,-0.180456 -0.21559,-0.218476 -0.24914,-0.185772 -0.0337,0.03281 -0.004,0.08145 0.14824,0.240762 0.10473,0.109804 0.19042,0.213522 0.19042,0.230486 0,0.01696 -0.0276,0.05583 -0.0614,0.08637 -0.0618,0.05596 -0.12752,0.05941 -0.58452,0.03073 z m 2.64224,-0.351821 c -0.0988,-0.02432 -0.16718,-0.07414 -0.25921,-0.188896 -0.19971,-0.249008 -0.29619,-0.343256 -0.32999,-0.322367 -0.0525,0.03248 -0.0378,0.06253 0.12377,0.251783 l 0.15528,0.181922 -0.14689,0.03827 -0.1469,0.03827 -0.14962,-0.168125 c -0.18659,-0.20966 -0.30336,-0.259274 -0.61262,-0.260287 -0.34668,-0.0011 -0.46739,-0.03821 -0.66391,-0.203918 -0.1695,-0.142927 -0.17129,-0.146343 -0.0907,-0.1732 0.0455,-0.01518 0.41939,-0.0061 0.83812,0.0204 0.60393,0.03819 0.7763,0.05983 0.85721,0.107623 0.0882,0.05211 0.61001,0.652039 0.61001,0.701349 0,0.02151 -0.009,0.02041 -0.18453,-0.02282 z"
         id="path1" /></g></g></svg>
