<?xml version="1.0" encoding="UTF-8" standalone="no"?>
<!-- Created with Inkscape (http://www.inkscape.org/) -->

<svg
   width="7.6539803mm"
   height="6.670053mm"
   viewBox="0 0 7.6539802 6.6700532"
   version="1.1"
   id="svg1"
   sodipodi:docname="gas.svg"
   inkscape:version="1.3 (0e150ed6c4, 2023-07-21)"
   inkscape:export-filename="gas.png"
   inkscape:export-xdpi="96"
   inkscape:export-ydpi="96"
   xmlns:inkscape="http://www.inkscape.org/namespaces/inkscape"
   xmlns:sodipodi="http://sodipodi.sourceforge.net/DTD/sodipodi-0.dtd"
   xmlns="http://www.w3.org/2000/svg"
   xmlns:svg="http://www.w3.org/2000/svg">
  <sodipodi:namedview
     id="namedview1"
     pagecolor="#000000"
     bordercolor="#000000"
     borderopacity="0.25"
     inkscape:showpageshadow="2"
     inkscape:pageopacity="0.0"
     inkscape:pagecheckerboard="0"
     inkscape:deskcolor="#d1d1d1"
     inkscape:document-units="mm"
     inkscape:zoom="23.176431"
     inkscape:cx="2.7398524"
     inkscape:cy="11.239867"
     inkscape:window-width="1920"
     inkscape:window-height="1009"
     inkscape:window-x="1912"
     inkscape:window-y="-8"
     inkscape:window-maximized="1"
     inkscape:current-layer="layer1" />
  <defs
     id="defs1" />
  <g
     inkscape:label="Layer 1"
     inkscape:groupmode="layer"
     id="layer1"
     transform="translate(-73.667356,-132.84361)">
    <g
       id="g10389"
       transform="translate(-331.67419,175.04331)"
       style="stroke:#ffffff;stroke-width:0.1;stroke-dasharray:none">
      <path
         style="fill:#000000;stroke:#ffffff;stroke-width:0.1;stroke-dasharray:none"
         d="m 408.40208,-36.068952 c -0.58163,-0.06137 -0.7443,-0.159483 -0.7443,-0.448945 0,-0.188724 -0.01,-0.220874 -0.11729,-0.383191 -0.25198,-0.380644 -0.26048,-0.433421 -0.25982,-1.612421 5.6e-4,-1.004747 0.003,-1.048904 0.0681,-1.221291 0.13187,-0.349247 0.4491,-0.7216 0.72637,-0.852587 0.11921,-0.05632 0.11921,-0.05632 0.13157,-0.420103 0.022,-0.647142 0.10574,-0.708868 0.96183,-0.708868 0.85638,0 0.94003,0.06172 0.9616,0.70948 0.0121,0.364396 0.0121,0.364396 0.13532,0.424215 0.63929,0.310432 0.79123,0.707687 0.79141,2.069154 1.6e-4,1.179791 -0.009,1.23688 -0.25942,1.612421 -0.10849,0.162722 -0.11813,0.193996 -0.11813,0.383191 0,0.410117 -0.92217,0.591917 -2.27726,0.448945 z m 1.32837,-0.571311 c 0.82011,-0.06256 1.13018,-0.390389 1.13018,-1.194884 0,-0.235571 -0.81015,-0.32025 -0.92528,-0.09671 -0.33908,0.658353 -1.44542,0.632486 -1.65847,-0.03878 -0.0612,-0.192851 -0.80039,-0.06772 -0.80039,0.135489 0,0.556042 0.27343,1.048522 0.62934,1.133508 0.33769,0.08063 1.02956,0.106772 1.62462,0.06138 z m -0.2594,-1.15691 c 0.19538,-0.441684 -0.12727,-1.163743 -0.34156,-0.764384 -0.0489,0.09122 -0.14856,0.235637 -0.22137,0.320927 -0.15871,0.185937 -0.16088,0.347838 -0.007,0.533069 0.0942,0.113476 0.50911,0.04825 0.57009,-0.08961 z m -0.88553,-0.173188 c -0.0278,-0.106366 0.0342,-0.253857 0.17699,-0.421181 0.0761,-0.08913 0.18513,-0.255006 0.24235,-0.368624 0.17963,-0.356696 0.6761,-0.0099 0.75263,0.525769 0.0219,0.153404 0.0237,0.155816 0.0507,0.06837 0.085,-0.275646 -0.0987,-0.687055 -0.48187,-1.079212 -0.27437,-0.280782 -0.29271,-0.288491 -0.32494,-0.136618 -0.0529,0.249217 -0.21118,0.583429 -0.38658,0.816204 -0.21155,0.280747 -0.23462,0.392154 -0.11577,0.559057 0.0795,0.111704 0.10953,0.124267 0.0865,0.03624 z m -0.37033,-0.278762 c 0.006,-0.02077 0.0192,-0.07176 0.0285,-0.113309 0.009,-0.04155 0.0988,-0.184314 0.19887,-0.317263 0.10008,-0.132948 0.182,-0.251922 0.18202,-0.264386 3e-5,-0.01246 -0.25828,-0.02266 -0.57404,-0.02266 -0.57409,0 -0.57409,0 -0.57409,0.377695 0,0.336125 0.64801,0.634316 0.7387,0.339925 z m 2.64544,-0.339925 c 0,-0.377695 0,-0.377695 -0.51366,-0.377695 -0.28252,0 -0.51367,0.0056 -0.51367,0.01239 0,0.0068 0.0404,0.09786 0.0898,0.202308 0.0494,0.104452 0.0987,0.268836 0.10965,0.365299 0.0486,0.429508 0.82786,0.239075 0.82786,-0.202307 z m -2.11402,-0.667549 c 0.0164,-0.04309 0.0568,-0.181663 0.0899,-0.307941 0.0927,-0.353931 0.0891,-0.354477 0.54246,0.08193 0.33854,0.325886 1.48164,0.491912 1.48164,0.215197 0,-0.581426 -0.4656,-1.142347 -1.05148,-1.266756 -1.26781,-0.269214 -2.33266,0.309052 -2.33266,1.266756 0,0.132551 1.21988,0.142938 1.27012,0.01081 z m -0.11069,-1.508971 c 0.14531,-0.02179 0.23262,-0.286048 0.0945,-0.286048 -0.0302,0 -0.0453,-0.03022 -0.0453,-0.09065 0,-0.09065 0,-0.09065 0.48345,-0.09065 0.48345,0 0.48345,0 0.48345,0.09065 0,0.06043 -0.0151,0.09065 -0.0453,0.09065 -0.13811,0 -0.0508,0.264257 0.0945,0.286048 0.0769,0.01153 0.15979,0.02863 0.18417,0.03798 0.0966,0.03708 0.0397,-0.617624 -0.0613,-0.704396 -0.13192,-0.113386 -1.17908,-0.113386 -1.311,0 -0.10096,0.08677 -0.15794,0.741477 -0.0613,0.704396 0.0244,-0.0094 0.10726,-0.02645 0.18416,-0.03798 z"
         id="path1" />
    </g>
  </g>
</svg>
