<?xml version="1.0" encoding="UTF-8" standalone="no"?>
<!-- Created with Inkscape (http://www.inkscape.org/) -->

<svg
   width="7.6539803mm"
   height="6.670053mm"
   viewBox="0 0 7.6539802 6.6700532"
   version="1.1"
   id="svg1"
   sodipodi:docname="nuclear.svg"
   inkscape:version="1.3 (0e150ed6c4, 2023-07-21)"
   inkscape:export-filename="gen.png"
   inkscape:export-xdpi="96"
   inkscape:export-ydpi="96"
   xmlns:inkscape="http://www.inkscape.org/namespaces/inkscape"
   xmlns:sodipodi="http://sodipodi.sourceforge.net/DTD/sodipodi-0.dtd"
   xmlns="http://www.w3.org/2000/svg"
   xmlns:svg="http://www.w3.org/2000/svg">
  <sodipodi:namedview
     id="namedview1"
     pagecolor="#000000"
     bordercolor="#000000"
     borderopacity="0.25"
     inkscape:showpageshadow="2"
     inkscape:pageopacity="0.0"
     inkscape:pagecheckerboard="0"
     inkscape:deskcolor="#d1d1d1"
     inkscape:document-units="mm"
     inkscape:zoom="16.388211"
     inkscape:cx="18.824507"
     inkscape:cy="15.895572"
     inkscape:window-width="1920"
     inkscape:window-height="1009"
     inkscape:window-x="1912"
     inkscape:window-y="-8"
     inkscape:window-maximized="1"
     inkscape:current-layer="g5" />
  <defs
     id="defs1" />
  <g
     inkscape:label="Layer 1"
     inkscape:groupmode="layer"
     id="layer1"
     transform="translate(-73.667356,-132.84361)">
    <g
       id="g10389"
       transform="translate(-331.67419,175.05473)">
      <g
         id="g6"
         style="fill:none;stroke:#ffffff;stroke-width:1;stroke-dasharray:none"
         transform="matrix(0.25505691,0,0,0.25505691,396.0706,-97.869171)">
        <g
           id="g5"
           transform="matrix(0.17136195,0,0,0.17136195,44.67683,182.68608)"
           style="fill:none;stroke:#ffffff;stroke-width:5.8356;stroke-dasharray:none">
          <path
             d="m 51.954532,260.13237 a 3.2631944,3.2631944 0 0 0 -0.676157,-2.38125 2.6458333,2.6458333 0 0 0 -2.087269,-0.99954 H -2.2262544 a 2.9398148,2.9398148 0 0 0 -2.0872685,0.99954 3.2925926,3.2925926 0 0 0 -0.8525463,2.38125 c 0,0.47037 5.1446759,47.47801 -24.7826388,88.19444 a 3.2337963,3.2337963 0 0 0 -0.352778,3.175 2.7634259,2.7634259 0 0 0 2.498843,1.70509 H 74.561708 a 2.7634259,2.7634259 0 0 0 2.498843,-1.70509 3.175,3.175 0 0 0 -0.352778,-3.175 C 46.868653,307.78676 51.895736,260.72033 51.954532,260.13237 Z"
             id="path1"
             style="fill:none;stroke:#ffffff;stroke-width:3.54633867;stroke-dasharray:none" />
          <path
             d="M 106.25412,348.4738 C 85.146242,319.72241 88.615223,284.70922 88.615223,284.38584 a 3.1162037,3.1162037 0 0 0 -0.676157,-2.38125 2.6458333,2.6458333 0 0 0 -1.822685,-0.99954 H 60.863372 a 127.97014,127.97014 0 0 0 23.283333,63.70579 9.730787,9.730787 0 0 1 1.26412,8.67245 h 18.697225 a 2.7340278,2.7340278 0 0 0 2.46945,-1.70509 3.1456018,3.1456018 0 0 0 -0.32338,-3.2044 z"
             id="path2"
             style="fill:none;stroke:#ffffff;stroke-width:3.54633867;stroke-dasharray:none" />
          <path
             d="m 25.084625,247.43237 a 8.4078703,8.4078703 0 0 0 5.644445,-2.20487 11.759259,11.759259 0 0 0 6.967361,2.20487 12.112037,12.112037 0 0 0 10.054166,-4.93889 16.786343,16.786343 0 1 0 -3.527778,-18.25625 11.759259,11.759259 0 0 0 -6.526388,-1.91088 12.347222,12.347222 0 0 0 -11.75926,8.43727 2.2636574,2.2636574 0 0 0 -0.764351,0 8.4078703,8.4078703 0 0 0 -8.407871,8.34907 8.2902777,8.2902777 0 0 0 8.319676,8.31968 z"
             id="path3"
             style="fill:none;stroke:#ffffff;stroke-width:3.54633867;stroke-dasharray:none" />
          <path
             d="m 67.976523,273.8319 a 6.6439814,6.6439814 0 0 0 4.43912,-1.73449 9.2604166,9.2604166 0 0 0 5.497454,1.73449 9.5543981,9.5543981 0 0 0 7.849306,-3.96875 13.229167,13.229167 0 1 0 -2.734028,-14.3169 9.2016203,9.2016203 0 0 0 -5.144676,-1.4993 9.7013888,9.7013888 0 0 0 -9.289815,6.64398 2.0872685,2.0872685 0 0 0 -0.617361,0 6.6145833,6.6145833 0 0 0 0,13.19977 z"
             id="path4"
             style="fill:none;stroke:#ffffff;stroke-width:3.54633867;stroke-dasharray:none" />
        </g>
        <g
           id="g10"
           style="fill:none;stroke:#ffffff;stroke-width:14.4384;stroke-dasharray:none"
           transform="matrix(0.01385192,0,0,0.01385192,45.315136,231.57911)">
          <g
             id="g9"
             style="fill:#000000;stroke:#ffffff;stroke-width:14.4384;stroke-dasharray:none">
            <g
               id="g8"
               style="fill:#000000;stroke:#ffffff;stroke-width:14.4384;stroke-dasharray:none">
              <path
                 d="m 188.261,227.545 c 0,30.293 24.645,54.939 54.939,54.939 30.293,0 54.939,-24.645 54.939,-54.939 0,-30.294 -24.646,-54.94 -54.939,-54.94 -30.293,0 -54.939,24.647 -54.939,54.94 z m 54.939,-35.94 c 19.817,0 35.939,16.124 35.939,35.94 0,19.816 -16.122,35.939 -35.939,35.939 -19.816,0 -35.939,-16.122 -35.939,-35.939 0,-19.817 16.122,-35.94 35.939,-35.94 z"
                 id="path1-7"
                 style="fill:#000000;stroke:#ffffff;stroke-width:14.4384;stroke-dasharray:none" />
              <path
                 d="m 172.651,227.545 c 0,-25.089 13.521,-48.499 35.287,-61.093 4.538,-2.626 6.091,-8.432 3.469,-12.973 L 134.593,20.433 C 131.97,15.889 126.159,14.332 121.616,16.956 83.996,38.676 52.871,70.037 31.606,107.649 10.969,144.15 0.039,185.607 0,227.536 c -0.003,2.521 0.997,4.939 2.779,6.723 1.782,1.784 4.2,2.786 6.721,2.786 h 153.651 c 5.247,0 9.5,-4.253 9.5,-9.5 z m -153.439,-9.5 C 22.398,144.976 61.346,77.531 122.991,38.336 l 67.47,116.863 c -20.361,14.883 -33.603,37.809 -36.299,62.846 z"
                 id="path2-5"
                 style="fill:#000000;stroke:#ffffff;stroke-width:14.4384;stroke-dasharray:none" />
              <path
                 d="M 453.79,105.961 C 432.417,68.94 401.642,38.151 364.793,16.923 c -4.545,-2.616 -10.349,-1.058 -12.97,3.482 l -76.83,133.074 c -2.621,4.541 -1.068,10.347 3.47,12.973 21.765,12.594 35.286,36.004 35.286,61.093 0,5.247 4.254,9.5 9.5,9.5 H 476.9 c 5.244,0 9.495,-4.248 9.501,-9.491 0.04,-42.527 -11.237,-84.573 -32.611,-121.593 z M 332.238,218.045 C 329.542,193.008 316.3,170.082 295.939,155.199 L 363.43,38.301 c 30.364,19.273 55.792,45.787 73.905,77.16 18.113,31.372 28.361,66.651 29.87,102.584 H 332.238 Z"
                 id="path3-3"
                 style="fill:#000000;stroke:#ffffff;stroke-width:14.4384;stroke-dasharray:none" />
              <path
                 d="m 291.446,292.111 c -1.26,-2.184 -3.337,-3.776 -5.772,-4.428 -2.437,-0.651 -5.03,-0.309 -7.212,0.955 -10.691,6.185 -22.884,9.455 -35.262,9.455 -12.378,0 -24.571,-3.27 -35.262,-9.456 -2.182,-1.263 -4.777,-1.606 -7.212,-0.955 -2.436,0.652 -4.513,2.245 -5.773,4.428 l -76.83,133.074 c -1.261,2.183 -1.601,4.778 -0.948,7.213 0.653,2.435 2.248,4.511 4.433,5.769 36.331,20.93 77.698,32.193 119.628,32.572 0.725,0.007 1.443,0.01 2.168,0.01 42.463,-10e-4 84.391,-11.259 121.38,-32.614 2.182,-1.26 3.774,-3.335 4.426,-5.768 0.652,-2.434 0.311,-5.027 -0.949,-7.209 z m -152.013,134.163 67.475,-116.87 c 11.386,5.051 23.766,7.69 36.292,7.69 12.526,0 24.907,-2.639 36.292,-7.69 l 67.463,116.85 c -64.767,33.788 -142.65,33.795 -207.522,0.02 z"
                 id="path4-9"
                 style="fill:#000000;stroke:#ffffff;stroke-width:14.4384;stroke-dasharray:none" />
              <path
                 d="m 83.483,116.48 c -4.403,-2.854 -10.286,-1.598 -13.139,2.805 -16.02,24.717 -22.839,50.514 -27.396,72.489 -1.065,5.137 2.236,10.166 7.373,11.231 0.651,0.135 1.299,0.2 1.939,0.2 4.408,0 8.361,-3.086 9.292,-7.573 4.2,-20.25 10.423,-43.929 24.736,-66.013 2.854,-4.403 1.598,-10.285 -2.805,-13.139 z"
                 id="path5"
                 style="fill:#000000;stroke:#ffffff;stroke-width:14.4384;stroke-dasharray:none" />
              <path
                 d="m 110.439,72.793 c -1.817,1.662 -3.344,3.006 -4.821,4.306 -3.589,3.158 -6.688,5.886 -11.021,10.688 -3.515,3.895 -3.206,9.902 0.689,13.417 1.816,1.639 4.092,2.447 6.361,2.447 2.595,0 5.18,-1.058 7.057,-3.135 3.601,-3.991 6.062,-6.157 9.468,-9.155 1.472,-1.295 3.141,-2.764 5.092,-4.549 3.871,-3.542 4.139,-9.551 0.597,-13.422 -3.541,-3.87 -9.551,-4.14 -13.422,-0.597 z"
                 id="path6"
                 style="fill:#000000;stroke:#ffffff;stroke-width:14.4384;stroke-dasharray:none" />
              <path
                 d="m 369.55,80.959 c -4.545,-2.624 -10.354,-1.067 -12.977,3.477 l -34.621,59.966 c -2.624,4.544 -1.067,10.354 3.477,12.977 1.497,0.863 3.13,1.274 4.741,1.274 3.283,0 6.477,-1.704 8.236,-4.751 l 34.621,-59.966 c 2.624,-4.544 1.067,-10.354 -3.477,-12.977 z"
                 id="path7"
                 style="fill:#000000;stroke:#ffffff;stroke-width:14.4384;stroke-dasharray:none" />
              <path
                 d="m 216.393,348.025 c -4.543,-2.624 -10.354,-1.067 -12.977,3.477 l -33.993,58.878 c -2.624,4.543 -1.067,10.354 3.477,12.977 1.496,0.863 3.129,1.274 4.741,1.274 3.283,0 6.477,-1.704 8.236,-4.751 l 33.993,-58.878 c 2.624,-4.543 1.067,-10.354 -3.477,-12.977 z"
                 id="path8"
                 style="fill:#000000;stroke:#ffffff;stroke-width:14.4384;stroke-dasharray:none" />
            </g>
          </g>
        </g>
      </g>
    </g>
  </g>
</svg>
