<?xml version="1.0" encoding="UTF-8" standalone="no"?>
<!-- Created with Inkscape (http://www.inkscape.org/) -->

<svg
   width="7.6539803mm"
   height="6.670053mm"
   viewBox="0 0 7.6539802 6.6700532"
   version="1.1"
   id="svg1"
   sodipodi:docname="Oil.svg"
   inkscape:version="1.3 (0e150ed6c4, 2023-07-21)"
   inkscape:export-filename="oil.png"
   inkscape:export-xdpi="96"
   inkscape:export-ydpi="96"
   xmlns:inkscape="http://www.inkscape.org/namespaces/inkscape"
   xmlns:sodipodi="http://sodipodi.sourceforge.net/DTD/sodipodi-0.dtd"
   xmlns="http://www.w3.org/2000/svg"
   xmlns:svg="http://www.w3.org/2000/svg">
  <sodipodi:namedview
     id="namedview1"
     pagecolor="#262626"
     bordercolor="#000000"
     borderopacity="0.25"
     inkscape:showpageshadow="2"
     inkscape:pageopacity="0.0"
     inkscape:pagecheckerboard="0"
     inkscape:deskcolor="#d1d1d1"
     inkscape:document-units="mm"
     inkscape:zoom="16.388211"
     inkscape:cx="9.5800573"
     inkscape:cy="16.383729"
     inkscape:window-width="1920"
     inkscape:window-height="1009"
     inkscape:window-x="-8"
     inkscape:window-y="-8"
     inkscape:window-maximized="1"
     inkscape:current-layer="layer1" />
  <defs
     id="defs1" />
  <g
     inkscape:label="Layer 1"
     inkscape:groupmode="layer"
     id="layer1"
     transform="translate(-73.667356,-132.84361)">
    <g
       id="g10389"
       transform="translate(-331.67419,175.05473)">
      <g
         id="g7"
         transform="matrix(0.05185086,0,0,0.05185086,406.56823,-42.061799)"
         style="fill:none;stroke:#ffffff;stroke-width:4.86009294;stroke-dasharray:none">
        <path
           class="st2"
           d="m 53.81,119.82 c -4.42,0.67 -9.24,1.03 -14.28,1.03 -21.63,0 -39.16,-6.73 -39.16,-15.04 0,-1.63 0.68,-3.2 1.93,-4.66 V 93 C 0.81,91.37 0,89.14 0,87.79 c 0,-1.35 0.19,-1.73 0.54,-2.57 0.37,0.38 0.78,0.76 1.22,1.11 6.26,5.06 20.35,8.22 34.99,8.67 2.96,0.09 5.94,0.07 8.9,-0.06 -0.23,1.21 -0.35,2.4 -0.35,3.61 0,4.22 0.79,8.22 2.37,11.98 1.43,3.39 3.47,6.49 6.14,9.29 z"
           id="path1-1"
           style="clip-rule:evenodd;fill:none;fill-rule:evenodd;stroke:#ffffff;stroke-width:4.86009294;stroke-dasharray:none" />
        <path
           class="st2"
           d="m 78.38,40.3 c 0.39,0.82 0.62,1.36 0.66,2.44 -0.24,-0.08 -0.48,-0.15 -0.73,-0.21 -0.86,-0.2 -1.72,-0.22 -2.55,-0.1 0.96,-0.67 1.83,-1.38 2.62,-2.13 z m -32,51.8 c -3.15,0.17 -6.36,0.2 -9.54,0.1 C 22.76,91.77 9.32,88.84 3.55,84.16 2.99,83.71 2.52,83.25 2.13,82.78 2.19,82.71 2.24,82.65 2.3,82.59 V 48.36 C 0.81,46.74 0,44.52 0,43.15 c 0,-1.37 0.2,-1.79 0.58,-2.66 0.36,0.37 0.76,0.73 1.18,1.07 6.26,5.07 20.35,8.22 34.99,8.67 C 49.38,50.62 62.49,49 71.41,44.87 70.75,45.68 70.25,46.64 70,47.73 67.88,56.94 61.86,65.92 56.54,73.86 52.18,80.38 48.21,86.31 46.38,92.1 Z"
           id="path2-6"
           style="clip-rule:evenodd;fill:none;fill-rule:evenodd;stroke:#ffffff;stroke-width:4.86009294;stroke-dasharray:none" />
        <path
           id="path3-4"
           style="clip-rule:evenodd;fill:none;fill-rule:evenodd;stroke:#ffffff;stroke-width:4.86009294;stroke-dasharray:none"
           class="st2"
           d="M 39.438709,-5.2322336e-4 C 28.95872,-5.2322336e-4 19.420022,1.6106642 12.470029,4.2206615 4.9400363,7.0506587 0.27854054,11.139584 0.27854054,15.839579 c 0,1.829998 0.71227165,3.57141 2.02227036,5.171408 V 37.94141 l -0.1218235,0.127915 c 0.3799996,0.45 0.840515,0.891786 1.3705145,1.321785 5.7699942,4.679995 19.2091531,7.610353 33.2791381,8.040352 14.109986,0.43 28.762533,-1.661404 36.912525,-7.041399 1.209999,-0.799999 2.269139,-1.660933 3.149138,-2.600932 V 20.621152 c 1.109999,-1.489998 1.708575,-3.101574 1.708575,-4.781573 0,-4.699995 -4.65845,-8.7989203 -12.188443,-11.6189175 C 59.460442,1.6106642 49.918699,-5.2322336e-4 39.438709,-5.2322336e-4 Z m 0,3.98972012336 c 9.90999,0 18.831839,1.4822637 25.241832,3.8922613 5.829995,2.1799978 9.438277,5.0081238 9.438277,7.9581208 0,2.939997 -3.608282,5.781169 -9.438277,7.961167 -6.409993,2.409997 -15.341842,3.898352 -25.241832,3.898352 -9.90999,0 -18.828793,-1.498355 -25.238786,-3.898352 -5.8299945,-2.189998 -9.4413227,-5.01117 -9.4413227,-7.961167 0,-2.939997 3.6113282,-5.778123 9.4413227,-7.9581208 6.419993,-2.3999976 15.338796,-3.8922613 25.238786,-3.8922613 z" />
        <path
           class="st0"
           d="m 76.76,49.28 c 2.8,12.03 12.63,23.61 18.88,34.82 10.6,19.01 2.62,38.78 -18.88,38.78 -23.44,0 -29.18,-21.46 -17.54,-41.05 C 65.46,71.32 74.18,60.48 76.76,49.28 Z M 60.52,94.94 c -0.13,-1.36 0.89,-2.57 2.25,-2.7 1.36,-0.13 2.57,0.89 2.7,2.26 0.32,3.3 1.04,6.36 2.43,8.97 1.34,2.53 3.32,4.72 6.19,6.4 4.67,2.76 -3.19,10.09 -10.59,-4.08 -1.71,-3.24 -2.6,-6.92 -2.98,-10.85 z"
           id="path4-98"
           style="clip-rule:evenodd;fill:none;fill-rule:evenodd;stroke:#ffffff;stroke-width:2.93148465;stroke-dasharray:none" />
        <path
           class="st2"
           d="m 20.43,12.51 c 4.35,0 7.87,1.58 7.87,3.54 0,1.96 -3.52,3.54 -7.87,3.54 -4.35,0 -7.87,-1.58 -7.87,-3.54 0,-1.96 3.52,-3.54 7.87,-3.54 z"
           id="path7-3"
           style="clip-rule:evenodd;fill:none;fill-rule:evenodd;stroke:#ffffff;stroke-width:1.92860834;stroke-dasharray:none" />
      </g>
    </g>
    <g
       id="g1"
       style="fill:none;stroke:#000000;stroke-width:1.00287631;stroke-dasharray:none"
       transform="matrix(0.05185086,0,0,0.05185086,74.142641,127.72456)">
      <path
         class="st2"
         d="m 68.30155,221.42628 c -4.42,0.67 -9.24,1.03 -14.28,1.03 -21.63,0 -39.16,-6.73 -39.16,-15.04 0,-1.63 0.68,-3.2 1.93,-4.66 v -8.15 c -1.49,-1.63 -2.3,-3.86 -2.3,-5.21 0,-1.35 0.19,-1.73 0.54,-2.57 0.37,0.38 0.78,0.76 1.22,1.11 6.26,5.06 20.35,8.22 34.99,8.67 2.96,0.09 5.94,0.07 8.9,-0.06 -0.23,1.21 -0.35,2.4 -0.35,3.61 0,4.22 0.79,8.22 2.37,11.98 1.43,3.39 3.47,6.49 6.14,9.29 z"
         id="path1-1-7"
         style="clip-rule:evenodd;fill:none;fill-rule:evenodd;stroke:#000000;stroke-width:1.00287631;stroke-dasharray:none" />
      <path
         class="st2"
         d="m 92.87155,141.90628 c 0.39,0.82 0.62,1.36 0.66,2.44 -0.24,-0.08 -0.48,-0.15 -0.73,-0.21 -0.86,-0.2 -1.72,-0.22 -2.55,-0.1 0.96,-0.67 1.83,-1.38 2.62,-2.13 z m -32,51.8 c -3.15,0.17 -6.36,0.2 -9.54,0.1 -14.08,-0.43 -27.52,-3.36 -33.29,-8.04 -0.56,-0.45 -1.03,-0.91 -1.42,-1.38 0.06,-0.07 0.11,-0.13 0.17,-0.19 v -34.23 c -1.49,-1.62 -2.3,-3.84 -2.3,-5.21 0,-1.37 0.2,-1.79 0.58,-2.66 0.36,0.37 0.76,0.73 1.18,1.07 6.26,5.07 20.35,8.22 34.99,8.67 12.63,0.39 25.74,-1.23 34.66,-5.36 -0.66,0.81 -1.16,1.77 -1.41,2.86 -2.12,9.21 -8.14,18.19 -13.46,26.13 -4.36,6.52 -8.33,12.45 -10.16,18.24 z"
         id="path2-6-6"
         style="clip-rule:evenodd;fill:none;fill-rule:evenodd;stroke:#000000;stroke-width:1.00287631;stroke-dasharray:none" />
      <path
         id="path3-4-7"
         style="clip-rule:evenodd;fill:none;fill-rule:evenodd;stroke:#000000;stroke-width:1.00287631;stroke-dasharray:none"
         class="st2"
         d="m 53.930259,101.60576 c -10.479989,0 -20.018687,1.61118 -26.96868,4.22118 -7.529993,2.83 -12.191488,6.91892 -12.191488,11.61892 0,1.83 0.712271,3.57141 2.02227,5.17141 v 16.93042 l -0.121824,0.12791 c 0.38,0.45 0.840515,0.89179 1.370515,1.32179 5.769994,4.67999 19.209153,7.61035 33.279138,8.04035 14.109986,0.43 28.762533,-1.6614 36.912525,-7.0414 1.209999,-0.8 2.269139,-1.66093 3.149138,-2.60093 v -17.16798 c 1.109999,-1.49 1.708575,-3.10157 1.708575,-4.78157 0,-4.7 -4.65845,-8.79892 -12.188443,-11.61892 -6.949993,-2.61 -16.491736,-4.22118 -26.971726,-4.22118 z m 0,3.98972 c 9.90999,0 18.831839,1.48226 25.241832,3.89226 5.829995,2.18 9.438277,5.00812 9.438277,7.95812 0,2.94 -3.608282,5.78117 -9.438277,7.96117 -6.409993,2.40999 -15.341842,3.89835 -25.241832,3.89835 -9.90999,0 -18.828793,-1.49836 -25.238786,-3.89835 -5.829994,-2.19 -9.441323,-5.01117 -9.441323,-7.96117 0,-2.94 3.611328,-5.77812 9.441323,-7.95812 6.419993,-2.4 15.338796,-3.89226 25.238786,-3.89226 z" />
      <path
         class="st0"
         d="m 91.25155,150.88628 c 2.8,12.03 12.63,23.61 18.88,34.82 10.6,19.01 2.62,38.78 -18.88,38.78 -23.44,0 -29.18,-21.46 -17.54,-41.05 6.24,-10.51 14.96,-21.35 17.54,-32.55 z m -16.24,45.66 c -0.13,-1.36 0.89,-2.57 2.25,-2.7 1.36,-0.13 2.57,0.89 2.7,2.26 0.32,3.3 1.04,6.36 2.43,8.97 1.34,2.53 3.32,4.72 6.19,6.4 4.67,2.76 -3.19,10.09 -10.59,-4.08 -1.71,-3.24 -2.6,-6.92 -2.98,-10.85 z"
         id="path4-98-3"
         style="clip-rule:evenodd;fill:none;fill-rule:evenodd;stroke:#000000;stroke-width:1.00287631;stroke-dasharray:none" />
      <path
         class="st2"
         d="m 34.92155,114.11628 c 4.35,0 7.87,1.58 7.87,3.54 0,1.96 -3.52,3.54 -7.87,3.54 -4.35,0 -7.87,-1.58 -7.87,-3.54 0,-1.96 3.52,-3.54 7.87,-3.54 z"
         id="path7-3-8"
         style="clip-rule:evenodd;fill:none;fill-rule:evenodd;stroke:#000000;stroke-width:1.00287631;stroke-dasharray:none" />
    </g>
  </g>
</svg>
