<?xml version="1.0" encoding="utf-8" standalone="no"?>
<!DOCTYPE svg PUBLIC "-//W3C//DTD SVG 1.1//EN"
  "http://www.w3.org/Graphics/SVG/1.1/DTD/svg11.dtd">
<svg xmlns:xlink="http://www.w3.org/1999/xlink" width="226.06806pt" height="134.269086pt" viewBox="0 0 226.06806 134.269086" xmlns="http://www.w3.org/2000/svg" version="1.1">
 <metadata>
  <rdf:RDF xmlns:dc="http://purl.org/dc/elements/1.1/" xmlns:cc="http://creativecommons.org/ns#" xmlns:rdf="http://www.w3.org/1999/02/22-rdf-syntax-ns#">
   <cc:Work>
    <dc:type rdf:resource="http://purl.org/dc/dcmitype/StillImage"/>
    <dc:date>2025-03-14T18:03:32.230058</dc:date>
    <dc:format>image/svg+xml</dc:format>
    <dc:creator>
     <cc:Agent>
      <dc:title>Matplotlib v3.9.2, https://matplotlib.org/</dc:title>
     </cc:Agent>
    </dc:creator>
   </cc:Work>
  </rdf:RDF>
 </metadata>
 <defs>
  <style type="text/css">*{stroke-linejoin: round; stroke-linecap: butt}</style>
 </defs>
 <g id="figure_1">
  <g id="patch_1">
   <path d="M 0 134.269086 
L 226.06806 134.269086 
L 226.06806 0 
L 0 0 
z
" style="fill: #ffffff"/>
  </g>
  <g id="axes_1">
   <g id="patch_2">
    <path d="M 35.732656 105.748617 
L 194.13056 105.748617 
L 194.13056 7.2 
L 35.732656 7.2 
z
" style="fill: #ffffff"/>
   </g>
   <g id="matplotlib.axis_1">
    <g id="xtick_1">
     <g id="line2d_1">
      <path d="M 42.932561 105.748617 
L 42.932561 7.2 
" clip-path="url(#p7e6704e773)" style="fill: none; stroke: #cccccc; stroke-opacity: 0.3; stroke-width: 0.8; stroke-linecap: round"/>
     </g>
     <g id="line2d_2"/>
     <g id="text_1">
      <!-- 0.0 -->
      <g style="fill: #262626" transform="translate(38.067561 114.259086) scale(0.07 -0.07)">
       <defs>
        <path id="ArialMT-30" d="M 266 2259 
Q 266 3072 433 3567 
Q 600 4063 929 4331 
Q 1259 4600 1759 4600 
Q 2128 4600 2406 4451 
Q 2684 4303 2865 4023 
Q 3047 3744 3150 3342 
Q 3253 2941 3253 2259 
Q 3253 1453 3087 958 
Q 2922 463 2592 192 
Q 2263 -78 1759 -78 
Q 1097 -78 719 397 
Q 266 969 266 2259 
z
M 844 2259 
Q 844 1131 1108 757 
Q 1372 384 1759 384 
Q 2147 384 2411 759 
Q 2675 1134 2675 2259 
Q 2675 3391 2411 3762 
Q 2147 4134 1753 4134 
Q 1366 4134 1134 3806 
Q 844 3388 844 2259 
z
" transform="scale(0.015625)"/>
        <path id="ArialMT-2e" d="M 581 0 
L 581 641 
L 1222 641 
L 1222 0 
L 581 0 
z
" transform="scale(0.015625)"/>
       </defs>
       <use xlink:href="#ArialMT-30"/>
       <use xlink:href="#ArialMT-2e" x="55.615234"/>
       <use xlink:href="#ArialMT-30" x="83.398438"/>
      </g>
     </g>
    </g>
    <g id="xtick_2">
     <g id="line2d_3">
      <path d="M 71.73218 105.748617 
L 71.73218 7.2 
" clip-path="url(#p7e6704e773)" style="fill: none; stroke: #cccccc; stroke-opacity: 0.3; stroke-width: 0.8; stroke-linecap: round"/>
     </g>
     <g id="line2d_4"/>
     <g id="text_2">
      <!-- 0.2 -->
      <g style="fill: #262626" transform="translate(66.86718 114.259086) scale(0.07 -0.07)">
       <defs>
        <path id="ArialMT-32" d="M 3222 541 
L 3222 0 
L 194 0 
Q 188 203 259 391 
Q 375 700 629 1000 
Q 884 1300 1366 1694 
Q 2113 2306 2375 2664 
Q 2638 3022 2638 3341 
Q 2638 3675 2398 3904 
Q 2159 4134 1775 4134 
Q 1369 4134 1125 3890 
Q 881 3647 878 3216 
L 300 3275 
Q 359 3922 746 4261 
Q 1134 4600 1788 4600 
Q 2447 4600 2831 4234 
Q 3216 3869 3216 3328 
Q 3216 3053 3103 2787 
Q 2991 2522 2730 2228 
Q 2469 1934 1863 1422 
Q 1356 997 1212 845 
Q 1069 694 975 541 
L 3222 541 
z
" transform="scale(0.015625)"/>
       </defs>
       <use xlink:href="#ArialMT-30"/>
       <use xlink:href="#ArialMT-2e" x="55.615234"/>
       <use xlink:href="#ArialMT-32" x="83.398438"/>
      </g>
     </g>
    </g>
    <g id="xtick_3">
     <g id="line2d_5">
      <path d="M 100.531799 105.748617 
L 100.531799 7.2 
" clip-path="url(#p7e6704e773)" style="fill: none; stroke: #cccccc; stroke-opacity: 0.3; stroke-width: 0.8; stroke-linecap: round"/>
     </g>
     <g id="line2d_6"/>
     <g id="text_3">
      <!-- 0.4 -->
      <g style="fill: #262626" transform="translate(95.666799 114.259086) scale(0.07 -0.07)">
       <defs>
        <path id="ArialMT-34" d="M 2069 0 
L 2069 1097 
L 81 1097 
L 81 1613 
L 2172 4581 
L 2631 4581 
L 2631 1613 
L 3250 1613 
L 3250 1097 
L 2631 1097 
L 2631 0 
L 2069 0 
z
M 2069 1613 
L 2069 3678 
L 634 1613 
L 2069 1613 
z
" transform="scale(0.015625)"/>
       </defs>
       <use xlink:href="#ArialMT-30"/>
       <use xlink:href="#ArialMT-2e" x="55.615234"/>
       <use xlink:href="#ArialMT-34" x="83.398438"/>
      </g>
     </g>
    </g>
    <g id="xtick_4">
     <g id="line2d_7">
      <path d="M 129.331417 105.748617 
L 129.331417 7.2 
" clip-path="url(#p7e6704e773)" style="fill: none; stroke: #cccccc; stroke-opacity: 0.3; stroke-width: 0.8; stroke-linecap: round"/>
     </g>
     <g id="line2d_8"/>
     <g id="text_4">
      <!-- 0.6 -->
      <g style="fill: #262626" transform="translate(124.466417 114.259086) scale(0.07 -0.07)">
       <defs>
        <path id="ArialMT-36" d="M 3184 3459 
L 2625 3416 
Q 2550 3747 2413 3897 
Q 2184 4138 1850 4138 
Q 1581 4138 1378 3988 
Q 1113 3794 959 3422 
Q 806 3050 800 2363 
Q 1003 2672 1297 2822 
Q 1591 2972 1913 2972 
Q 2475 2972 2870 2558 
Q 3266 2144 3266 1488 
Q 3266 1056 3080 686 
Q 2894 316 2569 119 
Q 2244 -78 1831 -78 
Q 1128 -78 684 439 
Q 241 956 241 2144 
Q 241 3472 731 4075 
Q 1159 4600 1884 4600 
Q 2425 4600 2770 4297 
Q 3116 3994 3184 3459 
z
M 888 1484 
Q 888 1194 1011 928 
Q 1134 663 1356 523 
Q 1578 384 1822 384 
Q 2178 384 2434 671 
Q 2691 959 2691 1453 
Q 2691 1928 2437 2201 
Q 2184 2475 1800 2475 
Q 1419 2475 1153 2201 
Q 888 1928 888 1484 
z
" transform="scale(0.015625)"/>
       </defs>
       <use xlink:href="#ArialMT-30"/>
       <use xlink:href="#ArialMT-2e" x="55.615234"/>
       <use xlink:href="#ArialMT-36" x="83.398438"/>
      </g>
     </g>
    </g>
    <g id="xtick_5">
     <g id="line2d_9">
      <path d="M 158.131036 105.748617 
L 158.131036 7.2 
" clip-path="url(#p7e6704e773)" style="fill: none; stroke: #cccccc; stroke-opacity: 0.3; stroke-width: 0.8; stroke-linecap: round"/>
     </g>
     <g id="line2d_10"/>
     <g id="text_5">
      <!-- 0.8 -->
      <g style="fill: #262626" transform="translate(153.266036 114.259086) scale(0.07 -0.07)">
       <defs>
        <path id="ArialMT-38" d="M 1131 2484 
Q 781 2613 612 2850 
Q 444 3088 444 3419 
Q 444 3919 803 4259 
Q 1163 4600 1759 4600 
Q 2359 4600 2725 4251 
Q 3091 3903 3091 3403 
Q 3091 3084 2923 2848 
Q 2756 2613 2416 2484 
Q 2838 2347 3058 2040 
Q 3278 1734 3278 1309 
Q 3278 722 2862 322 
Q 2447 -78 1769 -78 
Q 1091 -78 675 323 
Q 259 725 259 1325 
Q 259 1772 486 2073 
Q 713 2375 1131 2484 
z
M 1019 3438 
Q 1019 3113 1228 2906 
Q 1438 2700 1772 2700 
Q 2097 2700 2305 2904 
Q 2513 3109 2513 3406 
Q 2513 3716 2298 3927 
Q 2084 4138 1766 4138 
Q 1444 4138 1231 3931 
Q 1019 3725 1019 3438 
z
M 838 1322 
Q 838 1081 952 856 
Q 1066 631 1291 507 
Q 1516 384 1775 384 
Q 2178 384 2440 643 
Q 2703 903 2703 1303 
Q 2703 1709 2433 1975 
Q 2163 2241 1756 2241 
Q 1359 2241 1098 1978 
Q 838 1716 838 1322 
z
" transform="scale(0.015625)"/>
       </defs>
       <use xlink:href="#ArialMT-30"/>
       <use xlink:href="#ArialMT-2e" x="55.615234"/>
       <use xlink:href="#ArialMT-38" x="83.398438"/>
      </g>
     </g>
    </g>
    <g id="xtick_6">
     <g id="line2d_11">
      <path d="M 186.930655 105.748617 
L 186.930655 7.2 
" clip-path="url(#p7e6704e773)" style="fill: none; stroke: #cccccc; stroke-opacity: 0.3; stroke-width: 0.8; stroke-linecap: round"/>
     </g>
     <g id="line2d_12"/>
     <g id="text_6">
      <!-- 1.0 -->
      <g style="fill: #262626" transform="translate(182.065655 114.259086) scale(0.07 -0.07)">
       <defs>
        <path id="ArialMT-31" d="M 2384 0 
L 1822 0 
L 1822 3584 
Q 1619 3391 1289 3197 
Q 959 3003 697 2906 
L 697 3450 
Q 1169 3672 1522 3987 
Q 1875 4303 2022 4600 
L 2384 4600 
L 2384 0 
z
" transform="scale(0.015625)"/>
       </defs>
       <use xlink:href="#ArialMT-31"/>
       <use xlink:href="#ArialMT-2e" x="55.615234"/>
       <use xlink:href="#ArialMT-30" x="83.398438"/>
      </g>
     </g>
    </g>
    <g id="text_7">
     <!-- OWPP_BE -->
     <g style="fill: #262626" transform="translate(95.147858 125.479086) scale(0.08 -0.08)">
      <defs>
       <path id="ArialMT-4f" d="M 309 2231 
Q 309 3372 921 4017 
Q 1534 4663 2503 4663 
Q 3138 4663 3647 4359 
Q 4156 4056 4423 3514 
Q 4691 2972 4691 2284 
Q 4691 1588 4409 1038 
Q 4128 488 3612 205 
Q 3097 -78 2500 -78 
Q 1853 -78 1343 234 
Q 834 547 571 1087 
Q 309 1628 309 2231 
z
M 934 2222 
Q 934 1394 1379 917 
Q 1825 441 2497 441 
Q 3181 441 3623 922 
Q 4066 1403 4066 2288 
Q 4066 2847 3877 3264 
Q 3688 3681 3323 3911 
Q 2959 4141 2506 4141 
Q 1863 4141 1398 3698 
Q 934 3256 934 2222 
z
" transform="scale(0.015625)"/>
       <path id="ArialMT-57" d="M 1294 0 
L 78 4581 
L 700 4581 
L 1397 1578 
Q 1509 1106 1591 641 
Q 1766 1375 1797 1488 
L 2669 4581 
L 3400 4581 
L 4056 2263 
Q 4303 1400 4413 641 
Q 4500 1075 4641 1638 
L 5359 4581 
L 5969 4581 
L 4713 0 
L 4128 0 
L 3163 3491 
Q 3041 3928 3019 4028 
Q 2947 3713 2884 3491 
L 1913 0 
L 1294 0 
z
" transform="scale(0.015625)"/>
       <path id="ArialMT-50" d="M 494 0 
L 494 4581 
L 2222 4581 
Q 2678 4581 2919 4538 
Q 3256 4481 3484 4323 
Q 3713 4166 3852 3881 
Q 3991 3597 3991 3256 
Q 3991 2672 3619 2267 
Q 3247 1863 2275 1863 
L 1100 1863 
L 1100 0 
L 494 0 
z
M 1100 2403 
L 2284 2403 
Q 2872 2403 3119 2622 
Q 3366 2841 3366 3238 
Q 3366 3525 3220 3729 
Q 3075 3934 2838 4000 
Q 2684 4041 2272 4041 
L 1100 4041 
L 1100 2403 
z
" transform="scale(0.015625)"/>
       <path id="ArialMT-5f" d="M -97 -1272 
L -97 -866 
L 3631 -866 
L 3631 -1272 
L -97 -1272 
z
" transform="scale(0.015625)"/>
       <path id="ArialMT-42" d="M 469 0 
L 469 4581 
L 2188 4581 
Q 2713 4581 3030 4442 
Q 3347 4303 3526 4014 
Q 3706 3725 3706 3409 
Q 3706 3116 3547 2856 
Q 3388 2597 3066 2438 
Q 3481 2316 3704 2022 
Q 3928 1728 3928 1328 
Q 3928 1006 3792 729 
Q 3656 453 3456 303 
Q 3256 153 2954 76 
Q 2653 0 2216 0 
L 469 0 
z
M 1075 2656 
L 2066 2656 
Q 2469 2656 2644 2709 
Q 2875 2778 2992 2937 
Q 3109 3097 3109 3338 
Q 3109 3566 3000 3739 
Q 2891 3913 2687 3977 
Q 2484 4041 1991 4041 
L 1075 4041 
L 1075 2656 
z
M 1075 541 
L 2216 541 
Q 2509 541 2628 563 
Q 2838 600 2978 687 
Q 3119 775 3209 942 
Q 3300 1109 3300 1328 
Q 3300 1584 3169 1773 
Q 3038 1963 2805 2039 
Q 2572 2116 2134 2116 
L 1075 2116 
L 1075 541 
z
" transform="scale(0.015625)"/>
       <path id="ArialMT-45" d="M 506 0 
L 506 4581 
L 3819 4581 
L 3819 4041 
L 1113 4041 
L 1113 2638 
L 3647 2638 
L 3647 2100 
L 1113 2100 
L 1113 541 
L 3925 541 
L 3925 0 
L 506 0 
z
" transform="scale(0.015625)"/>
      </defs>
      <use xlink:href="#ArialMT-4f"/>
      <use xlink:href="#ArialMT-57" x="77.783203"/>
      <use xlink:href="#ArialMT-50" x="172.167969"/>
      <use xlink:href="#ArialMT-50" x="238.867188"/>
      <use xlink:href="#ArialMT-5f" x="305.566406"/>
      <use xlink:href="#ArialMT-42" x="361.181641"/>
      <use xlink:href="#ArialMT-45" x="427.880859"/>
     </g>
    </g>
   </g>
   <g id="matplotlib.axis_2">
    <g id="ytick_1">
     <g id="line2d_13">
      <path d="M 35.732656 105.748617 
L 194.13056 105.748617 
" clip-path="url(#p7e6704e773)" style="fill: none; stroke: #cccccc; stroke-opacity: 0.3; stroke-width: 0.8; stroke-linecap: round"/>
     </g>
     <g id="line2d_14"/>
     <g id="text_8">
      <!-- 0.0 -->
      <g style="fill: #0000ff" transform="translate(22.502656 108.253852) scale(0.07 -0.07)">
       <use xlink:href="#ArialMT-30"/>
       <use xlink:href="#ArialMT-2e" x="55.615234"/>
       <use xlink:href="#ArialMT-30" x="83.398438"/>
      </g>
     </g>
    </g>
    <g id="ytick_2">
     <g id="line2d_15">
      <path d="M 35.732656 89.046235 
L 194.13056 89.046235 
" clip-path="url(#p7e6704e773)" style="fill: none; stroke: #cccccc; stroke-opacity: 0.3; stroke-width: 0.8; stroke-linecap: round"/>
     </g>
     <g id="line2d_16"/>
     <g id="text_9">
      <!-- 2.5 -->
      <g style="fill: #0000ff" transform="translate(22.502656 91.55147) scale(0.07 -0.07)">
       <defs>
        <path id="ArialMT-35" d="M 266 1200 
L 856 1250 
Q 922 819 1161 601 
Q 1400 384 1738 384 
Q 2144 384 2425 690 
Q 2706 997 2706 1503 
Q 2706 1984 2436 2262 
Q 2166 2541 1728 2541 
Q 1456 2541 1237 2417 
Q 1019 2294 894 2097 
L 366 2166 
L 809 4519 
L 3088 4519 
L 3088 3981 
L 1259 3981 
L 1013 2750 
Q 1425 3038 1878 3038 
Q 2478 3038 2890 2622 
Q 3303 2206 3303 1553 
Q 3303 931 2941 478 
Q 2500 -78 1738 -78 
Q 1113 -78 717 272 
Q 322 622 266 1200 
z
" transform="scale(0.015625)"/>
       </defs>
       <use xlink:href="#ArialMT-32"/>
       <use xlink:href="#ArialMT-2e" x="55.615234"/>
       <use xlink:href="#ArialMT-35" x="83.398438"/>
      </g>
     </g>
    </g>
    <g id="ytick_3">
     <g id="line2d_17">
      <path d="M 35.732656 72.343853 
L 194.13056 72.343853 
" clip-path="url(#p7e6704e773)" style="fill: none; stroke: #cccccc; stroke-opacity: 0.3; stroke-width: 0.8; stroke-linecap: round"/>
     </g>
     <g id="line2d_18"/>
     <g id="text_10">
      <!-- 5.0 -->
      <g style="fill: #0000ff" transform="translate(22.502656 74.849088) scale(0.07 -0.07)">
       <use xlink:href="#ArialMT-35"/>
       <use xlink:href="#ArialMT-2e" x="55.615234"/>
       <use xlink:href="#ArialMT-30" x="83.398438"/>
      </g>
     </g>
    </g>
    <g id="ytick_4">
     <g id="line2d_19">
      <path d="M 35.732656 55.641471 
L 194.13056 55.641471 
" clip-path="url(#p7e6704e773)" style="fill: none; stroke: #cccccc; stroke-opacity: 0.3; stroke-width: 0.8; stroke-linecap: round"/>
     </g>
     <g id="line2d_20"/>
     <g id="text_11">
      <!-- 7.5 -->
      <g style="fill: #0000ff" transform="translate(22.502656 58.146706) scale(0.07 -0.07)">
       <defs>
        <path id="ArialMT-37" d="M 303 3981 
L 303 4522 
L 3269 4522 
L 3269 4084 
Q 2831 3619 2401 2847 
Q 1972 2075 1738 1259 
Q 1569 684 1522 0 
L 944 0 
Q 953 541 1156 1306 
Q 1359 2072 1739 2783 
Q 2119 3494 2547 3981 
L 303 3981 
z
" transform="scale(0.015625)"/>
       </defs>
       <use xlink:href="#ArialMT-37"/>
       <use xlink:href="#ArialMT-2e" x="55.615234"/>
       <use xlink:href="#ArialMT-35" x="83.398438"/>
      </g>
     </g>
    </g>
    <g id="ytick_5">
     <g id="line2d_21">
      <path d="M 35.732656 38.939089 
L 194.13056 38.939089 
" clip-path="url(#p7e6704e773)" style="fill: none; stroke: #cccccc; stroke-opacity: 0.3; stroke-width: 0.8; stroke-linecap: round"/>
     </g>
     <g id="line2d_22"/>
     <g id="text_12">
      <!-- 10.0 -->
      <g style="fill: #0000ff" transform="translate(18.61 41.444324) scale(0.07 -0.07)">
       <use xlink:href="#ArialMT-31"/>
       <use xlink:href="#ArialMT-30" x="55.615234"/>
       <use xlink:href="#ArialMT-2e" x="111.230469"/>
       <use xlink:href="#ArialMT-30" x="139.013672"/>
      </g>
     </g>
    </g>
    <g id="ytick_6">
     <g id="line2d_23">
      <path d="M 35.732656 22.236707 
L 194.13056 22.236707 
" clip-path="url(#p7e6704e773)" style="fill: none; stroke: #cccccc; stroke-opacity: 0.3; stroke-width: 0.8; stroke-linecap: round"/>
     </g>
     <g id="line2d_24"/>
     <g id="text_13">
      <!-- 12.5 -->
      <g style="fill: #0000ff" transform="translate(18.61 24.741942) scale(0.07 -0.07)">
       <use xlink:href="#ArialMT-31"/>
       <use xlink:href="#ArialMT-32" x="55.615234"/>
       <use xlink:href="#ArialMT-2e" x="111.230469"/>
       <use xlink:href="#ArialMT-35" x="139.013672"/>
      </g>
     </g>
    </g>
    <g id="text_14">
     <!-- Probability Density -->
     <g style="fill: #0000ff" transform="translate(12.92625 89.598059) rotate(-90) scale(0.08 -0.08)">
      <defs>
       <path id="ArialMT-72" d="M 416 0 
L 416 3319 
L 922 3319 
L 922 2816 
Q 1116 3169 1280 3281 
Q 1444 3394 1641 3394 
Q 1925 3394 2219 3213 
L 2025 2691 
Q 1819 2813 1613 2813 
Q 1428 2813 1281 2702 
Q 1134 2591 1072 2394 
Q 978 2094 978 1738 
L 978 0 
L 416 0 
z
" transform="scale(0.015625)"/>
       <path id="ArialMT-6f" d="M 213 1659 
Q 213 2581 725 3025 
Q 1153 3394 1769 3394 
Q 2453 3394 2887 2945 
Q 3322 2497 3322 1706 
Q 3322 1066 3130 698 
Q 2938 331 2570 128 
Q 2203 -75 1769 -75 
Q 1072 -75 642 372 
Q 213 819 213 1659 
z
M 791 1659 
Q 791 1022 1069 705 
Q 1347 388 1769 388 
Q 2188 388 2466 706 
Q 2744 1025 2744 1678 
Q 2744 2294 2464 2611 
Q 2184 2928 1769 2928 
Q 1347 2928 1069 2612 
Q 791 2297 791 1659 
z
" transform="scale(0.015625)"/>
       <path id="ArialMT-62" d="M 941 0 
L 419 0 
L 419 4581 
L 981 4581 
L 981 2947 
Q 1338 3394 1891 3394 
Q 2197 3394 2470 3270 
Q 2744 3147 2920 2923 
Q 3097 2700 3197 2384 
Q 3297 2069 3297 1709 
Q 3297 856 2875 390 
Q 2453 -75 1863 -75 
Q 1275 -75 941 416 
L 941 0 
z
M 934 1684 
Q 934 1088 1097 822 
Q 1363 388 1816 388 
Q 2184 388 2453 708 
Q 2722 1028 2722 1663 
Q 2722 2313 2464 2622 
Q 2206 2931 1841 2931 
Q 1472 2931 1203 2611 
Q 934 2291 934 1684 
z
" transform="scale(0.015625)"/>
       <path id="ArialMT-61" d="M 2588 409 
Q 2275 144 1986 34 
Q 1697 -75 1366 -75 
Q 819 -75 525 192 
Q 231 459 231 875 
Q 231 1119 342 1320 
Q 453 1522 633 1644 
Q 813 1766 1038 1828 
Q 1203 1872 1538 1913 
Q 2219 1994 2541 2106 
Q 2544 2222 2544 2253 
Q 2544 2597 2384 2738 
Q 2169 2928 1744 2928 
Q 1347 2928 1158 2789 
Q 969 2650 878 2297 
L 328 2372 
Q 403 2725 575 2942 
Q 747 3159 1072 3276 
Q 1397 3394 1825 3394 
Q 2250 3394 2515 3294 
Q 2781 3194 2906 3042 
Q 3031 2891 3081 2659 
Q 3109 2516 3109 2141 
L 3109 1391 
Q 3109 606 3145 398 
Q 3181 191 3288 0 
L 2700 0 
Q 2613 175 2588 409 
z
M 2541 1666 
Q 2234 1541 1622 1453 
Q 1275 1403 1131 1340 
Q 988 1278 909 1158 
Q 831 1038 831 891 
Q 831 666 1001 516 
Q 1172 366 1500 366 
Q 1825 366 2078 508 
Q 2331 650 2450 897 
Q 2541 1088 2541 1459 
L 2541 1666 
z
" transform="scale(0.015625)"/>
       <path id="ArialMT-69" d="M 425 3934 
L 425 4581 
L 988 4581 
L 988 3934 
L 425 3934 
z
M 425 0 
L 425 3319 
L 988 3319 
L 988 0 
L 425 0 
z
" transform="scale(0.015625)"/>
       <path id="ArialMT-6c" d="M 409 0 
L 409 4581 
L 972 4581 
L 972 0 
L 409 0 
z
" transform="scale(0.015625)"/>
       <path id="ArialMT-74" d="M 1650 503 
L 1731 6 
Q 1494 -44 1306 -44 
Q 1000 -44 831 53 
Q 663 150 594 308 
Q 525 466 525 972 
L 525 2881 
L 113 2881 
L 113 3319 
L 525 3319 
L 525 4141 
L 1084 4478 
L 1084 3319 
L 1650 3319 
L 1650 2881 
L 1084 2881 
L 1084 941 
Q 1084 700 1114 631 
Q 1144 563 1211 522 
Q 1278 481 1403 481 
Q 1497 481 1650 503 
z
" transform="scale(0.015625)"/>
       <path id="ArialMT-79" d="M 397 -1278 
L 334 -750 
Q 519 -800 656 -800 
Q 844 -800 956 -737 
Q 1069 -675 1141 -563 
Q 1194 -478 1313 -144 
Q 1328 -97 1363 -6 
L 103 3319 
L 709 3319 
L 1400 1397 
Q 1534 1031 1641 628 
Q 1738 1016 1872 1384 
L 2581 3319 
L 3144 3319 
L 1881 -56 
Q 1678 -603 1566 -809 
Q 1416 -1088 1222 -1217 
Q 1028 -1347 759 -1347 
Q 597 -1347 397 -1278 
z
" transform="scale(0.015625)"/>
       <path id="ArialMT-20" transform="scale(0.015625)"/>
       <path id="ArialMT-44" d="M 494 0 
L 494 4581 
L 2072 4581 
Q 2606 4581 2888 4516 
Q 3281 4425 3559 4188 
Q 3922 3881 4101 3404 
Q 4281 2928 4281 2316 
Q 4281 1794 4159 1391 
Q 4038 988 3847 723 
Q 3656 459 3429 307 
Q 3203 156 2883 78 
Q 2563 0 2147 0 
L 494 0 
z
M 1100 541 
L 2078 541 
Q 2531 541 2789 625 
Q 3047 709 3200 863 
Q 3416 1078 3536 1442 
Q 3656 1806 3656 2325 
Q 3656 3044 3420 3430 
Q 3184 3816 2847 3947 
Q 2603 4041 2063 4041 
L 1100 4041 
L 1100 541 
z
" transform="scale(0.015625)"/>
       <path id="ArialMT-65" d="M 2694 1069 
L 3275 997 
Q 3138 488 2766 206 
Q 2394 -75 1816 -75 
Q 1088 -75 661 373 
Q 234 822 234 1631 
Q 234 2469 665 2931 
Q 1097 3394 1784 3394 
Q 2450 3394 2872 2941 
Q 3294 2488 3294 1666 
Q 3294 1616 3291 1516 
L 816 1516 
Q 847 969 1125 678 
Q 1403 388 1819 388 
Q 2128 388 2347 550 
Q 2566 713 2694 1069 
z
M 847 1978 
L 2700 1978 
Q 2663 2397 2488 2606 
Q 2219 2931 1791 2931 
Q 1403 2931 1139 2672 
Q 875 2413 847 1978 
z
" transform="scale(0.015625)"/>
       <path id="ArialMT-6e" d="M 422 0 
L 422 3319 
L 928 3319 
L 928 2847 
Q 1294 3394 1984 3394 
Q 2284 3394 2536 3286 
Q 2788 3178 2913 3003 
Q 3038 2828 3088 2588 
Q 3119 2431 3119 2041 
L 3119 0 
L 2556 0 
L 2556 2019 
Q 2556 2363 2490 2533 
Q 2425 2703 2258 2804 
Q 2091 2906 1866 2906 
Q 1506 2906 1245 2678 
Q 984 2450 984 1813 
L 984 0 
L 422 0 
z
" transform="scale(0.015625)"/>
       <path id="ArialMT-73" d="M 197 991 
L 753 1078 
Q 800 744 1014 566 
Q 1228 388 1613 388 
Q 2000 388 2187 545 
Q 2375 703 2375 916 
Q 2375 1106 2209 1216 
Q 2094 1291 1634 1406 
Q 1016 1563 777 1677 
Q 538 1791 414 1992 
Q 291 2194 291 2438 
Q 291 2659 392 2848 
Q 494 3038 669 3163 
Q 800 3259 1026 3326 
Q 1253 3394 1513 3394 
Q 1903 3394 2198 3281 
Q 2494 3169 2634 2976 
Q 2775 2784 2828 2463 
L 2278 2388 
Q 2241 2644 2061 2787 
Q 1881 2931 1553 2931 
Q 1166 2931 1000 2803 
Q 834 2675 834 2503 
Q 834 2394 903 2306 
Q 972 2216 1119 2156 
Q 1203 2125 1616 2013 
Q 2213 1853 2448 1751 
Q 2684 1650 2818 1456 
Q 2953 1263 2953 975 
Q 2953 694 2789 445 
Q 2625 197 2315 61 
Q 2006 -75 1616 -75 
Q 969 -75 630 194 
Q 291 463 197 991 
z
" transform="scale(0.015625)"/>
      </defs>
      <use xlink:href="#ArialMT-50"/>
      <use xlink:href="#ArialMT-72" x="66.699219"/>
      <use xlink:href="#ArialMT-6f" x="100"/>
      <use xlink:href="#ArialMT-62" x="155.615234"/>
      <use xlink:href="#ArialMT-61" x="211.230469"/>
      <use xlink:href="#ArialMT-62" x="266.845703"/>
      <use xlink:href="#ArialMT-69" x="322.460938"/>
      <use xlink:href="#ArialMT-6c" x="344.677734"/>
      <use xlink:href="#ArialMT-69" x="366.894531"/>
      <use xlink:href="#ArialMT-74" x="389.111328"/>
      <use xlink:href="#ArialMT-79" x="416.894531"/>
      <use xlink:href="#ArialMT-20" x="466.894531"/>
      <use xlink:href="#ArialMT-44" x="494.677734"/>
      <use xlink:href="#ArialMT-65" x="566.894531"/>
      <use xlink:href="#ArialMT-6e" x="622.509766"/>
      <use xlink:href="#ArialMT-73" x="678.125"/>
      <use xlink:href="#ArialMT-69" x="728.125"/>
      <use xlink:href="#ArialMT-74" x="750.341797"/>
      <use xlink:href="#ArialMT-79" x="778.125"/>
     </g>
    </g>
   </g>
   <g id="patch_3">
    <path d="M 42.932561 105.748617 
L 44.372542 105.748617 
L 44.372542 11.892791 
L 42.932561 11.892791 
z
" clip-path="url(#p7e6704e773)" style="fill: #0000ff; opacity: 0.5"/>
   </g>
   <g id="patch_4">
    <path d="M 44.372542 105.748617 
L 45.812523 105.748617 
L 45.812523 78.443721 
L 44.372542 78.443721 
z
" clip-path="url(#p7e6704e773)" style="fill: #0000ff; opacity: 0.5"/>
   </g>
   <g id="patch_5">
    <path d="M 45.812523 105.748617 
L 47.252504 105.748617 
L 47.252504 86.505891 
L 45.812523 86.505891 
z
" clip-path="url(#p7e6704e773)" style="fill: #0000ff; opacity: 0.5"/>
   </g>
   <g id="patch_6">
    <path d="M 47.252504 105.748617 
L 48.692485 105.748617 
L 48.692485 90.993325 
L 47.252504 90.993325 
z
" clip-path="url(#p7e6704e773)" style="fill: #0000ff; opacity: 0.5"/>
   </g>
   <g id="patch_7">
    <path d="M 48.692485 105.748617 
L 50.132466 105.748617 
L 50.132466 94.339886 
L 48.692485 94.339886 
z
" clip-path="url(#p7e6704e773)" style="fill: #0000ff; opacity: 0.5"/>
   </g>
   <g id="patch_8">
    <path d="M 50.132466 105.748617 
L 51.572447 105.748617 
L 51.572447 93.807479 
L 50.132466 93.807479 
z
" clip-path="url(#p7e6704e773)" style="fill: #0000ff; opacity: 0.5"/>
   </g>
   <g id="patch_9">
    <path d="M 51.572447 105.748617 
L 53.012428 105.748617 
L 53.012428 94.796236 
L 51.572447 94.796236 
z
" clip-path="url(#p7e6704e773)" style="fill: #0000ff; opacity: 0.5"/>
   </g>
   <g id="patch_10">
    <path d="M 53.012428 105.748617 
L 54.452408 105.748617 
L 54.452408 94.872294 
L 53.012428 94.872294 
z
" clip-path="url(#p7e6704e773)" style="fill: #0000ff; opacity: 0.5"/>
   </g>
   <g id="patch_11">
    <path d="M 54.452408 105.748617 
L 55.892389 105.748617 
L 55.892389 95.556818 
L 54.452408 95.556818 
z
" clip-path="url(#p7e6704e773)" style="fill: #0000ff; opacity: 0.5"/>
   </g>
   <g id="patch_12">
    <path d="M 55.892389 105.748617 
L 57.33237 105.748617 
L 57.33237 95.937109 
L 55.892389 95.937109 
z
" clip-path="url(#p7e6704e773)" style="fill: #0000ff; opacity: 0.5"/>
   </g>
   <g id="patch_13">
    <path d="M 57.33237 105.748617 
L 58.772351 105.748617 
L 58.772351 95.937109 
L 57.33237 95.937109 
z
" clip-path="url(#p7e6704e773)" style="fill: #0000ff; opacity: 0.5"/>
   </g>
   <g id="patch_14">
    <path d="M 58.772351 105.748617 
L 60.212332 105.748617 
L 60.212332 93.731421 
L 58.772351 93.731421 
z
" clip-path="url(#p7e6704e773)" style="fill: #0000ff; opacity: 0.5"/>
   </g>
   <g id="patch_15">
    <path d="M 60.212332 105.748617 
L 61.652313 105.748617 
L 61.652313 97.230098 
L 60.212332 97.230098 
z
" clip-path="url(#p7e6704e773)" style="fill: #0000ff; opacity: 0.5"/>
   </g>
   <g id="patch_16">
    <path d="M 61.652313 105.748617 
L 63.092294 105.748617 
L 63.092294 97.99068 
L 61.652313 97.99068 
z
" clip-path="url(#p7e6704e773)" style="fill: #0000ff; opacity: 0.5"/>
   </g>
   <g id="patch_17">
    <path d="M 63.092294 105.748617 
L 64.532275 105.748617 
L 64.532275 97.458273 
L 63.092294 97.458273 
z
" clip-path="url(#p7e6704e773)" style="fill: #0000ff; opacity: 0.5"/>
   </g>
   <g id="patch_18">
    <path d="M 64.532275 105.748617 
L 65.972256 105.748617 
L 65.972256 97.914622 
L 64.532275 97.914622 
z
" clip-path="url(#p7e6704e773)" style="fill: #0000ff; opacity: 0.5"/>
   </g>
   <g id="patch_19">
    <path d="M 65.972256 105.748617 
L 67.412237 105.748617 
L 67.412237 97.001923 
L 65.972256 97.001923 
z
" clip-path="url(#p7e6704e773)" style="fill: #0000ff; opacity: 0.5"/>
   </g>
   <g id="patch_20">
    <path d="M 67.412237 105.748617 
L 68.852218 105.748617 
L 68.852218 99.740019 
L 67.412237 99.740019 
z
" clip-path="url(#p7e6704e773)" style="fill: #0000ff; opacity: 0.5"/>
   </g>
   <g id="patch_21">
    <path d="M 68.852218 105.748617 
L 70.292199 105.748617 
L 70.292199 99.511844 
L 68.852218 99.511844 
z
" clip-path="url(#p7e6704e773)" style="fill: #0000ff; opacity: 0.5"/>
   </g>
   <g id="patch_22">
    <path d="M 70.292199 105.748617 
L 71.73218 105.748617 
L 71.73218 100.576659 
L 70.292199 100.576659 
z
" clip-path="url(#p7e6704e773)" style="fill: #0000ff; opacity: 0.5"/>
   </g>
   <g id="patch_23">
    <path d="M 71.73218 105.748617 
L 73.172161 105.748617 
L 73.172161 99.968193 
L 71.73218 99.968193 
z
" clip-path="url(#p7e6704e773)" style="fill: #0000ff; opacity: 0.5"/>
   </g>
   <g id="patch_24">
    <path d="M 73.172161 105.748617 
L 74.612142 105.748617 
L 74.612142 98.903379 
L 73.172161 98.903379 
z
" clip-path="url(#p7e6704e773)" style="fill: #0000ff; opacity: 0.5"/>
   </g>
   <g id="patch_25">
    <path d="M 74.612142 105.748617 
L 76.052123 105.748617 
L 76.052123 100.348485 
L 74.612142 100.348485 
z
" clip-path="url(#p7e6704e773)" style="fill: #0000ff; opacity: 0.5"/>
   </g>
   <g id="patch_26">
    <path d="M 76.052123 105.748617 
L 77.492104 105.748617 
L 77.492104 100.196368 
L 76.052123 100.196368 
z
" clip-path="url(#p7e6704e773)" style="fill: #0000ff; opacity: 0.5"/>
   </g>
   <g id="patch_27">
    <path d="M 77.492104 105.748617 
L 78.932084 105.748617 
L 78.932084 100.424543 
L 77.492104 100.424543 
z
" clip-path="url(#p7e6704e773)" style="fill: #0000ff; opacity: 0.5"/>
   </g>
   <g id="patch_28">
    <path d="M 78.932084 105.748617 
L 80.372065 105.748617 
L 80.372065 99.816077 
L 78.932084 99.816077 
z
" clip-path="url(#p7e6704e773)" style="fill: #0000ff; opacity: 0.5"/>
   </g>
   <g id="patch_29">
    <path d="M 80.372065 105.748617 
L 81.812046 105.748617 
L 81.812046 101.033008 
L 80.372065 101.033008 
z
" clip-path="url(#p7e6704e773)" style="fill: #0000ff; opacity: 0.5"/>
   </g>
   <g id="patch_30">
    <path d="M 81.812046 105.748617 
L 83.252027 105.748617 
L 83.252027 99.892135 
L 81.812046 99.892135 
z
" clip-path="url(#p7e6704e773)" style="fill: #0000ff; opacity: 0.5"/>
   </g>
   <g id="patch_31">
    <path d="M 83.252027 105.748617 
L 84.692008 105.748617 
L 84.692008 100.196368 
L 83.252027 100.196368 
z
" clip-path="url(#p7e6704e773)" style="fill: #0000ff; opacity: 0.5"/>
   </g>
   <g id="patch_32">
    <path d="M 84.692008 105.748617 
L 86.131989 105.748617 
L 86.131989 100.348485 
L 84.692008 100.348485 
z
" clip-path="url(#p7e6704e773)" style="fill: #0000ff; opacity: 0.5"/>
   </g>
   <g id="patch_33">
    <path d="M 86.131989 105.748617 
L 87.57197 105.748617 
L 87.57197 100.272426 
L 86.131989 100.272426 
z
" clip-path="url(#p7e6704e773)" style="fill: #0000ff; opacity: 0.5"/>
   </g>
   <g id="patch_34">
    <path d="M 87.57197 105.748617 
L 89.011951 105.748617 
L 89.011951 100.196368 
L 87.57197 100.196368 
z
" clip-path="url(#p7e6704e773)" style="fill: #0000ff; opacity: 0.5"/>
   </g>
   <g id="patch_35">
    <path d="M 89.011951 105.748617 
L 90.451932 105.748617 
L 90.451932 101.565416 
L 89.011951 101.565416 
z
" clip-path="url(#p7e6704e773)" style="fill: #0000ff; opacity: 0.5"/>
   </g>
   <g id="patch_36">
    <path d="M 90.451932 105.748617 
L 91.891913 105.748617 
L 91.891913 101.945707 
L 90.451932 101.945707 
z
" clip-path="url(#p7e6704e773)" style="fill: #0000ff; opacity: 0.5"/>
   </g>
   <g id="patch_37">
    <path d="M 91.891913 105.748617 
L 93.331894 105.748617 
L 93.331894 101.337241 
L 91.891913 101.337241 
z
" clip-path="url(#p7e6704e773)" style="fill: #0000ff; opacity: 0.5"/>
   </g>
   <g id="patch_38">
    <path d="M 93.331894 105.748617 
L 94.771875 105.748617 
L 94.771875 101.717532 
L 93.331894 101.717532 
z
" clip-path="url(#p7e6704e773)" style="fill: #0000ff; opacity: 0.5"/>
   </g>
   <g id="patch_39">
    <path d="M 94.771875 105.748617 
L 96.211856 105.748617 
L 96.211856 102.021765 
L 94.771875 102.021765 
z
" clip-path="url(#p7e6704e773)" style="fill: #0000ff; opacity: 0.5"/>
   </g>
   <g id="patch_40">
    <path d="M 96.211856 105.748617 
L 97.651837 105.748617 
L 97.651837 101.337241 
L 96.211856 101.337241 
z
" clip-path="url(#p7e6704e773)" style="fill: #0000ff; opacity: 0.5"/>
   </g>
   <g id="patch_41">
    <path d="M 97.651837 105.748617 
L 99.091818 105.748617 
L 99.091818 102.097823 
L 97.651837 102.097823 
z
" clip-path="url(#p7e6704e773)" style="fill: #0000ff; opacity: 0.5"/>
   </g>
   <g id="patch_42">
    <path d="M 99.091818 105.748617 
L 100.531799 105.748617 
L 100.531799 101.109067 
L 99.091818 101.109067 
z
" clip-path="url(#p7e6704e773)" style="fill: #0000ff; opacity: 0.5"/>
   </g>
   <g id="patch_43">
    <path d="M 100.531799 105.748617 
L 101.97178 105.748617 
L 101.97178 101.79359 
L 100.531799 101.79359 
z
" clip-path="url(#p7e6704e773)" style="fill: #0000ff; opacity: 0.5"/>
   </g>
   <g id="patch_44">
    <path d="M 101.97178 105.748617 
L 103.41176 105.748617 
L 103.41176 102.706289 
L 101.97178 102.706289 
z
" clip-path="url(#p7e6704e773)" style="fill: #0000ff; opacity: 0.5"/>
   </g>
   <g id="patch_45">
    <path d="M 103.41176 105.748617 
L 104.851741 105.748617 
L 104.851741 102.097823 
L 103.41176 102.097823 
z
" clip-path="url(#p7e6704e773)" style="fill: #0000ff; opacity: 0.5"/>
   </g>
   <g id="patch_46">
    <path d="M 104.851741 105.748617 
L 106.291722 105.748617 
L 106.291722 102.402056 
L 104.851741 102.402056 
z
" clip-path="url(#p7e6704e773)" style="fill: #0000ff; opacity: 0.5"/>
   </g>
   <g id="patch_47">
    <path d="M 106.291722 105.748617 
L 107.731703 105.748617 
L 107.731703 102.858405 
L 106.291722 102.858405 
z
" clip-path="url(#p7e6704e773)" style="fill: #0000ff; opacity: 0.5"/>
   </g>
   <g id="patch_48">
    <path d="M 107.731703 105.748617 
L 109.171684 105.748617 
L 109.171684 101.79359 
L 107.731703 101.79359 
z
" clip-path="url(#p7e6704e773)" style="fill: #0000ff; opacity: 0.5"/>
   </g>
   <g id="patch_49">
    <path d="M 109.171684 105.748617 
L 110.611665 105.748617 
L 110.611665 102.325998 
L 109.171684 102.325998 
z
" clip-path="url(#p7e6704e773)" style="fill: #0000ff; opacity: 0.5"/>
   </g>
   <g id="patch_50">
    <path d="M 110.611665 105.748617 
L 112.051646 105.748617 
L 112.051646 103.390813 
L 110.611665 103.390813 
z
" clip-path="url(#p7e6704e773)" style="fill: #0000ff; opacity: 0.5"/>
   </g>
   <g id="patch_51">
    <path d="M 112.051646 105.748617 
L 113.491627 105.748617 
L 113.491627 103.390813 
L 112.051646 103.390813 
z
" clip-path="url(#p7e6704e773)" style="fill: #0000ff; opacity: 0.5"/>
   </g>
   <g id="patch_52">
    <path d="M 113.491627 105.748617 
L 114.931608 105.748617 
L 114.931608 102.554172 
L 113.491627 102.554172 
z
" clip-path="url(#p7e6704e773)" style="fill: #0000ff; opacity: 0.5"/>
   </g>
   <g id="patch_53">
    <path d="M 114.931608 105.748617 
L 116.371589 105.748617 
L 116.371589 103.695046 
L 114.931608 103.695046 
z
" clip-path="url(#p7e6704e773)" style="fill: #0000ff; opacity: 0.5"/>
   </g>
   <g id="patch_54">
    <path d="M 116.371589 105.748617 
L 117.81157 105.748617 
L 117.81157 103.010522 
L 116.371589 103.010522 
z
" clip-path="url(#p7e6704e773)" style="fill: #0000ff; opacity: 0.5"/>
   </g>
   <g id="patch_55">
    <path d="M 117.81157 105.748617 
L 119.251551 105.748617 
L 119.251551 102.934464 
L 117.81157 102.934464 
z
" clip-path="url(#p7e6704e773)" style="fill: #0000ff; opacity: 0.5"/>
   </g>
   <g id="patch_56">
    <path d="M 119.251551 105.748617 
L 120.691532 105.748617 
L 120.691532 102.173881 
L 119.251551 102.173881 
z
" clip-path="url(#p7e6704e773)" style="fill: #0000ff; opacity: 0.5"/>
   </g>
   <g id="patch_57">
    <path d="M 120.691532 105.748617 
L 122.131513 105.748617 
L 122.131513 102.934464 
L 120.691532 102.934464 
z
" clip-path="url(#p7e6704e773)" style="fill: #0000ff; opacity: 0.5"/>
   </g>
   <g id="patch_58">
    <path d="M 122.131513 105.748617 
L 123.571494 105.748617 
L 123.571494 103.542929 
L 122.131513 103.542929 
z
" clip-path="url(#p7e6704e773)" style="fill: #0000ff; opacity: 0.5"/>
   </g>
   <g id="patch_59">
    <path d="M 123.571494 105.748617 
L 125.011475 105.748617 
L 125.011475 102.402056 
L 123.571494 102.402056 
z
" clip-path="url(#p7e6704e773)" style="fill: #0000ff; opacity: 0.5"/>
   </g>
   <g id="patch_60">
    <path d="M 125.011475 105.748617 
L 126.451456 105.748617 
L 126.451456 102.021765 
L 125.011475 102.021765 
z
" clip-path="url(#p7e6704e773)" style="fill: #0000ff; opacity: 0.5"/>
   </g>
   <g id="patch_61">
    <path d="M 126.451456 105.748617 
L 127.891436 105.748617 
L 127.891436 102.478114 
L 126.451456 102.478114 
z
" clip-path="url(#p7e6704e773)" style="fill: #0000ff; opacity: 0.5"/>
   </g>
   <g id="patch_62">
    <path d="M 127.891436 105.748617 
L 129.331417 105.748617 
L 129.331417 102.173881 
L 127.891436 102.173881 
z
" clip-path="url(#p7e6704e773)" style="fill: #0000ff; opacity: 0.5"/>
   </g>
   <g id="patch_63">
    <path d="M 129.331417 105.748617 
L 130.771398 105.748617 
L 130.771398 103.08658 
L 129.331417 103.08658 
z
" clip-path="url(#p7e6704e773)" style="fill: #0000ff; opacity: 0.5"/>
   </g>
   <g id="patch_64">
    <path d="M 130.771398 105.748617 
L 132.211379 105.748617 
L 132.211379 103.466871 
L 130.771398 103.466871 
z
" clip-path="url(#p7e6704e773)" style="fill: #0000ff; opacity: 0.5"/>
   </g>
   <g id="patch_65">
    <path d="M 132.211379 105.748617 
L 133.65136 105.748617 
L 133.65136 102.934464 
L 132.211379 102.934464 
z
" clip-path="url(#p7e6704e773)" style="fill: #0000ff; opacity: 0.5"/>
   </g>
   <g id="patch_66">
    <path d="M 133.65136 105.748617 
L 135.091341 105.748617 
L 135.091341 102.630231 
L 133.65136 102.630231 
z
" clip-path="url(#p7e6704e773)" style="fill: #0000ff; opacity: 0.5"/>
   </g>
   <g id="patch_67">
    <path d="M 135.091341 105.748617 
L 136.531322 105.748617 
L 136.531322 102.782347 
L 135.091341 102.782347 
z
" clip-path="url(#p7e6704e773)" style="fill: #0000ff; opacity: 0.5"/>
   </g>
   <g id="patch_68">
    <path d="M 136.531322 105.748617 
L 137.971303 105.748617 
L 137.971303 103.618987 
L 136.531322 103.618987 
z
" clip-path="url(#p7e6704e773)" style="fill: #0000ff; opacity: 0.5"/>
   </g>
   <g id="patch_69">
    <path d="M 137.971303 105.748617 
L 139.411284 105.748617 
L 139.411284 102.402056 
L 137.971303 102.402056 
z
" clip-path="url(#p7e6704e773)" style="fill: #0000ff; opacity: 0.5"/>
   </g>
   <g id="patch_70">
    <path d="M 139.411284 105.748617 
L 140.851265 105.748617 
L 140.851265 101.945707 
L 139.411284 101.945707 
z
" clip-path="url(#p7e6704e773)" style="fill: #0000ff; opacity: 0.5"/>
   </g>
   <g id="patch_71">
    <path d="M 140.851265 105.748617 
L 142.291246 105.748617 
L 142.291246 102.173881 
L 140.851265 102.173881 
z
" clip-path="url(#p7e6704e773)" style="fill: #0000ff; opacity: 0.5"/>
   </g>
   <g id="patch_72">
    <path d="M 142.291246 105.748617 
L 143.731227 105.748617 
L 143.731227 102.021765 
L 142.291246 102.021765 
z
" clip-path="url(#p7e6704e773)" style="fill: #0000ff; opacity: 0.5"/>
   </g>
   <g id="patch_73">
    <path d="M 143.731227 105.748617 
L 145.171208 105.748617 
L 145.171208 102.630231 
L 143.731227 102.630231 
z
" clip-path="url(#p7e6704e773)" style="fill: #0000ff; opacity: 0.5"/>
   </g>
   <g id="patch_74">
    <path d="M 145.171208 105.748617 
L 146.611189 105.748617 
L 146.611189 103.010522 
L 145.171208 103.010522 
z
" clip-path="url(#p7e6704e773)" style="fill: #0000ff; opacity: 0.5"/>
   </g>
   <g id="patch_75">
    <path d="M 146.611189 105.748617 
L 148.05117 105.748617 
L 148.05117 102.630231 
L 146.611189 102.630231 
z
" clip-path="url(#p7e6704e773)" style="fill: #0000ff; opacity: 0.5"/>
   </g>
   <g id="patch_76">
    <path d="M 148.05117 105.748617 
L 149.491151 105.748617 
L 149.491151 102.097823 
L 148.05117 102.097823 
z
" clip-path="url(#p7e6704e773)" style="fill: #0000ff; opacity: 0.5"/>
   </g>
   <g id="patch_77">
    <path d="M 149.491151 105.748617 
L 150.931132 105.748617 
L 150.931132 101.413299 
L 149.491151 101.413299 
z
" clip-path="url(#p7e6704e773)" style="fill: #0000ff; opacity: 0.5"/>
   </g>
   <g id="patch_78">
    <path d="M 150.931132 105.748617 
L 152.371112 105.748617 
L 152.371112 102.934464 
L 150.931132 102.934464 
z
" clip-path="url(#p7e6704e773)" style="fill: #0000ff; opacity: 0.5"/>
   </g>
   <g id="patch_79">
    <path d="M 152.371112 105.748617 
L 153.811093 105.748617 
L 153.811093 102.478114 
L 152.371112 102.478114 
z
" clip-path="url(#p7e6704e773)" style="fill: #0000ff; opacity: 0.5"/>
   </g>
   <g id="patch_80">
    <path d="M 153.811093 105.748617 
L 155.251074 105.748617 
L 155.251074 102.097823 
L 153.811093 102.097823 
z
" clip-path="url(#p7e6704e773)" style="fill: #0000ff; opacity: 0.5"/>
   </g>
   <g id="patch_81">
    <path d="M 155.251074 105.748617 
L 156.691055 105.748617 
L 156.691055 102.554172 
L 155.251074 102.554172 
z
" clip-path="url(#p7e6704e773)" style="fill: #0000ff; opacity: 0.5"/>
   </g>
   <g id="patch_82">
    <path d="M 156.691055 105.748617 
L 158.131036 105.748617 
L 158.131036 101.413299 
L 156.691055 101.413299 
z
" clip-path="url(#p7e6704e773)" style="fill: #0000ff; opacity: 0.5"/>
   </g>
   <g id="patch_83">
    <path d="M 158.131036 105.748617 
L 159.571017 105.748617 
L 159.571017 101.717532 
L 158.131036 101.717532 
z
" clip-path="url(#p7e6704e773)" style="fill: #0000ff; opacity: 0.5"/>
   </g>
   <g id="patch_84">
    <path d="M 159.571017 105.748617 
L 161.010998 105.748617 
L 161.010998 101.413299 
L 159.571017 101.413299 
z
" clip-path="url(#p7e6704e773)" style="fill: #0000ff; opacity: 0.5"/>
   </g>
   <g id="patch_85">
    <path d="M 161.010998 105.748617 
L 162.450979 105.748617 
L 162.450979 100.576659 
L 161.010998 100.576659 
z
" clip-path="url(#p7e6704e773)" style="fill: #0000ff; opacity: 0.5"/>
   </g>
   <g id="patch_86">
    <path d="M 162.450979 105.748617 
L 163.89096 105.748617 
L 163.89096 101.033008 
L 162.450979 101.033008 
z
" clip-path="url(#p7e6704e773)" style="fill: #0000ff; opacity: 0.5"/>
   </g>
   <g id="patch_87">
    <path d="M 163.89096 105.748617 
L 165.330941 105.748617 
L 165.330941 101.489358 
L 163.89096 101.489358 
z
" clip-path="url(#p7e6704e773)" style="fill: #0000ff; opacity: 0.5"/>
   </g>
   <g id="patch_88">
    <path d="M 165.330941 105.748617 
L 166.770922 105.748617 
L 166.770922 99.740019 
L 165.330941 99.740019 
z
" clip-path="url(#p7e6704e773)" style="fill: #0000ff; opacity: 0.5"/>
   </g>
   <g id="patch_89">
    <path d="M 166.770922 105.748617 
L 168.210903 105.748617 
L 168.210903 98.218855 
L 166.770922 98.218855 
z
" clip-path="url(#p7e6704e773)" style="fill: #0000ff; opacity: 0.5"/>
   </g>
   <g id="patch_90">
    <path d="M 168.210903 105.748617 
L 169.650884 105.748617 
L 169.650884 98.066738 
L 168.210903 98.066738 
z
" clip-path="url(#p7e6704e773)" style="fill: #0000ff; opacity: 0.5"/>
   </g>
   <g id="patch_91">
    <path d="M 169.650884 105.748617 
L 171.090865 105.748617 
L 171.090865 96.165283 
L 169.650884 96.165283 
z
" clip-path="url(#p7e6704e773)" style="fill: #0000ff; opacity: 0.5"/>
   </g>
   <g id="patch_92">
    <path d="M 171.090865 105.748617 
L 172.530846 105.748617 
L 172.530846 95.556818 
L 171.090865 95.556818 
z
" clip-path="url(#p7e6704e773)" style="fill: #0000ff; opacity: 0.5"/>
   </g>
   <g id="patch_93">
    <path d="M 172.530846 105.748617 
L 173.970827 105.748617 
L 173.970827 94.492003 
L 172.530846 94.492003 
z
" clip-path="url(#p7e6704e773)" style="fill: #0000ff; opacity: 0.5"/>
   </g>
   <g id="patch_94">
    <path d="M 173.970827 105.748617 
L 175.410808 105.748617 
L 175.410808 92.05814 
L 173.970827 92.05814 
z
" clip-path="url(#p7e6704e773)" style="fill: #0000ff; opacity: 0.5"/>
   </g>
   <g id="patch_95">
    <path d="M 175.410808 105.748617 
L 176.850788 105.748617 
L 176.850788 96.469516 
L 175.410808 96.469516 
z
" clip-path="url(#p7e6704e773)" style="fill: #0000ff; opacity: 0.5"/>
   </g>
   <g id="patch_96">
    <path d="M 176.850788 105.748617 
L 178.290769 105.748617 
L 178.290769 100.044252 
L 176.850788 100.044252 
z
" clip-path="url(#p7e6704e773)" style="fill: #0000ff; opacity: 0.5"/>
   </g>
   <g id="patch_97">
    <path d="M 178.290769 105.748617 
L 179.73075 105.748617 
L 179.73075 99.435786 
L 178.290769 99.435786 
z
" clip-path="url(#p7e6704e773)" style="fill: #0000ff; opacity: 0.5"/>
   </g>
   <g id="patch_98">
    <path d="M 179.73075 105.748617 
L 181.170731 105.748617 
L 181.170731 99.435786 
L 179.73075 99.435786 
z
" clip-path="url(#p7e6704e773)" style="fill: #0000ff; opacity: 0.5"/>
   </g>
   <g id="patch_99">
    <path d="M 181.170731 105.748617 
L 182.610712 105.748617 
L 182.610712 98.218855 
L 181.170731 98.218855 
z
" clip-path="url(#p7e6704e773)" style="fill: #0000ff; opacity: 0.5"/>
   </g>
   <g id="patch_100">
    <path d="M 182.610712 105.748617 
L 184.050693 105.748617 
L 184.050693 93.959595 
L 182.610712 93.959595 
z
" clip-path="url(#p7e6704e773)" style="fill: #0000ff; opacity: 0.5"/>
   </g>
   <g id="patch_101">
    <path d="M 184.050693 105.748617 
L 185.490674 105.748617 
L 185.490674 101.565416 
L 184.050693 101.565416 
z
" clip-path="url(#p7e6704e773)" style="fill: #0000ff; opacity: 0.5"/>
   </g>
   <g id="patch_102">
    <path d="M 185.490674 105.748617 
L 186.930655 105.748617 
L 186.930655 105.140151 
L 185.490674 105.140151 
z
" clip-path="url(#p7e6704e773)" style="fill: #0000ff; opacity: 0.5"/>
   </g>
   <g id="patch_103">
    <path d="M 35.732656 105.748617 
L 35.732656 7.2 
" style="fill: none; stroke: #cccccc; stroke-linejoin: miter; stroke-linecap: square"/>
   </g>
   <g id="patch_104">
    <path d="M 194.13056 105.748617 
L 194.13056 7.2 
" style="fill: none; stroke: #cccccc; stroke-linejoin: miter; stroke-linecap: square"/>
   </g>
   <g id="patch_105">
    <path d="M 35.732656 105.748617 
L 194.13056 105.748617 
" style="fill: none; stroke: #cccccc; stroke-linejoin: miter; stroke-linecap: square"/>
   </g>
   <g id="patch_106">
    <path d="M 35.732656 7.2 
L 194.13056 7.2 
" style="fill: none; stroke: #cccccc; stroke-linejoin: miter; stroke-linecap: square"/>
   </g>
  </g>
  <g id="axes_2">
   <g id="matplotlib.axis_3">
    <g id="ytick_7">
     <g id="line2d_25">
      <path d="M 35.732656 101.269135 
L 194.13056 101.269135 
" clip-path="url(#p7e6704e773)" style="fill: none; stroke: #cccccc; stroke-opacity: 0.3; stroke-width: 0.8; stroke-linecap: round"/>
     </g>
     <g id="line2d_26"/>
     <g id="text_15">
      <!-- 0.0 -->
      <g style="fill: #ff0000" transform="translate(197.63056 103.774369) scale(0.07 -0.07)">
       <use xlink:href="#ArialMT-30"/>
       <use xlink:href="#ArialMT-2e" x="55.615234"/>
       <use xlink:href="#ArialMT-30" x="83.398438"/>
      </g>
     </g>
    </g>
    <g id="ytick_8">
     <g id="line2d_27">
      <path d="M 35.732656 83.351204 
L 194.13056 83.351204 
" clip-path="url(#p7e6704e773)" style="fill: none; stroke: #cccccc; stroke-opacity: 0.3; stroke-width: 0.8; stroke-linecap: round"/>
     </g>
     <g id="line2d_28"/>
     <g id="text_16">
      <!-- 0.2 -->
      <g style="fill: #ff0000" transform="translate(197.63056 85.856439) scale(0.07 -0.07)">
       <use xlink:href="#ArialMT-30"/>
       <use xlink:href="#ArialMT-2e" x="55.615234"/>
       <use xlink:href="#ArialMT-32" x="83.398438"/>
      </g>
     </g>
    </g>
    <g id="ytick_9">
     <g id="line2d_29">
      <path d="M 35.732656 65.433274 
L 194.13056 65.433274 
" clip-path="url(#p7e6704e773)" style="fill: none; stroke: #cccccc; stroke-opacity: 0.3; stroke-width: 0.8; stroke-linecap: round"/>
     </g>
     <g id="line2d_30"/>
     <g id="text_17">
      <!-- 0.4 -->
      <g style="fill: #ff0000" transform="translate(197.63056 67.938508) scale(0.07 -0.07)">
       <use xlink:href="#ArialMT-30"/>
       <use xlink:href="#ArialMT-2e" x="55.615234"/>
       <use xlink:href="#ArialMT-34" x="83.398438"/>
      </g>
     </g>
    </g>
    <g id="ytick_10">
     <g id="line2d_31">
      <path d="M 35.732656 47.515343 
L 194.13056 47.515343 
" clip-path="url(#p7e6704e773)" style="fill: none; stroke: #cccccc; stroke-opacity: 0.3; stroke-width: 0.8; stroke-linecap: round"/>
     </g>
     <g id="line2d_32"/>
     <g id="text_18">
      <!-- 0.6 -->
      <g style="fill: #ff0000" transform="translate(197.63056 50.020578) scale(0.07 -0.07)">
       <use xlink:href="#ArialMT-30"/>
       <use xlink:href="#ArialMT-2e" x="55.615234"/>
       <use xlink:href="#ArialMT-36" x="83.398438"/>
      </g>
     </g>
    </g>
    <g id="ytick_11">
     <g id="line2d_33">
      <path d="M 35.732656 29.597413 
L 194.13056 29.597413 
" clip-path="url(#p7e6704e773)" style="fill: none; stroke: #cccccc; stroke-opacity: 0.3; stroke-width: 0.8; stroke-linecap: round"/>
     </g>
     <g id="line2d_34"/>
     <g id="text_19">
      <!-- 0.8 -->
      <g style="fill: #ff0000" transform="translate(197.63056 32.102647) scale(0.07 -0.07)">
       <use xlink:href="#ArialMT-30"/>
       <use xlink:href="#ArialMT-2e" x="55.615234"/>
       <use xlink:href="#ArialMT-38" x="83.398438"/>
      </g>
     </g>
    </g>
    <g id="ytick_12">
     <g id="line2d_35">
      <path d="M 35.732656 11.679483 
L 194.13056 11.679483 
" clip-path="url(#p7e6704e773)" style="fill: none; stroke: #cccccc; stroke-opacity: 0.3; stroke-width: 0.8; stroke-linecap: round"/>
     </g>
     <g id="line2d_36"/>
     <g id="text_20">
      <!-- 1.0 -->
      <g style="fill: #ff0000" transform="translate(197.63056 14.184717) scale(0.07 -0.07)">
       <use xlink:href="#ArialMT-31"/>
       <use xlink:href="#ArialMT-2e" x="55.615234"/>
       <use xlink:href="#ArialMT-30" x="83.398438"/>
      </g>
     </g>
    </g>
    <g id="text_21">
     <!-- Cumulative Probability -->
     <g style="fill: #ff0000" transform="translate(217.18431 96.267434) rotate(-90) scale(0.08 -0.08)">
      <defs>
       <path id="ArialMT-43" d="M 3763 1606 
L 4369 1453 
Q 4178 706 3683 314 
Q 3188 -78 2472 -78 
Q 1731 -78 1267 223 
Q 803 525 561 1097 
Q 319 1669 319 2325 
Q 319 3041 592 3573 
Q 866 4106 1370 4382 
Q 1875 4659 2481 4659 
Q 3169 4659 3637 4309 
Q 4106 3959 4291 3325 
L 3694 3184 
Q 3534 3684 3231 3912 
Q 2928 4141 2469 4141 
Q 1941 4141 1586 3887 
Q 1231 3634 1087 3207 
Q 944 2781 944 2328 
Q 944 1744 1114 1308 
Q 1284 872 1643 656 
Q 2003 441 2422 441 
Q 2931 441 3284 734 
Q 3638 1028 3763 1606 
z
" transform="scale(0.015625)"/>
       <path id="ArialMT-75" d="M 2597 0 
L 2597 488 
Q 2209 -75 1544 -75 
Q 1250 -75 995 37 
Q 741 150 617 320 
Q 494 491 444 738 
Q 409 903 409 1263 
L 409 3319 
L 972 3319 
L 972 1478 
Q 972 1038 1006 884 
Q 1059 663 1231 536 
Q 1403 409 1656 409 
Q 1909 409 2131 539 
Q 2353 669 2445 892 
Q 2538 1116 2538 1541 
L 2538 3319 
L 3100 3319 
L 3100 0 
L 2597 0 
z
" transform="scale(0.015625)"/>
       <path id="ArialMT-6d" d="M 422 0 
L 422 3319 
L 925 3319 
L 925 2853 
Q 1081 3097 1340 3245 
Q 1600 3394 1931 3394 
Q 2300 3394 2536 3241 
Q 2772 3088 2869 2813 
Q 3263 3394 3894 3394 
Q 4388 3394 4653 3120 
Q 4919 2847 4919 2278 
L 4919 0 
L 4359 0 
L 4359 2091 
Q 4359 2428 4304 2576 
Q 4250 2725 4106 2815 
Q 3963 2906 3769 2906 
Q 3419 2906 3187 2673 
Q 2956 2441 2956 1928 
L 2956 0 
L 2394 0 
L 2394 2156 
Q 2394 2531 2256 2718 
Q 2119 2906 1806 2906 
Q 1569 2906 1367 2781 
Q 1166 2656 1075 2415 
Q 984 2175 984 1722 
L 984 0 
L 422 0 
z
" transform="scale(0.015625)"/>
       <path id="ArialMT-76" d="M 1344 0 
L 81 3319 
L 675 3319 
L 1388 1331 
Q 1503 1009 1600 663 
Q 1675 925 1809 1294 
L 2547 3319 
L 3125 3319 
L 1869 0 
L 1344 0 
z
" transform="scale(0.015625)"/>
      </defs>
      <use xlink:href="#ArialMT-43"/>
      <use xlink:href="#ArialMT-75" x="72.216797"/>
      <use xlink:href="#ArialMT-6d" x="127.832031"/>
      <use xlink:href="#ArialMT-75" x="211.132812"/>
      <use xlink:href="#ArialMT-6c" x="266.748047"/>
      <use xlink:href="#ArialMT-61" x="288.964844"/>
      <use xlink:href="#ArialMT-74" x="344.580078"/>
      <use xlink:href="#ArialMT-69" x="372.363281"/>
      <use xlink:href="#ArialMT-76" x="394.580078"/>
      <use xlink:href="#ArialMT-65" x="444.580078"/>
      <use xlink:href="#ArialMT-20" x="500.195312"/>
      <use xlink:href="#ArialMT-50" x="527.978516"/>
      <use xlink:href="#ArialMT-72" x="594.677734"/>
      <use xlink:href="#ArialMT-6f" x="627.978516"/>
      <use xlink:href="#ArialMT-62" x="683.59375"/>
      <use xlink:href="#ArialMT-61" x="739.208984"/>
      <use xlink:href="#ArialMT-62" x="794.824219"/>
      <use xlink:href="#ArialMT-69" x="850.439453"/>
      <use xlink:href="#ArialMT-6c" x="872.65625"/>
      <use xlink:href="#ArialMT-69" x="894.873047"/>
      <use xlink:href="#ArialMT-74" x="917.089844"/>
      <use xlink:href="#ArialMT-79" x="944.873047"/>
     </g>
    </g>
   </g>
   <g id="line2d_37">
    <path d="M 42.932561 101.269135 
L 43.627354 92.364231 
L 44.805564 87.355861 
L 44.886349 87.151854 
L 45.061225 86.662237 
L 46.802617 83.132917 
L 47.233442 82.480094 
L 47.376827 82.255687 
L 47.512171 82.06188 
L 48.03814 81.276453 
L 48.504476 80.695034 
L 48.629101 80.521628 
L 48.824747 80.256419 
L 48.966792 80.072812 
L 49.101467 79.919807 
L 49.297784 79.777002 
L 49.644186 79.348588 
L 49.981208 79.083379 
L 50.277358 78.767168 
L 50.368481 78.654964 
L 50.546038 78.481558 
L 51.539012 77.390121 
L 51.706518 77.216715 
L 51.917576 77.012708 
L 52.290109 76.594494 
L 53.109547 75.758065 
L 53.225461 75.656062 
L 53.402348 75.482656 
L 53.510891 75.411254 
L 53.648246 75.248048 
L 59.979968 69.076838 
L 60.134743 68.85243 
L 60.838938 68.240409 
L 61.220852 67.924199 
L 63.409148 66.343145 
L 64.474486 65.516917 
L 64.920051 65.302709 
L 65.565954 64.813093 
L 66.136144 64.354077 
L 66.993774 63.599251 
L 67.096957 63.517648 
L 67.45475 63.242239 
L 68.086582 62.885227 
L 68.394793 62.732222 
L 69.076207 62.334408 
L 69.358957 62.171203 
L 69.689948 62.007997 
L 69.938527 61.844792 
L 70.357962 61.610184 
L 71.309395 61.161368 
L 71.434689 61.049164 
L 71.846754 60.865558 
L 71.960658 60.804356 
L 73.052796 60.222936 
L 73.230352 60.161734 
L 73.524493 59.978128 
L 73.949958 59.702719 
L 74.079272 59.570114 
L 74.416964 59.355907 
L 74.851139 59.111098 
L 74.985814 59.039696 
L 75.526523 58.764287 
L 75.600225 58.703084 
L 76.270249 58.417475 
L 76.551659 58.26447 
L 77.346306 57.856456 
L 77.472941 57.785053 
L 77.748321 57.632048 
L 79.585525 56.693616 
L 79.705459 56.632414 
L 80.039131 56.479409 
L 80.157055 56.377405 
L 81.4368 55.795985 
L 81.632447 55.653181 
L 81.978179 55.520576 
L 82.197276 55.449174 
L 82.379523 55.306369 
L 82.559089 55.173764 
L 82.87266 55.030959 
L 84.179876 54.398538 
L 84.522928 54.235332 
L 84.730635 54.061926 
L 85.024105 53.898721 
L 85.15275 53.847719 
L 85.390608 53.684514 
L 85.514563 53.602911 
L 85.942038 53.429505 
L 88.388293 52.225864 
L 88.768867 52.011657 
L 88.915602 51.940254 
L 89.338387 51.766848 
L 90.038561 51.481238 
L 90.711935 51.287432 
L 91.985649 50.787615 
L 92.087493 50.757014 
L 92.376273 50.604009 
L 92.490847 50.563207 
L 93.016815 50.3388 
L 93.372598 50.236796 
L 93.788012 50.083791 
L 94.529058 49.787981 
L 95.095898 49.583974 
L 95.227223 49.532972 
L 96.904292 48.900551 
L 97.239973 48.757746 
L 97.70899 48.60474 
L 97.986379 48.461936 
L 98.57131 48.257929 
L 98.743506 48.196727 
L 99.1482 48.115124 
L 99.667468 47.870315 
L 99.759262 47.829514 
L 100.183386 47.635707 
L 100.932473 47.401099 
L 103.177721 46.636073 
L 103.741211 46.442267 
L 105.469872 45.860847 
L 106.174066 45.697641 
L 106.27457 45.626239 
L 109.71715 44.524601 
L 109.827704 44.4838 
L 110.26791 44.320595 
L 110.313471 44.300194 
L 111.12554 44.136988 
L 112.089034 43.922781 
L 113.547675 43.58617 
L 115.878016 43.01495 
L 117.173171 42.678339 
L 117.644198 42.566135 
L 118.192277 42.42333 
L 118.28608 42.392729 
L 119.148401 42.168321 
L 119.794303 42.015316 
L 120.739036 41.668504 
L 121.40705 41.484898 
L 121.803034 41.393095 
L 122.754467 41.138086 
L 122.755137 41.127886 
L 123.745432 40.95448 
L 123.881447 40.903478 
L 125.094189 40.536266 
L 125.218143 40.475064 
L 125.676439 40.322058 
L 126.566901 40.005848 
L 127.240274 39.832442 
L 127.733411 39.679436 
L 129.075468 39.159219 
L 129.886867 39.016414 
L 132.097274 38.496196 
L 132.736477 38.31259 
L 132.868471 38.261588 
L 133.952569 38.02698 
L 134.083894 38.006579 
L 134.716396 37.792372 
L 137.087609 37.159951 
L 138.25814 36.904942 
L 138.335863 36.864141 
L 138.896003 36.690735 
L 140.54292 36.129716 
L 141.586147 35.864506 
L 141.6766 35.803304 
L 142.2421 35.589097 
L 142.376774 35.538095 
L 142.806259 35.354489 
L 143.208944 35.201484 
L 144.106775 34.926075 
L 144.159037 34.905674 
L 145.017337 34.701667 
L 145.67932 34.49766 
L 146.632764 34.273252 
L 146.723217 34.232451 
L 147.121211 34.089646 
L 159.362539 30.009507 
L 160.066064 29.713697 
L 160.381645 29.570892 
L 160.51029 29.51989 
L 161.135422 29.285282 
L 163.702952 28.081641 
L 164.346844 27.887835 
L 164.831271 27.663427 
L 164.971306 27.592025 
L 165.284207 27.45942 
L 165.776004 27.255413 
L 166.068804 27.082007 
L 166.584052 26.786197 
L 166.685896 26.724995 
L 167.038998 26.490387 
L 167.635319 26.00077 
L 167.746543 25.908967 
L 170.096315 24.22591 
L 170.196149 24.144307 
L 170.401846 24.021903 
L 170.51709 23.909699 
L 170.862152 23.603689 
L 170.966676 23.481285 
L 171.09867 23.318079 
L 173.305728 21.196407 
L 173.418962 21.084203 
L 174.658505 19.574552 
L 174.780449 19.370545 
L 174.939245 19.156337 
L 175.481964 18.523916 
L 175.591848 18.35051 
L 176.80593 17.422278 
L 176.849482 17.371276 
L 177.101411 17.228472 
L 178.037434 16.779656 
L 178.657205 16.463446 
L 178.760389 16.412444 
L 179.08468 16.218637 
L 179.343979 16.045231 
L 179.607299 15.851425 
L 179.748674 15.739221 
L 180.420707 15.443411 
L 180.565432 15.351608 
L 180.78051 15.198602 
L 180.913174 15.147601 
L 181.123562 14.994596 
L 183.118222 13.484944 
L 183.833137 12.48531 
L 184.555422 12.026294 
L 184.649895 11.944692 
L 185.896809 11.699883 
L 186.930655 11.679483 
L 186.930655 11.679483 
" clip-path="url(#p7e6704e773)" style="fill: none; stroke: #ff0000; stroke-linecap: round"/>
   </g>
   <g id="patch_107">
    <path d="M 35.732656 105.748617 
L 35.732656 7.2 
" style="fill: none; stroke: #cccccc; stroke-linejoin: miter; stroke-linecap: square"/>
   </g>
   <g id="patch_108">
    <path d="M 194.13056 105.748617 
L 194.13056 7.2 
" style="fill: none; stroke: #cccccc; stroke-linejoin: miter; stroke-linecap: square"/>
   </g>
   <g id="patch_109">
    <path d="M 35.732656 105.748617 
L 194.13056 105.748617 
" style="fill: none; stroke: #cccccc; stroke-linejoin: miter; stroke-linecap: square"/>
   </g>
   <g id="patch_110">
    <path d="M 35.732656 7.2 
L 194.13056 7.2 
" style="fill: none; stroke: #cccccc; stroke-linejoin: miter; stroke-linecap: square"/>
   </g>
  </g>
 </g>
 <defs>
  <clipPath id="p7e6704e773">
   <rect x="35.732656" y="7.2" width="158.397904" height="98.548617"/>
  </clipPath>
 </defs>
</svg>
