<?xml version="1.0" encoding="UTF-8" standalone="no"?>
<!-- Created with Inkscape (http://www.inkscape.org/) -->

<svg
   width="16.851191mm"
   height="16.269018mm"
   viewBox="0 0 16.851191 16.269018"
   version="1.1"
   id="svg1"
   inkscape:version="1.3 (0e150ed6c4, 2023-07-21)"
   sodipodi:docname="Ren_sources_model.svg"
   inkscape:export-filename="Ren_sources_model.pdf"
   inkscape:export-xdpi="96"
   inkscape:export-ydpi="96"
   xmlns:inkscape="http://www.inkscape.org/namespaces/inkscape"
   xmlns:sodipodi="http://sodipodi.sourceforge.net/DTD/sodipodi-0.dtd"
   xmlns="http://www.w3.org/2000/svg"
   xmlns:svg="http://www.w3.org/2000/svg">
  <sodipodi:namedview
     id="namedview1"
     pagecolor="#ffffff"
     bordercolor="#000000"
     borderopacity="0.25"
     inkscape:showpageshadow="2"
     inkscape:pageopacity="0.0"
     inkscape:pagecheckerboard="0"
     inkscape:deskcolor="#d1d1d1"
     inkscape:document-units="mm"
     inkscape:zoom="11.313709"
     inkscape:cx="23.643882"
     inkscape:cy="27.709746"
     inkscape:window-width="1920"
     inkscape:window-height="1009"
     inkscape:window-x="1912"
     inkscape:window-y="-8"
     inkscape:window-maximized="1"
     inkscape:current-layer="g3" />
  <defs
     id="defs1">
    <marker
       inkscape:collect="always"
       inkscape:isstock="true"
       style="overflow:visible"
       id="TriangleInM-2-4-7"
       refX="0"
       refY="0"
       orient="auto"
       inkscape:stockid="TriangleInM">
      <path
         transform="scale(-0.4)"
         style="fill:context-stroke;fill-rule:evenodd;stroke:context-stroke;stroke-width:1pt"
         d="M 5.77,0 -2.88,5 V -5 Z"
         id="path5871-6-3-9" />
    </marker>
    <marker
       inkscape:collect="always"
       inkscape:isstock="true"
       style="overflow:visible"
       id="TriangleInM-2-4-1"
       refX="0"
       refY="0"
       orient="auto"
       inkscape:stockid="TriangleInM">
      <path
         transform="scale(-0.4)"
         style="fill:context-stroke;fill-rule:evenodd;stroke:context-stroke;stroke-width:1pt"
         d="M 5.77,0 -2.88,5 V -5 Z"
         id="path5871-6-3-95" />
    </marker>
    <marker
       inkscape:collect="always"
       inkscape:isstock="true"
       style="overflow:visible"
       id="TriangleInM-2-4-7-5"
       refX="0"
       refY="0"
       orient="auto"
       inkscape:stockid="TriangleInM">
      <path
         transform="scale(-0.4)"
         style="fill:context-stroke;fill-rule:evenodd;stroke:context-stroke;stroke-width:1pt"
         d="M 5.77,0 -2.88,5 V -5 Z"
         id="path5871-6-3-9-8" />
    </marker>
  </defs>
  <g
     inkscape:label="Layer 1"
     inkscape:groupmode="layer"
     id="layer1"
     transform="translate(-61.548021,-100.29534)">
    <rect
       style="fill:none;stroke:none;stroke-width:0.0450948;stroke-linecap:square;stroke-dasharray:none;stroke-dashoffset:0"
       id="rect8"
       width="16.806095"
       height="16.223923"
       x="61.570568"
       y="100.31789" />
    <g
       id="g2"
       transform="translate(-0.36109244,1.8330536)" />
    <g
       id="g3"
       transform="translate(-0.29226694,-0.83078821)">
      <g
         id="g10389"
         transform="matrix(-0.34828784,0,0,0.34828784,207.80535,119.88403)"
         style="display:inline">
        <path
           style="fill:none;stroke:#000000;stroke-width:0.264583px;stroke-linecap:round;stroke-linejoin:round;stroke-opacity:1"
           d="m 407.45833,-33.0729 0.52917,-6.35 h 0.52917 l 0.52916,6.35 z"
           id="path10200-7"
           sodipodi:nodetypes="ccccc" />
        <path
           style="fill:none;stroke:#000000;stroke-width:0.264583px;stroke-linecap:round;stroke-linejoin:round;stroke-opacity:1"
           d="m 408.25208,-39.422892 c -0.30003,-1.04883 -0.53867,-3.049662 -0.019,-4.26624 0.43231,1.277977 0.67095,3.278801 0.019,4.26624"
           id="path10217-6"
           sodipodi:nodetypes="ccc" />
        <path
           style="fill:none;stroke:#000000;stroke-width:0.264583px;stroke-linecap:round;stroke-linejoin:round;stroke-opacity:1"
           d="m 411.95625,-37.306226 c -1.05833,-0.264573 -2.91042,-1.058331 -3.70417,-2.116666 1.32292,0.264588 3.175,1.058341 3.70417,2.116666"
           id="path10217-5-5"
           sodipodi:nodetypes="ccc" />
        <path
           style="fill:none;stroke:#000000;stroke-width:0.264583px;stroke-linecap:round;stroke-linejoin:round;stroke-opacity:1"
           d="m 404.5669,-37.273326 c 0.7583,-0.784248 2.37175,-1.991332 3.68518,-2.149574 -0.89061,1.01339 -2.50405,2.220459 -3.68518,2.149574"
           id="path10217-4-6"
           sodipodi:nodetypes="ccc" />
        <ellipse
           ry="0.39901915"
           rx="0.40116644"
           cy="-39.422901"
           cx="408.25208"
           id="path5953-610-9"
           style="opacity:1;fill:#ffffff;fill-opacity:1;stroke:#000000;stroke-width:0.256;stroke-linecap:round;stroke-linejoin:round;stroke-miterlimit:4;stroke-dasharray:none;stroke-dashoffset:0;stroke-opacity:1;paint-order:normal" />
      </g>
      <path
         inkscape:connector-curvature="0"
         id="path5718-1-2-1-5"
         d="M 76.176846,107.8001 H 67.591417"
         style="display:inline;fill:none;stroke:#000000;stroke-width:0.15;stroke-linecap:square;stroke-linejoin:round;stroke-miterlimit:4;stroke-dasharray:none;stroke-opacity:1" />
      <g
         transform="matrix(-0.28624776,0,0,0.28624776,105.24896,134.54045)"
         id="g26250">
        <path
           style="fill:none;stroke:#000000;stroke-width:0.264583px;stroke-linecap:round;stroke-linejoin:miter;stroke-opacity:1"
           d="m 112.44792,-65.479174 h 7.9375"
           id="path5633-3"
           inkscape:connector-curvature="0" />
        <path
           style="fill:none;stroke:#000000;stroke-width:0.264583px;stroke-linecap:round;stroke-linejoin:miter;stroke-opacity:1"
           d="m 120.38542,-73.416674 h -7.9375"
           id="path5635-6"
           inkscape:connector-curvature="0" />
        <path
           style="fill:none;stroke:#000000;stroke-width:0.264583px;stroke-linecap:round;stroke-linejoin:miter;stroke-opacity:1"
           d="m 120.38542,-65.479174 v -7.9375"
           id="path5637-7"
           inkscape:connector-curvature="0" />
        <path
           style="fill:none;stroke:#000000;stroke-width:0.264583px;stroke-linecap:round;stroke-linejoin:miter;stroke-opacity:1"
           d="m 112.44792,-65.479174 v -7.9375"
           id="path5639-5"
           inkscape:connector-curvature="0" />
        <path
           style="fill:none;stroke:#000000;stroke-width:0.264583px;stroke-linecap:round;stroke-linejoin:miter;stroke-opacity:1"
           d="m 112.44792,-65.479174 7.9375,-7.9375"
           id="path5641-3"
           inkscape:connector-curvature="0" />
        <path
           style="fill:none;stroke:#000000;stroke-width:0.265;stroke-linecap:round;stroke-linejoin:round;stroke-miterlimit:4;stroke-dasharray:none;stroke-opacity:1"
           d="m 116.41667,-67.860427 h 2.64583"
           id="path5718-8-1"
           inkscape:connector-curvature="0"
           sodipodi:nodetypes="cc" />
        <path
           style="fill:none;stroke:#000000;stroke-width:0.265;stroke-linecap:round;stroke-linejoin:round;stroke-miterlimit:4;stroke-dasharray:none;stroke-opacity:1"
           d="M 116.41667,-67.199187 H 117.475"
           id="path5718-8-0-0"
           inkscape:connector-curvature="0"
           sodipodi:nodetypes="cc" />
        <path
           style="fill:none;stroke:#000000;stroke-width:0.265;stroke-linecap:round;stroke-linejoin:round;stroke-miterlimit:4;stroke-dasharray:none;stroke-opacity:1"
           d="m 118.00417,-67.199187 h 1.05833"
           id="path5718-8-0-4-4"
           inkscape:connector-curvature="0"
           sodipodi:nodetypes="cc" />
        <path
           style="fill:none;stroke:#000000;stroke-width:0.265;stroke-linecap:round;stroke-linejoin:round;stroke-miterlimit:4;stroke-dasharray:none;stroke-opacity:1"
           d="m 116.41667,-71.829177 c -1.32292,-1.322917 -1.32292,1.322917 -2.64584,0"
           id="path5718-8-5"
           inkscape:connector-curvature="0"
           sodipodi:nodetypes="cc" />
      </g>
      <rect
         style="fill:#000000;stroke:#000000;stroke-width:0.0274815;stroke-linecap:round;stroke-linejoin:round;stroke-miterlimit:4;stroke-dasharray:none;stroke-dashoffset:0;paint-order:normal"
         id="rect10042-4"
         width="1.1947668"
         height="0.25205287"
         x="-115.25851"
         y="74.96701"
         transform="rotate(-90)" />
      <rect
         style="fill:#000000;stroke:#000000;stroke-width:0.0274815;stroke-linecap:round;stroke-linejoin:round;stroke-miterlimit:4;stroke-dasharray:none;stroke-dashoffset:0;paint-order:normal"
         id="rect10042-4-7"
         width="1.1947668"
         height="0.25205287"
         x="-115.25851"
         y="68.687851"
         transform="rotate(-90)" />
      <rect
         style="fill:#000000;stroke:#000000;stroke-width:0.0274815;stroke-linecap:round;stroke-linejoin:round;stroke-miterlimit:4;stroke-dasharray:none;stroke-dashoffset:0;paint-order:normal"
         id="rect10042-4-5"
         width="1.1947668"
         height="0.25205287"
         x="-108.39748"
         y="74.96701"
         transform="rotate(-90)" />
      <g
         id="text5564-9-8-4-8-4"
         style="font-style:italic;font-size:0.881944px;line-height:1.25;font-family:NewComputerModernSans10;-inkscape-font-specification:NewComputerModernSans10;letter-spacing:0px;word-spacing:0px;stroke-width:0.065129"
         transform="scale(0.95622965,1.0457739)"
         aria-label="ni">
        <path
           d="m 78.564951,104.32833 0.05556,-0.26282 c 0.01235,-0.0582 0.01676,-0.13846 -0.09084,-0.13846 -0.07937,0 -0.13582,0.06 -0.141993,0.067 l 0.01323,-0.0626 h -0.0635 l -0.08467,0.39687 h 0.06879 l 0.04586,-0.21608 c 0.01235,-0.0582 0.05027,-0.1314 0.117299,-0.1314 0.08467,0 0.07232,0.0626 0.06614,0.0908 l -0.05468,0.25664 z"
           id="path6" />
        <path
           style="baseline-shift:sub"
           d="m 78.774853,104.50472 0.0829,-0.39158 h -0.06615 l -0.0829,0.39158 z m 0.112889,-0.49918 0.01676,-0.0785 h -0.07849 l -0.01676,0.0785 z"
           id="path7" />
      </g>
      <g
         id="text5564-9-8-4-8-4-0"
         style="font-style:italic;font-size:0.881944px;line-height:1.25;font-family:NewComputerModernSans10;-inkscape-font-specification:NewComputerModernSans10;letter-spacing:0px;word-spacing:0px;stroke-width:0.065129"
         transform="scale(0.95622965,1.0457739)"
         aria-label="ni">
        <path
           d="m 78.564951,110.76977 0.05556,-0.26282 c 0.01235,-0.0582 0.01676,-0.13847 -0.09084,-0.13847 -0.07937,0 -0.13582,0.06 -0.141993,0.067 l 0.01323,-0.0626 h -0.0635 l -0.08467,0.39688 h 0.06879 l 0.04586,-0.21608 c 0.01235,-0.0582 0.05027,-0.13141 0.117299,-0.13141 0.08467,0 0.07232,0.0626 0.06614,0.0908 l -0.05468,0.25665 z"
           id="path12" />
        <path
           style="baseline-shift:sub"
           d="m 78.774853,110.94616 0.0829,-0.39159 h -0.06615 l -0.0829,0.39159 z m 0.112889,-0.49918 0.01676,-0.0785 h -0.07849 l -0.01676,0.0785 z"
           id="path13" />
      </g>
      <g
         id="text5564-9-8-4-8-4-7"
         style="font-style:italic;font-size:0.881944px;line-height:1.25;font-family:NewComputerModernSans10;-inkscape-font-specification:NewComputerModernSans10;letter-spacing:0px;word-spacing:0px;stroke-width:0.065129"
         transform="scale(0.95622965,1.0457739)"
         aria-label="nd">
        <path
           d="m 71.879938,110.76977 0.05556,-0.26282 c 0.01235,-0.0582 0.01676,-0.13847 -0.09084,-0.13847 -0.07937,0 -0.135819,0.06 -0.141993,0.067 l 0.01323,-0.0626 h -0.0635 l -0.08467,0.39688 h 0.06879 l 0.04586,-0.21608 c 0.01235,-0.0582 0.05027,-0.13141 0.117299,-0.13141 0.08467,0 0.07232,0.0626 0.06615,0.0908 l -0.05468,0.25665 z"
           id="path14" />
        <path
           style="baseline-shift:sub"
           d="m 72.335021,110.94616 0.130528,-0.61207 h -0.06615 l -0.05556,0.25929 c -0.0388,-0.0388 -0.08555,-0.0485 -0.11818,-0.0485 -0.08731,0 -0.175507,0.0917 -0.200201,0.20549 -0.02469,0.11554 0.02469,0.2055 0.108479,0.2055 0.0291,0 0.0829,-0.008 0.141993,-0.0556 l -0.0097,0.0459 z m -0.04233,-0.12259 c -0.0026,0.0123 -0.0071,0.0282 -0.04057,0.0538 -0.02469,0.0176 -0.04762,0.0247 -0.07055,0.0247 -0.05468,0 -0.110243,-0.0415 -0.08731,-0.15081 0.02469,-0.11642 0.108479,-0.15258 0.160514,-0.15258 0.03969,0 0.06174,0.0203 0.07497,0.0485 z"
           id="path15" />
      </g>
      <path
         inkscape:connector-curvature="0"
         id="path5718-1-2-1-5-8"
         d="M 70.688604,114.65816 H 67.681848"
         style="display:inline;fill:none;stroke:#000000;stroke-width:0.15;stroke-linecap:square;stroke-linejoin:round;stroke-miterlimit:4;stroke-dasharray:none;stroke-opacity:1" />
      <path
         inkscape:connector-curvature="0"
         id="path5718-1-2-1-5-8-7"
         d="M 76.160604,114.65962 H 73.1555"
         style="display:inline;fill:none;stroke:#000000;stroke-width:0.15;stroke-linecap:square;stroke-linejoin:round;stroke-miterlimit:4;stroke-dasharray:none;stroke-opacity:1" />
      <g
         id="text5564-9-8-1-9-2-9"
         style="font-size:1.75376px;line-height:1.25;font-family:NewComputerModernSans10;letter-spacing:0px;word-spacing:0px;stroke-width:0.164414"
         transform="scale(0.95622965,1.0457739)"
         aria-label="γPrg">
        <path
           style="font-size:1.76389px;-inkscape-font-specification:NewComputerModernSans10"
           d="m 69.34891,107.04572 h 0.148167 c 0.0053,-0.0265 0.0194,-0.0406 0.04057,-0.0459 0.0194,0.005 0.03528,0.0159 0.04939,0.0318 0.02646,0.0335 0.05644,0.11465 0.08819,0.24165 0.03175,0.11994 0.04763,0.20638 0.04763,0.25929 0,0.005 -0.0035,0.0212 -0.0088,0.0476 -0.01764,0.0794 -0.02646,0.16757 -0.02646,0.26105 0,0.0688 0.04057,0.11289 0.102305,0.11289 0.06879,0 0.102306,-0.0388 0.102306,-0.11465 0,-0.0582 -0.0071,-0.15346 -0.02293,-0.28928 0,-0.0159 0.0088,-0.0529 0.02646,-0.11112 0.03175,-0.11289 0.119944,-0.31927 0.183444,-0.38453 0.03351,-0.0335 0.07585,-0.0529 0.127,-0.0547 v -0.14993 c -0.09525,0.004 -0.179916,0.0547 -0.254,0.15169 -0.04057,0.0564 -0.08996,0.14817 -0.144639,0.27517 -0.03351,-0.10936 -0.06174,-0.18874 -0.08467,-0.23989 -0.03881,-0.0882 -0.09701,-0.18697 -0.188737,-0.18697 -0.109361,0 -0.183444,0.0882 -0.185208,0.19579 z"
           id="path16" />
        <path
           style="font-style:italic;-inkscape-font-specification:NewComputerModernSans10"
           d="m 71.485077,106.78965 c 0.03858,-0.18766 -0.09821,-0.35426 -0.340229,-0.35426 h -0.436686 l -0.259557,1.21711 h 0.156085 l 0.106979,-0.50684 h 0.292878 c 0.217466,0 0.43844,-0.15959 0.48053,-0.35601 z m -0.142054,0 c -0.02981,0.13854 -0.164854,0.25429 -0.366536,0.25429 h -0.24728 l 0.108733,-0.51034 h 0.24728 c 0.192914,0 0.289371,0.10698 0.257803,0.25605 z"
           id="path17" />
        <path
           style="font-size:1.13994px;baseline-shift:sub"
           d="m 71.773657,107.56893 v -0.0844 c -0.08094,0.001 -0.145912,0.0331 -0.19265,0.098 v -0.0923 h -0.08664 v 0.51297 h 0.09119 v -0.24395 c 0,-0.11171 0.07866,-0.18695 0.18809,-0.19037 z m 0.08664,0.10374 c 0,0.0422 0.01254,0.0787 0.03648,0.11171 -0.02166,0.0308 -0.03192,0.0627 -0.03192,0.0957 0,0.0319 0.0091,0.0604 0.02736,0.0844 -0.04674,0.0285 -0.06954,0.0684 -0.06954,0.11741 0,0.0513 0.03078,0.0912 0.09234,0.12084 0.04902,0.0239 0.101455,0.0353 0.159591,0.0353 0.05814,0 0.111715,-0.0114 0.160732,-0.0353 0.06156,-0.0296 0.09234,-0.0707 0.09234,-0.12198 0,-0.0536 -0.0171,-0.0912 -0.05244,-0.11399 -0.03762,-0.0239 -0.07182,-0.0388 -0.103735,-0.0422 -0.03534,-0.003 -0.06156,-0.006 -0.07865,-0.006 h -0.09918 c -0.0399,0 -0.06042,-0.0182 -0.06042,-0.0547 0,-0.0137 0.0034,-0.0251 0.0091,-0.0342 0.03078,0.0205 0.06384,0.0308 0.101455,0.0308 0.102595,0 0.18353,-0.0855 0.18353,-0.18809 0,-0.0388 -0.01026,-0.0741 -0.03192,-0.10716 0.01368,0 0.06384,-0.005 0.07752,-0.005 0.01368,0 0.03762,0.001 0.07182,0.005 l -0.01368,-0.0809 c -0.06498,0 -0.125393,0.0114 -0.180111,0.0353 -0.03078,-0.0239 -0.06612,-0.0353 -0.107154,-0.0353 -0.102594,0 -0.18353,0.0855 -0.18353,0.18809 z m 0.279285,0 c 0,0.0239 -0.0011,0.0399 -0.0034,0.0479 -0.01026,0.0342 -0.0513,0.0673 -0.09234,0.0673 -0.0627,0 -0.09575,-0.0502 -0.09575,-0.11513 0,-0.065 0.03306,-0.11514 0.09575,-0.11514 0.0627,0 0.09575,0.0502 0.09575,0.11514 z m -0.147052,0.33628 h 0.101454 c 0.09803,0 0.147053,0.0251 0.147053,0.0741 0,0.0285 -0.02166,0.0502 -0.06498,0.065 -0.03192,0.0114 -0.06498,0.0171 -0.100315,0.0171 -0.03534,0 -0.06954,-0.006 -0.100314,-0.0171 -0.04332,-0.0148 -0.06498,-0.0376 -0.06498,-0.0661 0,-0.0433 0.03306,-0.073 0.08208,-0.073 z"
           id="path18" />
      </g>
      <path
         inkscape:connector-curvature="0"
         id="path5718-7-5-3-2-2"
         d="M 68.781731,113.47393 H 67.21675"
         style="fill:none;stroke:#000000;stroke-width:0.1;stroke-linecap:round;stroke-linejoin:round;stroke-miterlimit:4;stroke-dasharray:none;stroke-opacity:1;marker-start:url(#TriangleInM-2-4-7)" />
      <path
         inkscape:connector-curvature="0"
         id="path5718-7-5-3-2-5"
         d="M 75.193301,113.47393 H 73.62832"
         style="fill:none;stroke:#000000;stroke-width:0.1;stroke-linecap:round;stroke-linejoin:round;stroke-miterlimit:4;stroke-dasharray:none;stroke-opacity:1;marker-start:url(#TriangleInM-2-4-1)" />
      <g
         id="text5564-9-8-1-9-2-9-6"
         style="font-size:1.75376px;line-height:1.25;font-family:NewComputerModernSans10;letter-spacing:0px;word-spacing:0px;stroke-width:0.164414"
         transform="scale(0.95622965,1.0457739)"
         aria-label="γPrg ">
        <path
           style="font-size:1.76389px;-inkscape-font-specification:NewComputerModernSans10"
           d="m 76.053965,98.554431 h 0.148167 c 0.0053,-0.02646 0.0194,-0.04057 0.04057,-0.04586 0.0194,0.0053 0.03528,0.01587 0.04939,0.03175 0.02646,0.03351 0.05644,0.114653 0.08819,0.241653 0.03175,0.119944 0.04762,0.206375 0.04762,0.259292 0,0.0053 -0.0035,0.02117 -0.0088,0.04763 -0.01764,0.07937 -0.02646,0.167569 -0.02646,0.261055 0,0.06879 0.04057,0.112889 0.102306,0.112889 0.06879,0 0.102305,-0.0388 0.102305,-0.114653 0,-0.05821 -0.0071,-0.153458 -0.02293,-0.289278 0,-0.01587 0.0088,-0.05292 0.02646,-0.111125 0.03175,-0.112889 0.119944,-0.319264 0.183445,-0.384528 0.03351,-0.03351 0.07585,-0.05292 0.127,-0.05468 v -0.149931 c -0.09525,0.0035 -0.179917,0.05468 -0.254001,0.151695 -0.04057,0.05644 -0.08996,0.148166 -0.144639,0.275167 -0.03351,-0.109362 -0.06174,-0.188737 -0.08467,-0.23989 -0.03881,-0.08819 -0.09701,-0.186972 -0.188736,-0.186972 -0.109362,0 -0.183445,0.08819 -0.185209,0.195792 z"
           id="path1" />
        <path
           style="font-style:italic;-inkscape-font-specification:NewComputerModernSans10"
           d="m 78.190133,98.298359 c 0.03858,-0.187652 -0.09821,-0.354259 -0.34023,-0.354259 h -0.436686 l -0.259557,1.217109 h 0.156085 l 0.106979,-0.506837 h 0.292878 c 0.217467,0 0.43844,-0.159592 0.480531,-0.356013 z m -0.142055,0 c -0.02981,0.138547 -0.164853,0.254295 -0.366536,0.254295 h -0.24728 l 0.108733,-0.510344 h 0.24728 c 0.192914,0 0.289371,0.10698 0.257803,0.256049 z"
           id="path2" />
        <path
           style="font-size:1.13994px;baseline-shift:sub"
           d="m 78.478712,99.077644 v -0.08436 c -0.08093,0.0011 -0.145912,0.03306 -0.192649,0.09803 v -0.09234 h -0.08664 v 0.512973 h 0.09119 v -0.243947 c 0,-0.111714 0.07866,-0.18695 0.18809,-0.19037 z m 0.08664,0.103734 c 0,0.04218 0.01254,0.07866 0.03648,0.111715 -0.02166,0.03078 -0.03192,0.0627 -0.03192,0.09575 0,0.03192 0.0091,0.06042 0.02736,0.08436 -0.04674,0.0285 -0.06954,0.0684 -0.06954,0.117414 0,0.0513 0.03078,0.09119 0.09233,0.120834 0.04902,0.02394 0.101455,0.03534 0.159592,0.03534 0.05814,0 0.111714,-0.0114 0.160731,-0.03534 0.06156,-0.02964 0.09234,-0.07068 0.09234,-0.121974 0,-0.05358 -0.0171,-0.09119 -0.05244,-0.113994 -0.03762,-0.02394 -0.07182,-0.03876 -0.103734,-0.04218 -0.03534,-0.0034 -0.06156,-0.0057 -0.07866,-0.0057 h -0.09918 c -0.0399,0 -0.06042,-0.01824 -0.06042,-0.05472 0,-0.01368 0.0034,-0.02508 0.0091,-0.0342 0.03078,0.02052 0.06384,0.03078 0.101454,0.03078 0.102595,0 0.183531,-0.0855 0.183531,-0.188091 0,-0.03876 -0.01026,-0.0741 -0.03192,-0.107154 0.01368,0 0.06384,-0.0046 0.07752,-0.0046 0.01368,0 0.03762,0.0011 0.07182,0.0046 l -0.01368,-0.08094 c -0.06498,0 -0.125393,0.0114 -0.18011,0.03534 -0.03078,-0.02394 -0.06612,-0.03534 -0.107155,-0.03534 -0.102594,0 -0.18353,0.0855 -0.18353,0.18809 z m 0.279285,0 c 0,0.02394 -0.0011,0.0399 -0.0034,0.04788 -0.01026,0.0342 -0.0513,0.06726 -0.09233,0.06726 -0.0627,0 -0.09575,-0.05016 -0.09575,-0.115134 0,-0.06498 0.03306,-0.115133 0.09575,-0.115133 0.0627,0 0.09575,0.05016 0.09575,0.115133 z m -0.147052,0.336283 h 0.101455 c 0.09803,0 0.147052,0.02508 0.147052,0.0741 0,0.0285 -0.02166,0.05016 -0.06498,0.06498 -0.03192,0.0114 -0.06498,0.0171 -0.100314,0.0171 -0.03534,0 -0.06954,-0.0057 -0.100315,-0.0171 -0.04332,-0.01482 -0.06498,-0.03762 -0.06498,-0.06612 0,-0.04332 0.03306,-0.07296 0.08208,-0.07296 z"
           id="path3" />
      </g>
      <path
         inkscape:connector-curvature="0"
         id="path5718-7-5-3-2-2-0"
         d="M 75.193301,106.71063 H 73.62832"
         style="fill:none;stroke:#000000;stroke-width:0.1;stroke-linecap:round;stroke-linejoin:round;stroke-miterlimit:4;stroke-dasharray:none;stroke-opacity:1;marker-start:url(#TriangleInM-2-4-7-5)" />
      <g
         id="text5564-9-8-1-9-2-0"
         style="font-size:1.75376px;line-height:1.25;font-family:NewComputerModernSans10;letter-spacing:0px;word-spacing:0px;stroke-width:0.164414"
         transform="scale(0.95622965,1.0457739)"
         aria-label="Pcn">
        <path
           style="font-style:italic;-inkscape-font-specification:NewComputerModernSans10"
           d="m 78.147956,105.2108 c 0.03858,-0.18766 -0.09821,-0.35426 -0.340229,-0.35426 H 77.37104 l -0.259556,1.21711 h 0.156084 l 0.10698,-0.50684 h 0.292878 c 0.217466,0 0.43844,-0.15959 0.48053,-0.35601 z m -0.142055,0 c -0.02981,0.13854 -0.164853,0.25429 -0.366535,0.25429 h -0.247281 l 0.108734,-0.51034 h 0.24728 c 0.192913,0 0.28937,0.10698 0.257802,0.25605 z"
           id="path8" />
        <path
           style="font-size:1.13994px;baseline-shift:sub"
           d="m 78.200568,106.17019 c 0,-0.10487 0.0513,-0.19037 0.155032,-0.19037 0.05358,0 0.107154,0.0171 0.160732,0.0524 l 0.01596,-0.0832 c -0.05928,-0.0331 -0.118554,-0.0502 -0.177831,-0.0502 -0.07296,0 -0.132233,0.0274 -0.17897,0.0809 -0.04674,0.0536 -0.07068,0.11742 -0.07068,0.19151 0,0.0718 0.0228,0.13337 0.0684,0.18467 0.04674,0.0536 0.106014,0.0809 0.17669,0.0809 0.06726,0 0.129954,-0.0194 0.186951,-0.0593 l -0.008,-0.0866 c -0.05472,0.0433 -0.113994,0.065 -0.177831,0.065 -0.09575,0 -0.150472,-0.0855 -0.150472,-0.18581 z m 0.665726,-0.18695 c 0.0741,0 0.103734,0.0365 0.103734,0.11058 v 0.33058 h 0.09575 v -0.33856 c 0,-0.1197 -0.05244,-0.18011 -0.157312,-0.18011 -0.0627,0 -0.115134,0.0251 -0.157311,0.0764 v -0.0707 h -0.08892 v 0.51297 h 0.09575 v -0.27929 c 0,-0.0821 0.03306,-0.16187 0.108295,-0.16187 z"
           id="path9" />
      </g>
      <g
         id="text5564-9-8-1-9-2-0-1"
         style="font-size:1.75376px;line-height:1.25;font-family:NewComputerModernSans10;letter-spacing:0px;word-spacing:0px;stroke-width:0.164414"
         transform="scale(0.95622965,1.0457739)"
         aria-label="Qcn">
        <path
           style="font-style:italic;-inkscape-font-specification:NewComputerModernSans10"
           d="m 78.091838,107.04746 c 0.07892,-0.36829 -0.115748,-0.65064 -0.406873,-0.65064 -0.298139,0 -0.606801,0.28586 -0.68572,0.65064 -0.07892,0.3718 0.122763,0.64363 0.408626,0.64363 0.02806,0 0.0947,-0.002 0.175376,-0.0316 l 0.105226,0.2122 h 0.180637 l -0.149069,-0.27709 c 0.222727,-0.14907 0.333214,-0.36303 0.371797,-0.54718 z m -0.150824,0 c -0.0228,0.114 -0.08593,0.30516 -0.273586,0.44897 l -0.09996,-0.18415 h -0.156085 l 0.124517,0.25079 c 0,0 -0.05086,0.0158 -0.101718,0.0158 -0.206944,0 -0.352506,-0.20519 -0.284109,-0.53139 0.07015,-0.32795 0.306908,-0.5384 0.510344,-0.5384 0.210451,0 0.350752,0.21396 0.280601,0.5384 z"
           id="path10" />
        <path
           style="font-size:1.13994px;baseline-shift:sub"
           d="m 78.20057,107.74906 c 0,-0.10488 0.0513,-0.19037 0.155032,-0.19037 0.05358,0 0.107155,0.0171 0.160732,0.0524 l 0.01596,-0.0832 c -0.05928,-0.0331 -0.118554,-0.0502 -0.177831,-0.0502 -0.07296,0 -0.132233,0.0274 -0.17897,0.0809 -0.04674,0.0536 -0.07068,0.11741 -0.07068,0.19151 0,0.0718 0.0228,0.13337 0.0684,0.18467 0.04674,0.0536 0.106014,0.0809 0.176691,0.0809 0.06726,0 0.129953,-0.0194 0.18695,-0.0593 l -0.008,-0.0866 c -0.05472,0.0433 -0.113994,0.065 -0.17783,0.065 -0.09576,0 -0.150473,-0.0855 -0.150473,-0.18581 z m 0.665726,-0.18695 c 0.0741,0 0.103734,0.0365 0.103734,0.11057 v 0.33058 h 0.09576 v -0.33856 c 0,-0.11969 -0.05244,-0.18011 -0.157311,-0.18011 -0.0627,0 -0.115134,0.0251 -0.157312,0.0764 v -0.0707 h -0.08892 v 0.51297 h 0.09575 v -0.27928 c 0,-0.0821 0.03306,-0.16187 0.108295,-0.16187 z"
           id="path11" />
      </g>
      <g
         id="text5564-9-8-1-9-2-0-1-1"
         style="font-size:1.75376px;line-height:1.25;font-family:NewComputerModernSans10;letter-spacing:0px;word-spacing:0px;stroke-width:0.164414"
         transform="scale(0.95622965,1.0457739)"
         aria-label="Qrg">
        <path
           style="font-style:italic;-inkscape-font-specification:NewComputerModernSans10"
           d="m 78.151111,100.31851 c 0.07892,-0.368293 -0.115749,-0.650649 -0.406873,-0.650649 -0.298139,0 -0.606801,0.285863 -0.68572,0.650649 -0.07892,0.37179 0.122763,0.64363 0.408626,0.64363 0.02806,0 0.0947,-0.002 0.175376,-0.0316 l 0.105226,0.2122 h 0.180637 l -0.14907,-0.27709 c 0.222728,-0.14907 0.333215,-0.36303 0.371798,-0.54717 z m -0.150824,0 c -0.0228,0.11399 -0.08593,0.30515 -0.273586,0.44896 l -0.09997,-0.18415 h -0.156084 l 0.124517,0.25079 c 0,0 -0.05086,0.0158 -0.101718,0.0158 -0.206944,0 -0.352506,-0.20519 -0.28411,-0.53139 0.07015,-0.327957 0.306908,-0.538408 0.510345,-0.538408 0.210451,0 0.350752,0.213959 0.280601,0.538408 z"
           id="path4" />
        <path
           style="font-size:1.13994px;baseline-shift:sub"
           d="m 78.495811,100.83999 v -0.0844 c -0.08094,0.001 -0.145912,0.0331 -0.19265,0.098 v -0.0923 h -0.08664 v 0.51298 h 0.09119 v -0.24395 c 0,-0.11172 0.07866,-0.18695 0.18809,-0.19037 z m 0.08664,0.10373 c 0,0.0422 0.01254,0.0787 0.03648,0.11172 -0.02166,0.0308 -0.03192,0.0627 -0.03192,0.0957 0,0.0319 0.0091,0.0604 0.02736,0.0844 -0.04674,0.0285 -0.06954,0.0684 -0.06954,0.11741 0,0.0513 0.03078,0.0912 0.09234,0.12083 0.04902,0.0239 0.101454,0.0353 0.159591,0.0353 0.05814,0 0.111714,-0.0114 0.160732,-0.0353 0.06156,-0.0296 0.09234,-0.0707 0.09234,-0.12197 0,-0.0536 -0.0171,-0.0912 -0.05244,-0.11399 -0.03762,-0.0239 -0.07182,-0.0388 -0.103735,-0.0422 -0.03534,-0.003 -0.06156,-0.006 -0.07866,-0.006 h -0.09918 c -0.0399,0 -0.06042,-0.0182 -0.06042,-0.0547 0,-0.0137 0.0034,-0.0251 0.0091,-0.0342 0.03078,0.0205 0.06384,0.0308 0.101455,0.0308 0.102594,0 0.18353,-0.0855 0.18353,-0.18809 0,-0.0388 -0.01026,-0.0741 -0.03192,-0.10715 0.01368,0 0.06384,-0.005 0.07752,-0.005 0.01368,0 0.03762,0.001 0.07182,0.005 l -0.01368,-0.0809 c -0.06498,0 -0.125394,0.0114 -0.180111,0.0353 -0.03078,-0.0239 -0.06612,-0.0353 -0.107154,-0.0353 -0.102595,0 -0.183531,0.0855 -0.183531,0.18809 z m 0.279286,0 c 0,0.0239 -0.0011,0.0399 -0.0034,0.0479 -0.01026,0.0342 -0.0513,0.0673 -0.09233,0.0673 -0.0627,0 -0.09576,-0.0502 -0.09576,-0.11514 0,-0.065 0.03306,-0.11513 0.09576,-0.11513 0.0627,0 0.09575,0.0502 0.09575,0.11513 z m -0.147053,0.33629 h 0.101455 c 0.09803,0 0.147052,0.0251 0.147052,0.0741 0,0.0285 -0.02166,0.0502 -0.06498,0.065 -0.03192,0.0114 -0.06498,0.0171 -0.100315,0.0171 -0.03534,0 -0.06954,-0.006 -0.100315,-0.0171 -0.04332,-0.0148 -0.06498,-0.0376 -0.06498,-0.0661 0,-0.0433 0.03306,-0.0729 0.08208,-0.0729 z"
           id="path5" />
      </g>
      <g
         id="g10019"
         transform="matrix(0.39460237,0,0,0.39460237,-86.557785,118.04034)">
        <path
           inkscape:connector-curvature="0"
           id="path5718-09"
           d="m 383.64583,-13.22915 h 3.96875"
           style="fill:none;stroke:#000000;stroke-width:0.264999;stroke-linecap:round;stroke-linejoin:round;stroke-miterlimit:4;stroke-dasharray:none;stroke-opacity:1"
           sodipodi:nodetypes="cc" />
        <path
           inkscape:connector-curvature="0"
           id="path5718-09-3"
           d="m 382.85208,-9.2604 h 5.55625"
           style="fill:none;stroke:#000000;stroke-width:0.264999;stroke-linecap:round;stroke-linejoin:round;stroke-miterlimit:4;stroke-dasharray:none;stroke-opacity:1"
           sodipodi:nodetypes="cc" />
        <path
           inkscape:connector-curvature="0"
           id="path5718-09-3-6"
           d="m 383.11667,-10.583317 h 5.02708"
           style="fill:none;stroke:#000000;stroke-width:0.264999;stroke-linecap:round;stroke-linejoin:round;stroke-miterlimit:4;stroke-dasharray:none;stroke-opacity:1"
           sodipodi:nodetypes="cc" />
        <path
           inkscape:connector-curvature="0"
           id="path5718-09-3-0"
           d="m 383.38125,-11.906233 h 4.49792"
           style="fill:none;stroke:#000000;stroke-width:0.264999;stroke-linecap:round;stroke-linejoin:round;stroke-miterlimit:4;stroke-dasharray:none;stroke-opacity:1"
           sodipodi:nodetypes="cc" />
        <path
           inkscape:connector-curvature="0"
           id="path5718-09-3-62"
           d="m 382.85208,-9.2604 0.79375,-3.96875"
           style="fill:none;stroke:#000000;stroke-width:0.264999;stroke-linecap:round;stroke-linejoin:round;stroke-miterlimit:4;stroke-dasharray:none;stroke-opacity:1"
           sodipodi:nodetypes="cc" />
        <path
           inkscape:connector-curvature="0"
           id="path5718-09-3-62-6"
           d="m 388.40833,-9.2604 -0.79375,-3.96875"
           style="fill:none;stroke:#000000;stroke-width:0.264999;stroke-linecap:round;stroke-linejoin:round;stroke-miterlimit:4;stroke-dasharray:none;stroke-opacity:1"
           sodipodi:nodetypes="cc" />
        <path
           inkscape:connector-curvature="0"
           id="path5718-09-3-6-1"
           d="m 384.96875,-13.22915 -0.52917,3.96875"
           style="fill:none;stroke:#000000;stroke-width:0.264999;stroke-linecap:round;stroke-linejoin:round;stroke-miterlimit:4;stroke-dasharray:none;stroke-opacity:1"
           sodipodi:nodetypes="cc" />
        <path
           inkscape:connector-curvature="0"
           id="path5718-09-3-6-1-8"
           d="m 386.29167,-13.22915 0.26458,3.96875"
           style="fill:none;stroke:#000000;stroke-width:0.264999;stroke-linecap:round;stroke-linejoin:round;stroke-miterlimit:4;stroke-dasharray:none;stroke-opacity:1"
           sodipodi:nodetypes="cc" />
        <path
           inkscape:connector-curvature="0"
           id="path5718-09-3-6-1-7"
           d="m 384.43958,-7.9374833 h 2.11667"
           style="fill:none;stroke:#000000;stroke-width:0.264999;stroke-linecap:round;stroke-linejoin:round;stroke-miterlimit:4;stroke-dasharray:none;stroke-opacity:1"
           sodipodi:nodetypes="cc" />
        <path
           inkscape:connector-curvature="0"
           id="path5718-09-3-6-1-7-9"
           d="m 384.43958,-8.2020667 h 2.11667"
           style="fill:none;stroke:#000000;stroke-width:0.264999;stroke-linecap:round;stroke-linejoin:round;stroke-miterlimit:4;stroke-dasharray:none;stroke-opacity:1"
           sodipodi:nodetypes="cc" />
        <path
           inkscape:connector-curvature="0"
           id="path5718-09-3-6-1-7-2"
           d="m 385.10125,-9.2604 v 1.0583333"
           style="fill:none;stroke:#000000;stroke-width:0.264999;stroke-linecap:round;stroke-linejoin:round;stroke-miterlimit:4;stroke-dasharray:none;stroke-opacity:1"
           sodipodi:nodetypes="cc" />
        <path
           inkscape:connector-curvature="0"
           id="path5718-09-3-6-1-7-2-0"
           d="m 385.89458,-9.2603983 v 1.05833"
           style="fill:none;stroke:#000000;stroke-width:0.265;stroke-linecap:round;stroke-linejoin:round;stroke-miterlimit:4;stroke-dasharray:none;stroke-opacity:1"
           sodipodi:nodetypes="cc" />
        <path
           inkscape:connector-curvature="0"
           id="path5718-09-3-6-1-7-9-2"
           d="M 386.55625,-7.9374833 V -8.2020667"
           style="fill:none;stroke:#000000;stroke-width:0.264999;stroke-linecap:round;stroke-linejoin:round;stroke-miterlimit:4;stroke-dasharray:none;stroke-opacity:1"
           sodipodi:nodetypes="cc" />
        <path
           inkscape:connector-curvature="0"
           id="path5718-09-3-6-1-7-9-2-3"
           d="m 384.43958,-7.9374867 v -0.26458"
           style="fill:none;stroke:#000000;stroke-width:0.264999;stroke-linecap:round;stroke-linejoin:round;stroke-miterlimit:4;stroke-dasharray:none;stroke-opacity:1"
           sodipodi:nodetypes="cc" />
      </g>
    </g>
  </g>
</svg>
