<?xml version="1.0" encoding="UTF-8" standalone="no"?>
<!-- Created with Inkscape (http://www.inkscape.org/) -->

<svg
   width="7.6539803mm"
   height="6.670053mm"
   viewBox="0 0 7.6539802 6.6700532"
   version="1.1"
   id="svg1"
   sodipodi:docname="Solid_Biomass.svg"
   inkscape:version="1.3 (0e150ed6c4, 2023-07-21)"
   inkscape:export-filename="Solid Biomass.png"
   inkscape:export-xdpi="96"
   inkscape:export-ydpi="96"
   xml:space="preserve"
   xmlns:inkscape="http://www.inkscape.org/namespaces/inkscape"
   xmlns:sodipodi="http://sodipodi.sourceforge.net/DTD/sodipodi-0.dtd"
   xmlns="http://www.w3.org/2000/svg"
   xmlns:svg="http://www.w3.org/2000/svg"><sodipodi:namedview
     id="namedview1"
     pagecolor="#1e1e1e"
     bordercolor="#000000"
     borderopacity="0.25"
     inkscape:showpageshadow="2"
     inkscape:pageopacity="0.0"
     inkscape:pagecheckerboard="0"
     inkscape:deskcolor="#d1d1d1"
     inkscape:document-units="mm"
     inkscape:zoom="11.588215"
     inkscape:cx="-5.6522942"
     inkscape:cy="21.271611"
     inkscape:window-width="1920"
     inkscape:window-height="1009"
     inkscape:window-x="1912"
     inkscape:window-y="-8"
     inkscape:window-maximized="1"
     inkscape:current-layer="layer1" /><defs
     id="defs1" /><g
     inkscape:label="Layer 1"
     inkscape:groupmode="layer"
     id="layer1"
     transform="translate(-73.667356,-132.84361)"><g
       id="g10389"
       transform="translate(-331.67419,175.05473)"
       style="stroke-width:0.1;stroke-dasharray:none"><path
         style="fill:#000000;stroke:#ffffff;stroke-width:0.1;stroke-dasharray:none"
         d="m 407.81439,-36.13614 -0.0317,-0.03165 v -0.266084 c 0,-0.146346 -0.004,-0.266168 -0.008,-0.266272 -0.0419,-9.69e-4 -0.16505,-0.03737 -0.22056,-0.06518 -0.0848,-0.04247 -0.13676,-0.08417 -0.26454,-0.212158 -0.0821,-0.08219 -0.1086,-0.117709 -0.15389,-0.205925 -0.16867,-0.328507 -0.21519,-0.525624 -0.24106,-1.021444 -0.0127,-0.242521 -0.0278,-0.362299 -0.0698,-0.552154 -0.0713,-0.321943 -0.15706,-0.574062 -0.27741,-0.815241 -0.0619,-0.124103 -0.0672,-0.167987 -0.0244,-0.201671 0.0616,-0.04848 0.0939,-0.03162 0.29627,0.1549 l 0.1245,0.114747 0.0126,-0.284082 c 0.0221,-0.497837 0.078,-0.833172 0.19541,-1.171859 0.11007,-0.317451 0.28399,-0.561131 0.45987,-0.644308 0.19893,-0.09408 0.41697,-0.01383 0.57886,0.21304 0.21689,0.303942 0.34698,0.746712 0.40967,1.394314 0.003,0.03544 0.007,0.06561 0.009,0.06703 0.001,0.0014 0.0341,-0.02442 0.0727,-0.05742 0.0926,-0.07929 0.31445,-0.258562 0.39048,-0.315567 0.072,-0.05396 0.12194,-0.06033 0.15952,-0.02033 0.0364,0.03875 0.0294,0.08121 -0.035,0.210093 -0.11894,0.238363 -0.21088,0.494001 -0.28338,0.78796 -0.0706,0.286055 -0.0846,0.510748 -0.0534,0.855298 0.0279,0.308097 0.0154,0.502085 -0.0485,0.752447 -0.12089,0.473795 -0.27447,0.740507 -0.51842,0.900338 -0.0737,0.0483 -0.22225,0.106532 -0.27175,0.106532 -0.0546,0 -0.0545,-6.22e-4 -0.0545,0.217689 v 0.204547 h 1.29378 1.29377 v -0.232771 -0.232771 h -0.0632 -0.0632 l -0.20151,-0.151327 c -0.11083,-0.08323 -0.20661,-0.160861 -0.21284,-0.172513 -0.007,-0.01397 -0.0113,-0.209559 -0.0113,-0.574137 v -0.552949 l -0.1367,-0.273232 -0.1367,-0.273232 -0.1241,-0.427705 c -0.14127,-0.486904 -0.15379,-0.54449 -0.1542,-0.709195 -3.5e-4,-0.139931 0.0118,-0.225997 0.0497,-0.351294 0.13989,-0.462909 0.54034,-0.792412 1.02637,-0.844518 0.69524,-0.07454 1.31615,0.481764 1.31615,1.179199 0,0.0664 -0.005,0.155538 -0.012,0.198081 -0.007,0.04254 -0.0693,0.274893 -0.13925,0.516335 l -0.12724,0.438986 -0.13683,0.273287 -0.13683,0.273288 v 0.552949 c 0,0.364578 -0.004,0.560168 -0.0113,0.574137 -0.006,0.01165 -0.10202,0.08928 -0.21284,0.172513 l -0.20151,0.151327 h -0.0632 -0.0632 v 0.29315 0.29315 l -0.0316,0.03165 -0.0317,0.03165 h -1.41453 -1.41453 z m 0.15552,-0.753529 c 0.16536,-0.0211 0.3202,-0.125047 0.4324,-0.290274 0.15192,-0.223711 0.28891,-0.701558 0.28965,-1.010351 1.2e-4,-0.04856 -0.008,-0.177671 -0.0172,-0.286904 -0.0397,-0.451517 0.003,-0.775323 0.16468,-1.248781 0.0325,-0.09527 0.0623,-0.182824 0.0661,-0.194557 0.0112,-0.03431 -0.17841,0.132992 -0.39231,0.346129 -0.22055,0.219769 -0.59663,0.66591 -0.75911,0.900526 l -0.0388,0.05605 0.0494,0.07928 c 0.0723,0.115967 0.14301,0.27201 0.17095,0.377009 0.0329,0.123569 0.0355,0.380817 0.005,0.519675 -0.0568,0.261615 -0.19222,0.51687 -0.33323,0.628334 l -0.0526,0.04159 0.0788,0.03893 c 0.0496,0.02453 0.10475,0.04227 0.149,0.04797 0.0691,0.0089 0.0838,0.0085 0.18704,-0.0046 z m 2.9854,-0.162437 0.15119,-0.113967 v -0.118804 -0.118804 h -0.46013 -0.46013 v 0.118792 0.118792 l 0.14886,0.113306 0.14887,0.113306 0.16007,6.73e-4 0.16008,6.73e-4 z m -3.46336,-0.105566 c 0.14045,-0.107122 0.27214,-0.420868 0.2873,-0.684485 0.013,-0.225773 -0.0439,-0.409306 -0.19866,-0.640627 -0.12691,-0.189722 -0.46087,-0.588302 -0.64621,-0.771236 l -0.0812,-0.0802 0.0431,0.134328 c 0.072,0.224711 0.1354,0.49979 0.16065,0.69731 0.006,0.04764 0.0162,0.186487 0.0224,0.308557 0.0184,0.361543 0.0395,0.488762 0.11441,0.690004 0.0496,0.133217 0.13768,0.306522 0.17754,0.34919 0.0389,0.04167 0.0631,0.0411 0.12076,-0.0028 z m 3.61455,-0.516673 v -0.09744 h -0.46013 -0.46013 v 0.09744 0.09744 h 0.46013 0.46013 z m 0,-0.373517 v -0.09202 h -0.46013 -0.46013 v 0.09202 0.09203 h 0.46013 0.46013 z m -0.76192,-0.295023 c -0.0189,-0.06494 -0.24712,-1.151696 -0.24811,-1.181482 -9.1e-4,-0.0274 0.006,-0.04301 0.0286,-0.06225 0.0446,-0.03833 0.0791,-0.03266 0.15989,0.02625 0.15275,0.111362 0.30374,0.150022 0.46197,0.118286 0.10649,-0.02136 0.18243,-0.05589 0.26655,-0.121214 0.0679,-0.05272 0.10407,-0.0606 0.14538,-0.03167 0.0515,0.03608 0.0516,0.03546 -0.0802,0.651087 -0.0685,0.320126 -0.12716,0.590574 -0.13033,0.600995 -0.005,0.0171 0.004,0.01895 0.0953,0.01895 h 0.10106 l 0.1274,-0.257131 0.1274,-0.257131 0.11413,-0.395169 c 0.1492,-0.516567 0.14839,-0.512609 0.14133,-0.698313 -0.008,-0.19943 -0.0443,-0.328122 -0.13742,-0.482303 -0.24249,-0.401336 -0.72971,-0.586569 -1.17437,-0.446478 -0.32909,0.10368 -0.57562,0.360398 -0.67879,0.706836 -0.0272,0.09148 -0.0381,0.314363 -0.0204,0.41746 0.007,0.04133 0.0662,0.260283 0.13127,0.486558 l 0.11833,0.411409 0.12715,0.257131 0.12716,0.257131 h 0.10105 c 0.0911,0 0.10051,-0.0019 0.0955,-0.01895 z m 0.41547,0.01349 c 0,-0.003 0.0463,-0.221333 0.10285,-0.485187 0.0566,-0.263855 0.10285,-0.485339 0.10285,-0.492186 0,-0.0083 -0.0155,-0.0058 -0.046,0.0072 -0.15831,0.06752 -0.42423,0.06478 -0.56298,-0.0058 -0.0178,-0.0091 -0.0298,-0.01067 -0.0298,-0.004 0,0.0061 0.0463,0.227024 0.10286,0.490879 0.0566,0.263855 0.10285,0.483076 0.10285,0.487157 0,0.0041 0.0512,0.0074 0.11368,0.0074 0.0625,0 0.11368,-0.0025 0.11368,-0.0055 z m -3.00979,-0.643583 c 0.0566,-0.07287 0.11179,-0.144214 0.1227,-0.158548 l 0.0199,-0.02606 h -0.13464 -0.13465 l -0.007,0.08283 c -0.004,0.04556 -0.007,0.127164 -0.007,0.181345 3.4e-4,0.09475 0.001,0.09764 0.0189,0.07572 0.0102,-0.01254 0.0649,-0.08242 0.12144,-0.155283 z m -0.31525,-0.133184 0.001,-0.05143 h -0.0766 -0.0766 l 0.0197,0.02484 c 0.0109,0.01366 0.0417,0.05077 0.0684,0.08246 l 0.0487,0.05761 0.007,-0.03103 c 0.004,-0.01707 0.007,-0.05417 0.008,-0.08246 z m 0.01,-0.33021 0.003,-0.08932 h -0.15137 c -0.0833,0 -0.15379,0.0039 -0.15675,0.0087 -0.003,0.0048 -0.003,0.04633 9.5e-4,0.09232 l 0.006,0.08362 0.14729,-0.003 0.14728,-0.003 z m 0.49648,0.03789 c -0.004,-0.03126 -0.007,-0.07267 -0.007,-0.09203 l -1e-4,-0.03519 h -0.15157 -0.15157 v 0.0749 c 0,0.04119 -0.003,0.08261 -0.007,0.09203 -0.006,0.01515 0.0124,0.01713 0.15849,0.01713 h 0.16507 z m 0.22018,-0.07579 c 0.0176,-0.01935 0.0322,-0.03884 0.0323,-0.04331 1.8e-4,-0.0045 -0.0167,-0.0081 -0.0376,-0.0081 -0.037,0 -0.0379,0.001 -0.0379,0.04331 0,0.02382 0.002,0.04331 0.006,0.04331 0.003,0 0.02,-0.01583 0.0376,-0.03519 z m -0.70356,-0.327504 v -0.09203 h -0.15699 -0.15699 l -1.4e-4,0.06767 c -8e-5,0.03722 -0.003,0.07863 -0.007,0.09202 l -0.007,0.02436 h 0.16366 0.16367 z m 0.46745,2.6e-5 -0.004,-0.09205 h -0.13995 -0.13995 v 0.09203 0.09203 l 0.14345,2.5e-5 0.14345,2.6e-5 z m 0.47631,0.07408 c 0.0155,-0.01403 0.0198,-0.03398 0.0198,-0.09203 v -0.07411 h -0.15699 -0.15698 v 0.08481 c 0,0.04664 0.003,0.08806 0.007,0.09202 0.004,0.004 0.0657,0.0072 0.13718,0.0072 0.10575,0 0.13366,-0.0033 0.14977,-0.01792 z m -0.93294,-0.442211 v -0.09203 h -0.1449 -0.14489 l -0.007,0.07308 c -0.004,0.04019 -0.01,0.08161 -0.0128,0.09202 -0.005,0.01743 0.007,0.01895 0.15224,0.01895 h 0.15771 z m 0.44389,0 v -0.09203 h -0.12992 -0.12992 v 0.09203 0.09203 h 0.12992 0.12992 z m 0.494,0.07308 c -0.003,-0.01042 -0.009,-0.05183 -0.0128,-0.09202 l -0.007,-0.07308 h -0.1449 -0.1449 v 0.09203 0.09203 h 0.15772 c 0.14507,0 0.15727,-0.0015 0.15223,-0.01895 z m -0.92706,-0.441182 v -0.09203 h -0.11722 -0.11722 l -0.0127,0.06767 c -0.007,0.03722 -0.0157,0.07863 -0.0194,0.09203 -0.007,0.02433 -0.006,0.02436 0.12995,0.02436 h 0.1366 z m 0.42223,0 v -0.09203 h -0.11909 -0.11909 v 0.09203 0.09203 h 0.11909 0.11909 z m 0.44945,0.06767 c -0.003,-0.0134 -0.0121,-0.05359 -0.02,-0.08932 l -0.0143,-0.06496 -0.11555,-0.0031 -0.11555,-0.0031 v 0.09239 0.09239 h 0.13553 c 0.13503,0 0.13552,-9.3e-5 0.12986,-0.02436 z m -0.86086,-0.385538 c 0,-0.02299 0.003,-0.0644 0.007,-0.09203 l 0.007,-0.05023 h -0.0704 -0.0704 l -0.0286,0.07849 c -0.0157,0.04317 -0.0285,0.08458 -0.0285,0.09202 4e-5,0.0098 0.0257,0.01353 0.0921,0.01353 h 0.092 z m 0.40047,-0.0096 c -7e-5,-0.02829 -0.003,-0.0697 -0.007,-0.09203 l -0.007,-0.0406 h -0.0946 -0.0946 l -0.007,0.0406 c -0.004,0.02233 -0.007,0.06374 -0.007,0.09203 l -1.2e-4,0.05143 h 0.10826 0.10827 z m 0.36835,0.04331 c 7e-5,-0.0045 -0.013,-0.04588 -0.0289,-0.09203 l -0.0291,-0.08391 h -0.0699 -0.0699 l 0.007,0.0406 c 0.004,0.02233 0.007,0.06374 0.007,0.09203 l 1.2e-4,0.05143 h 0.092 c 0.0506,0 0.0921,-0.0037 0.0922,-0.0081 z m -0.56546,-0.487196 c 0.003,-0.107867 9.9e-4,-0.121798 -0.0151,-0.121798 -0.0243,0 -0.16567,0.145908 -0.19733,0.20367 l -0.0253,0.04609 0.11729,-0.0031 0.11729,-0.0031 z m 0.41376,0.120468 c 0,-0.01792 -0.10287,-0.147699 -0.15227,-0.19212 -0.0823,-0.07398 -0.0859,-0.07115 -0.0859,0.06714 0,0.06451 0.003,0.120536 0.007,0.124506 0.009,0.0091 0.23097,0.0096 0.23097,4.73e-4 z m 1.44725,0.0071 -0.0925,-0.138906 0.0761,-0.05061 c 0.0419,-0.02784 0.0774,-0.04905 0.0789,-0.04713 0.0113,0.01391 0.17916,0.268972 0.17916,0.272236 0,0.0023 -0.0336,0.02646 -0.0746,0.05374 l -0.0746,0.04959 z m 2.02266,0.09045 c -0.0298,-0.02083 -0.0608,-0.04178 -0.0689,-0.04655 -0.0113,-0.0066 0.006,-0.04022 0.0746,-0.142875 0.0492,-0.07381 0.0907,-0.135759 0.0922,-0.137673 0.002,-0.0019 0.0375,0.01955 0.0798,0.0477 l 0.077,0.05118 -0.0183,0.02809 c -0.10418,0.160215 -0.16053,0.239109 -0.17043,0.238612 -0.007,-3.28e-4 -0.0362,-0.01764 -0.066,-0.03847 z m -1.02311,-0.372342 v -0.184052 h 0.092 0.092 v 0.184052 0.184051 h -0.092 -0.092 z"
         id="path1" /></g></g></svg>
