<?xml version="1.0" encoding="utf-8" standalone="no"?>
<!DOCTYPE svg PUBLIC "-//W3C//DTD SVG 1.1//EN"
  "http://www.w3.org/Graphics/SVG/1.1/DTD/svg11.dtd">
<svg xmlns:xlink="http://www.w3.org/1999/xlink" width="229.773444pt" height="136.030898pt" viewBox="0 0 229.773444 136.030898" xmlns="http://www.w3.org/2000/svg" version="1.1">
 <metadata>
  <rdf:RDF xmlns:dc="http://purl.org/dc/elements/1.1/" xmlns:cc="http://creativecommons.org/ns#" xmlns:rdf="http://www.w3.org/1999/02/22-rdf-syntax-ns#">
   <cc:Work>
    <dc:type rdf:resource="http://purl.org/dc/dcmitype/StillImage"/>
    <dc:date>2025-03-14T17:27:35.731306</dc:date>
    <dc:format>image/svg+xml</dc:format>
    <dc:creator>
     <cc:Agent>
      <dc:title>Matplotlib v3.9.2, https://matplotlib.org/</dc:title>
     </cc:Agent>
    </dc:creator>
   </cc:Work>
  </rdf:RDF>
 </metadata>
 <defs>
  <style type="text/css">*{stroke-linejoin: round; stroke-linecap: butt}</style>
 </defs>
 <g id="figure_1">
  <g id="patch_1">
   <path d="M 0 136.030898 
L 229.773444 136.030898 
L 229.773444 0 
L 0 0 
z
" style="fill: #ffffff"/>
  </g>
  <g id="axes_1">
   <g id="patch_2">
    <path d="M 35.80375 106.813711 
L 163.391073 106.813711 
L 163.391073 19.27875 
L 35.80375 19.27875 
z
" style="fill: #ffffff"/>
   </g>
   <g id="matplotlib.axis_1">
    <g id="xtick_1">
     <g id="line2d_1">
      <path d="M 35.80375 106.813711 
L 35.80375 19.27875 
" clip-path="url(#pbaaa5f0227)" style="fill: none; stroke: #cccccc; stroke-opacity: 0.3; stroke-width: 0.8; stroke-linecap: round"/>
     </g>
     <g id="line2d_2"/>
     <g id="text_1">
      <!-- 5750 -->
      <g style="fill: #262626" transform="translate(26.89625 115.632617) scale(0.07 -0.07)">
       <defs>
        <path id="DejaVuSerif-35" d="M 3219 4666 
L 3219 4153 
L 1081 4153 
L 1081 2816 
Q 1244 2928 1461 2984 
Q 1678 3041 1947 3041 
Q 2703 3041 3140 2622 
Q 3578 2203 3578 1478 
Q 3578 738 3136 323 
Q 2694 -91 1894 -91 
Q 1572 -91 1234 -12 
Q 897 66 544 225 
L 544 1131 
L 897 1131 
Q 925 688 1179 453 
Q 1434 219 1894 219 
Q 2388 219 2653 544 
Q 2919 869 2919 1478 
Q 2919 2084 2655 2407 
Q 2391 2731 1894 2731 
Q 1613 2731 1398 2631 
Q 1184 2531 1019 2322 
L 750 2322 
L 750 4666 
L 3219 4666 
z
" transform="scale(0.015625)"/>
        <path id="DejaVuSerif-37" d="M 3609 4347 
L 1784 0 
L 1319 0 
L 3059 4153 
L 903 4153 
L 903 3578 
L 538 3578 
L 538 4666 
L 3609 4666 
L 3609 4347 
z
" transform="scale(0.015625)"/>
        <path id="DejaVuSerif-30" d="M 2034 219 
Q 2513 219 2750 744 
Q 2988 1269 2988 2328 
Q 2988 3391 2750 3916 
Q 2513 4441 2034 4441 
Q 1556 4441 1318 3916 
Q 1081 3391 1081 2328 
Q 1081 1269 1318 744 
Q 1556 219 2034 219 
z
M 2034 -91 
Q 1275 -91 848 546 
Q 422 1184 422 2328 
Q 422 3475 848 4112 
Q 1275 4750 2034 4750 
Q 2797 4750 3222 4112 
Q 3647 3475 3647 2328 
Q 3647 1184 3222 546 
Q 2797 -91 2034 -91 
z
" transform="scale(0.015625)"/>
       </defs>
       <use xlink:href="#DejaVuSerif-35"/>
       <use xlink:href="#DejaVuSerif-37" x="63.623047"/>
       <use xlink:href="#DejaVuSerif-35" x="127.246094"/>
       <use xlink:href="#DejaVuSerif-30" x="190.869141"/>
      </g>
     </g>
    </g>
    <g id="xtick_2">
     <g id="line2d_3">
      <path d="M 61.321215 106.813711 
L 61.321215 19.27875 
" clip-path="url(#pbaaa5f0227)" style="fill: none; stroke: #cccccc; stroke-opacity: 0.3; stroke-width: 0.8; stroke-linecap: round"/>
     </g>
     <g id="line2d_4"/>
     <g id="text_2">
      <!-- 5800 -->
      <g style="fill: #262626" transform="translate(52.413715 115.632617) scale(0.07 -0.07)">
       <defs>
        <path id="DejaVuSerif-38" d="M 2981 1275 
Q 2981 1775 2732 2051 
Q 2484 2328 2034 2328 
Q 1584 2328 1336 2051 
Q 1088 1775 1088 1275 
Q 1088 772 1336 495 
Q 1584 219 2034 219 
Q 2484 219 2732 495 
Q 2981 772 2981 1275 
z
M 2853 3541 
Q 2853 3966 2637 4203 
Q 2422 4441 2034 4441 
Q 1650 4441 1433 4203 
Q 1216 3966 1216 3541 
Q 1216 3113 1433 2875 
Q 1650 2638 2034 2638 
Q 2422 2638 2637 2875 
Q 2853 3113 2853 3541 
z
M 2516 2484 
Q 3047 2413 3344 2092 
Q 3641 1772 3641 1275 
Q 3641 619 3225 264 
Q 2809 -91 2034 -91 
Q 1263 -91 845 264 
Q 428 619 428 1275 
Q 428 1772 725 2092 
Q 1022 2413 1556 2484 
Q 1084 2569 832 2842 
Q 581 3116 581 3541 
Q 581 4103 968 4426 
Q 1356 4750 2034 4750 
Q 2713 4750 3100 4426 
Q 3488 4103 3488 3541 
Q 3488 3116 3236 2842 
Q 2984 2569 2516 2484 
z
" transform="scale(0.015625)"/>
       </defs>
       <use xlink:href="#DejaVuSerif-35"/>
       <use xlink:href="#DejaVuSerif-38" x="63.623047"/>
       <use xlink:href="#DejaVuSerif-30" x="127.246094"/>
       <use xlink:href="#DejaVuSerif-30" x="190.869141"/>
      </g>
     </g>
    </g>
    <g id="xtick_3">
     <g id="line2d_5">
      <path d="M 86.838679 106.813711 
L 86.838679 19.27875 
" clip-path="url(#pbaaa5f0227)" style="fill: none; stroke: #cccccc; stroke-opacity: 0.3; stroke-width: 0.8; stroke-linecap: round"/>
     </g>
     <g id="line2d_6"/>
     <g id="text_3">
      <!-- 5850 -->
      <g style="fill: #262626" transform="translate(77.931179 115.632617) scale(0.07 -0.07)">
       <use xlink:href="#DejaVuSerif-35"/>
       <use xlink:href="#DejaVuSerif-38" x="63.623047"/>
       <use xlink:href="#DejaVuSerif-35" x="127.246094"/>
       <use xlink:href="#DejaVuSerif-30" x="190.869141"/>
      </g>
     </g>
    </g>
    <g id="xtick_4">
     <g id="line2d_7">
      <path d="M 112.356144 106.813711 
L 112.356144 19.27875 
" clip-path="url(#pbaaa5f0227)" style="fill: none; stroke: #cccccc; stroke-opacity: 0.3; stroke-width: 0.8; stroke-linecap: round"/>
     </g>
     <g id="line2d_8"/>
     <g id="text_4">
      <!-- 5900 -->
      <g style="fill: #262626" transform="translate(103.448644 115.632617) scale(0.07 -0.07)">
       <defs>
        <path id="DejaVuSerif-39" d="M 2994 2091 
Q 2784 1856 2512 1740 
Q 2241 1625 1900 1625 
Q 1206 1625 804 2044 
Q 403 2463 403 3188 
Q 403 3897 839 4323 
Q 1275 4750 2003 4750 
Q 2794 4750 3217 4161 
Q 3641 3572 3641 2478 
Q 3641 1253 3137 581 
Q 2634 -91 1722 -91 
Q 1475 -91 1203 -44 
Q 931 3 647 97 
L 647 872 
L 997 872 
Q 1038 556 1241 387 
Q 1444 219 1784 219 
Q 2391 219 2687 676 
Q 2984 1134 2994 2091 
z
M 1978 4441 
Q 1534 4441 1298 4117 
Q 1063 3794 1063 3188 
Q 1063 2581 1298 2256 
Q 1534 1931 1978 1931 
Q 2422 1931 2658 2245 
Q 2894 2559 2894 3150 
Q 2894 3772 2656 4106 
Q 2419 4441 1978 4441 
z
" transform="scale(0.015625)"/>
       </defs>
       <use xlink:href="#DejaVuSerif-35"/>
       <use xlink:href="#DejaVuSerif-39" x="63.623047"/>
       <use xlink:href="#DejaVuSerif-30" x="127.246094"/>
       <use xlink:href="#DejaVuSerif-30" x="190.869141"/>
      </g>
     </g>
    </g>
    <g id="xtick_5">
     <g id="line2d_9">
      <path d="M 137.873608 106.813711 
L 137.873608 19.27875 
" clip-path="url(#pbaaa5f0227)" style="fill: none; stroke: #cccccc; stroke-opacity: 0.3; stroke-width: 0.8; stroke-linecap: round"/>
     </g>
     <g id="line2d_10"/>
     <g id="text_5">
      <!-- 5950 -->
      <g style="fill: #262626" transform="translate(128.966108 115.632617) scale(0.07 -0.07)">
       <use xlink:href="#DejaVuSerif-35"/>
       <use xlink:href="#DejaVuSerif-39" x="63.623047"/>
       <use xlink:href="#DejaVuSerif-35" x="127.246094"/>
       <use xlink:href="#DejaVuSerif-30" x="190.869141"/>
      </g>
     </g>
    </g>
    <g id="xtick_6">
     <g id="line2d_11">
      <path d="M 163.391073 106.813711 
L 163.391073 19.27875 
" clip-path="url(#pbaaa5f0227)" style="fill: none; stroke: #cccccc; stroke-opacity: 0.3; stroke-width: 0.8; stroke-linecap: round"/>
     </g>
     <g id="line2d_12"/>
     <g id="text_6">
      <!-- 6000 -->
      <g style="fill: #262626" transform="translate(154.483573 115.632617) scale(0.07 -0.07)">
       <defs>
        <path id="DejaVuSerif-36" d="M 2094 219 
Q 2534 219 2771 542 
Q 3009 866 3009 1472 
Q 3009 2078 2771 2401 
Q 2534 2725 2094 2725 
Q 1647 2725 1412 2412 
Q 1178 2100 1178 1509 
Q 1178 888 1415 553 
Q 1653 219 2094 219 
z
M 1075 2569 
Q 1288 2803 1556 2918 
Q 1825 3034 2163 3034 
Q 2859 3034 3264 2615 
Q 3669 2197 3669 1472 
Q 3669 763 3233 336 
Q 2797 -91 2069 -91 
Q 1278 -91 853 498 
Q 428 1088 428 2181 
Q 428 3406 931 4078 
Q 1434 4750 2350 4750 
Q 2597 4750 2869 4703 
Q 3141 4656 3425 4563 
L 3425 3794 
L 3072 3794 
Q 3034 4109 2831 4275 
Q 2628 4441 2284 4441 
Q 1678 4441 1381 3981 
Q 1084 3522 1075 2569 
z
" transform="scale(0.015625)"/>
       </defs>
       <use xlink:href="#DejaVuSerif-36"/>
       <use xlink:href="#DejaVuSerif-30" x="63.623047"/>
       <use xlink:href="#DejaVuSerif-30" x="127.246094"/>
       <use xlink:href="#DejaVuSerif-30" x="190.869141"/>
      </g>
     </g>
    </g>
    <g id="text_7">
     <!-- Time -->
     <g style="fill: #262626" transform="translate(89.489286 127.167148) scale(0.08 -0.08)">
      <defs>
       <path id="DejaVuSerif-54" d="M 1222 0 
L 1222 331 
L 1819 331 
L 1819 4294 
L 447 4294 
L 447 3566 
L 63 3566 
L 63 4666 
L 4206 4666 
L 4206 3566 
L 3822 3566 
L 3822 4294 
L 2450 4294 
L 2450 331 
L 3047 331 
L 3047 0 
L 1222 0 
z
" transform="scale(0.015625)"/>
       <path id="DejaVuSerif-69" d="M 622 4353 
Q 622 4497 726 4603 
Q 831 4709 978 4709 
Q 1122 4709 1226 4603 
Q 1331 4497 1331 4353 
Q 1331 4206 1228 4103 
Q 1125 4000 978 4000 
Q 831 4000 726 4103 
Q 622 4206 622 4353 
z
M 1356 331 
L 1900 331 
L 1900 0 
L 231 0 
L 231 331 
L 781 331 
L 781 2988 
L 231 2988 
L 231 3322 
L 1356 3322 
L 1356 331 
z
" transform="scale(0.015625)"/>
       <path id="DejaVuSerif-6d" d="M 3316 2675 
Q 3481 3041 3739 3227 
Q 3997 3413 4341 3413 
Q 4863 3413 5119 3089 
Q 5375 2766 5375 2113 
L 5375 331 
L 5894 331 
L 5894 0 
L 4300 0 
L 4300 331 
L 4800 331 
L 4800 2047 
Q 4800 2556 4650 2772 
Q 4500 2988 4153 2988 
Q 3769 2988 3567 2697 
Q 3366 2406 3366 1850 
L 3366 331 
L 3866 331 
L 3866 0 
L 2291 0 
L 2291 331 
L 2791 331 
L 2791 2069 
Q 2791 2566 2641 2777 
Q 2491 2988 2144 2988 
Q 1759 2988 1557 2697 
Q 1356 2406 1356 1850 
L 1356 331 
L 1856 331 
L 1856 0 
L 263 0 
L 263 331 
L 781 331 
L 781 2994 
L 231 2994 
L 231 3322 
L 1356 3322 
L 1356 2731 
Q 1516 3063 1762 3238 
Q 2009 3413 2322 3413 
Q 2709 3413 2968 3220 
Q 3228 3028 3316 2675 
z
" transform="scale(0.015625)"/>
       <path id="DejaVuSerif-65" d="M 3469 1600 
L 991 1600 
L 991 1575 
Q 991 903 1244 561 
Q 1497 219 1991 219 
Q 2369 219 2611 417 
Q 2853 616 2950 1006 
L 3413 1006 
Q 3275 459 2904 184 
Q 2534 -91 1931 -91 
Q 1203 -91 761 389 
Q 319 869 319 1663 
Q 319 2450 753 2931 
Q 1188 3413 1894 3413 
Q 2647 3413 3050 2948 
Q 3453 2484 3469 1600 
z
M 2791 1931 
Q 2772 2513 2545 2808 
Q 2319 3103 1894 3103 
Q 1497 3103 1269 2806 
Q 1041 2509 991 1931 
L 2791 1931 
z
" transform="scale(0.015625)"/>
      </defs>
      <use xlink:href="#DejaVuSerif-54"/>
      <use xlink:href="#DejaVuSerif-69" x="66.699219"/>
      <use xlink:href="#DejaVuSerif-6d" x="98.681641"/>
      <use xlink:href="#DejaVuSerif-65" x="193.505859"/>
     </g>
    </g>
   </g>
   <g id="matplotlib.axis_2">
    <g id="ytick_1">
     <g id="line2d_13">
      <path d="M 35.80375 106.813711 
L 163.391073 106.813711 
" clip-path="url(#pbaaa5f0227)" style="fill: none; stroke: #cccccc; stroke-opacity: 0.3; stroke-width: 0.8; stroke-linecap: round"/>
     </g>
     <g id="line2d_14"/>
     <g id="text_8">
      <!-- 0 -->
      <g style="fill: #262626" transform="translate(27.85 109.473164) scale(0.07 -0.07)">
       <use xlink:href="#DejaVuSerif-30"/>
      </g>
     </g>
    </g>
    <g id="ytick_2">
     <g id="line2d_15">
      <path d="M 35.80375 90.898263 
L 163.391073 90.898263 
" clip-path="url(#pbaaa5f0227)" style="fill: none; stroke: #cccccc; stroke-opacity: 0.3; stroke-width: 0.8; stroke-linecap: round"/>
     </g>
     <g id="line2d_16"/>
     <g id="text_9">
      <!-- 20 -->
      <g style="fill: #262626" transform="translate(23.39625 93.557716) scale(0.07 -0.07)">
       <defs>
        <path id="DejaVuSerif-32" d="M 819 3553 
L 469 3553 
L 469 4384 
Q 803 4563 1142 4656 
Q 1481 4750 1806 4750 
Q 2534 4750 2956 4397 
Q 3378 4044 3378 3438 
Q 3378 2753 2422 1800 
Q 2347 1728 2309 1691 
L 1131 513 
L 3078 513 
L 3078 1088 
L 3444 1088 
L 3444 0 
L 434 0 
L 434 341 
L 1850 1753 
Q 2319 2222 2519 2614 
Q 2719 3006 2719 3438 
Q 2719 3909 2473 4175 
Q 2228 4441 1797 4441 
Q 1350 4441 1106 4219 
Q 863 3997 819 3553 
z
" transform="scale(0.015625)"/>
       </defs>
       <use xlink:href="#DejaVuSerif-32"/>
       <use xlink:href="#DejaVuSerif-30" x="63.623047"/>
      </g>
     </g>
    </g>
    <g id="ytick_3">
     <g id="line2d_17">
      <path d="M 35.80375 74.982816 
L 163.391073 74.982816 
" clip-path="url(#pbaaa5f0227)" style="fill: none; stroke: #cccccc; stroke-opacity: 0.3; stroke-width: 0.8; stroke-linecap: round"/>
     </g>
     <g id="line2d_18"/>
     <g id="text_10">
      <!-- 40 -->
      <g style="fill: #262626" transform="translate(23.39625 77.642269) scale(0.07 -0.07)">
       <defs>
        <path id="DejaVuSerif-34" d="M 2234 1581 
L 2234 4063 
L 641 1581 
L 2234 1581 
z
M 3609 0 
L 1484 0 
L 1484 331 
L 2234 331 
L 2234 1247 
L 197 1247 
L 197 1588 
L 2241 4750 
L 2859 4750 
L 2859 1581 
L 3750 1581 
L 3750 1247 
L 2859 1247 
L 2859 331 
L 3609 331 
L 3609 0 
z
" transform="scale(0.015625)"/>
       </defs>
       <use xlink:href="#DejaVuSerif-34"/>
       <use xlink:href="#DejaVuSerif-30" x="63.623047"/>
      </g>
     </g>
    </g>
    <g id="ytick_4">
     <g id="line2d_19">
      <path d="M 35.80375 59.067368 
L 163.391073 59.067368 
" clip-path="url(#pbaaa5f0227)" style="fill: none; stroke: #cccccc; stroke-opacity: 0.3; stroke-width: 0.8; stroke-linecap: round"/>
     </g>
     <g id="line2d_20"/>
     <g id="text_11">
      <!-- 60 -->
      <g style="fill: #262626" transform="translate(23.39625 61.726822) scale(0.07 -0.07)">
       <use xlink:href="#DejaVuSerif-36"/>
       <use xlink:href="#DejaVuSerif-30" x="63.623047"/>
      </g>
     </g>
    </g>
    <g id="ytick_5">
     <g id="line2d_21">
      <path d="M 35.80375 43.151921 
L 163.391073 43.151921 
" clip-path="url(#pbaaa5f0227)" style="fill: none; stroke: #cccccc; stroke-opacity: 0.3; stroke-width: 0.8; stroke-linecap: round"/>
     </g>
     <g id="line2d_22"/>
     <g id="text_12">
      <!-- 80 -->
      <g style="fill: #262626" transform="translate(23.39625 45.811374) scale(0.07 -0.07)">
       <use xlink:href="#DejaVuSerif-38"/>
       <use xlink:href="#DejaVuSerif-30" x="63.623047"/>
      </g>
     </g>
    </g>
    <g id="ytick_6">
     <g id="line2d_23">
      <path d="M 35.80375 27.236474 
L 163.391073 27.236474 
" clip-path="url(#pbaaa5f0227)" style="fill: none; stroke: #cccccc; stroke-opacity: 0.3; stroke-width: 0.8; stroke-linecap: round"/>
     </g>
     <g id="line2d_24"/>
     <g id="text_13">
      <!-- 100 -->
      <g style="fill: #262626" transform="translate(18.9425 29.895927) scale(0.07 -0.07)">
       <defs>
        <path id="DejaVuSerif-31" d="M 909 0 
L 909 331 
L 1722 331 
L 1722 4213 
L 781 3603 
L 781 4013 
L 1919 4750 
L 2350 4750 
L 2350 331 
L 3163 331 
L 3163 0 
L 909 0 
z
" transform="scale(0.015625)"/>
       </defs>
       <use xlink:href="#DejaVuSerif-31"/>
       <use xlink:href="#DejaVuSerif-30" x="63.623047"/>
       <use xlink:href="#DejaVuSerif-30" x="127.246094"/>
      </g>
     </g>
    </g>
    <g id="text_14">
     <!-- Curtailment (%) -->
     <g style="fill: #262626" transform="translate(13.27875 95.68373) rotate(-90) scale(0.08 -0.08)">
      <defs>
       <path id="DejaVuSerif-43" d="M 4513 1234 
Q 4306 581 3820 245 
Q 3334 -91 2591 -91 
Q 2134 -91 1743 65 
Q 1353 222 1050 525 
Q 700 875 529 1320 
Q 359 1766 359 2328 
Q 359 3416 987 4083 
Q 1616 4750 2644 4750 
Q 3025 4750 3456 4650 
Q 3888 4550 4384 4347 
L 4384 3272 
L 4031 3272 
Q 3916 3859 3567 4137 
Q 3219 4416 2591 4416 
Q 1844 4416 1459 3886 
Q 1075 3356 1075 2328 
Q 1075 1303 1459 773 
Q 1844 244 2591 244 
Q 3113 244 3450 492 
Q 3788 741 3938 1234 
L 4513 1234 
z
" transform="scale(0.015625)"/>
       <path id="DejaVuSerif-75" d="M 2266 3322 
L 3341 3322 
L 3341 331 
L 3884 331 
L 3884 0 
L 2766 0 
L 2766 588 
Q 2606 256 2353 82 
Q 2100 -91 1766 -91 
Q 1213 -91 952 223 
Q 691 538 691 1209 
L 691 2988 
L 172 2988 
L 172 3322 
L 1269 3322 
L 1269 1388 
Q 1269 781 1417 556 
Q 1566 331 1947 331 
Q 2347 331 2556 625 
Q 2766 919 2766 1478 
L 2766 2988 
L 2266 2988 
L 2266 3322 
z
" transform="scale(0.015625)"/>
       <path id="DejaVuSerif-72" d="M 3059 3328 
L 3059 2497 
L 2728 2497 
Q 2713 2744 2591 2866 
Q 2469 2988 2234 2988 
Q 1809 2988 1582 2694 
Q 1356 2400 1356 1850 
L 1356 331 
L 2022 331 
L 2022 0 
L 263 0 
L 263 331 
L 781 331 
L 781 2994 
L 231 2994 
L 231 3322 
L 1356 3322 
L 1356 2731 
Q 1525 3078 1790 3245 
Q 2056 3413 2438 3413 
Q 2578 3413 2733 3391 
Q 2888 3369 3059 3328 
z
" transform="scale(0.015625)"/>
       <path id="DejaVuSerif-74" d="M 691 2988 
L 184 2988 
L 184 3322 
L 691 3322 
L 691 4353 
L 1269 4353 
L 1269 3322 
L 2350 3322 
L 2350 2988 
L 1269 2988 
L 1269 878 
Q 1269 456 1350 337 
Q 1431 219 1650 219 
Q 1875 219 1978 351 
Q 2081 484 2088 781 
L 2522 781 
Q 2497 328 2275 118 
Q 2053 -91 1600 -91 
Q 1103 -91 897 129 
Q 691 350 691 878 
L 691 2988 
z
" transform="scale(0.015625)"/>
       <path id="DejaVuSerif-61" d="M 2547 1044 
L 2547 1747 
L 1806 1747 
Q 1378 1747 1168 1562 
Q 959 1378 959 997 
Q 959 650 1171 447 
Q 1384 244 1747 244 
Q 2106 244 2326 466 
Q 2547 688 2547 1044 
z
M 3122 2075 
L 3122 331 
L 3634 331 
L 3634 0 
L 2547 0 
L 2547 359 
Q 2356 128 2106 18 
Q 1856 -91 1522 -91 
Q 969 -91 644 203 
Q 319 497 319 997 
Q 319 1513 691 1797 
Q 1063 2081 1741 2081 
L 2547 2081 
L 2547 2309 
Q 2547 2688 2317 2895 
Q 2088 3103 1672 3103 
Q 1328 3103 1125 2947 
Q 922 2791 872 2484 
L 575 2484 
L 575 3156 
Q 875 3284 1158 3348 
Q 1441 3413 1709 3413 
Q 2400 3413 2761 3070 
Q 3122 2728 3122 2075 
z
" transform="scale(0.015625)"/>
       <path id="DejaVuSerif-6c" d="M 1313 331 
L 1856 331 
L 1856 0 
L 184 0 
L 184 331 
L 738 331 
L 738 4531 
L 184 4531 
L 184 4863 
L 1313 4863 
L 1313 331 
z
" transform="scale(0.015625)"/>
       <path id="DejaVuSerif-6e" d="M 263 0 
L 263 331 
L 781 331 
L 781 2988 
L 231 2988 
L 231 3322 
L 1356 3322 
L 1356 2731 
Q 1516 3069 1770 3241 
Q 2025 3413 2363 3413 
Q 2913 3413 3172 3097 
Q 3431 2781 3431 2113 
L 3431 331 
L 3944 331 
L 3944 0 
L 2356 0 
L 2356 331 
L 2853 331 
L 2853 1931 
Q 2853 2541 2703 2767 
Q 2553 2994 2175 2994 
Q 1775 2994 1565 2701 
Q 1356 2409 1356 1850 
L 1356 331 
L 1856 331 
L 1856 0 
L 263 0 
z
" transform="scale(0.015625)"/>
       <path id="DejaVuSerif-20" transform="scale(0.015625)"/>
       <path id="DejaVuSerif-28" d="M 2041 -997 
Q 1281 -656 893 83 
Q 506 822 506 1931 
Q 506 3044 893 3783 
Q 1281 4522 2041 4863 
L 2041 4556 
Q 1559 4225 1350 3623 
Q 1141 3022 1141 1931 
Q 1141 844 1350 242 
Q 1559 -359 2041 -691 
L 2041 -997 
z
" transform="scale(0.015625)"/>
       <path id="DejaVuSerif-25" d="M 1434 4459 
Q 1159 4459 1004 4200 
Q 850 3941 850 3475 
Q 850 3016 1008 2753 
Q 1166 2491 1434 2491 
Q 1700 2491 1854 2752 
Q 2009 3013 2009 3475 
Q 2009 3938 1854 4198 
Q 1700 4459 1434 4459 
z
M 4653 2169 
Q 4381 2169 4226 1906 
Q 4072 1644 4072 1178 
Q 4072 719 4228 458 
Q 4384 197 4653 197 
Q 4922 197 5075 458 
Q 5228 719 5228 1178 
Q 5228 1641 5073 1905 
Q 4919 2169 4653 2169 
z
M 4653 2450 
Q 5147 2450 5437 2106 
Q 5728 1763 5728 1178 
Q 5728 594 5436 251 
Q 5144 -91 4653 -91 
Q 4153 -91 3862 251 
Q 3572 594 3572 1178 
Q 3572 1766 3864 2108 
Q 4156 2450 4653 2450 
z
M 4263 4750 
L 4738 4750 
L 1819 -91 
L 1344 -91 
L 4263 4750 
z
M 1428 4750 
Q 1922 4750 2215 4408 
Q 2509 4066 2509 3481 
Q 2509 2891 2217 2550 
Q 1925 2209 1428 2209 
Q 931 2209 642 2551 
Q 353 2894 353 3481 
Q 353 4063 643 4406 
Q 934 4750 1428 4750 
z
" transform="scale(0.015625)"/>
       <path id="DejaVuSerif-29" d="M 453 -997 
L 453 -691 
Q 934 -359 1145 242 
Q 1356 844 1356 1931 
Q 1356 3022 1145 3623 
Q 934 4225 453 4556 
L 453 4863 
Q 1216 4522 1603 3783 
Q 1991 3044 1991 1931 
Q 1991 822 1603 83 
Q 1216 -656 453 -997 
z
" transform="scale(0.015625)"/>
      </defs>
      <use xlink:href="#DejaVuSerif-43"/>
      <use xlink:href="#DejaVuSerif-75" x="76.513672"/>
      <use xlink:href="#DejaVuSerif-72" x="140.917969"/>
      <use xlink:href="#DejaVuSerif-74" x="188.720703"/>
      <use xlink:href="#DejaVuSerif-61" x="228.90625"/>
      <use xlink:href="#DejaVuSerif-69" x="288.525391"/>
      <use xlink:href="#DejaVuSerif-6c" x="320.507812"/>
      <use xlink:href="#DejaVuSerif-6d" x="352.490234"/>
      <use xlink:href="#DejaVuSerif-65" x="447.314453"/>
      <use xlink:href="#DejaVuSerif-6e" x="506.494141"/>
      <use xlink:href="#DejaVuSerif-74" x="570.898438"/>
      <use xlink:href="#DejaVuSerif-20" x="611.083984"/>
      <use xlink:href="#DejaVuSerif-28" x="642.871094"/>
      <use xlink:href="#DejaVuSerif-25" x="681.884766"/>
      <use xlink:href="#DejaVuSerif-29" x="776.904297"/>
     </g>
    </g>
   </g>
   <g id="line2d_25">
    <path d="M 35.80375 106.81371 
L 83.266234 106.813711 
L 83.776583 27.236474 
L 85.307631 27.236474 
L 85.817981 106.813711 
L 95.004268 106.813711 
L 95.514617 27.236474 
L 97.556014 27.236474 
L 98.066364 106.813711 
L 145.018498 106.813711 
L 145.528848 77.008544 
L 146.039197 80.633579 
L 146.549546 106.813711 
L 163.391073 106.813711 
L 163.391073 106.813711 
" clip-path="url(#pbaaa5f0227)" style="fill: none; stroke: #66c2a5; stroke-linecap: round"/>
   </g>
   <g id="line2d_26">
    <path d="M 35.80375 106.813711 
L 51.624578 106.813711 
L 53.155626 93.536053 
L 53.665975 102.214159 
L 54.176324 106.813711 
L 83.266234 106.813711 
L 83.776583 27.236474 
L 85.307631 27.236474 
L 85.817981 106.813711 
L 91.431823 106.813711 
L 91.942172 98.336031 
L 92.452521 96.557884 
L 92.962871 97.9319 
L 93.47322 98.2584 
L 93.983569 97.613415 
L 94.493919 93.414012 
L 95.004268 91.316172 
L 95.514617 27.236474 
L 97.556014 27.236474 
L 98.066364 105.189469 
L 98.576713 95.395317 
L 99.087062 93.410885 
L 99.597411 85.097867 
L 100.107761 86.797829 
L 100.61811 91.987905 
L 101.128459 90.810697 
L 101.638809 90.427148 
L 102.149158 87.097492 
L 102.659507 85.09749 
L 103.169856 91.559569 
L 103.680206 99.933429 
L 104.190555 100.797569 
L 104.700904 92.935662 
L 105.211254 93.397555 
L 105.721603 105.539821 
L 106.231952 106.813711 
L 113.376842 106.813711 
L 113.887192 103.285802 
L 114.397541 106.813711 
L 145.018498 106.813711 
L 145.528848 87.342717 
L 146.039197 103.896101 
L 146.549546 106.813711 
L 147.059896 27.236475 
L 147.570245 106.813711 
L 153.184087 106.813711 
L 154.204786 88.228177 
L 154.715135 96.112622 
L 155.225484 96.017711 
L 156.246183 106.813711 
L 159.308279 106.813711 
L 159.818628 80.448476 
L 160.328977 76.317691 
L 160.839326 70.94573 
L 161.349676 68.935584 
L 161.860025 69.832981 
L 162.370374 72.282702 
L 163.391073 95.709505 
L 163.391073 95.709505 
" clip-path="url(#pbaaa5f0227)" style="fill: none; stroke: #fc8d62; stroke-linecap: round"/>
   </g>
   <g id="line2d_27">
    <path d="M 35.80375 106.813711 
L 49.072832 106.813711 
L 50.09353 85.843055 
L 50.603879 80.886201 
L 51.114229 77.430423 
L 51.624578 76.505827 
L 52.134927 74.57372 
L 52.645277 75.281148 
L 53.155626 75.759077 
L 53.665975 76.973521 
L 55.197023 94.430409 
L 55.707372 101.900468 
L 56.217722 106.813711 
L 83.266234 106.813711 
L 83.776583 27.236474 
L 85.307631 27.236474 
L 85.817981 106.813711 
L 95.004268 106.813711 
L 95.514617 27.236474 
L 97.556014 27.236474 
L 98.066364 106.813711 
L 110.825096 106.813711 
L 111.335445 99.536638 
L 111.845794 94.942565 
L 112.356144 91.398179 
L 112.866493 83.147093 
L 113.376842 87.97018 
L 113.887192 86.974759 
L 114.397541 88.88906 
L 114.90789 88.64545 
L 115.418239 106.813711 
L 115.928589 103.13002 
L 116.438938 92.456068 
L 116.949287 91.237676 
L 117.459637 88.589663 
L 117.969986 97.893124 
L 118.990684 106.813711 
L 135.321862 106.813711 
L 135.832211 106.51678 
L 136.34256 93.333728 
L 136.85291 93.850491 
L 137.363259 93.717898 
L 137.873608 92.546963 
L 138.383958 93.530759 
L 138.894307 98.07568 
L 139.404656 95.221704 
L 139.915005 98.687921 
L 140.425355 97.627791 
L 140.935704 98.446948 
L 141.446053 94.199187 
L 141.956403 86.478867 
L 142.977101 83.84523 
L 143.48745 82.692384 
L 143.9978 79.790018 
L 144.508149 88.468595 
L 145.018498 106.813711 
L 145.528848 94.757482 
L 146.039197 103.132107 
L 146.549546 106.813711 
L 147.059896 96.364786 
L 147.570245 72.314609 
L 148.080594 70.736692 
L 148.590943 67.098726 
L 149.101293 67.364134 
L 149.611642 67.916324 
L 150.121991 68.292359 
L 150.632341 68.360189 
L 151.14269 67.929841 
L 151.653039 68.057706 
L 152.163388 69.576462 
L 152.673738 69.545062 
L 153.184087 69.361499 
L 153.694436 70.35907 
L 154.715135 68.500785 
L 155.225484 69.20367 
L 155.735833 70.98887 
L 156.246183 73.291743 
L 156.756532 76.219427 
L 157.266881 83.876648 
L 157.777231 85.321953 
L 158.28758 87.308421 
L 158.797929 85.989636 
L 159.818628 75.01896 
L 160.328977 73.21267 
L 160.839326 73.846578 
L 161.349676 72.191057 
L 161.860025 72.11418 
L 162.370374 74.262045 
L 163.391073 77.160598 
L 163.391073 77.160598 
" clip-path="url(#pbaaa5f0227)" style="fill: none; stroke: #8da0cb; stroke-linecap: round"/>
   </g>
   <g id="line2d_28">
    <path d="M 35.80375 106.813711 
L 83.266234 106.813711 
L 83.776583 27.236474 
L 85.307631 27.236474 
L 85.817981 106.813711 
L 95.004268 106.813711 
L 95.514617 27.236474 
L 97.556014 27.236474 
L 98.066364 106.813711 
L 145.018498 106.813711 
L 145.528848 102.250857 
L 146.039197 105.152641 
L 147.059896 27.236474 
L 147.570245 106.813711 
L 163.391073 106.813711 
L 163.391073 106.813711 
" clip-path="url(#pbaaa5f0227)" style="fill: none; stroke: #e78ac3; stroke-linecap: round"/>
   </g>
   <g id="line2d_29">
    <path d="M 35.80375 94.075106 
L 36.314099 93.827172 
L 36.824449 92.931367 
L 37.334798 91.38341 
L 37.845147 82.351742 
L 38.355496 76.561002 
L 38.865846 77.858152 
L 39.376195 97.279617 
L 39.886544 94.042179 
L 40.396894 89.305024 
L 40.907243 91.909078 
L 41.417592 27.236479 
L 43.458989 27.236483 
L 43.969339 106.813711 
L 52.134927 106.813711 
L 53.155626 89.829594 
L 53.665975 91.728315 
L 54.176324 98.838629 
L 54.686674 44.34295 
L 55.197023 43.192444 
L 55.707372 83.262676 
L 56.217722 77.920155 
L 56.728071 78.340793 
L 57.23842 81.800576 
L 57.74877 81.953592 
L 58.259119 82.748233 
L 58.769468 85.351513 
L 59.279817 95.947765 
L 59.790167 97.338742 
L 60.300516 89.820303 
L 60.810865 93.997357 
L 61.321215 106.813711 
L 78.162741 106.813711 
L 78.67309 105.105344 
L 79.18344 106.813711 
L 105.721603 106.813711 
L 106.231952 105.947958 
L 106.742301 106.753723 
L 107.763 106.813711 
L 108.273349 100.678152 
L 109.294048 94.991102 
L 109.804397 103.36429 
L 110.314747 106.813711 
L 110.825096 106.813711 
L 111.335445 92.706428 
L 111.845794 86.184662 
L 112.356144 86.477216 
L 112.866493 90.253622 
L 113.376842 78.694421 
L 113.887192 71.924865 
L 114.397541 68.535745 
L 114.90789 68.334896 
L 115.418239 66.097399 
L 115.928589 64.884422 
L 116.438938 64.617922 
L 116.949287 65.556018 
L 117.969986 71.164266 
L 118.480335 71.092798 
L 118.990684 72.993688 
L 119.501034 73.981254 
L 120.011383 77.304897 
L 120.521732 83.550906 
L 121.032082 81.983679 
L 121.542431 85.072957 
L 122.05278 84.191285 
L 122.56313 83.05138 
L 123.073479 81.255146 
L 123.583828 81.782182 
L 124.094177 86.195036 
L 124.604527 101.043235 
L 125.114876 98.154643 
L 125.625225 99.200497 
L 126.135575 94.933845 
L 126.645924 99.483902 
L 127.156273 106.813711 
L 128.176972 106.813711 
L 128.687321 105.149632 
L 129.19767 91.866721 
L 129.70802 94.122003 
L 130.218369 106.813711 
L 163.391073 106.813711 
L 163.391073 106.813711 
" clip-path="url(#pbaaa5f0227)" style="fill: none; stroke: #a6d854; stroke-linecap: round"/>
   </g>
   <g id="patch_3">
    <path d="M 35.80375 106.813711 
L 35.80375 19.27875 
" style="fill: none; stroke: #cccccc; stroke-linejoin: miter; stroke-linecap: square"/>
   </g>
   <g id="patch_4">
    <path d="M 163.391073 106.813711 
L 163.391073 19.27875 
" style="fill: none; stroke: #cccccc; stroke-linejoin: miter; stroke-linecap: square"/>
   </g>
   <g id="patch_5">
    <path d="M 35.80375 106.813711 
L 163.391073 106.813711 
" style="fill: none; stroke: #cccccc; stroke-linejoin: miter; stroke-linecap: square"/>
   </g>
   <g id="patch_6">
    <path d="M 35.80375 19.27875 
L 163.391073 19.27875 
" style="fill: none; stroke: #cccccc; stroke-linejoin: miter; stroke-linecap: square"/>
   </g>
   <g id="text_15">
    <!-- Curtailment -->
    <g style="fill: #262626" transform="translate(75.153036 13.27875) scale(0.08 -0.08)">
     <use xlink:href="#DejaVuSerif-43"/>
     <use xlink:href="#DejaVuSerif-75" x="76.513672"/>
     <use xlink:href="#DejaVuSerif-72" x="140.917969"/>
     <use xlink:href="#DejaVuSerif-74" x="188.720703"/>
     <use xlink:href="#DejaVuSerif-61" x="228.90625"/>
     <use xlink:href="#DejaVuSerif-69" x="288.525391"/>
     <use xlink:href="#DejaVuSerif-6c" x="320.507812"/>
     <use xlink:href="#DejaVuSerif-6d" x="352.490234"/>
     <use xlink:href="#DejaVuSerif-65" x="447.314453"/>
     <use xlink:href="#DejaVuSerif-6e" x="506.494141"/>
     <use xlink:href="#DejaVuSerif-74" x="570.898438"/>
    </g>
   </g>
   <g id="legend_1">
    <g id="line2d_30">
     <path d="M 171.342819 44.654355 
L 177.342819 44.654355 
L 183.342819 44.654355 
" style="fill: none; stroke: #66c2a5; stroke-linecap: round"/>
    </g>
    <g id="text_16">
     <!-- BE2 -->
     <g style="fill: #262626" transform="translate(188.142819 46.754355) scale(0.06 -0.06)">
      <defs>
       <path id="DejaVuSerif-42" d="M 1581 331 
L 2516 331 
Q 3078 331 3337 575 
Q 3597 819 3597 1350 
Q 3597 1878 3339 2120 
Q 3081 2363 2516 2363 
L 1581 2363 
L 1581 331 
z
M 1581 2694 
L 2375 2694 
Q 2888 2694 3123 2891 
Q 3359 3088 3359 3513 
Q 3359 3941 3123 4136 
Q 2888 4331 2375 4331 
L 1581 4331 
L 1581 2694 
z
M 353 0 
L 353 331 
L 947 331 
L 947 4331 
L 353 4331 
L 353 4666 
L 2656 4666 
Q 3363 4666 3720 4377 
Q 4078 4088 4078 3513 
Q 4078 3097 3829 2850 
Q 3581 2603 3103 2547 
Q 3697 2472 4005 2167 
Q 4313 1863 4313 1350 
Q 4313 656 3875 328 
Q 3438 0 2509 0 
L 353 0 
z
" transform="scale(0.015625)"/>
       <path id="DejaVuSerif-45" d="M 353 0 
L 353 331 
L 947 331 
L 947 4331 
L 353 4331 
L 353 4666 
L 4109 4666 
L 4109 3628 
L 3725 3628 
L 3725 4281 
L 1581 4281 
L 1581 2719 
L 3109 2719 
L 3109 3303 
L 3494 3303 
L 3494 1753 
L 3109 1753 
L 3109 2338 
L 1581 2338 
L 1581 384 
L 3775 384 
L 3775 1038 
L 4159 1038 
L 4159 0 
L 353 0 
z
" transform="scale(0.015625)"/>
      </defs>
      <use xlink:href="#DejaVuSerif-42"/>
      <use xlink:href="#DejaVuSerif-45" x="73.486328"/>
      <use xlink:href="#DejaVuSerif-32" x="146.484375"/>
     </g>
    </g>
    <g id="line2d_31">
     <path d="M 171.342819 53.46123 
L 177.342819 53.46123 
L 183.342819 53.46123 
" style="fill: none; stroke: #fc8d62; stroke-linecap: round"/>
    </g>
    <g id="text_17">
     <!-- OFW_DEC -->
     <g style="fill: #262626" transform="translate(188.142819 55.56123) scale(0.06 -0.06)">
      <defs>
       <path id="DejaVuSerif-4f" d="M 2625 244 
Q 3391 244 3781 770 
Q 4172 1297 4172 2328 
Q 4172 3363 3781 3889 
Q 3391 4416 2625 4416 
Q 1856 4416 1465 3889 
Q 1075 3363 1075 2328 
Q 1075 1297 1465 770 
Q 1856 244 2625 244 
z
M 2625 -91 
Q 2150 -91 1751 65 
Q 1353 222 1050 525 
Q 700 875 529 1319 
Q 359 1763 359 2328 
Q 359 2894 529 3339 
Q 700 3784 1050 4134 
Q 1356 4441 1750 4595 
Q 2144 4750 2625 4750 
Q 3641 4750 4266 4084 
Q 4891 3419 4891 2328 
Q 4891 1769 4719 1320 
Q 4547 872 4197 525 
Q 3891 219 3497 64 
Q 3103 -91 2625 -91 
z
" transform="scale(0.015625)"/>
       <path id="DejaVuSerif-46" d="M 353 0 
L 353 331 
L 947 331 
L 947 4331 
L 353 4331 
L 353 4666 
L 4172 4666 
L 4172 3628 
L 3788 3628 
L 3788 4281 
L 1581 4281 
L 1581 2719 
L 3175 2719 
L 3175 3303 
L 3559 3303 
L 3559 1753 
L 3175 1753 
L 3175 2338 
L 1581 2338 
L 1581 331 
L 2328 331 
L 2328 0 
L 353 0 
z
" transform="scale(0.015625)"/>
       <path id="DejaVuSerif-57" d="M 4878 0 
L 4366 0 
L 3297 3794 
L 2228 0 
L 1716 0 
L 494 4331 
L 31 4331 
L 31 4666 
L 1734 4666 
L 1734 4331 
L 1153 4331 
L 2125 884 
L 3188 4666 
L 3694 4666 
L 4775 844 
L 5753 4331 
L 5216 4331 
L 5216 4666 
L 6559 4666 
L 6559 4331 
L 6100 4331 
L 4878 0 
z
" transform="scale(0.015625)"/>
       <path id="DejaVuSerif-5f" d="M 3200 -1259 
L 3200 -1509 
L 0 -1509 
L 0 -1259 
L 3200 -1259 
z
" transform="scale(0.015625)"/>
       <path id="DejaVuSerif-44" d="M 1581 331 
L 2163 331 
Q 3072 331 3558 850 
Q 4044 1369 4044 2338 
Q 4044 3306 3559 3818 
Q 3075 4331 2163 4331 
L 1581 4331 
L 1581 331 
z
M 353 0 
L 353 331 
L 947 331 
L 947 4331 
L 353 4331 
L 353 4666 
L 2209 4666 
Q 3416 4666 4089 4050 
Q 4763 3434 4763 2338 
Q 4763 1238 4088 619 
Q 3413 0 2209 0 
L 353 0 
z
" transform="scale(0.015625)"/>
      </defs>
      <use xlink:href="#DejaVuSerif-4f"/>
      <use xlink:href="#DejaVuSerif-46" x="81.982422"/>
      <use xlink:href="#DejaVuSerif-57" x="151.367188"/>
      <use xlink:href="#DejaVuSerif-5f" x="254.150391"/>
      <use xlink:href="#DejaVuSerif-44" x="304.150391"/>
      <use xlink:href="#DejaVuSerif-45" x="384.326172"/>
      <use xlink:href="#DejaVuSerif-43" x="457.324219"/>
     </g>
    </g>
    <g id="line2d_32">
     <path d="M 171.342819 62.43498 
L 177.342819 62.43498 
L 183.342819 62.43498 
" style="fill: none; stroke: #8da0cb; stroke-linecap: round"/>
    </g>
    <g id="text_18">
     <!-- OFW_DK -->
     <g style="fill: #262626" transform="translate(188.142819 64.53498) scale(0.06 -0.06)">
      <defs>
       <path id="DejaVuSerif-4b" d="M 353 0 
L 353 331 
L 947 331 
L 947 4331 
L 353 4331 
L 353 4666 
L 2175 4666 
L 2175 4331 
L 1581 4331 
L 1581 2566 
L 3591 4331 
L 3084 4331 
L 3084 4666 
L 4634 4666 
L 4634 4331 
L 4109 4331 
L 2106 2572 
L 4347 331 
L 4878 331 
L 4878 0 
L 3794 0 
L 1581 2216 
L 1581 331 
L 2175 331 
L 2175 0 
L 353 0 
z
" transform="scale(0.015625)"/>
      </defs>
      <use xlink:href="#DejaVuSerif-4f"/>
      <use xlink:href="#DejaVuSerif-46" x="81.982422"/>
      <use xlink:href="#DejaVuSerif-57" x="151.367188"/>
      <use xlink:href="#DejaVuSerif-5f" x="254.150391"/>
      <use xlink:href="#DejaVuSerif-44" x="304.150391"/>
      <use xlink:href="#DejaVuSerif-4b" x="384.326172"/>
     </g>
    </g>
    <g id="line2d_33">
     <path d="M 171.342819 71.40873 
L 177.342819 71.40873 
L 183.342819 71.40873 
" style="fill: none; stroke: #e78ac3; stroke-linecap: round"/>
    </g>
    <g id="text_19">
     <!-- OFW_NL -->
     <g style="fill: #262626" transform="translate(188.142819 73.50873) scale(0.06 -0.06)">
      <defs>
       <path id="DejaVuSerif-4e" d="M 313 0 
L 313 331 
L 941 331 
L 941 4331 
L 313 4331 
L 313 4666 
L 1509 4666 
L 4306 984 
L 4306 4331 
L 3681 4331 
L 3681 4666 
L 5319 4666 
L 5319 4331 
L 4691 4331 
L 4691 -91 
L 4313 -91 
L 1325 3841 
L 1325 331 
L 1953 331 
L 1953 0 
L 313 0 
z
" transform="scale(0.015625)"/>
       <path id="DejaVuSerif-4c" d="M 353 0 
L 353 331 
L 947 331 
L 947 4331 
L 353 4331 
L 353 4666 
L 2175 4666 
L 2175 4331 
L 1581 4331 
L 1581 384 
L 3713 384 
L 3713 1166 
L 4097 1166 
L 4097 0 
L 353 0 
z
" transform="scale(0.015625)"/>
      </defs>
      <use xlink:href="#DejaVuSerif-4f"/>
      <use xlink:href="#DejaVuSerif-46" x="81.982422"/>
      <use xlink:href="#DejaVuSerif-57" x="151.367188"/>
      <use xlink:href="#DejaVuSerif-5f" x="254.150391"/>
      <use xlink:href="#DejaVuSerif-4e" x="304.150391"/>
      <use xlink:href="#DejaVuSerif-4c" x="391.650391"/>
     </g>
    </g>
    <g id="line2d_34">
     <path d="M 171.342819 80.38248 
L 177.342819 80.38248 
L 183.342819 80.38248 
" style="fill: none; stroke: #a6d854; stroke-linecap: round"/>
    </g>
    <g id="text_20">
     <!-- OFW_NO -->
     <g style="fill: #262626" transform="translate(188.142819 82.48248) scale(0.06 -0.06)">
      <use xlink:href="#DejaVuSerif-4f"/>
      <use xlink:href="#DejaVuSerif-46" x="81.982422"/>
      <use xlink:href="#DejaVuSerif-57" x="151.367188"/>
      <use xlink:href="#DejaVuSerif-5f" x="254.150391"/>
      <use xlink:href="#DejaVuSerif-4e" x="304.150391"/>
      <use xlink:href="#DejaVuSerif-4f" x="391.650391"/>
     </g>
    </g>
   </g>
  </g>
 </g>
 <defs>
  <clipPath id="pbaaa5f0227">
   <rect x="35.80375" y="19.27875" width="127.587323" height="87.534961"/>
  </clipPath>
 </defs>
</svg>
